G04 #@! TF.GenerationSoftware,KiCad,Pcbnew,(5.1.5)-3*
G04 #@! TF.CreationDate,2020-06-05T23:08:29+02:00*
G04 #@! TF.ProjectId,STM32F030K6Tx_Breakout,53544d33-3246-4303-9330-4b3654785f42,rev?*
G04 #@! TF.SameCoordinates,Original*
G04 #@! TF.FileFunction,Legend,Top*
G04 #@! TF.FilePolarity,Positive*
%FSLAX46Y46*%
G04 Gerber Fmt 4.6, Leading zero omitted, Abs format (unit mm)*
G04 Created by KiCad (PCBNEW (5.1.5)-3) date 2020-06-05 23:08:29*
%MOMM*%
%LPD*%
G04 APERTURE LIST*
%ADD10C,0.150000*%
%ADD11C,0.300000*%
%ADD12C,0.200000*%
%ADD13C,0.120000*%
G04 APERTURE END LIST*
D10*
X97075952Y-58793571D02*
X97218809Y-58841190D01*
X97266428Y-58888809D01*
X97314047Y-58984047D01*
X97314047Y-59126904D01*
X97266428Y-59222142D01*
X97218809Y-59269761D01*
X97123571Y-59317380D01*
X96742619Y-59317380D01*
X96742619Y-58317380D01*
X97075952Y-58317380D01*
X97171190Y-58365000D01*
X97218809Y-58412619D01*
X97266428Y-58507857D01*
X97266428Y-58603095D01*
X97218809Y-58698333D01*
X97171190Y-58745952D01*
X97075952Y-58793571D01*
X96742619Y-58793571D01*
X97933095Y-58317380D02*
X98028333Y-58317380D01*
X98123571Y-58365000D01*
X98171190Y-58412619D01*
X98218809Y-58507857D01*
X98266428Y-58698333D01*
X98266428Y-58936428D01*
X98218809Y-59126904D01*
X98171190Y-59222142D01*
X98123571Y-59269761D01*
X98028333Y-59317380D01*
X97933095Y-59317380D01*
X97837857Y-59269761D01*
X97790238Y-59222142D01*
X97742619Y-59126904D01*
X97695000Y-58936428D01*
X97695000Y-58698333D01*
X97742619Y-58507857D01*
X97790238Y-58412619D01*
X97837857Y-58365000D01*
X97933095Y-58317380D01*
X98695000Y-58936428D02*
X99456904Y-58936428D01*
X99933095Y-58650714D02*
X100695000Y-58936428D01*
X99933095Y-59222142D01*
X101171190Y-59317380D02*
X101171190Y-58317380D01*
X101409285Y-58317380D01*
X101552142Y-58365000D01*
X101647380Y-58460238D01*
X101695000Y-58555476D01*
X101742619Y-58745952D01*
X101742619Y-58888809D01*
X101695000Y-59079285D01*
X101647380Y-59174523D01*
X101552142Y-59269761D01*
X101409285Y-59317380D01*
X101171190Y-59317380D01*
X102695000Y-59317380D02*
X102123571Y-59317380D01*
X102409285Y-59317380D02*
X102409285Y-58317380D01*
X102314047Y-58460238D01*
X102218809Y-58555476D01*
X102123571Y-58603095D01*
X97075952Y-60443571D02*
X97218809Y-60491190D01*
X97266428Y-60538809D01*
X97314047Y-60634047D01*
X97314047Y-60776904D01*
X97266428Y-60872142D01*
X97218809Y-60919761D01*
X97123571Y-60967380D01*
X96742619Y-60967380D01*
X96742619Y-59967380D01*
X97075952Y-59967380D01*
X97171190Y-60015000D01*
X97218809Y-60062619D01*
X97266428Y-60157857D01*
X97266428Y-60253095D01*
X97218809Y-60348333D01*
X97171190Y-60395952D01*
X97075952Y-60443571D01*
X96742619Y-60443571D01*
X98266428Y-60967380D02*
X97695000Y-60967380D01*
X97980714Y-60967380D02*
X97980714Y-59967380D01*
X97885476Y-60110238D01*
X97790238Y-60205476D01*
X97695000Y-60253095D01*
X98695000Y-60586428D02*
X99456904Y-60586428D01*
X99933095Y-60300714D02*
X100695000Y-60586428D01*
X99933095Y-60872142D01*
X101171190Y-60967380D02*
X101171190Y-59967380D01*
X101409285Y-59967380D01*
X101552142Y-60015000D01*
X101647380Y-60110238D01*
X101695000Y-60205476D01*
X101742619Y-60395952D01*
X101742619Y-60538809D01*
X101695000Y-60729285D01*
X101647380Y-60824523D01*
X101552142Y-60919761D01*
X101409285Y-60967380D01*
X101171190Y-60967380D01*
X102123571Y-60062619D02*
X102171190Y-60015000D01*
X102266428Y-59967380D01*
X102504523Y-59967380D01*
X102599761Y-60015000D01*
X102647380Y-60062619D01*
X102695000Y-60157857D01*
X102695000Y-60253095D01*
X102647380Y-60395952D01*
X102075952Y-60967380D01*
X102695000Y-60967380D01*
D11*
X105260714Y-75288571D02*
X105317857Y-75117142D01*
X105317857Y-74831428D01*
X105260714Y-74717142D01*
X105203571Y-74660000D01*
X105089285Y-74602857D01*
X104975000Y-74602857D01*
X104860714Y-74660000D01*
X104803571Y-74717142D01*
X104746428Y-74831428D01*
X104689285Y-75060000D01*
X104632142Y-75174285D01*
X104575000Y-75231428D01*
X104460714Y-75288571D01*
X104346428Y-75288571D01*
X104232142Y-75231428D01*
X104175000Y-75174285D01*
X104117857Y-75060000D01*
X104117857Y-74774285D01*
X104175000Y-74602857D01*
X104117857Y-74202857D02*
X105317857Y-73917142D01*
X104460714Y-73688571D01*
X105317857Y-73460000D01*
X104117857Y-73174285D01*
X105317857Y-72717142D02*
X104117857Y-72717142D01*
X104117857Y-72431428D01*
X104175000Y-72260000D01*
X104289285Y-72145714D01*
X104403571Y-72088571D01*
X104632142Y-72031428D01*
X104803571Y-72031428D01*
X105032142Y-72088571D01*
X105146428Y-72145714D01*
X105260714Y-72260000D01*
X105317857Y-72431428D01*
X105317857Y-72717142D01*
X114207857Y-74317142D02*
X113636428Y-74717142D01*
X114207857Y-75002857D02*
X113007857Y-75002857D01*
X113007857Y-74545714D01*
X113065000Y-74431428D01*
X113122142Y-74374285D01*
X113236428Y-74317142D01*
X113407857Y-74317142D01*
X113522142Y-74374285D01*
X113579285Y-74431428D01*
X113636428Y-74545714D01*
X113636428Y-75002857D01*
X114150714Y-73860000D02*
X114207857Y-73688571D01*
X114207857Y-73402857D01*
X114150714Y-73288571D01*
X114093571Y-73231428D01*
X113979285Y-73174285D01*
X113865000Y-73174285D01*
X113750714Y-73231428D01*
X113693571Y-73288571D01*
X113636428Y-73402857D01*
X113579285Y-73631428D01*
X113522142Y-73745714D01*
X113465000Y-73802857D01*
X113350714Y-73860000D01*
X113236428Y-73860000D01*
X113122142Y-73802857D01*
X113065000Y-73745714D01*
X113007857Y-73631428D01*
X113007857Y-73345714D01*
X113065000Y-73174285D01*
X113007857Y-72831428D02*
X113007857Y-72145714D01*
X114207857Y-72488571D02*
X113007857Y-72488571D01*
D10*
X97242619Y-37869761D02*
X97385476Y-37917380D01*
X97623571Y-37917380D01*
X97718809Y-37869761D01*
X97766428Y-37822142D01*
X97814047Y-37726904D01*
X97814047Y-37631666D01*
X97766428Y-37536428D01*
X97718809Y-37488809D01*
X97623571Y-37441190D01*
X97433095Y-37393571D01*
X97337857Y-37345952D01*
X97290238Y-37298333D01*
X97242619Y-37203095D01*
X97242619Y-37107857D01*
X97290238Y-37012619D01*
X97337857Y-36965000D01*
X97433095Y-36917380D01*
X97671190Y-36917380D01*
X97814047Y-36965000D01*
X98814047Y-37822142D02*
X98766428Y-37869761D01*
X98623571Y-37917380D01*
X98528333Y-37917380D01*
X98385476Y-37869761D01*
X98290238Y-37774523D01*
X98242619Y-37679285D01*
X98195000Y-37488809D01*
X98195000Y-37345952D01*
X98242619Y-37155476D01*
X98290238Y-37060238D01*
X98385476Y-36965000D01*
X98528333Y-36917380D01*
X98623571Y-36917380D01*
X98766428Y-36965000D01*
X98814047Y-37012619D01*
X99242619Y-37917380D02*
X99242619Y-36917380D01*
X99242619Y-37393571D02*
X99814047Y-37393571D01*
X99814047Y-37917380D02*
X99814047Y-36917380D01*
X100290238Y-37917380D02*
X100290238Y-36917380D01*
X101242619Y-37917380D02*
X100766428Y-37917380D01*
X100766428Y-36917380D01*
X101575952Y-37917380D02*
X101575952Y-36917380D01*
X102147380Y-37917380D02*
X101718809Y-37345952D01*
X102147380Y-36917380D02*
X101575952Y-37488809D01*
X119604404Y-36655000D02*
X119509166Y-36607380D01*
X119366309Y-36607380D01*
X119223452Y-36655000D01*
X119128214Y-36750238D01*
X119080595Y-36845476D01*
X119032976Y-37035952D01*
X119032976Y-37178809D01*
X119080595Y-37369285D01*
X119128214Y-37464523D01*
X119223452Y-37559761D01*
X119366309Y-37607380D01*
X119461547Y-37607380D01*
X119604404Y-37559761D01*
X119652023Y-37512142D01*
X119652023Y-37178809D01*
X119461547Y-37178809D01*
X120080595Y-37607380D02*
X120080595Y-36607380D01*
X120652023Y-37607380D01*
X120652023Y-36607380D01*
X121128214Y-37607380D02*
X121128214Y-36607380D01*
X121366309Y-36607380D01*
X121509166Y-36655000D01*
X121604404Y-36750238D01*
X121652023Y-36845476D01*
X121699642Y-37035952D01*
X121699642Y-37178809D01*
X121652023Y-37369285D01*
X121604404Y-37464523D01*
X121509166Y-37559761D01*
X121366309Y-37607380D01*
X121128214Y-37607380D01*
X119413928Y-38733571D02*
X119556785Y-38781190D01*
X119604404Y-38828809D01*
X119652023Y-38924047D01*
X119652023Y-39066904D01*
X119604404Y-39162142D01*
X119556785Y-39209761D01*
X119461547Y-39257380D01*
X119080595Y-39257380D01*
X119080595Y-38257380D01*
X119413928Y-38257380D01*
X119509166Y-38305000D01*
X119556785Y-38352619D01*
X119604404Y-38447857D01*
X119604404Y-38543095D01*
X119556785Y-38638333D01*
X119509166Y-38685952D01*
X119413928Y-38733571D01*
X119080595Y-38733571D01*
X120271071Y-38257380D02*
X120461547Y-38257380D01*
X120556785Y-38305000D01*
X120652023Y-38400238D01*
X120699642Y-38590714D01*
X120699642Y-38924047D01*
X120652023Y-39114523D01*
X120556785Y-39209761D01*
X120461547Y-39257380D01*
X120271071Y-39257380D01*
X120175833Y-39209761D01*
X120080595Y-39114523D01*
X120032976Y-38924047D01*
X120032976Y-38590714D01*
X120080595Y-38400238D01*
X120175833Y-38305000D01*
X120271071Y-38257380D01*
X120985357Y-38257380D02*
X121556785Y-38257380D01*
X121271071Y-39257380D02*
X121271071Y-38257380D01*
X119413928Y-40383571D02*
X119556785Y-40431190D01*
X119604404Y-40478809D01*
X119652023Y-40574047D01*
X119652023Y-40716904D01*
X119604404Y-40812142D01*
X119556785Y-40859761D01*
X119461547Y-40907380D01*
X119080595Y-40907380D01*
X119080595Y-39907380D01*
X119413928Y-39907380D01*
X119509166Y-39955000D01*
X119556785Y-40002619D01*
X119604404Y-40097857D01*
X119604404Y-40193095D01*
X119556785Y-40288333D01*
X119509166Y-40335952D01*
X119413928Y-40383571D01*
X119080595Y-40383571D01*
X119985357Y-39907380D02*
X120652023Y-39907380D01*
X120223452Y-40907380D01*
X119413928Y-42033571D02*
X119556785Y-42081190D01*
X119604404Y-42128809D01*
X119652023Y-42224047D01*
X119652023Y-42366904D01*
X119604404Y-42462142D01*
X119556785Y-42509761D01*
X119461547Y-42557380D01*
X119080595Y-42557380D01*
X119080595Y-41557380D01*
X119413928Y-41557380D01*
X119509166Y-41605000D01*
X119556785Y-41652619D01*
X119604404Y-41747857D01*
X119604404Y-41843095D01*
X119556785Y-41938333D01*
X119509166Y-41985952D01*
X119413928Y-42033571D01*
X119080595Y-42033571D01*
X120509166Y-41557380D02*
X120318690Y-41557380D01*
X120223452Y-41605000D01*
X120175833Y-41652619D01*
X120080595Y-41795476D01*
X120032976Y-41985952D01*
X120032976Y-42366904D01*
X120080595Y-42462142D01*
X120128214Y-42509761D01*
X120223452Y-42557380D01*
X120413928Y-42557380D01*
X120509166Y-42509761D01*
X120556785Y-42462142D01*
X120604404Y-42366904D01*
X120604404Y-42128809D01*
X120556785Y-42033571D01*
X120509166Y-41985952D01*
X120413928Y-41938333D01*
X120223452Y-41938333D01*
X120128214Y-41985952D01*
X120080595Y-42033571D01*
X120032976Y-42128809D01*
X119413928Y-43683571D02*
X119556785Y-43731190D01*
X119604404Y-43778809D01*
X119652023Y-43874047D01*
X119652023Y-44016904D01*
X119604404Y-44112142D01*
X119556785Y-44159761D01*
X119461547Y-44207380D01*
X119080595Y-44207380D01*
X119080595Y-43207380D01*
X119413928Y-43207380D01*
X119509166Y-43255000D01*
X119556785Y-43302619D01*
X119604404Y-43397857D01*
X119604404Y-43493095D01*
X119556785Y-43588333D01*
X119509166Y-43635952D01*
X119413928Y-43683571D01*
X119080595Y-43683571D01*
X120556785Y-43207380D02*
X120080595Y-43207380D01*
X120032976Y-43683571D01*
X120080595Y-43635952D01*
X120175833Y-43588333D01*
X120413928Y-43588333D01*
X120509166Y-43635952D01*
X120556785Y-43683571D01*
X120604404Y-43778809D01*
X120604404Y-44016904D01*
X120556785Y-44112142D01*
X120509166Y-44159761D01*
X120413928Y-44207380D01*
X120175833Y-44207380D01*
X120080595Y-44159761D01*
X120032976Y-44112142D01*
X119413928Y-45333571D02*
X119556785Y-45381190D01*
X119604404Y-45428809D01*
X119652023Y-45524047D01*
X119652023Y-45666904D01*
X119604404Y-45762142D01*
X119556785Y-45809761D01*
X119461547Y-45857380D01*
X119080595Y-45857380D01*
X119080595Y-44857380D01*
X119413928Y-44857380D01*
X119509166Y-44905000D01*
X119556785Y-44952619D01*
X119604404Y-45047857D01*
X119604404Y-45143095D01*
X119556785Y-45238333D01*
X119509166Y-45285952D01*
X119413928Y-45333571D01*
X119080595Y-45333571D01*
X120509166Y-45190714D02*
X120509166Y-45857380D01*
X120271071Y-44809761D02*
X120032976Y-45524047D01*
X120652023Y-45524047D01*
X119413928Y-46983571D02*
X119556785Y-47031190D01*
X119604404Y-47078809D01*
X119652023Y-47174047D01*
X119652023Y-47316904D01*
X119604404Y-47412142D01*
X119556785Y-47459761D01*
X119461547Y-47507380D01*
X119080595Y-47507380D01*
X119080595Y-46507380D01*
X119413928Y-46507380D01*
X119509166Y-46555000D01*
X119556785Y-46602619D01*
X119604404Y-46697857D01*
X119604404Y-46793095D01*
X119556785Y-46888333D01*
X119509166Y-46935952D01*
X119413928Y-46983571D01*
X119080595Y-46983571D01*
X119985357Y-46507380D02*
X120604404Y-46507380D01*
X120271071Y-46888333D01*
X120413928Y-46888333D01*
X120509166Y-46935952D01*
X120556785Y-46983571D01*
X120604404Y-47078809D01*
X120604404Y-47316904D01*
X120556785Y-47412142D01*
X120509166Y-47459761D01*
X120413928Y-47507380D01*
X120128214Y-47507380D01*
X120032976Y-47459761D01*
X119985357Y-47412142D01*
X119032976Y-48871666D02*
X119509166Y-48871666D01*
X118937738Y-49157380D02*
X119271071Y-48157380D01*
X119604404Y-49157380D01*
X120461547Y-49157380D02*
X119890119Y-49157380D01*
X120175833Y-49157380D02*
X120175833Y-48157380D01*
X120080595Y-48300238D01*
X119985357Y-48395476D01*
X119890119Y-48443095D01*
X121366309Y-48157380D02*
X120890119Y-48157380D01*
X120842500Y-48633571D01*
X120890119Y-48585952D01*
X120985357Y-48538333D01*
X121223452Y-48538333D01*
X121318690Y-48585952D01*
X121366309Y-48633571D01*
X121413928Y-48728809D01*
X121413928Y-48966904D01*
X121366309Y-49062142D01*
X121318690Y-49109761D01*
X121223452Y-49157380D01*
X120985357Y-49157380D01*
X120890119Y-49109761D01*
X120842500Y-49062142D01*
X119032976Y-50521666D02*
X119509166Y-50521666D01*
X118937738Y-50807380D02*
X119271071Y-49807380D01*
X119604404Y-50807380D01*
X120461547Y-50807380D02*
X119890119Y-50807380D01*
X120175833Y-50807380D02*
X120175833Y-49807380D01*
X120080595Y-49950238D01*
X119985357Y-50045476D01*
X119890119Y-50093095D01*
X121318690Y-50140714D02*
X121318690Y-50807380D01*
X121080595Y-49759761D02*
X120842500Y-50474047D01*
X121461547Y-50474047D01*
X121985357Y-49807380D02*
X121985357Y-50045476D01*
X121747261Y-49950238D02*
X121985357Y-50045476D01*
X122223452Y-49950238D01*
X121842500Y-50235952D02*
X121985357Y-50045476D01*
X122128214Y-50235952D01*
X119032976Y-52171666D02*
X119509166Y-52171666D01*
X118937738Y-52457380D02*
X119271071Y-51457380D01*
X119604404Y-52457380D01*
X120461547Y-52457380D02*
X119890119Y-52457380D01*
X120175833Y-52457380D02*
X120175833Y-51457380D01*
X120080595Y-51600238D01*
X119985357Y-51695476D01*
X119890119Y-51743095D01*
X120794880Y-51457380D02*
X121413928Y-51457380D01*
X121080595Y-51838333D01*
X121223452Y-51838333D01*
X121318690Y-51885952D01*
X121366309Y-51933571D01*
X121413928Y-52028809D01*
X121413928Y-52266904D01*
X121366309Y-52362142D01*
X121318690Y-52409761D01*
X121223452Y-52457380D01*
X120937738Y-52457380D01*
X120842500Y-52409761D01*
X120794880Y-52362142D01*
X121985357Y-51457380D02*
X121985357Y-51695476D01*
X121747261Y-51600238D02*
X121985357Y-51695476D01*
X122223452Y-51600238D01*
X121842500Y-51885952D02*
X121985357Y-51695476D01*
X122128214Y-51885952D01*
X119032976Y-53821666D02*
X119509166Y-53821666D01*
X118937738Y-54107380D02*
X119271071Y-53107380D01*
X119604404Y-54107380D01*
X120461547Y-54107380D02*
X119890119Y-54107380D01*
X120175833Y-54107380D02*
X120175833Y-53107380D01*
X120080595Y-53250238D01*
X119985357Y-53345476D01*
X119890119Y-53393095D01*
X120842500Y-53202619D02*
X120890119Y-53155000D01*
X120985357Y-53107380D01*
X121223452Y-53107380D01*
X121318690Y-53155000D01*
X121366309Y-53202619D01*
X121413928Y-53297857D01*
X121413928Y-53393095D01*
X121366309Y-53535952D01*
X120794880Y-54107380D01*
X121413928Y-54107380D01*
X119032976Y-55471666D02*
X119509166Y-55471666D01*
X118937738Y-55757380D02*
X119271071Y-54757380D01*
X119604404Y-55757380D01*
X120461547Y-55757380D02*
X119890119Y-55757380D01*
X120175833Y-55757380D02*
X120175833Y-54757380D01*
X120080595Y-54900238D01*
X119985357Y-54995476D01*
X119890119Y-55043095D01*
X121413928Y-55757380D02*
X120842500Y-55757380D01*
X121128214Y-55757380D02*
X121128214Y-54757380D01*
X121032976Y-54900238D01*
X120937738Y-54995476D01*
X120842500Y-55043095D01*
X119032976Y-57121666D02*
X119509166Y-57121666D01*
X118937738Y-57407380D02*
X119271071Y-56407380D01*
X119604404Y-57407380D01*
X120461547Y-57407380D02*
X119890119Y-57407380D01*
X120175833Y-57407380D02*
X120175833Y-56407380D01*
X120080595Y-56550238D01*
X119985357Y-56645476D01*
X119890119Y-56693095D01*
X121080595Y-56407380D02*
X121175833Y-56407380D01*
X121271071Y-56455000D01*
X121318690Y-56502619D01*
X121366309Y-56597857D01*
X121413928Y-56788333D01*
X121413928Y-57026428D01*
X121366309Y-57216904D01*
X121318690Y-57312142D01*
X121271071Y-57359761D01*
X121175833Y-57407380D01*
X121080595Y-57407380D01*
X120985357Y-57359761D01*
X120937738Y-57312142D01*
X120890119Y-57216904D01*
X120842500Y-57026428D01*
X120842500Y-56788333D01*
X120890119Y-56597857D01*
X120937738Y-56502619D01*
X120985357Y-56455000D01*
X121080595Y-56407380D01*
X119032976Y-58771666D02*
X119509166Y-58771666D01*
X118937738Y-59057380D02*
X119271071Y-58057380D01*
X119604404Y-59057380D01*
X119985357Y-59057380D02*
X120175833Y-59057380D01*
X120271071Y-59009761D01*
X120318690Y-58962142D01*
X120413928Y-58819285D01*
X120461547Y-58628809D01*
X120461547Y-58247857D01*
X120413928Y-58152619D01*
X120366309Y-58105000D01*
X120271071Y-58057380D01*
X120080595Y-58057380D01*
X119985357Y-58105000D01*
X119937738Y-58152619D01*
X119890119Y-58247857D01*
X119890119Y-58485952D01*
X119937738Y-58581190D01*
X119985357Y-58628809D01*
X120080595Y-58676428D01*
X120271071Y-58676428D01*
X120366309Y-58628809D01*
X120413928Y-58581190D01*
X120461547Y-58485952D01*
X119032976Y-60421666D02*
X119509166Y-60421666D01*
X118937738Y-60707380D02*
X119271071Y-59707380D01*
X119604404Y-60707380D01*
X120080595Y-60135952D02*
X119985357Y-60088333D01*
X119937738Y-60040714D01*
X119890119Y-59945476D01*
X119890119Y-59897857D01*
X119937738Y-59802619D01*
X119985357Y-59755000D01*
X120080595Y-59707380D01*
X120271071Y-59707380D01*
X120366309Y-59755000D01*
X120413928Y-59802619D01*
X120461547Y-59897857D01*
X120461547Y-59945476D01*
X120413928Y-60040714D01*
X120366309Y-60088333D01*
X120271071Y-60135952D01*
X120080595Y-60135952D01*
X119985357Y-60183571D01*
X119937738Y-60231190D01*
X119890119Y-60326428D01*
X119890119Y-60516904D01*
X119937738Y-60612142D01*
X119985357Y-60659761D01*
X120080595Y-60707380D01*
X120271071Y-60707380D01*
X120366309Y-60659761D01*
X120413928Y-60612142D01*
X120461547Y-60516904D01*
X120461547Y-60326428D01*
X120413928Y-60231190D01*
X120366309Y-60183571D01*
X120271071Y-60135952D01*
X118937738Y-61357380D02*
X119271071Y-62357380D01*
X119604404Y-61357380D01*
X120366309Y-62357380D02*
X120366309Y-61357380D01*
X120366309Y-62309761D02*
X120271071Y-62357380D01*
X120080595Y-62357380D01*
X119985357Y-62309761D01*
X119937738Y-62262142D01*
X119890119Y-62166904D01*
X119890119Y-61881190D01*
X119937738Y-61785952D01*
X119985357Y-61738333D01*
X120080595Y-61690714D01*
X120271071Y-61690714D01*
X120366309Y-61738333D01*
X121271071Y-62357380D02*
X121271071Y-61357380D01*
X121271071Y-62309761D02*
X121175833Y-62357380D01*
X120985357Y-62357380D01*
X120890119Y-62309761D01*
X120842500Y-62262142D01*
X120794880Y-62166904D01*
X120794880Y-61881190D01*
X120842500Y-61785952D01*
X120890119Y-61738333D01*
X120985357Y-61690714D01*
X121175833Y-61690714D01*
X121271071Y-61738333D01*
X115762738Y-36607380D02*
X116096071Y-37607380D01*
X116429404Y-36607380D01*
X117191309Y-37607380D02*
X117191309Y-36607380D01*
X117191309Y-37559761D02*
X117096071Y-37607380D01*
X116905595Y-37607380D01*
X116810357Y-37559761D01*
X116762738Y-37512142D01*
X116715119Y-37416904D01*
X116715119Y-37131190D01*
X116762738Y-37035952D01*
X116810357Y-36988333D01*
X116905595Y-36940714D01*
X117096071Y-36940714D01*
X117191309Y-36988333D01*
X118096071Y-37607380D02*
X118096071Y-36607380D01*
X118096071Y-37559761D02*
X118000833Y-37607380D01*
X117810357Y-37607380D01*
X117715119Y-37559761D01*
X117667500Y-37512142D01*
X117619880Y-37416904D01*
X117619880Y-37131190D01*
X117667500Y-37035952D01*
X117715119Y-36988333D01*
X117810357Y-36940714D01*
X118000833Y-36940714D01*
X118096071Y-36988333D01*
X116238928Y-38733571D02*
X115905595Y-38733571D01*
X115905595Y-39257380D02*
X115905595Y-38257380D01*
X116381785Y-38257380D01*
X116953214Y-38257380D02*
X117048452Y-38257380D01*
X117143690Y-38305000D01*
X117191309Y-38352619D01*
X117238928Y-38447857D01*
X117286547Y-38638333D01*
X117286547Y-38876428D01*
X117238928Y-39066904D01*
X117191309Y-39162142D01*
X117143690Y-39209761D01*
X117048452Y-39257380D01*
X116953214Y-39257380D01*
X116857976Y-39209761D01*
X116810357Y-39162142D01*
X116762738Y-39066904D01*
X116715119Y-38876428D01*
X116715119Y-38638333D01*
X116762738Y-38447857D01*
X116810357Y-38352619D01*
X116857976Y-38305000D01*
X116953214Y-38257380D01*
X117857976Y-38257380D02*
X117857976Y-38495476D01*
X117619880Y-38400238D02*
X117857976Y-38495476D01*
X118096071Y-38400238D01*
X117715119Y-38685952D02*
X117857976Y-38495476D01*
X118000833Y-38685952D01*
X116238928Y-40383571D02*
X115905595Y-40383571D01*
X115905595Y-40907380D02*
X115905595Y-39907380D01*
X116381785Y-39907380D01*
X117286547Y-40907380D02*
X116715119Y-40907380D01*
X117000833Y-40907380D02*
X117000833Y-39907380D01*
X116905595Y-40050238D01*
X116810357Y-40145476D01*
X116715119Y-40193095D01*
X117857976Y-39907380D02*
X117857976Y-40145476D01*
X117619880Y-40050238D02*
X117857976Y-40145476D01*
X118096071Y-40050238D01*
X117715119Y-40335952D02*
X117857976Y-40145476D01*
X118000833Y-40335952D01*
X115905595Y-41890714D02*
X115905595Y-42557380D01*
X115905595Y-41985952D02*
X115953214Y-41938333D01*
X116048452Y-41890714D01*
X116191309Y-41890714D01*
X116286547Y-41938333D01*
X116334166Y-42033571D01*
X116334166Y-42557380D01*
X117381785Y-42557380D02*
X117048452Y-42081190D01*
X116810357Y-42557380D02*
X116810357Y-41557380D01*
X117191309Y-41557380D01*
X117286547Y-41605000D01*
X117334166Y-41652619D01*
X117381785Y-41747857D01*
X117381785Y-41890714D01*
X117334166Y-41985952D01*
X117286547Y-42033571D01*
X117191309Y-42081190D01*
X116810357Y-42081190D01*
X117667500Y-41557380D02*
X118238928Y-41557380D01*
X117953214Y-42557380D02*
X117953214Y-41557380D01*
X115762738Y-43207380D02*
X116096071Y-44207380D01*
X116429404Y-43207380D01*
X116762738Y-44207380D02*
X116762738Y-43207380D01*
X117000833Y-43207380D01*
X117143690Y-43255000D01*
X117238928Y-43350238D01*
X117286547Y-43445476D01*
X117334166Y-43635952D01*
X117334166Y-43778809D01*
X117286547Y-43969285D01*
X117238928Y-44064523D01*
X117143690Y-44159761D01*
X117000833Y-44207380D01*
X116762738Y-44207380D01*
X117715119Y-43921666D02*
X118191309Y-43921666D01*
X117619880Y-44207380D02*
X117953214Y-43207380D01*
X118286547Y-44207380D01*
X115857976Y-45571666D02*
X116334166Y-45571666D01*
X115762738Y-45857380D02*
X116096071Y-44857380D01*
X116429404Y-45857380D01*
X116953214Y-44857380D02*
X117048452Y-44857380D01*
X117143690Y-44905000D01*
X117191309Y-44952619D01*
X117238928Y-45047857D01*
X117286547Y-45238333D01*
X117286547Y-45476428D01*
X117238928Y-45666904D01*
X117191309Y-45762142D01*
X117143690Y-45809761D01*
X117048452Y-45857380D01*
X116953214Y-45857380D01*
X116857976Y-45809761D01*
X116810357Y-45762142D01*
X116762738Y-45666904D01*
X116715119Y-45476428D01*
X116715119Y-45238333D01*
X116762738Y-45047857D01*
X116810357Y-44952619D01*
X116857976Y-44905000D01*
X116953214Y-44857380D01*
X115857976Y-47221666D02*
X116334166Y-47221666D01*
X115762738Y-47507380D02*
X116096071Y-46507380D01*
X116429404Y-47507380D01*
X117286547Y-47507380D02*
X116715119Y-47507380D01*
X117000833Y-47507380D02*
X117000833Y-46507380D01*
X116905595Y-46650238D01*
X116810357Y-46745476D01*
X116715119Y-46793095D01*
X115857976Y-48871666D02*
X116334166Y-48871666D01*
X115762738Y-49157380D02*
X116096071Y-48157380D01*
X116429404Y-49157380D01*
X116715119Y-48252619D02*
X116762738Y-48205000D01*
X116857976Y-48157380D01*
X117096071Y-48157380D01*
X117191309Y-48205000D01*
X117238928Y-48252619D01*
X117286547Y-48347857D01*
X117286547Y-48443095D01*
X117238928Y-48585952D01*
X116667500Y-49157380D01*
X117286547Y-49157380D01*
X115857976Y-50521666D02*
X116334166Y-50521666D01*
X115762738Y-50807380D02*
X116096071Y-49807380D01*
X116429404Y-50807380D01*
X116667500Y-49807380D02*
X117286547Y-49807380D01*
X116953214Y-50188333D01*
X117096071Y-50188333D01*
X117191309Y-50235952D01*
X117238928Y-50283571D01*
X117286547Y-50378809D01*
X117286547Y-50616904D01*
X117238928Y-50712142D01*
X117191309Y-50759761D01*
X117096071Y-50807380D01*
X116810357Y-50807380D01*
X116715119Y-50759761D01*
X116667500Y-50712142D01*
X115857976Y-52171666D02*
X116334166Y-52171666D01*
X115762738Y-52457380D02*
X116096071Y-51457380D01*
X116429404Y-52457380D01*
X117191309Y-51790714D02*
X117191309Y-52457380D01*
X116953214Y-51409761D02*
X116715119Y-52124047D01*
X117334166Y-52124047D01*
X115857976Y-53821666D02*
X116334166Y-53821666D01*
X115762738Y-54107380D02*
X116096071Y-53107380D01*
X116429404Y-54107380D01*
X117238928Y-53107380D02*
X116762738Y-53107380D01*
X116715119Y-53583571D01*
X116762738Y-53535952D01*
X116857976Y-53488333D01*
X117096071Y-53488333D01*
X117191309Y-53535952D01*
X117238928Y-53583571D01*
X117286547Y-53678809D01*
X117286547Y-53916904D01*
X117238928Y-54012142D01*
X117191309Y-54059761D01*
X117096071Y-54107380D01*
X116857976Y-54107380D01*
X116762738Y-54059761D01*
X116715119Y-54012142D01*
X115857976Y-55471666D02*
X116334166Y-55471666D01*
X115762738Y-55757380D02*
X116096071Y-54757380D01*
X116429404Y-55757380D01*
X117191309Y-54757380D02*
X117000833Y-54757380D01*
X116905595Y-54805000D01*
X116857976Y-54852619D01*
X116762738Y-54995476D01*
X116715119Y-55185952D01*
X116715119Y-55566904D01*
X116762738Y-55662142D01*
X116810357Y-55709761D01*
X116905595Y-55757380D01*
X117096071Y-55757380D01*
X117191309Y-55709761D01*
X117238928Y-55662142D01*
X117286547Y-55566904D01*
X117286547Y-55328809D01*
X117238928Y-55233571D01*
X117191309Y-55185952D01*
X117096071Y-55138333D01*
X116905595Y-55138333D01*
X116810357Y-55185952D01*
X116762738Y-55233571D01*
X116715119Y-55328809D01*
X115857976Y-57121666D02*
X116334166Y-57121666D01*
X115762738Y-57407380D02*
X116096071Y-56407380D01*
X116429404Y-57407380D01*
X116667500Y-56407380D02*
X117334166Y-56407380D01*
X116905595Y-57407380D01*
X116238928Y-58533571D02*
X116381785Y-58581190D01*
X116429404Y-58628809D01*
X116477023Y-58724047D01*
X116477023Y-58866904D01*
X116429404Y-58962142D01*
X116381785Y-59009761D01*
X116286547Y-59057380D01*
X115905595Y-59057380D01*
X115905595Y-58057380D01*
X116238928Y-58057380D01*
X116334166Y-58105000D01*
X116381785Y-58152619D01*
X116429404Y-58247857D01*
X116429404Y-58343095D01*
X116381785Y-58438333D01*
X116334166Y-58485952D01*
X116238928Y-58533571D01*
X115905595Y-58533571D01*
X117096071Y-58057380D02*
X117191309Y-58057380D01*
X117286547Y-58105000D01*
X117334166Y-58152619D01*
X117381785Y-58247857D01*
X117429404Y-58438333D01*
X117429404Y-58676428D01*
X117381785Y-58866904D01*
X117334166Y-58962142D01*
X117286547Y-59009761D01*
X117191309Y-59057380D01*
X117096071Y-59057380D01*
X117000833Y-59009761D01*
X116953214Y-58962142D01*
X116905595Y-58866904D01*
X116857976Y-58676428D01*
X116857976Y-58438333D01*
X116905595Y-58247857D01*
X116953214Y-58152619D01*
X117000833Y-58105000D01*
X117096071Y-58057380D01*
X116238928Y-60183571D02*
X116381785Y-60231190D01*
X116429404Y-60278809D01*
X116477023Y-60374047D01*
X116477023Y-60516904D01*
X116429404Y-60612142D01*
X116381785Y-60659761D01*
X116286547Y-60707380D01*
X115905595Y-60707380D01*
X115905595Y-59707380D01*
X116238928Y-59707380D01*
X116334166Y-59755000D01*
X116381785Y-59802619D01*
X116429404Y-59897857D01*
X116429404Y-59993095D01*
X116381785Y-60088333D01*
X116334166Y-60135952D01*
X116238928Y-60183571D01*
X115905595Y-60183571D01*
X117429404Y-60707380D02*
X116857976Y-60707380D01*
X117143690Y-60707380D02*
X117143690Y-59707380D01*
X117048452Y-59850238D01*
X116953214Y-59945476D01*
X116857976Y-59993095D01*
X116429404Y-61405000D02*
X116334166Y-61357380D01*
X116191309Y-61357380D01*
X116048452Y-61405000D01*
X115953214Y-61500238D01*
X115905595Y-61595476D01*
X115857976Y-61785952D01*
X115857976Y-61928809D01*
X115905595Y-62119285D01*
X115953214Y-62214523D01*
X116048452Y-62309761D01*
X116191309Y-62357380D01*
X116286547Y-62357380D01*
X116429404Y-62309761D01*
X116477023Y-62262142D01*
X116477023Y-61928809D01*
X116286547Y-61928809D01*
X116905595Y-62357380D02*
X116905595Y-61357380D01*
X117477023Y-62357380D01*
X117477023Y-61357380D01*
X117953214Y-62357380D02*
X117953214Y-61357380D01*
X118191309Y-61357380D01*
X118334166Y-61405000D01*
X118429404Y-61500238D01*
X118477023Y-61595476D01*
X118524642Y-61785952D01*
X118524642Y-61928809D01*
X118477023Y-62119285D01*
X118429404Y-62214523D01*
X118334166Y-62309761D01*
X118191309Y-62357380D01*
X117953214Y-62357380D01*
X96972380Y-56530714D02*
X96972380Y-57102142D01*
X96972380Y-56816428D02*
X95972380Y-56816428D01*
X96115238Y-56911666D01*
X96210476Y-57006904D01*
X96258095Y-57102142D01*
X95972380Y-55673571D02*
X95972380Y-55864047D01*
X96020000Y-55959285D01*
X96067619Y-56006904D01*
X96210476Y-56102142D01*
X96400952Y-56149761D01*
X96781904Y-56149761D01*
X96877142Y-56102142D01*
X96924761Y-56054523D01*
X96972380Y-55959285D01*
X96972380Y-55768809D01*
X96924761Y-55673571D01*
X96877142Y-55625952D01*
X96781904Y-55578333D01*
X96543809Y-55578333D01*
X96448571Y-55625952D01*
X96400952Y-55673571D01*
X96353333Y-55768809D01*
X96353333Y-55959285D01*
X96400952Y-56054523D01*
X96448571Y-56102142D01*
X96543809Y-56149761D01*
X96591428Y-55149761D02*
X96591428Y-54387857D01*
X96972380Y-53387857D02*
X96972380Y-53959285D01*
X96972380Y-53673571D02*
X95972380Y-53673571D01*
X96115238Y-53768809D01*
X96210476Y-53864047D01*
X96258095Y-53959285D01*
X98877380Y-57006904D02*
X98877380Y-57578333D01*
X98877380Y-57292619D02*
X97877380Y-57292619D01*
X98020238Y-57387857D01*
X98115476Y-57483095D01*
X98163095Y-57578333D01*
X97877380Y-56673571D02*
X97877380Y-56006904D01*
X98877380Y-56435476D01*
X98496428Y-55625952D02*
X98496428Y-54864047D01*
X97877380Y-54483095D02*
X97877380Y-53864047D01*
X98258333Y-54197380D01*
X98258333Y-54054523D01*
X98305952Y-53959285D01*
X98353571Y-53911666D01*
X98448809Y-53864047D01*
X98686904Y-53864047D01*
X98782142Y-53911666D01*
X98829761Y-53959285D01*
X98877380Y-54054523D01*
X98877380Y-54340238D01*
X98829761Y-54435476D01*
X98782142Y-54483095D01*
X97972619Y-53483095D02*
X97925000Y-53435476D01*
X97877380Y-53340238D01*
X97877380Y-53102142D01*
X97925000Y-53006904D01*
X97972619Y-52959285D01*
X98067857Y-52911666D01*
X98163095Y-52911666D01*
X98305952Y-52959285D01*
X98877380Y-53530714D01*
X98877380Y-52911666D01*
D12*
X97337857Y-73484642D02*
X97895000Y-73484642D01*
X97595000Y-73827500D01*
X97723571Y-73827500D01*
X97809285Y-73870357D01*
X97852142Y-73913214D01*
X97895000Y-73998928D01*
X97895000Y-74213214D01*
X97852142Y-74298928D01*
X97809285Y-74341785D01*
X97723571Y-74384642D01*
X97466428Y-74384642D01*
X97380714Y-74341785D01*
X97337857Y-74298928D01*
X98195000Y-73784642D02*
X98409285Y-74384642D01*
X98623571Y-73784642D01*
X100123571Y-73527500D02*
X100037857Y-73484642D01*
X99909285Y-73484642D01*
X99780714Y-73527500D01*
X99695000Y-73613214D01*
X99652142Y-73698928D01*
X99609285Y-73870357D01*
X99609285Y-73998928D01*
X99652142Y-74170357D01*
X99695000Y-74256071D01*
X99780714Y-74341785D01*
X99909285Y-74384642D01*
X99995000Y-74384642D01*
X100123571Y-74341785D01*
X100166428Y-74298928D01*
X100166428Y-73998928D01*
X99995000Y-73998928D01*
X100552142Y-74384642D02*
X100552142Y-73484642D01*
X101066428Y-74384642D01*
X101066428Y-73484642D01*
X101495000Y-74384642D02*
X101495000Y-73484642D01*
X101709285Y-73484642D01*
X101837857Y-73527500D01*
X101923571Y-73613214D01*
X101966428Y-73698928D01*
X102009285Y-73870357D01*
X102009285Y-73998928D01*
X101966428Y-74170357D01*
X101923571Y-74256071D01*
X101837857Y-74341785D01*
X101709285Y-74384642D01*
X101495000Y-74384642D01*
D13*
X123130000Y-36770000D02*
X124460000Y-36770000D01*
X123130000Y-38100000D02*
X123130000Y-36770000D01*
X123130000Y-39370000D02*
X125790000Y-39370000D01*
X125790000Y-39370000D02*
X125790000Y-77530000D01*
X123130000Y-39370000D02*
X123130000Y-77530000D01*
X123130000Y-77530000D02*
X125790000Y-77530000D01*
X92650000Y-36770000D02*
X93980000Y-36770000D01*
X92650000Y-38100000D02*
X92650000Y-36770000D01*
X92650000Y-39370000D02*
X95310000Y-39370000D01*
X95310000Y-39370000D02*
X95310000Y-77530000D01*
X92650000Y-39370000D02*
X92650000Y-77530000D01*
X92650000Y-77530000D02*
X95310000Y-77530000D01*
X97465000Y-65625000D02*
X97465000Y-68310000D01*
X99385000Y-65625000D02*
X97465000Y-65625000D01*
X99385000Y-68310000D02*
X99385000Y-65625000D01*
X97090000Y-39640000D02*
X98490000Y-39640000D01*
X99190000Y-40340000D02*
X99190000Y-40940000D01*
X98490000Y-41640000D02*
X97090000Y-41640000D01*
X96390000Y-40940000D02*
X96390000Y-40340000D01*
X96390000Y-40340000D02*
G75*
G02X97090000Y-39640000I700000J0D01*
G01*
X97090000Y-41640000D02*
G75*
G02X96390000Y-40940000I0J700000D01*
G01*
X99190000Y-40940000D02*
G75*
G02X98490000Y-41640000I-700000J0D01*
G01*
X98490000Y-39640000D02*
G75*
G02X99190000Y-40340000I0J-700000D01*
G01*
X97465000Y-69435000D02*
X97465000Y-72120000D01*
X99385000Y-69435000D02*
X97465000Y-69435000D01*
X99385000Y-72120000D02*
X99385000Y-69435000D01*
X97465000Y-61815000D02*
X97465000Y-64500000D01*
X99385000Y-61815000D02*
X97465000Y-61815000D01*
X99385000Y-64500000D02*
X99385000Y-61815000D01*
X100455000Y-70957221D02*
X100455000Y-71282779D01*
X101475000Y-70957221D02*
X101475000Y-71282779D01*
X105475000Y-44555000D02*
X105475000Y-44315000D01*
X104075000Y-44555000D02*
X105475000Y-44555000D01*
X105475000Y-48155000D02*
X104075000Y-48155000D01*
X102075000Y-46755000D02*
X102075000Y-45955000D01*
X107475000Y-45955000D02*
X107475000Y-46755000D01*
X107775000Y-45955000D02*
X107475000Y-45955000D01*
X109007868Y-52256821D02*
X108078023Y-51326976D01*
X109220000Y-52044689D02*
X109007868Y-52256821D01*
X109432132Y-52256821D02*
X109220000Y-52044689D01*
X114325311Y-57150000D02*
X114113179Y-57362132D01*
X114113179Y-56937868D02*
X114325311Y-57150000D01*
X104114689Y-57150000D02*
X104326821Y-56937868D01*
X104326821Y-57362132D02*
X104114689Y-57150000D01*
X109220000Y-62255311D02*
X109432132Y-62043179D01*
X109007868Y-62043179D02*
X109220000Y-62255311D01*
X119205000Y-69450000D02*
X117705000Y-69450000D01*
X115205000Y-70700000D02*
X115205000Y-75200000D01*
X117705000Y-76450000D02*
X119205000Y-76450000D01*
X121705000Y-75200000D02*
X121705000Y-70700000D01*
X100455000Y-67147221D02*
X100455000Y-67472779D01*
X101475000Y-67147221D02*
X101475000Y-67472779D01*
X100455000Y-63337221D02*
X100455000Y-63662779D01*
X101475000Y-63337221D02*
X101475000Y-63662779D01*
X116677221Y-67820000D02*
X117002779Y-67820000D01*
X116677221Y-66800000D02*
X117002779Y-66800000D01*
X109692221Y-46230000D02*
X110017779Y-46230000D01*
X109692221Y-45210000D02*
X110017779Y-45210000D01*
X104075000Y-36465000D02*
X105475000Y-36465000D01*
X106175000Y-37165000D02*
X106175000Y-37765000D01*
X105475000Y-38465000D02*
X104075000Y-38465000D01*
X103375000Y-37765000D02*
X103375000Y-37165000D01*
X103375000Y-37165000D02*
G75*
G02X104075000Y-36465000I700000J0D01*
G01*
X104075000Y-38465000D02*
G75*
G02X103375000Y-37765000I0J700000D01*
G01*
X106175000Y-37765000D02*
G75*
G02X105475000Y-38465000I-700000J0D01*
G01*
X105475000Y-36465000D02*
G75*
G02X106175000Y-37165000I0J-700000D01*
G01*
X110425000Y-64405000D02*
X111825000Y-64405000D01*
X112525000Y-65105000D02*
X112525000Y-65705000D01*
X111825000Y-66405000D02*
X110425000Y-66405000D01*
X109725000Y-65705000D02*
X109725000Y-65105000D01*
X109725000Y-65105000D02*
G75*
G02X110425000Y-64405000I700000J0D01*
G01*
X110425000Y-66405000D02*
G75*
G02X109725000Y-65705000I0J700000D01*
G01*
X112525000Y-65705000D02*
G75*
G02X111825000Y-66405000I-700000J0D01*
G01*
X111825000Y-64405000D02*
G75*
G02X112525000Y-65105000I0J-700000D01*
G01*
X106615000Y-64405000D02*
X108015000Y-64405000D01*
X108715000Y-65105000D02*
X108715000Y-65705000D01*
X108015000Y-66405000D02*
X106615000Y-66405000D01*
X105915000Y-65705000D02*
X105915000Y-65105000D01*
X105915000Y-65105000D02*
G75*
G02X106615000Y-64405000I700000J0D01*
G01*
X106615000Y-66405000D02*
G75*
G02X105915000Y-65705000I0J700000D01*
G01*
X108715000Y-65705000D02*
G75*
G02X108015000Y-66405000I-700000J0D01*
G01*
X108015000Y-64405000D02*
G75*
G02X108715000Y-65105000I0J-700000D01*
G01*
X104075000Y-39640000D02*
X105475000Y-39640000D01*
X106175000Y-40340000D02*
X106175000Y-40940000D01*
X105475000Y-41640000D02*
X104075000Y-41640000D01*
X103375000Y-40940000D02*
X103375000Y-40340000D01*
X103375000Y-40340000D02*
G75*
G02X104075000Y-39640000I700000J0D01*
G01*
X104075000Y-41640000D02*
G75*
G02X103375000Y-40940000I0J700000D01*
G01*
X106175000Y-40940000D02*
G75*
G02X105475000Y-41640000I-700000J0D01*
G01*
X105475000Y-39640000D02*
G75*
G02X106175000Y-40340000I0J-700000D01*
G01*
X97090000Y-45990000D02*
X98490000Y-45990000D01*
X99190000Y-46690000D02*
X99190000Y-47290000D01*
X98490000Y-47990000D02*
X97090000Y-47990000D01*
X96390000Y-47290000D02*
X96390000Y-46690000D01*
X96390000Y-46690000D02*
G75*
G02X97090000Y-45990000I700000J0D01*
G01*
X97090000Y-47990000D02*
G75*
G02X96390000Y-47290000I0J700000D01*
G01*
X99190000Y-47290000D02*
G75*
G02X98490000Y-47990000I-700000J0D01*
G01*
X98490000Y-45990000D02*
G75*
G02X99190000Y-46690000I0J-700000D01*
G01*
X97090000Y-42815000D02*
X98490000Y-42815000D01*
X99190000Y-43515000D02*
X99190000Y-44115000D01*
X98490000Y-44815000D02*
X97090000Y-44815000D01*
X96390000Y-44115000D02*
X96390000Y-43515000D01*
X96390000Y-43515000D02*
G75*
G02X97090000Y-42815000I700000J0D01*
G01*
X97090000Y-44815000D02*
G75*
G02X96390000Y-44115000I0J700000D01*
G01*
X99190000Y-44115000D02*
G75*
G02X98490000Y-44815000I-700000J0D01*
G01*
X98490000Y-42815000D02*
G75*
G02X99190000Y-43515000I0J-700000D01*
G01*
X112695000Y-36685000D02*
G75*
G02X113395000Y-37385000I0J-700000D01*
G01*
X111395000Y-37385000D02*
G75*
G02X112095000Y-36685000I700000J0D01*
G01*
X112095000Y-40785000D02*
G75*
G02X111395000Y-40085000I0J700000D01*
G01*
X113395000Y-40085000D02*
G75*
G02X112695000Y-40785000I-700000J0D01*
G01*
X113395000Y-37335000D02*
X113395000Y-40135000D01*
X112695000Y-40785000D02*
X112095000Y-40785000D01*
X111395000Y-40135000D02*
X111395000Y-37335000D01*
X112095000Y-36685000D02*
X112695000Y-36685000D01*
X111195000Y-37535000D02*
X110895000Y-37235000D01*
X110895000Y-37235000D02*
X110895000Y-37835000D01*
X111195000Y-37535000D02*
X110895000Y-37835000D01*
X97095000Y-77530000D02*
X97095000Y-76200000D01*
X98425000Y-77530000D02*
X97095000Y-77530000D01*
X99695000Y-77530000D02*
X99695000Y-74870000D01*
X99695000Y-74870000D02*
X102295000Y-74870000D01*
X99695000Y-77530000D02*
X102295000Y-77530000D01*
X102295000Y-77530000D02*
X102295000Y-74870000D01*
X105985000Y-75425000D02*
X105985000Y-71895000D01*
X112455000Y-75425000D02*
X112455000Y-71895000D01*
X106050000Y-76750000D02*
X106050000Y-75425000D01*
X105985000Y-75425000D02*
X106050000Y-75425000D01*
X105985000Y-71895000D02*
X106050000Y-71895000D01*
X112390000Y-75425000D02*
X112455000Y-75425000D01*
X112390000Y-71895000D02*
X112455000Y-71895000D01*
X109382779Y-67435000D02*
X109057221Y-67435000D01*
X109382779Y-68455000D02*
X109057221Y-68455000D01*
X109692221Y-50040000D02*
X110017779Y-50040000D01*
X109692221Y-49020000D02*
X110017779Y-49020000D01*
X109692221Y-48135000D02*
X110017779Y-48135000D01*
X109692221Y-47115000D02*
X110017779Y-47115000D01*
X102397779Y-49020000D02*
X102072221Y-49020000D01*
X102397779Y-50040000D02*
X102072221Y-50040000D01*
X102397779Y-50925000D02*
X102072221Y-50925000D01*
X102397779Y-51945000D02*
X102072221Y-51945000D01*
X120177779Y-66800000D02*
X119852221Y-66800000D01*
X120177779Y-67820000D02*
X119852221Y-67820000D01*
X106207779Y-50040000D02*
X105882221Y-50040000D01*
X106207779Y-49020000D02*
X105882221Y-49020000D01*
X104937779Y-42670000D02*
X104612221Y-42670000D01*
X104937779Y-43690000D02*
X104612221Y-43690000D01*
D10*
X121372380Y-64468333D02*
X122086666Y-64468333D01*
X122229523Y-64515952D01*
X122324761Y-64611190D01*
X122372380Y-64754047D01*
X122372380Y-64849285D01*
X121372380Y-64087380D02*
X121372380Y-63468333D01*
X121753333Y-63801666D01*
X121753333Y-63658809D01*
X121800952Y-63563571D01*
X121848571Y-63515952D01*
X121943809Y-63468333D01*
X122181904Y-63468333D01*
X122277142Y-63515952D01*
X122324761Y-63563571D01*
X122372380Y-63658809D01*
X122372380Y-63944523D01*
X122324761Y-64039761D01*
X122277142Y-64087380D01*
X95972380Y-49863333D02*
X96686666Y-49863333D01*
X96829523Y-49910952D01*
X96924761Y-50006190D01*
X96972380Y-50149047D01*
X96972380Y-50244285D01*
X96972380Y-48863333D02*
X96972380Y-49434761D01*
X96972380Y-49149047D02*
X95972380Y-49149047D01*
X96115238Y-49244285D01*
X96210476Y-49339523D01*
X96258095Y-49434761D01*
X96972380Y-68048095D02*
X95972380Y-68048095D01*
X95972380Y-67810000D01*
X96020000Y-67667142D01*
X96115238Y-67571904D01*
X96210476Y-67524285D01*
X96400952Y-67476666D01*
X96543809Y-67476666D01*
X96734285Y-67524285D01*
X96829523Y-67571904D01*
X96924761Y-67667142D01*
X96972380Y-67810000D01*
X96972380Y-68048095D01*
X96067619Y-67095714D02*
X96020000Y-67048095D01*
X95972380Y-66952857D01*
X95972380Y-66714761D01*
X96020000Y-66619523D01*
X96067619Y-66571904D01*
X96162857Y-66524285D01*
X96258095Y-66524285D01*
X96400952Y-66571904D01*
X96972380Y-67143333D01*
X96972380Y-66524285D01*
X99797380Y-41473333D02*
X100511666Y-41473333D01*
X100654523Y-41520952D01*
X100749761Y-41616190D01*
X100797380Y-41759047D01*
X100797380Y-41854285D01*
X100797380Y-40997142D02*
X99797380Y-40997142D01*
X99797380Y-40616190D01*
X99845000Y-40520952D01*
X99892619Y-40473333D01*
X99987857Y-40425714D01*
X100130714Y-40425714D01*
X100225952Y-40473333D01*
X100273571Y-40520952D01*
X100321190Y-40616190D01*
X100321190Y-40997142D01*
X100225952Y-39854285D02*
X100178333Y-39949523D01*
X100130714Y-39997142D01*
X100035476Y-40044761D01*
X99987857Y-40044761D01*
X99892619Y-39997142D01*
X99845000Y-39949523D01*
X99797380Y-39854285D01*
X99797380Y-39663809D01*
X99845000Y-39568571D01*
X99892619Y-39520952D01*
X99987857Y-39473333D01*
X100035476Y-39473333D01*
X100130714Y-39520952D01*
X100178333Y-39568571D01*
X100225952Y-39663809D01*
X100225952Y-39854285D01*
X100273571Y-39949523D01*
X100321190Y-39997142D01*
X100416428Y-40044761D01*
X100606904Y-40044761D01*
X100702142Y-39997142D01*
X100749761Y-39949523D01*
X100797380Y-39854285D01*
X100797380Y-39663809D01*
X100749761Y-39568571D01*
X100702142Y-39520952D01*
X100606904Y-39473333D01*
X100416428Y-39473333D01*
X100321190Y-39520952D01*
X100273571Y-39568571D01*
X100225952Y-39663809D01*
X96972380Y-71858095D02*
X95972380Y-71858095D01*
X95972380Y-71620000D01*
X96020000Y-71477142D01*
X96115238Y-71381904D01*
X96210476Y-71334285D01*
X96400952Y-71286666D01*
X96543809Y-71286666D01*
X96734285Y-71334285D01*
X96829523Y-71381904D01*
X96924761Y-71477142D01*
X96972380Y-71620000D01*
X96972380Y-71858095D01*
X95972380Y-70953333D02*
X95972380Y-70334285D01*
X96353333Y-70667619D01*
X96353333Y-70524761D01*
X96400952Y-70429523D01*
X96448571Y-70381904D01*
X96543809Y-70334285D01*
X96781904Y-70334285D01*
X96877142Y-70381904D01*
X96924761Y-70429523D01*
X96972380Y-70524761D01*
X96972380Y-70810476D01*
X96924761Y-70905714D01*
X96877142Y-70953333D01*
X96972380Y-64238095D02*
X95972380Y-64238095D01*
X95972380Y-64000000D01*
X96020000Y-63857142D01*
X96115238Y-63761904D01*
X96210476Y-63714285D01*
X96400952Y-63666666D01*
X96543809Y-63666666D01*
X96734285Y-63714285D01*
X96829523Y-63761904D01*
X96924761Y-63857142D01*
X96972380Y-64000000D01*
X96972380Y-64238095D01*
X96972380Y-62714285D02*
X96972380Y-63285714D01*
X96972380Y-63000000D02*
X95972380Y-63000000D01*
X96115238Y-63095238D01*
X96210476Y-63190476D01*
X96258095Y-63285714D01*
X103322380Y-71286666D02*
X102846190Y-71620000D01*
X103322380Y-71858095D02*
X102322380Y-71858095D01*
X102322380Y-71477142D01*
X102370000Y-71381904D01*
X102417619Y-71334285D01*
X102512857Y-71286666D01*
X102655714Y-71286666D01*
X102750952Y-71334285D01*
X102798571Y-71381904D01*
X102846190Y-71477142D01*
X102846190Y-71858095D01*
X102322380Y-70381904D02*
X102322380Y-70858095D01*
X102798571Y-70905714D01*
X102750952Y-70858095D01*
X102703333Y-70762857D01*
X102703333Y-70524761D01*
X102750952Y-70429523D01*
X102798571Y-70381904D01*
X102893809Y-70334285D01*
X103131904Y-70334285D01*
X103227142Y-70381904D01*
X103274761Y-70429523D01*
X103322380Y-70524761D01*
X103322380Y-70762857D01*
X103274761Y-70858095D01*
X103227142Y-70905714D01*
X102211190Y-43656190D02*
X102687380Y-43656190D01*
X101687380Y-43989523D02*
X102211190Y-43656190D01*
X101687380Y-43322857D01*
X102687380Y-42465714D02*
X102687380Y-43037142D01*
X102687380Y-42751428D02*
X101687380Y-42751428D01*
X101830238Y-42846666D01*
X101925476Y-42941904D01*
X101973095Y-43037142D01*
X113226265Y-52066238D02*
X112653845Y-52638658D01*
X112620173Y-52739673D01*
X112620173Y-52807017D01*
X112653845Y-52908032D01*
X112788532Y-53042719D01*
X112889547Y-53076391D01*
X112956891Y-53076391D01*
X113057906Y-53042719D01*
X113630326Y-52470299D01*
X113630326Y-53884513D02*
X113226265Y-53480452D01*
X113428295Y-53682482D02*
X114135402Y-52975376D01*
X113967043Y-53009047D01*
X113832356Y-53009047D01*
X113731341Y-52975376D01*
X114704761Y-71183333D02*
X114752380Y-71040476D01*
X114752380Y-70802380D01*
X114704761Y-70707142D01*
X114657142Y-70659523D01*
X114561904Y-70611904D01*
X114466666Y-70611904D01*
X114371428Y-70659523D01*
X114323809Y-70707142D01*
X114276190Y-70802380D01*
X114228571Y-70992857D01*
X114180952Y-71088095D01*
X114133333Y-71135714D01*
X114038095Y-71183333D01*
X113942857Y-71183333D01*
X113847619Y-71135714D01*
X113800000Y-71088095D01*
X113752380Y-70992857D01*
X113752380Y-70754761D01*
X113800000Y-70611904D01*
X113752380Y-70278571D02*
X114752380Y-70040476D01*
X114038095Y-69850000D01*
X114752380Y-69659523D01*
X113752380Y-69421428D01*
X114752380Y-68516666D02*
X114752380Y-69088095D01*
X114752380Y-68802380D02*
X113752380Y-68802380D01*
X113895238Y-68897619D01*
X113990476Y-68992857D01*
X114038095Y-69088095D01*
X103322380Y-67476666D02*
X102846190Y-67810000D01*
X103322380Y-68048095D02*
X102322380Y-68048095D01*
X102322380Y-67667142D01*
X102370000Y-67571904D01*
X102417619Y-67524285D01*
X102512857Y-67476666D01*
X102655714Y-67476666D01*
X102750952Y-67524285D01*
X102798571Y-67571904D01*
X102846190Y-67667142D01*
X102846190Y-68048095D01*
X102655714Y-66619523D02*
X103322380Y-66619523D01*
X102274761Y-66857619D02*
X102989047Y-67095714D01*
X102989047Y-66476666D01*
X103322380Y-63666666D02*
X102846190Y-64000000D01*
X103322380Y-64238095D02*
X102322380Y-64238095D01*
X102322380Y-63857142D01*
X102370000Y-63761904D01*
X102417619Y-63714285D01*
X102512857Y-63666666D01*
X102655714Y-63666666D01*
X102750952Y-63714285D01*
X102798571Y-63761904D01*
X102846190Y-63857142D01*
X102846190Y-64238095D01*
X102322380Y-63333333D02*
X102322380Y-62714285D01*
X102703333Y-63047619D01*
X102703333Y-62904761D01*
X102750952Y-62809523D01*
X102798571Y-62761904D01*
X102893809Y-62714285D01*
X103131904Y-62714285D01*
X103227142Y-62761904D01*
X103274761Y-62809523D01*
X103322380Y-62904761D01*
X103322380Y-63190476D01*
X103274761Y-63285714D01*
X103227142Y-63333333D01*
X116673333Y-65857380D02*
X116340000Y-65381190D01*
X116101904Y-65857380D02*
X116101904Y-64857380D01*
X116482857Y-64857380D01*
X116578095Y-64905000D01*
X116625714Y-64952619D01*
X116673333Y-65047857D01*
X116673333Y-65190714D01*
X116625714Y-65285952D01*
X116578095Y-65333571D01*
X116482857Y-65381190D01*
X116101904Y-65381190D01*
X117054285Y-64952619D02*
X117101904Y-64905000D01*
X117197142Y-64857380D01*
X117435238Y-64857380D01*
X117530476Y-64905000D01*
X117578095Y-64952619D01*
X117625714Y-65047857D01*
X117625714Y-65143095D01*
X117578095Y-65285952D01*
X117006666Y-65857380D01*
X117625714Y-65857380D01*
X112545833Y-46172380D02*
X112212500Y-45696190D01*
X111974404Y-46172380D02*
X111974404Y-45172380D01*
X112355357Y-45172380D01*
X112450595Y-45220000D01*
X112498214Y-45267619D01*
X112545833Y-45362857D01*
X112545833Y-45505714D01*
X112498214Y-45600952D01*
X112450595Y-45648571D01*
X112355357Y-45696190D01*
X111974404Y-45696190D01*
X113498214Y-46172380D02*
X112926785Y-46172380D01*
X113212500Y-46172380D02*
X113212500Y-45172380D01*
X113117261Y-45315238D01*
X113022023Y-45410476D01*
X112926785Y-45458095D01*
X107116666Y-36917380D02*
X107116666Y-37631666D01*
X107069047Y-37774523D01*
X106973809Y-37869761D01*
X106830952Y-37917380D01*
X106735714Y-37917380D01*
X107592857Y-37917380D02*
X107592857Y-36917380D01*
X107973809Y-36917380D01*
X108069047Y-36965000D01*
X108116666Y-37012619D01*
X108164285Y-37107857D01*
X108164285Y-37250714D01*
X108116666Y-37345952D01*
X108069047Y-37393571D01*
X107973809Y-37441190D01*
X107592857Y-37441190D01*
X108497619Y-36917380D02*
X109164285Y-36917380D01*
X108735714Y-37917380D01*
X113117380Y-66238333D02*
X113831666Y-66238333D01*
X113974523Y-66285952D01*
X114069761Y-66381190D01*
X114117380Y-66524047D01*
X114117380Y-66619285D01*
X114117380Y-65762142D02*
X113117380Y-65762142D01*
X113117380Y-65381190D01*
X113165000Y-65285952D01*
X113212619Y-65238333D01*
X113307857Y-65190714D01*
X113450714Y-65190714D01*
X113545952Y-65238333D01*
X113593571Y-65285952D01*
X113641190Y-65381190D01*
X113641190Y-65762142D01*
X113117380Y-64333571D02*
X113117380Y-64524047D01*
X113165000Y-64619285D01*
X113212619Y-64666904D01*
X113355476Y-64762142D01*
X113545952Y-64809761D01*
X113926904Y-64809761D01*
X114022142Y-64762142D01*
X114069761Y-64714523D01*
X114117380Y-64619285D01*
X114117380Y-64428809D01*
X114069761Y-64333571D01*
X114022142Y-64285952D01*
X113926904Y-64238333D01*
X113688809Y-64238333D01*
X113593571Y-64285952D01*
X113545952Y-64333571D01*
X113498333Y-64428809D01*
X113498333Y-64619285D01*
X113545952Y-64714523D01*
X113593571Y-64762142D01*
X113688809Y-64809761D01*
X104227380Y-66238333D02*
X104941666Y-66238333D01*
X105084523Y-66285952D01*
X105179761Y-66381190D01*
X105227380Y-66524047D01*
X105227380Y-66619285D01*
X105227380Y-65762142D02*
X104227380Y-65762142D01*
X104227380Y-65381190D01*
X104275000Y-65285952D01*
X104322619Y-65238333D01*
X104417857Y-65190714D01*
X104560714Y-65190714D01*
X104655952Y-65238333D01*
X104703571Y-65285952D01*
X104751190Y-65381190D01*
X104751190Y-65762142D01*
X104227380Y-64285952D02*
X104227380Y-64762142D01*
X104703571Y-64809761D01*
X104655952Y-64762142D01*
X104608333Y-64666904D01*
X104608333Y-64428809D01*
X104655952Y-64333571D01*
X104703571Y-64285952D01*
X104798809Y-64238333D01*
X105036904Y-64238333D01*
X105132142Y-64285952D01*
X105179761Y-64333571D01*
X105227380Y-64428809D01*
X105227380Y-64666904D01*
X105179761Y-64762142D01*
X105132142Y-64809761D01*
X107116666Y-40092380D02*
X107116666Y-40806666D01*
X107069047Y-40949523D01*
X106973809Y-41044761D01*
X106830952Y-41092380D01*
X106735714Y-41092380D01*
X107592857Y-41092380D02*
X107592857Y-40092380D01*
X107973809Y-40092380D01*
X108069047Y-40140000D01*
X108116666Y-40187619D01*
X108164285Y-40282857D01*
X108164285Y-40425714D01*
X108116666Y-40520952D01*
X108069047Y-40568571D01*
X107973809Y-40616190D01*
X107592857Y-40616190D01*
X109021428Y-40425714D02*
X109021428Y-41092380D01*
X108783333Y-40044761D02*
X108545238Y-40759047D01*
X109164285Y-40759047D01*
X99797380Y-47823333D02*
X100511666Y-47823333D01*
X100654523Y-47870952D01*
X100749761Y-47966190D01*
X100797380Y-48109047D01*
X100797380Y-48204285D01*
X100797380Y-47347142D02*
X99797380Y-47347142D01*
X99797380Y-46966190D01*
X99845000Y-46870952D01*
X99892619Y-46823333D01*
X99987857Y-46775714D01*
X100130714Y-46775714D01*
X100225952Y-46823333D01*
X100273571Y-46870952D01*
X100321190Y-46966190D01*
X100321190Y-47347142D01*
X99797380Y-46442380D02*
X99797380Y-45823333D01*
X100178333Y-46156666D01*
X100178333Y-46013809D01*
X100225952Y-45918571D01*
X100273571Y-45870952D01*
X100368809Y-45823333D01*
X100606904Y-45823333D01*
X100702142Y-45870952D01*
X100749761Y-45918571D01*
X100797380Y-46013809D01*
X100797380Y-46299523D01*
X100749761Y-46394761D01*
X100702142Y-46442380D01*
X99797380Y-44648333D02*
X100511666Y-44648333D01*
X100654523Y-44695952D01*
X100749761Y-44791190D01*
X100797380Y-44934047D01*
X100797380Y-45029285D01*
X100797380Y-44172142D02*
X99797380Y-44172142D01*
X99797380Y-43791190D01*
X99845000Y-43695952D01*
X99892619Y-43648333D01*
X99987857Y-43600714D01*
X100130714Y-43600714D01*
X100225952Y-43648333D01*
X100273571Y-43695952D01*
X100321190Y-43791190D01*
X100321190Y-44172142D01*
X99892619Y-43219761D02*
X99845000Y-43172142D01*
X99797380Y-43076904D01*
X99797380Y-42838809D01*
X99845000Y-42743571D01*
X99892619Y-42695952D01*
X99987857Y-42648333D01*
X100083095Y-42648333D01*
X100225952Y-42695952D01*
X100797380Y-43267380D01*
X100797380Y-42648333D01*
X111847380Y-43695833D02*
X112561666Y-43695833D01*
X112704523Y-43743452D01*
X112799761Y-43838690D01*
X112847380Y-43981547D01*
X112847380Y-44076785D01*
X112847380Y-43219642D02*
X111847380Y-43219642D01*
X111847380Y-42838690D01*
X111895000Y-42743452D01*
X111942619Y-42695833D01*
X112037857Y-42648214D01*
X112180714Y-42648214D01*
X112275952Y-42695833D01*
X112323571Y-42743452D01*
X112371190Y-42838690D01*
X112371190Y-43219642D01*
X112847380Y-41695833D02*
X112847380Y-42267261D01*
X112847380Y-41981547D02*
X111847380Y-41981547D01*
X111990238Y-42076785D01*
X112085476Y-42172023D01*
X112133095Y-42267261D01*
X102639880Y-76533333D02*
X103354166Y-76533333D01*
X103497023Y-76580952D01*
X103592261Y-76676190D01*
X103639880Y-76819047D01*
X103639880Y-76914285D01*
X102973214Y-75628571D02*
X103639880Y-75628571D01*
X102592261Y-75866666D02*
X103306547Y-76104761D01*
X103306547Y-75485714D01*
X104227380Y-70818333D02*
X104941666Y-70818333D01*
X105084523Y-70865952D01*
X105179761Y-70961190D01*
X105227380Y-71104047D01*
X105227380Y-71199285D01*
X104322619Y-70389761D02*
X104275000Y-70342142D01*
X104227380Y-70246904D01*
X104227380Y-70008809D01*
X104275000Y-69913571D01*
X104322619Y-69865952D01*
X104417857Y-69818333D01*
X104513095Y-69818333D01*
X104655952Y-69865952D01*
X105227380Y-70437380D01*
X105227380Y-69818333D01*
X111593333Y-68302142D02*
X111545714Y-68349761D01*
X111402857Y-68397380D01*
X111307619Y-68397380D01*
X111164761Y-68349761D01*
X111069523Y-68254523D01*
X111021904Y-68159285D01*
X110974285Y-67968809D01*
X110974285Y-67825952D01*
X111021904Y-67635476D01*
X111069523Y-67540238D01*
X111164761Y-67445000D01*
X111307619Y-67397380D01*
X111402857Y-67397380D01*
X111545714Y-67445000D01*
X111593333Y-67492619D01*
X112164761Y-67825952D02*
X112069523Y-67778333D01*
X112021904Y-67730714D01*
X111974285Y-67635476D01*
X111974285Y-67587857D01*
X112021904Y-67492619D01*
X112069523Y-67445000D01*
X112164761Y-67397380D01*
X112355238Y-67397380D01*
X112450476Y-67445000D01*
X112498095Y-67492619D01*
X112545714Y-67587857D01*
X112545714Y-67635476D01*
X112498095Y-67730714D01*
X112450476Y-67778333D01*
X112355238Y-67825952D01*
X112164761Y-67825952D01*
X112069523Y-67873571D01*
X112021904Y-67921190D01*
X111974285Y-68016428D01*
X111974285Y-68206904D01*
X112021904Y-68302142D01*
X112069523Y-68349761D01*
X112164761Y-68397380D01*
X112355238Y-68397380D01*
X112450476Y-68349761D01*
X112498095Y-68302142D01*
X112545714Y-68206904D01*
X112545714Y-68016428D01*
X112498095Y-67921190D01*
X112450476Y-67873571D01*
X112355238Y-67825952D01*
X112228333Y-49887142D02*
X112180714Y-49934761D01*
X112037857Y-49982380D01*
X111942619Y-49982380D01*
X111799761Y-49934761D01*
X111704523Y-49839523D01*
X111656904Y-49744285D01*
X111609285Y-49553809D01*
X111609285Y-49410952D01*
X111656904Y-49220476D01*
X111704523Y-49125238D01*
X111799761Y-49030000D01*
X111942619Y-48982380D01*
X112037857Y-48982380D01*
X112180714Y-49030000D01*
X112228333Y-49077619D01*
X112561666Y-48982380D02*
X113228333Y-48982380D01*
X112799761Y-49982380D01*
X112228333Y-47982142D02*
X112180714Y-48029761D01*
X112037857Y-48077380D01*
X111942619Y-48077380D01*
X111799761Y-48029761D01*
X111704523Y-47934523D01*
X111656904Y-47839285D01*
X111609285Y-47648809D01*
X111609285Y-47505952D01*
X111656904Y-47315476D01*
X111704523Y-47220238D01*
X111799761Y-47125000D01*
X111942619Y-47077380D01*
X112037857Y-47077380D01*
X112180714Y-47125000D01*
X112228333Y-47172619D01*
X113085476Y-47077380D02*
X112895000Y-47077380D01*
X112799761Y-47125000D01*
X112752142Y-47172619D01*
X112656904Y-47315476D01*
X112609285Y-47505952D01*
X112609285Y-47886904D01*
X112656904Y-47982142D01*
X112704523Y-48029761D01*
X112799761Y-48077380D01*
X112990238Y-48077380D01*
X113085476Y-48029761D01*
X113133095Y-47982142D01*
X113180714Y-47886904D01*
X113180714Y-47648809D01*
X113133095Y-47553571D01*
X113085476Y-47505952D01*
X112990238Y-47458333D01*
X112799761Y-47458333D01*
X112704523Y-47505952D01*
X112656904Y-47553571D01*
X112609285Y-47648809D01*
X98893333Y-49887142D02*
X98845714Y-49934761D01*
X98702857Y-49982380D01*
X98607619Y-49982380D01*
X98464761Y-49934761D01*
X98369523Y-49839523D01*
X98321904Y-49744285D01*
X98274285Y-49553809D01*
X98274285Y-49410952D01*
X98321904Y-49220476D01*
X98369523Y-49125238D01*
X98464761Y-49030000D01*
X98607619Y-48982380D01*
X98702857Y-48982380D01*
X98845714Y-49030000D01*
X98893333Y-49077619D01*
X99798095Y-48982380D02*
X99321904Y-48982380D01*
X99274285Y-49458571D01*
X99321904Y-49410952D01*
X99417142Y-49363333D01*
X99655238Y-49363333D01*
X99750476Y-49410952D01*
X99798095Y-49458571D01*
X99845714Y-49553809D01*
X99845714Y-49791904D01*
X99798095Y-49887142D01*
X99750476Y-49934761D01*
X99655238Y-49982380D01*
X99417142Y-49982380D01*
X99321904Y-49934761D01*
X99274285Y-49887142D01*
X98893333Y-51792142D02*
X98845714Y-51839761D01*
X98702857Y-51887380D01*
X98607619Y-51887380D01*
X98464761Y-51839761D01*
X98369523Y-51744523D01*
X98321904Y-51649285D01*
X98274285Y-51458809D01*
X98274285Y-51315952D01*
X98321904Y-51125476D01*
X98369523Y-51030238D01*
X98464761Y-50935000D01*
X98607619Y-50887380D01*
X98702857Y-50887380D01*
X98845714Y-50935000D01*
X98893333Y-50982619D01*
X99750476Y-51220714D02*
X99750476Y-51887380D01*
X99512380Y-50839761D02*
X99274285Y-51554047D01*
X99893333Y-51554047D01*
X119848333Y-65762142D02*
X119800714Y-65809761D01*
X119657857Y-65857380D01*
X119562619Y-65857380D01*
X119419761Y-65809761D01*
X119324523Y-65714523D01*
X119276904Y-65619285D01*
X119229285Y-65428809D01*
X119229285Y-65285952D01*
X119276904Y-65095476D01*
X119324523Y-65000238D01*
X119419761Y-64905000D01*
X119562619Y-64857380D01*
X119657857Y-64857380D01*
X119800714Y-64905000D01*
X119848333Y-64952619D01*
X120181666Y-64857380D02*
X120800714Y-64857380D01*
X120467380Y-65238333D01*
X120610238Y-65238333D01*
X120705476Y-65285952D01*
X120753095Y-65333571D01*
X120800714Y-65428809D01*
X120800714Y-65666904D01*
X120753095Y-65762142D01*
X120705476Y-65809761D01*
X120610238Y-65857380D01*
X120324523Y-65857380D01*
X120229285Y-65809761D01*
X120181666Y-65762142D01*
X105878333Y-51792142D02*
X105830714Y-51839761D01*
X105687857Y-51887380D01*
X105592619Y-51887380D01*
X105449761Y-51839761D01*
X105354523Y-51744523D01*
X105306904Y-51649285D01*
X105259285Y-51458809D01*
X105259285Y-51315952D01*
X105306904Y-51125476D01*
X105354523Y-51030238D01*
X105449761Y-50935000D01*
X105592619Y-50887380D01*
X105687857Y-50887380D01*
X105830714Y-50935000D01*
X105878333Y-50982619D01*
X106259285Y-50982619D02*
X106306904Y-50935000D01*
X106402142Y-50887380D01*
X106640238Y-50887380D01*
X106735476Y-50935000D01*
X106783095Y-50982619D01*
X106830714Y-51077857D01*
X106830714Y-51173095D01*
X106783095Y-51315952D01*
X106211666Y-51887380D01*
X106830714Y-51887380D01*
X107148333Y-43537142D02*
X107100714Y-43584761D01*
X106957857Y-43632380D01*
X106862619Y-43632380D01*
X106719761Y-43584761D01*
X106624523Y-43489523D01*
X106576904Y-43394285D01*
X106529285Y-43203809D01*
X106529285Y-43060952D01*
X106576904Y-42870476D01*
X106624523Y-42775238D01*
X106719761Y-42680000D01*
X106862619Y-42632380D01*
X106957857Y-42632380D01*
X107100714Y-42680000D01*
X107148333Y-42727619D01*
X108100714Y-43632380D02*
X107529285Y-43632380D01*
X107815000Y-43632380D02*
X107815000Y-42632380D01*
X107719761Y-42775238D01*
X107624523Y-42870476D01*
X107529285Y-42918095D01*
M02*
