G04 #@! TF.GenerationSoftware,KiCad,Pcbnew,(5.1.5)-3*
G04 #@! TF.CreationDate,2020-06-05T23:08:29+02:00*
G04 #@! TF.ProjectId,STM32F030K6Tx_Breakout,53544d33-3246-4303-9330-4b3654785f42,rev?*
G04 #@! TF.SameCoordinates,Original*
G04 #@! TF.FileFunction,Legend,Bot*
G04 #@! TF.FilePolarity,Positive*
%FSLAX46Y46*%
G04 Gerber Fmt 4.6, Leading zero omitted, Abs format (unit mm)*
G04 Created by KiCad (PCBNEW (5.1.5)-3) date 2020-06-05 23:08:29*
%MOMM*%
%LPD*%
G04 APERTURE LIST*
%ADD10C,0.300000*%
%ADD11C,0.250000*%
G04 APERTURE END LIST*
D10*
X121788571Y-73632142D02*
X121574285Y-73703571D01*
X121217142Y-73703571D01*
X121074285Y-73632142D01*
X121002857Y-73560714D01*
X120931428Y-73417857D01*
X120931428Y-73275000D01*
X121002857Y-73132142D01*
X121074285Y-73060714D01*
X121217142Y-72989285D01*
X121502857Y-72917857D01*
X121645714Y-72846428D01*
X121717142Y-72775000D01*
X121788571Y-72632142D01*
X121788571Y-72489285D01*
X121717142Y-72346428D01*
X121645714Y-72275000D01*
X121502857Y-72203571D01*
X121145714Y-72203571D01*
X120931428Y-72275000D01*
X119431428Y-73560714D02*
X119502857Y-73632142D01*
X119717142Y-73703571D01*
X119860000Y-73703571D01*
X120074285Y-73632142D01*
X120217142Y-73489285D01*
X120288571Y-73346428D01*
X120360000Y-73060714D01*
X120360000Y-72846428D01*
X120288571Y-72560714D01*
X120217142Y-72417857D01*
X120074285Y-72275000D01*
X119860000Y-72203571D01*
X119717142Y-72203571D01*
X119502857Y-72275000D01*
X119431428Y-72346428D01*
X118788571Y-73703571D02*
X118788571Y-72203571D01*
X118788571Y-72917857D02*
X117931428Y-72917857D01*
X117931428Y-73703571D02*
X117931428Y-72203571D01*
X117217142Y-73703571D02*
X117217142Y-72203571D01*
X115788571Y-73703571D02*
X116502857Y-73703571D01*
X116502857Y-72203571D01*
X115288571Y-73703571D02*
X115288571Y-72203571D01*
X114431428Y-73703571D02*
X115074285Y-72846428D01*
X114431428Y-72203571D02*
X115288571Y-73060714D01*
X100567857Y-37143571D02*
X100210714Y-38143571D01*
X99853571Y-37143571D01*
X98996428Y-36643571D02*
X98853571Y-36643571D01*
X98710714Y-36715000D01*
X98639285Y-36786428D01*
X98567857Y-36929285D01*
X98496428Y-37215000D01*
X98496428Y-37572142D01*
X98567857Y-37857857D01*
X98639285Y-38000714D01*
X98710714Y-38072142D01*
X98853571Y-38143571D01*
X98996428Y-38143571D01*
X99139285Y-38072142D01*
X99210714Y-38000714D01*
X99282142Y-37857857D01*
X99353571Y-37572142D01*
X99353571Y-37215000D01*
X99282142Y-36929285D01*
X99210714Y-36786428D01*
X99139285Y-36715000D01*
X98996428Y-36643571D01*
X97853571Y-38000714D02*
X97782142Y-38072142D01*
X97853571Y-38143571D01*
X97925000Y-38072142D01*
X97853571Y-38000714D01*
X97853571Y-38143571D01*
X96353571Y-38143571D02*
X97210714Y-38143571D01*
X96782142Y-38143571D02*
X96782142Y-36643571D01*
X96925000Y-36857857D01*
X97067857Y-37000714D01*
X97210714Y-37072142D01*
X122486666Y-48896666D02*
X122286666Y-48963333D01*
X121953333Y-48963333D01*
X121820000Y-48896666D01*
X121753333Y-48830000D01*
X121686666Y-48696666D01*
X121686666Y-48563333D01*
X121753333Y-48430000D01*
X121820000Y-48363333D01*
X121953333Y-48296666D01*
X122220000Y-48230000D01*
X122353333Y-48163333D01*
X122420000Y-48096666D01*
X122486666Y-47963333D01*
X122486666Y-47830000D01*
X122420000Y-47696666D01*
X122353333Y-47630000D01*
X122220000Y-47563333D01*
X121886666Y-47563333D01*
X121686666Y-47630000D01*
X121286666Y-47563333D02*
X120486666Y-47563333D01*
X120886666Y-48963333D02*
X120886666Y-47563333D01*
X120020000Y-48963333D02*
X120020000Y-47563333D01*
X119553333Y-48563333D01*
X119086666Y-47563333D01*
X119086666Y-48963333D01*
X118553333Y-47563333D02*
X117686666Y-47563333D01*
X118153333Y-48096666D01*
X117953333Y-48096666D01*
X117820000Y-48163333D01*
X117753333Y-48230000D01*
X117686666Y-48363333D01*
X117686666Y-48696666D01*
X117753333Y-48830000D01*
X117820000Y-48896666D01*
X117953333Y-48963333D01*
X118353333Y-48963333D01*
X118486666Y-48896666D01*
X118553333Y-48830000D01*
X117153333Y-47696666D02*
X117086666Y-47630000D01*
X116953333Y-47563333D01*
X116620000Y-47563333D01*
X116486666Y-47630000D01*
X116420000Y-47696666D01*
X116353333Y-47830000D01*
X116353333Y-47963333D01*
X116420000Y-48163333D01*
X117220000Y-48963333D01*
X116353333Y-48963333D01*
X115286666Y-48230000D02*
X115753333Y-48230000D01*
X115753333Y-48963333D02*
X115753333Y-47563333D01*
X115086666Y-47563333D01*
X114286666Y-47563333D02*
X114153333Y-47563333D01*
X114020000Y-47630000D01*
X113953333Y-47696666D01*
X113886666Y-47830000D01*
X113820000Y-48096666D01*
X113820000Y-48430000D01*
X113886666Y-48696666D01*
X113953333Y-48830000D01*
X114020000Y-48896666D01*
X114153333Y-48963333D01*
X114286666Y-48963333D01*
X114420000Y-48896666D01*
X114486666Y-48830000D01*
X114553333Y-48696666D01*
X114620000Y-48430000D01*
X114620000Y-48096666D01*
X114553333Y-47830000D01*
X114486666Y-47696666D01*
X114420000Y-47630000D01*
X114286666Y-47563333D01*
X113353333Y-47563333D02*
X112486666Y-47563333D01*
X112953333Y-48096666D01*
X112753333Y-48096666D01*
X112620000Y-48163333D01*
X112553333Y-48230000D01*
X112486666Y-48363333D01*
X112486666Y-48696666D01*
X112553333Y-48830000D01*
X112620000Y-48896666D01*
X112753333Y-48963333D01*
X113153333Y-48963333D01*
X113286666Y-48896666D01*
X113353333Y-48830000D01*
X111620000Y-47563333D02*
X111486666Y-47563333D01*
X111353333Y-47630000D01*
X111286666Y-47696666D01*
X111220000Y-47830000D01*
X111153333Y-48096666D01*
X111153333Y-48430000D01*
X111220000Y-48696666D01*
X111286666Y-48830000D01*
X111353333Y-48896666D01*
X111486666Y-48963333D01*
X111620000Y-48963333D01*
X111753333Y-48896666D01*
X111820000Y-48830000D01*
X111886666Y-48696666D01*
X111953333Y-48430000D01*
X111953333Y-48096666D01*
X111886666Y-47830000D01*
X111820000Y-47696666D01*
X111753333Y-47630000D01*
X111620000Y-47563333D01*
X110553333Y-48963333D02*
X110553333Y-47563333D01*
X109753333Y-48963333D02*
X110353333Y-48163333D01*
X109753333Y-47563333D02*
X110553333Y-48363333D01*
X108553333Y-47563333D02*
X108820000Y-47563333D01*
X108953333Y-47630000D01*
X109020000Y-47696666D01*
X109153333Y-47896666D01*
X109220000Y-48163333D01*
X109220000Y-48696666D01*
X109153333Y-48830000D01*
X109086666Y-48896666D01*
X108953333Y-48963333D01*
X108686666Y-48963333D01*
X108553333Y-48896666D01*
X108486666Y-48830000D01*
X108420000Y-48696666D01*
X108420000Y-48363333D01*
X108486666Y-48230000D01*
X108553333Y-48163333D01*
X108686666Y-48096666D01*
X108953333Y-48096666D01*
X109086666Y-48163333D01*
X109153333Y-48230000D01*
X109220000Y-48363333D01*
X108020000Y-47563333D02*
X107220000Y-47563333D01*
X107620000Y-48963333D02*
X107620000Y-47563333D01*
X106886666Y-48963333D02*
X106153333Y-48030000D01*
X106886666Y-48030000D02*
X106153333Y-48963333D01*
X104086666Y-48230000D02*
X103886666Y-48296666D01*
X103820000Y-48363333D01*
X103753333Y-48496666D01*
X103753333Y-48696666D01*
X103820000Y-48830000D01*
X103886666Y-48896666D01*
X104020000Y-48963333D01*
X104553333Y-48963333D01*
X104553333Y-47563333D01*
X104086666Y-47563333D01*
X103953333Y-47630000D01*
X103886666Y-47696666D01*
X103820000Y-47830000D01*
X103820000Y-47963333D01*
X103886666Y-48096666D01*
X103953333Y-48163333D01*
X104086666Y-48230000D01*
X104553333Y-48230000D01*
X103153333Y-48963333D02*
X103153333Y-48030000D01*
X103153333Y-48296666D02*
X103086666Y-48163333D01*
X103020000Y-48096666D01*
X102886666Y-48030000D01*
X102753333Y-48030000D01*
X101753333Y-48896666D02*
X101886666Y-48963333D01*
X102153333Y-48963333D01*
X102286666Y-48896666D01*
X102353333Y-48763333D01*
X102353333Y-48230000D01*
X102286666Y-48096666D01*
X102153333Y-48030000D01*
X101886666Y-48030000D01*
X101753333Y-48096666D01*
X101686666Y-48230000D01*
X101686666Y-48363333D01*
X102353333Y-48496666D01*
X100486666Y-48963333D02*
X100486666Y-48230000D01*
X100553333Y-48096666D01*
X100686666Y-48030000D01*
X100953333Y-48030000D01*
X101086666Y-48096666D01*
X100486666Y-48896666D02*
X100620000Y-48963333D01*
X100953333Y-48963333D01*
X101086666Y-48896666D01*
X101153333Y-48763333D01*
X101153333Y-48630000D01*
X101086666Y-48496666D01*
X100953333Y-48430000D01*
X100620000Y-48430000D01*
X100486666Y-48363333D01*
X99820000Y-48963333D02*
X99820000Y-47563333D01*
X99686666Y-48430000D02*
X99286666Y-48963333D01*
X99286666Y-48030000D02*
X99820000Y-48563333D01*
X98486666Y-48963333D02*
X98620000Y-48896666D01*
X98686666Y-48830000D01*
X98753333Y-48696666D01*
X98753333Y-48296666D01*
X98686666Y-48163333D01*
X98620000Y-48096666D01*
X98486666Y-48030000D01*
X98286666Y-48030000D01*
X98153333Y-48096666D01*
X98086666Y-48163333D01*
X98020000Y-48296666D01*
X98020000Y-48696666D01*
X98086666Y-48830000D01*
X98153333Y-48896666D01*
X98286666Y-48963333D01*
X98486666Y-48963333D01*
X96820000Y-48030000D02*
X96820000Y-48963333D01*
X97420000Y-48030000D02*
X97420000Y-48763333D01*
X97353333Y-48896666D01*
X97220000Y-48963333D01*
X97020000Y-48963333D01*
X96886666Y-48896666D01*
X96820000Y-48830000D01*
X96353333Y-48030000D02*
X95820000Y-48030000D01*
X96153333Y-47563333D02*
X96153333Y-48763333D01*
X96086666Y-48896666D01*
X95953333Y-48963333D01*
X95820000Y-48963333D01*
D11*
X122503690Y-53017380D02*
X122503690Y-53731666D01*
X122551309Y-53874523D01*
X122646547Y-53969761D01*
X122789404Y-54017380D01*
X122884642Y-54017380D01*
X122027500Y-54017380D02*
X122027500Y-53017380D01*
X121646547Y-53017380D01*
X121551309Y-53065000D01*
X121503690Y-53112619D01*
X121456071Y-53207857D01*
X121456071Y-53350714D01*
X121503690Y-53445952D01*
X121551309Y-53493571D01*
X121646547Y-53541190D01*
X122027500Y-53541190D01*
X120503690Y-54017380D02*
X121075119Y-54017380D01*
X120789404Y-54017380D02*
X120789404Y-53017380D01*
X120884642Y-53160238D01*
X120979880Y-53255476D01*
X121075119Y-53303095D01*
X120075119Y-53922142D02*
X120027500Y-53969761D01*
X120075119Y-54017380D01*
X120122738Y-53969761D01*
X120075119Y-53922142D01*
X120075119Y-54017380D01*
X120075119Y-53398333D02*
X120027500Y-53445952D01*
X120075119Y-53493571D01*
X120122738Y-53445952D01*
X120075119Y-53398333D01*
X120075119Y-53493571D01*
X118313214Y-53065000D02*
X118408452Y-53017380D01*
X118551309Y-53017380D01*
X118694166Y-53065000D01*
X118789404Y-53160238D01*
X118837023Y-53255476D01*
X118884642Y-53445952D01*
X118884642Y-53588809D01*
X118837023Y-53779285D01*
X118789404Y-53874523D01*
X118694166Y-53969761D01*
X118551309Y-54017380D01*
X118456071Y-54017380D01*
X118313214Y-53969761D01*
X118265595Y-53922142D01*
X118265595Y-53588809D01*
X118456071Y-53588809D01*
X117837023Y-54017380D02*
X117837023Y-53017380D01*
X117265595Y-54017380D01*
X117265595Y-53017380D01*
X116789404Y-54017380D02*
X116789404Y-53017380D01*
X116551309Y-53017380D01*
X116408452Y-53065000D01*
X116313214Y-53160238D01*
X116265595Y-53255476D01*
X116217976Y-53445952D01*
X116217976Y-53588809D01*
X116265595Y-53779285D01*
X116313214Y-53874523D01*
X116408452Y-53969761D01*
X116551309Y-54017380D01*
X116789404Y-54017380D01*
X115932261Y-53112619D02*
X115741785Y-52969761D01*
X115551309Y-53112619D01*
X114456071Y-53350714D02*
X115217976Y-53636428D01*
X114456071Y-53922142D01*
X113979880Y-53636428D02*
X113217976Y-53636428D01*
X112408452Y-53493571D02*
X112265595Y-53541190D01*
X112217976Y-53588809D01*
X112170357Y-53684047D01*
X112170357Y-53826904D01*
X112217976Y-53922142D01*
X112265595Y-53969761D01*
X112360833Y-54017380D01*
X112741785Y-54017380D01*
X112741785Y-53017380D01*
X112408452Y-53017380D01*
X112313214Y-53065000D01*
X112265595Y-53112619D01*
X112217976Y-53207857D01*
X112217976Y-53303095D01*
X112265595Y-53398333D01*
X112313214Y-53445952D01*
X112408452Y-53493571D01*
X112741785Y-53493571D01*
X111551309Y-53017380D02*
X111360833Y-53017380D01*
X111265595Y-53065000D01*
X111170357Y-53160238D01*
X111122738Y-53350714D01*
X111122738Y-53684047D01*
X111170357Y-53874523D01*
X111265595Y-53969761D01*
X111360833Y-54017380D01*
X111551309Y-54017380D01*
X111646547Y-53969761D01*
X111741785Y-53874523D01*
X111789404Y-53684047D01*
X111789404Y-53350714D01*
X111741785Y-53160238D01*
X111646547Y-53065000D01*
X111551309Y-53017380D01*
X110503690Y-53017380D02*
X110313214Y-53017380D01*
X110217976Y-53065000D01*
X110122738Y-53160238D01*
X110075119Y-53350714D01*
X110075119Y-53684047D01*
X110122738Y-53874523D01*
X110217976Y-53969761D01*
X110313214Y-54017380D01*
X110503690Y-54017380D01*
X110598928Y-53969761D01*
X110694166Y-53874523D01*
X110741785Y-53684047D01*
X110741785Y-53350714D01*
X110694166Y-53160238D01*
X110598928Y-53065000D01*
X110503690Y-53017380D01*
X109789404Y-53017380D02*
X109217976Y-53017380D01*
X109503690Y-54017380D02*
X109503690Y-53017380D01*
X108694166Y-53017380D02*
X108598928Y-53017380D01*
X108503690Y-53065000D01*
X108456071Y-53112619D01*
X108408452Y-53207857D01*
X108360833Y-53398333D01*
X108360833Y-53636428D01*
X108408452Y-53826904D01*
X108456071Y-53922142D01*
X108503690Y-53969761D01*
X108598928Y-54017380D01*
X108694166Y-54017380D01*
X108789404Y-53969761D01*
X108837023Y-53922142D01*
X108884642Y-53826904D01*
X108932261Y-53636428D01*
X108932261Y-53398333D01*
X108884642Y-53207857D01*
X108837023Y-53112619D01*
X108789404Y-53065000D01*
X108694166Y-53017380D01*
X107932261Y-53636428D02*
X107170357Y-53636428D01*
X106694166Y-53350714D02*
X105932261Y-53636428D01*
X106694166Y-53922142D01*
X105551309Y-53017380D02*
X104932261Y-53017380D01*
X105265595Y-53398333D01*
X105122738Y-53398333D01*
X105027500Y-53445952D01*
X104979880Y-53493571D01*
X104932261Y-53588809D01*
X104932261Y-53826904D01*
X104979880Y-53922142D01*
X105027500Y-53969761D01*
X105122738Y-54017380D01*
X105408452Y-54017380D01*
X105503690Y-53969761D01*
X105551309Y-53922142D01*
X104646547Y-53017380D02*
X104313214Y-54017380D01*
X103979880Y-53017380D01*
X122503690Y-54767380D02*
X122503690Y-55481666D01*
X122551309Y-55624523D01*
X122646547Y-55719761D01*
X122789404Y-55767380D01*
X122884642Y-55767380D01*
X122027500Y-55767380D02*
X122027500Y-54767380D01*
X121646547Y-54767380D01*
X121551309Y-54815000D01*
X121503690Y-54862619D01*
X121456071Y-54957857D01*
X121456071Y-55100714D01*
X121503690Y-55195952D01*
X121551309Y-55243571D01*
X121646547Y-55291190D01*
X122027500Y-55291190D01*
X121075119Y-54862619D02*
X121027500Y-54815000D01*
X120932261Y-54767380D01*
X120694166Y-54767380D01*
X120598928Y-54815000D01*
X120551309Y-54862619D01*
X120503690Y-54957857D01*
X120503690Y-55053095D01*
X120551309Y-55195952D01*
X121122738Y-55767380D01*
X120503690Y-55767380D01*
X120075119Y-55672142D02*
X120027500Y-55719761D01*
X120075119Y-55767380D01*
X120122738Y-55719761D01*
X120075119Y-55672142D01*
X120075119Y-55767380D01*
X120075119Y-55148333D02*
X120027500Y-55195952D01*
X120075119Y-55243571D01*
X120122738Y-55195952D01*
X120075119Y-55148333D01*
X120075119Y-55243571D01*
X118837023Y-55767380D02*
X118837023Y-54767380D01*
X118265595Y-55767380D01*
X118265595Y-54767380D01*
X117646547Y-55767380D02*
X117741785Y-55719761D01*
X117789404Y-55672142D01*
X117837023Y-55576904D01*
X117837023Y-55291190D01*
X117789404Y-55195952D01*
X117741785Y-55148333D01*
X117646547Y-55100714D01*
X117503690Y-55100714D01*
X117408452Y-55148333D01*
X117360833Y-55195952D01*
X117313214Y-55291190D01*
X117313214Y-55576904D01*
X117360833Y-55672142D01*
X117408452Y-55719761D01*
X117503690Y-55767380D01*
X117646547Y-55767380D01*
X116217976Y-54767380D02*
X115551309Y-55767380D01*
X115551309Y-54767380D02*
X116217976Y-55767380D01*
X115313214Y-55100714D02*
X114932261Y-55100714D01*
X115170357Y-54767380D02*
X115170357Y-55624523D01*
X115122738Y-55719761D01*
X115027500Y-55767380D01*
X114932261Y-55767380D01*
X114170357Y-55767380D02*
X114170357Y-55243571D01*
X114217976Y-55148333D01*
X114313214Y-55100714D01*
X114503690Y-55100714D01*
X114598928Y-55148333D01*
X114170357Y-55719761D02*
X114265595Y-55767380D01*
X114503690Y-55767380D01*
X114598928Y-55719761D01*
X114646547Y-55624523D01*
X114646547Y-55529285D01*
X114598928Y-55434047D01*
X114503690Y-55386428D01*
X114265595Y-55386428D01*
X114170357Y-55338809D01*
X113551309Y-55767380D02*
X113646547Y-55719761D01*
X113694166Y-55624523D01*
X113694166Y-54767380D01*
X113122738Y-55719761D02*
X113122738Y-55767380D01*
X113170357Y-55862619D01*
X113217976Y-55910238D01*
X111598928Y-55243571D02*
X111932261Y-55243571D01*
X111932261Y-55767380D02*
X111932261Y-54767380D01*
X111456071Y-54767380D01*
X110884642Y-54767380D02*
X110789404Y-54767380D01*
X110694166Y-54815000D01*
X110646547Y-54862619D01*
X110598928Y-54957857D01*
X110551309Y-55148333D01*
X110551309Y-55386428D01*
X110598928Y-55576904D01*
X110646547Y-55672142D01*
X110694166Y-55719761D01*
X110789404Y-55767380D01*
X110884642Y-55767380D01*
X110979880Y-55719761D01*
X111027500Y-55672142D01*
X111075119Y-55576904D01*
X111122738Y-55386428D01*
X111122738Y-55148333D01*
X111075119Y-54957857D01*
X111027500Y-54862619D01*
X110979880Y-54815000D01*
X110884642Y-54767380D01*
X110122738Y-55386428D02*
X109360833Y-55386428D01*
X108884642Y-55100714D02*
X108122738Y-55386428D01*
X108884642Y-55672142D01*
X107646547Y-55767380D02*
X107646547Y-54767380D01*
X107265595Y-54767380D01*
X107170357Y-54815000D01*
X107122738Y-54862619D01*
X107075119Y-54957857D01*
X107075119Y-55100714D01*
X107122738Y-55195952D01*
X107170357Y-55243571D01*
X107265595Y-55291190D01*
X107646547Y-55291190D01*
X106646547Y-55767380D02*
X106646547Y-55100714D01*
X106646547Y-54767380D02*
X106694166Y-54815000D01*
X106646547Y-54862619D01*
X106598928Y-54815000D01*
X106646547Y-54767380D01*
X106646547Y-54862619D01*
X106170357Y-55100714D02*
X106170357Y-55767380D01*
X106170357Y-55195952D02*
X106122738Y-55148333D01*
X106027500Y-55100714D01*
X105884642Y-55100714D01*
X105789404Y-55148333D01*
X105741785Y-55243571D01*
X105741785Y-55767380D01*
X122503690Y-56517380D02*
X122503690Y-57231666D01*
X122551309Y-57374523D01*
X122646547Y-57469761D01*
X122789404Y-57517380D01*
X122884642Y-57517380D01*
X122027500Y-57517380D02*
X122027500Y-56517380D01*
X121646547Y-56517380D01*
X121551309Y-56565000D01*
X121503690Y-56612619D01*
X121456071Y-56707857D01*
X121456071Y-56850714D01*
X121503690Y-56945952D01*
X121551309Y-56993571D01*
X121646547Y-57041190D01*
X122027500Y-57041190D01*
X121122738Y-56517380D02*
X120503690Y-56517380D01*
X120837023Y-56898333D01*
X120694166Y-56898333D01*
X120598928Y-56945952D01*
X120551309Y-56993571D01*
X120503690Y-57088809D01*
X120503690Y-57326904D01*
X120551309Y-57422142D01*
X120598928Y-57469761D01*
X120694166Y-57517380D01*
X120979880Y-57517380D01*
X121075119Y-57469761D01*
X121122738Y-57422142D01*
X120075119Y-57422142D02*
X120027500Y-57469761D01*
X120075119Y-57517380D01*
X120122738Y-57469761D01*
X120075119Y-57422142D01*
X120075119Y-57517380D01*
X120075119Y-56898333D02*
X120027500Y-56945952D01*
X120075119Y-56993571D01*
X120122738Y-56945952D01*
X120075119Y-56898333D01*
X120075119Y-56993571D01*
X118837023Y-57517380D02*
X118837023Y-56517380D01*
X118265595Y-57517380D01*
X118265595Y-56517380D01*
X117646547Y-57517380D02*
X117741785Y-57469761D01*
X117789404Y-57422142D01*
X117837023Y-57326904D01*
X117837023Y-57041190D01*
X117789404Y-56945952D01*
X117741785Y-56898333D01*
X117646547Y-56850714D01*
X117503690Y-56850714D01*
X117408452Y-56898333D01*
X117360833Y-56945952D01*
X117313214Y-57041190D01*
X117313214Y-57326904D01*
X117360833Y-57422142D01*
X117408452Y-57469761D01*
X117503690Y-57517380D01*
X117646547Y-57517380D01*
X116217976Y-56517380D02*
X115551309Y-57517380D01*
X115551309Y-56517380D02*
X116217976Y-57517380D01*
X115313214Y-56850714D02*
X114932261Y-56850714D01*
X115170357Y-56517380D02*
X115170357Y-57374523D01*
X115122738Y-57469761D01*
X115027500Y-57517380D01*
X114932261Y-57517380D01*
X114170357Y-57517380D02*
X114170357Y-56993571D01*
X114217976Y-56898333D01*
X114313214Y-56850714D01*
X114503690Y-56850714D01*
X114598928Y-56898333D01*
X114170357Y-57469761D02*
X114265595Y-57517380D01*
X114503690Y-57517380D01*
X114598928Y-57469761D01*
X114646547Y-57374523D01*
X114646547Y-57279285D01*
X114598928Y-57184047D01*
X114503690Y-57136428D01*
X114265595Y-57136428D01*
X114170357Y-57088809D01*
X113551309Y-57517380D02*
X113646547Y-57469761D01*
X113694166Y-57374523D01*
X113694166Y-56517380D01*
X113122738Y-57469761D02*
X113122738Y-57517380D01*
X113170357Y-57612619D01*
X113217976Y-57660238D01*
X111598928Y-56993571D02*
X111932261Y-56993571D01*
X111932261Y-57517380D02*
X111932261Y-56517380D01*
X111456071Y-56517380D01*
X110551309Y-57517380D02*
X111122738Y-57517380D01*
X110837023Y-57517380D02*
X110837023Y-56517380D01*
X110932261Y-56660238D01*
X111027500Y-56755476D01*
X111122738Y-56803095D01*
X110122738Y-57136428D02*
X109360833Y-57136428D01*
X108884642Y-56850714D02*
X108122738Y-57136428D01*
X108884642Y-57422142D01*
X107646547Y-57517380D02*
X107646547Y-56517380D01*
X107265595Y-56517380D01*
X107170357Y-56565000D01*
X107122738Y-56612619D01*
X107075119Y-56707857D01*
X107075119Y-56850714D01*
X107122738Y-56945952D01*
X107170357Y-56993571D01*
X107265595Y-57041190D01*
X107646547Y-57041190D01*
X106646547Y-57517380D02*
X106646547Y-56850714D01*
X106646547Y-56517380D02*
X106694166Y-56565000D01*
X106646547Y-56612619D01*
X106598928Y-56565000D01*
X106646547Y-56517380D01*
X106646547Y-56612619D01*
X106170357Y-56850714D02*
X106170357Y-57517380D01*
X106170357Y-56945952D02*
X106122738Y-56898333D01*
X106027500Y-56850714D01*
X105884642Y-56850714D01*
X105789404Y-56898333D01*
X105741785Y-56993571D01*
X105741785Y-57517380D01*
X122503690Y-58267380D02*
X122503690Y-58981666D01*
X122551309Y-59124523D01*
X122646547Y-59219761D01*
X122789404Y-59267380D01*
X122884642Y-59267380D01*
X122027500Y-59267380D02*
X122027500Y-58267380D01*
X121646547Y-58267380D01*
X121551309Y-58315000D01*
X121503690Y-58362619D01*
X121456071Y-58457857D01*
X121456071Y-58600714D01*
X121503690Y-58695952D01*
X121551309Y-58743571D01*
X121646547Y-58791190D01*
X122027500Y-58791190D01*
X120598928Y-58600714D02*
X120598928Y-59267380D01*
X120837023Y-58219761D02*
X121075119Y-58934047D01*
X120456071Y-58934047D01*
X120075119Y-59172142D02*
X120027500Y-59219761D01*
X120075119Y-59267380D01*
X120122738Y-59219761D01*
X120075119Y-59172142D01*
X120075119Y-59267380D01*
X120075119Y-58648333D02*
X120027500Y-58695952D01*
X120075119Y-58743571D01*
X120122738Y-58695952D01*
X120075119Y-58648333D01*
X120075119Y-58743571D01*
X118313214Y-59267380D02*
X118884642Y-59267380D01*
X118598928Y-59267380D02*
X118598928Y-58267380D01*
X118694166Y-58410238D01*
X118789404Y-58505476D01*
X118884642Y-58553095D01*
X117884642Y-58886428D02*
X117122738Y-58886428D01*
X116646547Y-58600714D02*
X115884642Y-58886428D01*
X116646547Y-59172142D01*
X115551309Y-58267380D02*
X115217976Y-59267380D01*
X114884642Y-58267380D01*
X114551309Y-59267380D02*
X114551309Y-58267380D01*
X114313214Y-58267380D01*
X114170357Y-58315000D01*
X114075119Y-58410238D01*
X114027500Y-58505476D01*
X113979880Y-58695952D01*
X113979880Y-58838809D01*
X114027500Y-59029285D01*
X114075119Y-59124523D01*
X114170357Y-59219761D01*
X114313214Y-59267380D01*
X114551309Y-59267380D01*
X113551309Y-59267380D02*
X113551309Y-58267380D01*
X113313214Y-58267380D01*
X113170357Y-58315000D01*
X113075119Y-58410238D01*
X113027500Y-58505476D01*
X112979880Y-58695952D01*
X112979880Y-58838809D01*
X113027500Y-59029285D01*
X113075119Y-59124523D01*
X113170357Y-59219761D01*
X113313214Y-59267380D01*
X113551309Y-59267380D01*
X122503690Y-60017380D02*
X122503690Y-60731666D01*
X122551309Y-60874523D01*
X122646547Y-60969761D01*
X122789404Y-61017380D01*
X122884642Y-61017380D01*
X122027500Y-61017380D02*
X122027500Y-60017380D01*
X121646547Y-60017380D01*
X121551309Y-60065000D01*
X121503690Y-60112619D01*
X121456071Y-60207857D01*
X121456071Y-60350714D01*
X121503690Y-60445952D01*
X121551309Y-60493571D01*
X121646547Y-60541190D01*
X122027500Y-60541190D01*
X120551309Y-60017380D02*
X121027500Y-60017380D01*
X121075119Y-60493571D01*
X121027500Y-60445952D01*
X120932261Y-60398333D01*
X120694166Y-60398333D01*
X120598928Y-60445952D01*
X120551309Y-60493571D01*
X120503690Y-60588809D01*
X120503690Y-60826904D01*
X120551309Y-60922142D01*
X120598928Y-60969761D01*
X120694166Y-61017380D01*
X120932261Y-61017380D01*
X121027500Y-60969761D01*
X121075119Y-60922142D01*
X120075119Y-60922142D02*
X120027500Y-60969761D01*
X120075119Y-61017380D01*
X120122738Y-60969761D01*
X120075119Y-60922142D01*
X120075119Y-61017380D01*
X120075119Y-60398333D02*
X120027500Y-60445952D01*
X120075119Y-60493571D01*
X120122738Y-60445952D01*
X120075119Y-60398333D01*
X120075119Y-60493571D01*
X118313214Y-61017380D02*
X118884642Y-61017380D01*
X118598928Y-61017380D02*
X118598928Y-60017380D01*
X118694166Y-60160238D01*
X118789404Y-60255476D01*
X118884642Y-60303095D01*
X117456071Y-60017380D02*
X117646547Y-60017380D01*
X117741785Y-60065000D01*
X117789404Y-60112619D01*
X117884642Y-60255476D01*
X117932261Y-60445952D01*
X117932261Y-60826904D01*
X117884642Y-60922142D01*
X117837023Y-60969761D01*
X117741785Y-61017380D01*
X117551309Y-61017380D01*
X117456071Y-60969761D01*
X117408452Y-60922142D01*
X117360833Y-60826904D01*
X117360833Y-60588809D01*
X117408452Y-60493571D01*
X117456071Y-60445952D01*
X117551309Y-60398333D01*
X117741785Y-60398333D01*
X117837023Y-60445952D01*
X117884642Y-60493571D01*
X117932261Y-60588809D01*
X116932261Y-60636428D02*
X116170357Y-60636428D01*
X115694166Y-60350714D02*
X114932261Y-60636428D01*
X115694166Y-60922142D01*
X113932261Y-60065000D02*
X114027500Y-60017380D01*
X114170357Y-60017380D01*
X114313214Y-60065000D01*
X114408452Y-60160238D01*
X114456071Y-60255476D01*
X114503690Y-60445952D01*
X114503690Y-60588809D01*
X114456071Y-60779285D01*
X114408452Y-60874523D01*
X114313214Y-60969761D01*
X114170357Y-61017380D01*
X114075119Y-61017380D01*
X113932261Y-60969761D01*
X113884642Y-60922142D01*
X113884642Y-60588809D01*
X114075119Y-60588809D01*
X113456071Y-61017380D02*
X113456071Y-60017380D01*
X112884642Y-61017380D01*
X112884642Y-60017380D01*
X112408452Y-61017380D02*
X112408452Y-60017380D01*
X112170357Y-60017380D01*
X112027500Y-60065000D01*
X111932261Y-60160238D01*
X111884642Y-60255476D01*
X111837023Y-60445952D01*
X111837023Y-60588809D01*
X111884642Y-60779285D01*
X111932261Y-60874523D01*
X112027500Y-60969761D01*
X112170357Y-61017380D01*
X112408452Y-61017380D01*
X122503690Y-61767380D02*
X122503690Y-62481666D01*
X122551309Y-62624523D01*
X122646547Y-62719761D01*
X122789404Y-62767380D01*
X122884642Y-62767380D01*
X122027500Y-62767380D02*
X122027500Y-61767380D01*
X121646547Y-61767380D01*
X121551309Y-61815000D01*
X121503690Y-61862619D01*
X121456071Y-61957857D01*
X121456071Y-62100714D01*
X121503690Y-62195952D01*
X121551309Y-62243571D01*
X121646547Y-62291190D01*
X122027500Y-62291190D01*
X120598928Y-61767380D02*
X120789404Y-61767380D01*
X120884642Y-61815000D01*
X120932261Y-61862619D01*
X121027500Y-62005476D01*
X121075119Y-62195952D01*
X121075119Y-62576904D01*
X121027500Y-62672142D01*
X120979880Y-62719761D01*
X120884642Y-62767380D01*
X120694166Y-62767380D01*
X120598928Y-62719761D01*
X120551309Y-62672142D01*
X120503690Y-62576904D01*
X120503690Y-62338809D01*
X120551309Y-62243571D01*
X120598928Y-62195952D01*
X120694166Y-62148333D01*
X120884642Y-62148333D01*
X120979880Y-62195952D01*
X121027500Y-62243571D01*
X121075119Y-62338809D01*
X120075119Y-62672142D02*
X120027500Y-62719761D01*
X120075119Y-62767380D01*
X120122738Y-62719761D01*
X120075119Y-62672142D01*
X120075119Y-62767380D01*
X120075119Y-62148333D02*
X120027500Y-62195952D01*
X120075119Y-62243571D01*
X120122738Y-62195952D01*
X120075119Y-62148333D01*
X120075119Y-62243571D01*
X118313214Y-62767380D02*
X118884642Y-62767380D01*
X118598928Y-62767380D02*
X118598928Y-61767380D01*
X118694166Y-61910238D01*
X118789404Y-62005476D01*
X118884642Y-62053095D01*
X117979880Y-61767380D02*
X117313214Y-61767380D01*
X117741785Y-62767380D01*
X116932261Y-62386428D02*
X116170357Y-62386428D01*
X115694166Y-62100714D02*
X114932261Y-62386428D01*
X115694166Y-62672142D01*
X114598928Y-61767380D02*
X114265595Y-62767380D01*
X113932261Y-61767380D01*
X113598928Y-62767380D02*
X113598928Y-61767380D01*
X113360833Y-61767380D01*
X113217976Y-61815000D01*
X113122738Y-61910238D01*
X113075119Y-62005476D01*
X113027500Y-62195952D01*
X113027500Y-62338809D01*
X113075119Y-62529285D01*
X113122738Y-62624523D01*
X113217976Y-62719761D01*
X113360833Y-62767380D01*
X113598928Y-62767380D01*
X112598928Y-62767380D02*
X112598928Y-61767380D01*
X112360833Y-61767380D01*
X112217976Y-61815000D01*
X112122738Y-61910238D01*
X112075119Y-62005476D01*
X112027500Y-62195952D01*
X112027500Y-62338809D01*
X112075119Y-62529285D01*
X112122738Y-62624523D01*
X112217976Y-62719761D01*
X112360833Y-62767380D01*
X112598928Y-62767380D01*
X122503690Y-63517380D02*
X122503690Y-64231666D01*
X122551309Y-64374523D01*
X122646547Y-64469761D01*
X122789404Y-64517380D01*
X122884642Y-64517380D01*
X122027500Y-64517380D02*
X122027500Y-63517380D01*
X121646547Y-63517380D01*
X121551309Y-63565000D01*
X121503690Y-63612619D01*
X121456071Y-63707857D01*
X121456071Y-63850714D01*
X121503690Y-63945952D01*
X121551309Y-63993571D01*
X121646547Y-64041190D01*
X122027500Y-64041190D01*
X121122738Y-63517380D02*
X120456071Y-63517380D01*
X120884642Y-64517380D01*
X120075119Y-64422142D02*
X120027500Y-64469761D01*
X120075119Y-64517380D01*
X120122738Y-64469761D01*
X120075119Y-64422142D01*
X120075119Y-64517380D01*
X120075119Y-63898333D02*
X120027500Y-63945952D01*
X120075119Y-63993571D01*
X120122738Y-63945952D01*
X120075119Y-63898333D01*
X120075119Y-63993571D01*
X118932261Y-63517380D02*
X118313214Y-63517380D01*
X118646547Y-63898333D01*
X118503690Y-63898333D01*
X118408452Y-63945952D01*
X118360833Y-63993571D01*
X118313214Y-64088809D01*
X118313214Y-64326904D01*
X118360833Y-64422142D01*
X118408452Y-64469761D01*
X118503690Y-64517380D01*
X118789404Y-64517380D01*
X118884642Y-64469761D01*
X118932261Y-64422142D01*
X117932261Y-63612619D02*
X117884642Y-63565000D01*
X117789404Y-63517380D01*
X117551309Y-63517380D01*
X117456071Y-63565000D01*
X117408452Y-63612619D01*
X117360833Y-63707857D01*
X117360833Y-63803095D01*
X117408452Y-63945952D01*
X117979880Y-64517380D01*
X117360833Y-64517380D01*
X116932261Y-64136428D02*
X116170357Y-64136428D01*
X115694166Y-63850714D02*
X114932261Y-64136428D01*
X115694166Y-64422142D01*
X113932261Y-63565000D02*
X114027500Y-63517380D01*
X114170357Y-63517380D01*
X114313214Y-63565000D01*
X114408452Y-63660238D01*
X114456071Y-63755476D01*
X114503690Y-63945952D01*
X114503690Y-64088809D01*
X114456071Y-64279285D01*
X114408452Y-64374523D01*
X114313214Y-64469761D01*
X114170357Y-64517380D01*
X114075119Y-64517380D01*
X113932261Y-64469761D01*
X113884642Y-64422142D01*
X113884642Y-64088809D01*
X114075119Y-64088809D01*
X113456071Y-64517380D02*
X113456071Y-63517380D01*
X112884642Y-64517380D01*
X112884642Y-63517380D01*
X112408452Y-64517380D02*
X112408452Y-63517380D01*
X112170357Y-63517380D01*
X112027500Y-63565000D01*
X111932261Y-63660238D01*
X111884642Y-63755476D01*
X111837023Y-63945952D01*
X111837023Y-64088809D01*
X111884642Y-64279285D01*
X111932261Y-64374523D01*
X112027500Y-64469761D01*
X112170357Y-64517380D01*
X112408452Y-64517380D01*
X122503690Y-65267380D02*
X122503690Y-65981666D01*
X122551309Y-66124523D01*
X122646547Y-66219761D01*
X122789404Y-66267380D01*
X122884642Y-66267380D01*
X122027500Y-66267380D02*
X122027500Y-65267380D01*
X121646547Y-65267380D01*
X121551309Y-65315000D01*
X121503690Y-65362619D01*
X121456071Y-65457857D01*
X121456071Y-65600714D01*
X121503690Y-65695952D01*
X121551309Y-65743571D01*
X121646547Y-65791190D01*
X122027500Y-65791190D01*
X120884642Y-65695952D02*
X120979880Y-65648333D01*
X121027500Y-65600714D01*
X121075119Y-65505476D01*
X121075119Y-65457857D01*
X121027500Y-65362619D01*
X120979880Y-65315000D01*
X120884642Y-65267380D01*
X120694166Y-65267380D01*
X120598928Y-65315000D01*
X120551309Y-65362619D01*
X120503690Y-65457857D01*
X120503690Y-65505476D01*
X120551309Y-65600714D01*
X120598928Y-65648333D01*
X120694166Y-65695952D01*
X120884642Y-65695952D01*
X120979880Y-65743571D01*
X121027500Y-65791190D01*
X121075119Y-65886428D01*
X121075119Y-66076904D01*
X121027500Y-66172142D01*
X120979880Y-66219761D01*
X120884642Y-66267380D01*
X120694166Y-66267380D01*
X120598928Y-66219761D01*
X120551309Y-66172142D01*
X120503690Y-66076904D01*
X120503690Y-65886428D01*
X120551309Y-65791190D01*
X120598928Y-65743571D01*
X120694166Y-65695952D01*
X120075119Y-66172142D02*
X120027500Y-66219761D01*
X120075119Y-66267380D01*
X120122738Y-66219761D01*
X120075119Y-66172142D01*
X120075119Y-66267380D01*
X120075119Y-65648333D02*
X120027500Y-65695952D01*
X120075119Y-65743571D01*
X120122738Y-65695952D01*
X120075119Y-65648333D01*
X120075119Y-65743571D01*
X118360833Y-65267380D02*
X118837023Y-65267380D01*
X118884642Y-65743571D01*
X118837023Y-65695952D01*
X118741785Y-65648333D01*
X118503690Y-65648333D01*
X118408452Y-65695952D01*
X118360833Y-65743571D01*
X118313214Y-65838809D01*
X118313214Y-66076904D01*
X118360833Y-66172142D01*
X118408452Y-66219761D01*
X118503690Y-66267380D01*
X118741785Y-66267380D01*
X118837023Y-66219761D01*
X118884642Y-66172142D01*
X117884642Y-65886428D02*
X117122738Y-65886428D01*
X116646547Y-65600714D02*
X115884642Y-65886428D01*
X116646547Y-66172142D01*
X115551309Y-65267380D02*
X115217976Y-66267380D01*
X114884642Y-65267380D01*
X114551309Y-66267380D02*
X114551309Y-65267380D01*
X114313214Y-65267380D01*
X114170357Y-65315000D01*
X114075119Y-65410238D01*
X114027500Y-65505476D01*
X113979880Y-65695952D01*
X113979880Y-65838809D01*
X114027500Y-66029285D01*
X114075119Y-66124523D01*
X114170357Y-66219761D01*
X114313214Y-66267380D01*
X114551309Y-66267380D01*
X113551309Y-66267380D02*
X113551309Y-65267380D01*
X113313214Y-65267380D01*
X113170357Y-65315000D01*
X113075119Y-65410238D01*
X113027500Y-65505476D01*
X112979880Y-65695952D01*
X112979880Y-65838809D01*
X113027500Y-66029285D01*
X113075119Y-66124523D01*
X113170357Y-66219761D01*
X113313214Y-66267380D01*
X113551309Y-66267380D01*
M02*
