G04 #@! TF.GenerationSoftware,KiCad,Pcbnew,(5.1.5)-3*
G04 #@! TF.CreationDate,2020-06-05T23:08:29+02:00*
G04 #@! TF.ProjectId,STM32F030K6Tx_Breakout,53544d33-3246-4303-9330-4b3654785f42,rev?*
G04 #@! TF.SameCoordinates,Original*
G04 #@! TF.FileFunction,Soldermask,Top*
G04 #@! TF.FilePolarity,Negative*
%FSLAX46Y46*%
G04 Gerber Fmt 4.6, Leading zero omitted, Abs format (unit mm)*
G04 Created by KiCad (PCBNEW (5.1.5)-3) date 2020-06-05 23:08:29*
%MOMM*%
%LPD*%
G04 APERTURE LIST*
%ADD10C,0.100000*%
G04 APERTURE END LIST*
D10*
G36*
X121011564Y-75189389D02*
G01*
X121202833Y-75268615D01*
X121202835Y-75268616D01*
X121374973Y-75383635D01*
X121521365Y-75530027D01*
X121585256Y-75625646D01*
X121636385Y-75702167D01*
X121715611Y-75893436D01*
X121756000Y-76096484D01*
X121756000Y-76303516D01*
X121715611Y-76506564D01*
X121665815Y-76626782D01*
X121636384Y-76697835D01*
X121521365Y-76869973D01*
X121374973Y-77016365D01*
X121202835Y-77131384D01*
X121202834Y-77131385D01*
X121202833Y-77131385D01*
X121011564Y-77210611D01*
X120808516Y-77251000D01*
X120601484Y-77251000D01*
X120398436Y-77210611D01*
X120207167Y-77131385D01*
X120207166Y-77131385D01*
X120207165Y-77131384D01*
X120035027Y-77016365D01*
X119888635Y-76869973D01*
X119773616Y-76697835D01*
X119744185Y-76626782D01*
X119694389Y-76506564D01*
X119654000Y-76303516D01*
X119654000Y-76096484D01*
X119694389Y-75893436D01*
X119773615Y-75702167D01*
X119824745Y-75625646D01*
X119888635Y-75530027D01*
X120035027Y-75383635D01*
X120207165Y-75268616D01*
X120207167Y-75268615D01*
X120398436Y-75189389D01*
X120601484Y-75149000D01*
X120808516Y-75149000D01*
X121011564Y-75189389D01*
G37*
G36*
X116511564Y-75189389D02*
G01*
X116702833Y-75268615D01*
X116702835Y-75268616D01*
X116874973Y-75383635D01*
X117021365Y-75530027D01*
X117085256Y-75625646D01*
X117136385Y-75702167D01*
X117215611Y-75893436D01*
X117256000Y-76096484D01*
X117256000Y-76303516D01*
X117215611Y-76506564D01*
X117165815Y-76626782D01*
X117136384Y-76697835D01*
X117021365Y-76869973D01*
X116874973Y-77016365D01*
X116702835Y-77131384D01*
X116702834Y-77131385D01*
X116702833Y-77131385D01*
X116511564Y-77210611D01*
X116308516Y-77251000D01*
X116101484Y-77251000D01*
X115898436Y-77210611D01*
X115707167Y-77131385D01*
X115707166Y-77131385D01*
X115707165Y-77131384D01*
X115535027Y-77016365D01*
X115388635Y-76869973D01*
X115273616Y-76697835D01*
X115244185Y-76626782D01*
X115194389Y-76506564D01*
X115154000Y-76303516D01*
X115154000Y-76096484D01*
X115194389Y-75893436D01*
X115273615Y-75702167D01*
X115324745Y-75625646D01*
X115388635Y-75530027D01*
X115535027Y-75383635D01*
X115707165Y-75268616D01*
X115707167Y-75268615D01*
X115898436Y-75189389D01*
X116101484Y-75149000D01*
X116308516Y-75149000D01*
X116511564Y-75189389D01*
G37*
G36*
X124573512Y-75303927D02*
G01*
X124722812Y-75333624D01*
X124886784Y-75401544D01*
X125034354Y-75500147D01*
X125159853Y-75625646D01*
X125258456Y-75773216D01*
X125326376Y-75937188D01*
X125361000Y-76111259D01*
X125361000Y-76288741D01*
X125326376Y-76462812D01*
X125258456Y-76626784D01*
X125159853Y-76774354D01*
X125034354Y-76899853D01*
X124886784Y-76998456D01*
X124722812Y-77066376D01*
X124573512Y-77096073D01*
X124548742Y-77101000D01*
X124371258Y-77101000D01*
X124346488Y-77096073D01*
X124197188Y-77066376D01*
X124033216Y-76998456D01*
X123885646Y-76899853D01*
X123760147Y-76774354D01*
X123661544Y-76626784D01*
X123593624Y-76462812D01*
X123559000Y-76288741D01*
X123559000Y-76111259D01*
X123593624Y-75937188D01*
X123661544Y-75773216D01*
X123760147Y-75625646D01*
X123885646Y-75500147D01*
X124033216Y-75401544D01*
X124197188Y-75333624D01*
X124346488Y-75303927D01*
X124371258Y-75299000D01*
X124548742Y-75299000D01*
X124573512Y-75303927D01*
G37*
G36*
X101078512Y-75303927D02*
G01*
X101227812Y-75333624D01*
X101391784Y-75401544D01*
X101539354Y-75500147D01*
X101664853Y-75625646D01*
X101763456Y-75773216D01*
X101831376Y-75937188D01*
X101866000Y-76111259D01*
X101866000Y-76288741D01*
X101831376Y-76462812D01*
X101763456Y-76626784D01*
X101664853Y-76774354D01*
X101539354Y-76899853D01*
X101391784Y-76998456D01*
X101227812Y-77066376D01*
X101078512Y-77096073D01*
X101053742Y-77101000D01*
X100876258Y-77101000D01*
X100851488Y-77096073D01*
X100702188Y-77066376D01*
X100538216Y-76998456D01*
X100390646Y-76899853D01*
X100265147Y-76774354D01*
X100166544Y-76626784D01*
X100098624Y-76462812D01*
X100064000Y-76288741D01*
X100064000Y-76111259D01*
X100098624Y-75937188D01*
X100166544Y-75773216D01*
X100265147Y-75625646D01*
X100390646Y-75500147D01*
X100538216Y-75401544D01*
X100702188Y-75333624D01*
X100851488Y-75303927D01*
X100876258Y-75299000D01*
X101053742Y-75299000D01*
X101078512Y-75303927D01*
G37*
G36*
X99326000Y-77101000D02*
G01*
X97524000Y-77101000D01*
X97524000Y-75299000D01*
X99326000Y-75299000D01*
X99326000Y-77101000D01*
G37*
G36*
X94093512Y-75303927D02*
G01*
X94242812Y-75333624D01*
X94406784Y-75401544D01*
X94554354Y-75500147D01*
X94679853Y-75625646D01*
X94778456Y-75773216D01*
X94846376Y-75937188D01*
X94881000Y-76111259D01*
X94881000Y-76288741D01*
X94846376Y-76462812D01*
X94778456Y-76626784D01*
X94679853Y-76774354D01*
X94554354Y-76899853D01*
X94406784Y-76998456D01*
X94242812Y-77066376D01*
X94093512Y-77096073D01*
X94068742Y-77101000D01*
X93891258Y-77101000D01*
X93866488Y-77096073D01*
X93717188Y-77066376D01*
X93553216Y-76998456D01*
X93405646Y-76899853D01*
X93280147Y-76774354D01*
X93181544Y-76626784D01*
X93113624Y-76462812D01*
X93079000Y-76288741D01*
X93079000Y-76111259D01*
X93113624Y-75937188D01*
X93181544Y-75773216D01*
X93280147Y-75625646D01*
X93405646Y-75500147D01*
X93553216Y-75401544D01*
X93717188Y-75333624D01*
X93866488Y-75303927D01*
X93891258Y-75299000D01*
X94068742Y-75299000D01*
X94093512Y-75303927D01*
G37*
G36*
X107156000Y-74792520D02*
G01*
X107137611Y-74807611D01*
X107122066Y-74826553D01*
X107110515Y-74848164D01*
X107103402Y-74871613D01*
X107101000Y-74895999D01*
X107101000Y-76861000D01*
X106259000Y-76861000D01*
X106259000Y-74895999D01*
X106256598Y-74871613D01*
X106249485Y-74848164D01*
X106237934Y-74826553D01*
X106222389Y-74807611D01*
X106204000Y-74792520D01*
X106204000Y-73819000D01*
X107156000Y-73819000D01*
X107156000Y-74792520D01*
G37*
G36*
X108088843Y-73837292D02*
G01*
X108139588Y-73858311D01*
X108175470Y-73873174D01*
X108253432Y-73925267D01*
X108319733Y-73991568D01*
X108371826Y-74069530D01*
X108386689Y-74105412D01*
X108407708Y-74156157D01*
X108426000Y-74248117D01*
X108426000Y-74341883D01*
X108422426Y-74359852D01*
X108407707Y-74433844D01*
X108380513Y-74499497D01*
X108373402Y-74522940D01*
X108371000Y-74547327D01*
X108371000Y-76861000D01*
X107529000Y-76861000D01*
X107529000Y-74547327D01*
X107526598Y-74522941D01*
X107519487Y-74499497D01*
X107492293Y-74433844D01*
X107477575Y-74359852D01*
X107474000Y-74341883D01*
X107474000Y-74248117D01*
X107492292Y-74156157D01*
X107513311Y-74105412D01*
X107528174Y-74069530D01*
X107580267Y-73991568D01*
X107646568Y-73925267D01*
X107724530Y-73873174D01*
X107760412Y-73858311D01*
X107811157Y-73837292D01*
X107903117Y-73819000D01*
X107996883Y-73819000D01*
X108088843Y-73837292D01*
G37*
G36*
X109358843Y-73837292D02*
G01*
X109409588Y-73858311D01*
X109445470Y-73873174D01*
X109523432Y-73925267D01*
X109589733Y-73991568D01*
X109641826Y-74069530D01*
X109656689Y-74105412D01*
X109677708Y-74156157D01*
X109696000Y-74248117D01*
X109696000Y-74341883D01*
X109692426Y-74359852D01*
X109677707Y-74433844D01*
X109650513Y-74499497D01*
X109643402Y-74522940D01*
X109641000Y-74547327D01*
X109641000Y-76861000D01*
X108799000Y-76861000D01*
X108799000Y-74547327D01*
X108796598Y-74522941D01*
X108789487Y-74499497D01*
X108762293Y-74433844D01*
X108747575Y-74359852D01*
X108744000Y-74341883D01*
X108744000Y-74248117D01*
X108762292Y-74156157D01*
X108783311Y-74105412D01*
X108798174Y-74069530D01*
X108850267Y-73991568D01*
X108916568Y-73925267D01*
X108994530Y-73873174D01*
X109030412Y-73858311D01*
X109081157Y-73837292D01*
X109173117Y-73819000D01*
X109266883Y-73819000D01*
X109358843Y-73837292D01*
G37*
G36*
X111898843Y-73837292D02*
G01*
X111949588Y-73858311D01*
X111985470Y-73873174D01*
X112063432Y-73925267D01*
X112129733Y-73991568D01*
X112181826Y-74069530D01*
X112196689Y-74105412D01*
X112217708Y-74156157D01*
X112236000Y-74248117D01*
X112236000Y-74341883D01*
X112232426Y-74359852D01*
X112217707Y-74433844D01*
X112190513Y-74499497D01*
X112183402Y-74522940D01*
X112181000Y-74547327D01*
X112181000Y-76861000D01*
X111339000Y-76861000D01*
X111339000Y-74547327D01*
X111336598Y-74522941D01*
X111329487Y-74499497D01*
X111302293Y-74433844D01*
X111287575Y-74359852D01*
X111284000Y-74341883D01*
X111284000Y-74248117D01*
X111302292Y-74156157D01*
X111323311Y-74105412D01*
X111338174Y-74069530D01*
X111390267Y-73991568D01*
X111456568Y-73925267D01*
X111534530Y-73873174D01*
X111570412Y-73858311D01*
X111621157Y-73837292D01*
X111713117Y-73819000D01*
X111806883Y-73819000D01*
X111898843Y-73837292D01*
G37*
G36*
X110628843Y-73837292D02*
G01*
X110679588Y-73858311D01*
X110715470Y-73873174D01*
X110793432Y-73925267D01*
X110859733Y-73991568D01*
X110911826Y-74069530D01*
X110926689Y-74105412D01*
X110947708Y-74156157D01*
X110966000Y-74248117D01*
X110966000Y-74341883D01*
X110962426Y-74359852D01*
X110947707Y-74433844D01*
X110920513Y-74499497D01*
X110913402Y-74522940D01*
X110911000Y-74547327D01*
X110911000Y-76861000D01*
X110069000Y-76861000D01*
X110069000Y-74547327D01*
X110066598Y-74522941D01*
X110059487Y-74499497D01*
X110032293Y-74433844D01*
X110017575Y-74359852D01*
X110014000Y-74341883D01*
X110014000Y-74248117D01*
X110032292Y-74156157D01*
X110053311Y-74105412D01*
X110068174Y-74069530D01*
X110120267Y-73991568D01*
X110186568Y-73925267D01*
X110264530Y-73873174D01*
X110300412Y-73858311D01*
X110351157Y-73837292D01*
X110443117Y-73819000D01*
X110536883Y-73819000D01*
X110628843Y-73837292D01*
G37*
G36*
X94093512Y-72763927D02*
G01*
X94242812Y-72793624D01*
X94406784Y-72861544D01*
X94554354Y-72960147D01*
X94679853Y-73085646D01*
X94778456Y-73233216D01*
X94846376Y-73397188D01*
X94881000Y-73571259D01*
X94881000Y-73748741D01*
X94846376Y-73922812D01*
X94778456Y-74086784D01*
X94679853Y-74234354D01*
X94554354Y-74359853D01*
X94406784Y-74458456D01*
X94242812Y-74526376D01*
X94093512Y-74556073D01*
X94068742Y-74561000D01*
X93891258Y-74561000D01*
X93866488Y-74556073D01*
X93717188Y-74526376D01*
X93553216Y-74458456D01*
X93405646Y-74359853D01*
X93280147Y-74234354D01*
X93181544Y-74086784D01*
X93113624Y-73922812D01*
X93079000Y-73748741D01*
X93079000Y-73571259D01*
X93113624Y-73397188D01*
X93181544Y-73233216D01*
X93280147Y-73085646D01*
X93405646Y-72960147D01*
X93553216Y-72861544D01*
X93717188Y-72793624D01*
X93866488Y-72763927D01*
X93891258Y-72759000D01*
X94068742Y-72759000D01*
X94093512Y-72763927D01*
G37*
G36*
X124573512Y-72763927D02*
G01*
X124722812Y-72793624D01*
X124886784Y-72861544D01*
X125034354Y-72960147D01*
X125159853Y-73085646D01*
X125258456Y-73233216D01*
X125326376Y-73397188D01*
X125361000Y-73571259D01*
X125361000Y-73748741D01*
X125326376Y-73922812D01*
X125258456Y-74086784D01*
X125159853Y-74234354D01*
X125034354Y-74359853D01*
X124886784Y-74458456D01*
X124722812Y-74526376D01*
X124573512Y-74556073D01*
X124548742Y-74561000D01*
X124371258Y-74561000D01*
X124346488Y-74556073D01*
X124197188Y-74526376D01*
X124033216Y-74458456D01*
X123885646Y-74359853D01*
X123760147Y-74234354D01*
X123661544Y-74086784D01*
X123593624Y-73922812D01*
X123559000Y-73748741D01*
X123559000Y-73571259D01*
X123593624Y-73397188D01*
X123661544Y-73233216D01*
X123760147Y-73085646D01*
X123885646Y-72960147D01*
X124033216Y-72861544D01*
X124197188Y-72793624D01*
X124346488Y-72763927D01*
X124371258Y-72759000D01*
X124548742Y-72759000D01*
X124573512Y-72763927D01*
G37*
G36*
X110911000Y-72772673D02*
G01*
X110913402Y-72797059D01*
X110920513Y-72820503D01*
X110947707Y-72886156D01*
X110947708Y-72886159D01*
X110966000Y-72978117D01*
X110966000Y-73071883D01*
X110947708Y-73163843D01*
X110926689Y-73214588D01*
X110911826Y-73250470D01*
X110859733Y-73328432D01*
X110793432Y-73394733D01*
X110715470Y-73446826D01*
X110679588Y-73461689D01*
X110628843Y-73482708D01*
X110536883Y-73501000D01*
X110443117Y-73501000D01*
X110351157Y-73482708D01*
X110300412Y-73461689D01*
X110264530Y-73446826D01*
X110186568Y-73394733D01*
X110120267Y-73328432D01*
X110068174Y-73250470D01*
X110053311Y-73214588D01*
X110032292Y-73163843D01*
X110014000Y-73071883D01*
X110014000Y-72978117D01*
X110032292Y-72886159D01*
X110032293Y-72886156D01*
X110059487Y-72820503D01*
X110066598Y-72797060D01*
X110069000Y-72772673D01*
X110069000Y-70459000D01*
X110911000Y-70459000D01*
X110911000Y-72772673D01*
G37*
G36*
X112181000Y-72772673D02*
G01*
X112183402Y-72797059D01*
X112190513Y-72820503D01*
X112217707Y-72886156D01*
X112217708Y-72886159D01*
X112236000Y-72978117D01*
X112236000Y-73071883D01*
X112217708Y-73163843D01*
X112196689Y-73214588D01*
X112181826Y-73250470D01*
X112129733Y-73328432D01*
X112063432Y-73394733D01*
X111985470Y-73446826D01*
X111949588Y-73461689D01*
X111898843Y-73482708D01*
X111806883Y-73501000D01*
X111713117Y-73501000D01*
X111621157Y-73482708D01*
X111570412Y-73461689D01*
X111534530Y-73446826D01*
X111456568Y-73394733D01*
X111390267Y-73328432D01*
X111338174Y-73250470D01*
X111323311Y-73214588D01*
X111302292Y-73163843D01*
X111284000Y-73071883D01*
X111284000Y-72978117D01*
X111302292Y-72886159D01*
X111302293Y-72886156D01*
X111329487Y-72820503D01*
X111336598Y-72797060D01*
X111339000Y-72772673D01*
X111339000Y-70459000D01*
X112181000Y-70459000D01*
X112181000Y-72772673D01*
G37*
G36*
X108371000Y-72772673D02*
G01*
X108373402Y-72797059D01*
X108380513Y-72820503D01*
X108407707Y-72886156D01*
X108407708Y-72886159D01*
X108426000Y-72978117D01*
X108426000Y-73071883D01*
X108407708Y-73163843D01*
X108386689Y-73214588D01*
X108371826Y-73250470D01*
X108319733Y-73328432D01*
X108253432Y-73394733D01*
X108175470Y-73446826D01*
X108139588Y-73461689D01*
X108088843Y-73482708D01*
X107996883Y-73501000D01*
X107903117Y-73501000D01*
X107811157Y-73482708D01*
X107760412Y-73461689D01*
X107724530Y-73446826D01*
X107646568Y-73394733D01*
X107580267Y-73328432D01*
X107528174Y-73250470D01*
X107513311Y-73214588D01*
X107492292Y-73163843D01*
X107474000Y-73071883D01*
X107474000Y-72978117D01*
X107492292Y-72886159D01*
X107492293Y-72886156D01*
X107519487Y-72820503D01*
X107526598Y-72797060D01*
X107529000Y-72772673D01*
X107529000Y-70459000D01*
X108371000Y-70459000D01*
X108371000Y-72772673D01*
G37*
G36*
X107101000Y-72772673D02*
G01*
X107103402Y-72797059D01*
X107110513Y-72820503D01*
X107137707Y-72886156D01*
X107137708Y-72886159D01*
X107156000Y-72978117D01*
X107156000Y-73071883D01*
X107137708Y-73163843D01*
X107116689Y-73214588D01*
X107101826Y-73250470D01*
X107049733Y-73328432D01*
X106983432Y-73394733D01*
X106905470Y-73446826D01*
X106869588Y-73461689D01*
X106818843Y-73482708D01*
X106726883Y-73501000D01*
X106633117Y-73501000D01*
X106541157Y-73482708D01*
X106490412Y-73461689D01*
X106454530Y-73446826D01*
X106376568Y-73394733D01*
X106310267Y-73328432D01*
X106258174Y-73250470D01*
X106243311Y-73214588D01*
X106222292Y-73163843D01*
X106204000Y-73071883D01*
X106204000Y-72978117D01*
X106222292Y-72886159D01*
X106222293Y-72886156D01*
X106249487Y-72820503D01*
X106256598Y-72797060D01*
X106259000Y-72772673D01*
X106259000Y-70459000D01*
X107101000Y-70459000D01*
X107101000Y-72772673D01*
G37*
G36*
X109641000Y-72772673D02*
G01*
X109643402Y-72797059D01*
X109650513Y-72820503D01*
X109677707Y-72886156D01*
X109677708Y-72886159D01*
X109696000Y-72978117D01*
X109696000Y-73071883D01*
X109677708Y-73163843D01*
X109656689Y-73214588D01*
X109641826Y-73250470D01*
X109589733Y-73328432D01*
X109523432Y-73394733D01*
X109445470Y-73446826D01*
X109409588Y-73461689D01*
X109358843Y-73482708D01*
X109266883Y-73501000D01*
X109173117Y-73501000D01*
X109081157Y-73482708D01*
X109030412Y-73461689D01*
X108994530Y-73446826D01*
X108916568Y-73394733D01*
X108850267Y-73328432D01*
X108798174Y-73250470D01*
X108783311Y-73214588D01*
X108762292Y-73163843D01*
X108744000Y-73071883D01*
X108744000Y-72978117D01*
X108762292Y-72886159D01*
X108762293Y-72886156D01*
X108789487Y-72820503D01*
X108796598Y-72797060D01*
X108799000Y-72772673D01*
X108799000Y-70459000D01*
X109641000Y-70459000D01*
X109641000Y-72772673D01*
G37*
G36*
X99009468Y-71523565D02*
G01*
X99048138Y-71535296D01*
X99083777Y-71554346D01*
X99115017Y-71579983D01*
X99140654Y-71611223D01*
X99159704Y-71646862D01*
X99171435Y-71685532D01*
X99176000Y-71731888D01*
X99176000Y-72383112D01*
X99171435Y-72429468D01*
X99159704Y-72468138D01*
X99140654Y-72503777D01*
X99115017Y-72535017D01*
X99083777Y-72560654D01*
X99048138Y-72579704D01*
X99009468Y-72591435D01*
X98963112Y-72596000D01*
X97886888Y-72596000D01*
X97840532Y-72591435D01*
X97801862Y-72579704D01*
X97766223Y-72560654D01*
X97734983Y-72535017D01*
X97709346Y-72503777D01*
X97690296Y-72468138D01*
X97678565Y-72429468D01*
X97674000Y-72383112D01*
X97674000Y-71731888D01*
X97678565Y-71685532D01*
X97690296Y-71646862D01*
X97709346Y-71611223D01*
X97734983Y-71579983D01*
X97766223Y-71554346D01*
X97801862Y-71535296D01*
X97840532Y-71523565D01*
X97886888Y-71519000D01*
X98963112Y-71519000D01*
X99009468Y-71523565D01*
G37*
G36*
X101344591Y-71423085D02*
G01*
X101378569Y-71433393D01*
X101409890Y-71450134D01*
X101437339Y-71472661D01*
X101459866Y-71500110D01*
X101476607Y-71531431D01*
X101486915Y-71565409D01*
X101491000Y-71606890D01*
X101491000Y-72208110D01*
X101486915Y-72249591D01*
X101476607Y-72283569D01*
X101459866Y-72314890D01*
X101437339Y-72342339D01*
X101409890Y-72364866D01*
X101378569Y-72381607D01*
X101344591Y-72391915D01*
X101303110Y-72396000D01*
X100626890Y-72396000D01*
X100585409Y-72391915D01*
X100551431Y-72381607D01*
X100520110Y-72364866D01*
X100492661Y-72342339D01*
X100470134Y-72314890D01*
X100453393Y-72283569D01*
X100443085Y-72249591D01*
X100439000Y-72208110D01*
X100439000Y-71606890D01*
X100443085Y-71565409D01*
X100453393Y-71531431D01*
X100470134Y-71500110D01*
X100492661Y-71472661D01*
X100520110Y-71450134D01*
X100551431Y-71433393D01*
X100585409Y-71423085D01*
X100626890Y-71419000D01*
X101303110Y-71419000D01*
X101344591Y-71423085D01*
G37*
G36*
X124573512Y-70223927D02*
G01*
X124722812Y-70253624D01*
X124886784Y-70321544D01*
X125034354Y-70420147D01*
X125159853Y-70545646D01*
X125258456Y-70693216D01*
X125326376Y-70857188D01*
X125361000Y-71031259D01*
X125361000Y-71208741D01*
X125326376Y-71382812D01*
X125258456Y-71546784D01*
X125159853Y-71694354D01*
X125034354Y-71819853D01*
X124886784Y-71918456D01*
X124722812Y-71986376D01*
X124573512Y-72016073D01*
X124548742Y-72021000D01*
X124371258Y-72021000D01*
X124346488Y-72016073D01*
X124197188Y-71986376D01*
X124033216Y-71918456D01*
X123885646Y-71819853D01*
X123760147Y-71694354D01*
X123661544Y-71546784D01*
X123593624Y-71382812D01*
X123559000Y-71208741D01*
X123559000Y-71031259D01*
X123593624Y-70857188D01*
X123661544Y-70693216D01*
X123760147Y-70545646D01*
X123885646Y-70420147D01*
X124033216Y-70321544D01*
X124197188Y-70253624D01*
X124346488Y-70223927D01*
X124371258Y-70219000D01*
X124548742Y-70219000D01*
X124573512Y-70223927D01*
G37*
G36*
X94093512Y-70223927D02*
G01*
X94242812Y-70253624D01*
X94406784Y-70321544D01*
X94554354Y-70420147D01*
X94679853Y-70545646D01*
X94778456Y-70693216D01*
X94846376Y-70857188D01*
X94881000Y-71031259D01*
X94881000Y-71208741D01*
X94846376Y-71382812D01*
X94778456Y-71546784D01*
X94679853Y-71694354D01*
X94554354Y-71819853D01*
X94406784Y-71918456D01*
X94242812Y-71986376D01*
X94093512Y-72016073D01*
X94068742Y-72021000D01*
X93891258Y-72021000D01*
X93866488Y-72016073D01*
X93717188Y-71986376D01*
X93553216Y-71918456D01*
X93405646Y-71819853D01*
X93280147Y-71694354D01*
X93181544Y-71546784D01*
X93113624Y-71382812D01*
X93079000Y-71208741D01*
X93079000Y-71031259D01*
X93113624Y-70857188D01*
X93181544Y-70693216D01*
X93280147Y-70545646D01*
X93405646Y-70420147D01*
X93553216Y-70321544D01*
X93717188Y-70253624D01*
X93866488Y-70223927D01*
X93891258Y-70219000D01*
X94068742Y-70219000D01*
X94093512Y-70223927D01*
G37*
G36*
X101344591Y-69848085D02*
G01*
X101378569Y-69858393D01*
X101409890Y-69875134D01*
X101437339Y-69897661D01*
X101459866Y-69925110D01*
X101476607Y-69956431D01*
X101486915Y-69990409D01*
X101491000Y-70031890D01*
X101491000Y-70633110D01*
X101486915Y-70674591D01*
X101476607Y-70708569D01*
X101459866Y-70739890D01*
X101437339Y-70767339D01*
X101409890Y-70789866D01*
X101378569Y-70806607D01*
X101344591Y-70816915D01*
X101303110Y-70821000D01*
X100626890Y-70821000D01*
X100585409Y-70816915D01*
X100551431Y-70806607D01*
X100520110Y-70789866D01*
X100492661Y-70767339D01*
X100470134Y-70739890D01*
X100453393Y-70708569D01*
X100443085Y-70674591D01*
X100439000Y-70633110D01*
X100439000Y-70031890D01*
X100443085Y-69990409D01*
X100453393Y-69956431D01*
X100470134Y-69925110D01*
X100492661Y-69897661D01*
X100520110Y-69875134D01*
X100551431Y-69858393D01*
X100585409Y-69848085D01*
X100626890Y-69844000D01*
X101303110Y-69844000D01*
X101344591Y-69848085D01*
G37*
G36*
X116511564Y-68689389D02*
G01*
X116702833Y-68768615D01*
X116702835Y-68768616D01*
X116874973Y-68883635D01*
X117021365Y-69030027D01*
X117104438Y-69154354D01*
X117136385Y-69202167D01*
X117215611Y-69393436D01*
X117256000Y-69596484D01*
X117256000Y-69803516D01*
X117215611Y-70006564D01*
X117136385Y-70197833D01*
X117136384Y-70197835D01*
X117021365Y-70369973D01*
X116874973Y-70516365D01*
X116702835Y-70631384D01*
X116702834Y-70631385D01*
X116702833Y-70631385D01*
X116511564Y-70710611D01*
X116308516Y-70751000D01*
X116101484Y-70751000D01*
X115898436Y-70710611D01*
X115707167Y-70631385D01*
X115707166Y-70631385D01*
X115707165Y-70631384D01*
X115535027Y-70516365D01*
X115388635Y-70369973D01*
X115273616Y-70197835D01*
X115273615Y-70197833D01*
X115194389Y-70006564D01*
X115154000Y-69803516D01*
X115154000Y-69596484D01*
X115194389Y-69393436D01*
X115273615Y-69202167D01*
X115305563Y-69154354D01*
X115388635Y-69030027D01*
X115535027Y-68883635D01*
X115707165Y-68768616D01*
X115707167Y-68768615D01*
X115898436Y-68689389D01*
X116101484Y-68649000D01*
X116308516Y-68649000D01*
X116511564Y-68689389D01*
G37*
G36*
X121011564Y-68689389D02*
G01*
X121202833Y-68768615D01*
X121202835Y-68768616D01*
X121374973Y-68883635D01*
X121521365Y-69030027D01*
X121604438Y-69154354D01*
X121636385Y-69202167D01*
X121715611Y-69393436D01*
X121756000Y-69596484D01*
X121756000Y-69803516D01*
X121715611Y-70006564D01*
X121636385Y-70197833D01*
X121636384Y-70197835D01*
X121521365Y-70369973D01*
X121374973Y-70516365D01*
X121202835Y-70631384D01*
X121202834Y-70631385D01*
X121202833Y-70631385D01*
X121011564Y-70710611D01*
X120808516Y-70751000D01*
X120601484Y-70751000D01*
X120398436Y-70710611D01*
X120207167Y-70631385D01*
X120207166Y-70631385D01*
X120207165Y-70631384D01*
X120035027Y-70516365D01*
X119888635Y-70369973D01*
X119773616Y-70197835D01*
X119773615Y-70197833D01*
X119694389Y-70006564D01*
X119654000Y-69803516D01*
X119654000Y-69596484D01*
X119694389Y-69393436D01*
X119773615Y-69202167D01*
X119805563Y-69154354D01*
X119888635Y-69030027D01*
X120035027Y-68883635D01*
X120207165Y-68768616D01*
X120207167Y-68768615D01*
X120398436Y-68689389D01*
X120601484Y-68649000D01*
X120808516Y-68649000D01*
X121011564Y-68689389D01*
G37*
G36*
X99009468Y-69648565D02*
G01*
X99048138Y-69660296D01*
X99083777Y-69679346D01*
X99115017Y-69704983D01*
X99140654Y-69736223D01*
X99159704Y-69771862D01*
X99171435Y-69810532D01*
X99176000Y-69856888D01*
X99176000Y-70508112D01*
X99171435Y-70554468D01*
X99159704Y-70593138D01*
X99140654Y-70628777D01*
X99115017Y-70660017D01*
X99083777Y-70685654D01*
X99048138Y-70704704D01*
X99009468Y-70716435D01*
X98963112Y-70721000D01*
X97886888Y-70721000D01*
X97840532Y-70716435D01*
X97801862Y-70704704D01*
X97766223Y-70685654D01*
X97734983Y-70660017D01*
X97709346Y-70628777D01*
X97690296Y-70593138D01*
X97678565Y-70554468D01*
X97674000Y-70508112D01*
X97674000Y-69856888D01*
X97678565Y-69810532D01*
X97690296Y-69771862D01*
X97709346Y-69736223D01*
X97734983Y-69704983D01*
X97766223Y-69679346D01*
X97801862Y-69660296D01*
X97840532Y-69648565D01*
X97886888Y-69644000D01*
X98963112Y-69644000D01*
X99009468Y-69648565D01*
G37*
G36*
X124573512Y-67683927D02*
G01*
X124722812Y-67713624D01*
X124886784Y-67781544D01*
X125034354Y-67880147D01*
X125159853Y-68005646D01*
X125258456Y-68153216D01*
X125326376Y-68317188D01*
X125361000Y-68491259D01*
X125361000Y-68668741D01*
X125326376Y-68842812D01*
X125258456Y-69006784D01*
X125159853Y-69154354D01*
X125034354Y-69279853D01*
X124886784Y-69378456D01*
X124722812Y-69446376D01*
X124573512Y-69476073D01*
X124548742Y-69481000D01*
X124371258Y-69481000D01*
X124346488Y-69476073D01*
X124197188Y-69446376D01*
X124033216Y-69378456D01*
X123885646Y-69279853D01*
X123760147Y-69154354D01*
X123661544Y-69006784D01*
X123593624Y-68842812D01*
X123559000Y-68668741D01*
X123559000Y-68491259D01*
X123593624Y-68317188D01*
X123661544Y-68153216D01*
X123760147Y-68005646D01*
X123885646Y-67880147D01*
X124033216Y-67781544D01*
X124197188Y-67713624D01*
X124346488Y-67683927D01*
X124371258Y-67679000D01*
X124548742Y-67679000D01*
X124573512Y-67683927D01*
G37*
G36*
X94093512Y-67683927D02*
G01*
X94242812Y-67713624D01*
X94406784Y-67781544D01*
X94554354Y-67880147D01*
X94679853Y-68005646D01*
X94778456Y-68153216D01*
X94846376Y-68317188D01*
X94881000Y-68491259D01*
X94881000Y-68668741D01*
X94846376Y-68842812D01*
X94778456Y-69006784D01*
X94679853Y-69154354D01*
X94554354Y-69279853D01*
X94406784Y-69378456D01*
X94242812Y-69446376D01*
X94093512Y-69476073D01*
X94068742Y-69481000D01*
X93891258Y-69481000D01*
X93866488Y-69476073D01*
X93717188Y-69446376D01*
X93553216Y-69378456D01*
X93405646Y-69279853D01*
X93280147Y-69154354D01*
X93181544Y-69006784D01*
X93113624Y-68842812D01*
X93079000Y-68668741D01*
X93079000Y-68491259D01*
X93113624Y-68317188D01*
X93181544Y-68153216D01*
X93280147Y-68005646D01*
X93405646Y-67880147D01*
X93553216Y-67781544D01*
X93717188Y-67713624D01*
X93866488Y-67683927D01*
X93891258Y-67679000D01*
X94068742Y-67679000D01*
X94093512Y-67683927D01*
G37*
G36*
X99009468Y-67713565D02*
G01*
X99048138Y-67725296D01*
X99083777Y-67744346D01*
X99115017Y-67769983D01*
X99140654Y-67801223D01*
X99159704Y-67836862D01*
X99171435Y-67875532D01*
X99176000Y-67921888D01*
X99176000Y-68573112D01*
X99171435Y-68619468D01*
X99159704Y-68658138D01*
X99140654Y-68693777D01*
X99115017Y-68725017D01*
X99083777Y-68750654D01*
X99048138Y-68769704D01*
X99009468Y-68781435D01*
X98963112Y-68786000D01*
X97886888Y-68786000D01*
X97840532Y-68781435D01*
X97801862Y-68769704D01*
X97766223Y-68750654D01*
X97734983Y-68725017D01*
X97709346Y-68693777D01*
X97690296Y-68658138D01*
X97678565Y-68619468D01*
X97674000Y-68573112D01*
X97674000Y-67921888D01*
X97678565Y-67875532D01*
X97690296Y-67836862D01*
X97709346Y-67801223D01*
X97734983Y-67769983D01*
X97766223Y-67744346D01*
X97801862Y-67725296D01*
X97840532Y-67713565D01*
X97886888Y-67709000D01*
X98963112Y-67709000D01*
X99009468Y-67713565D01*
G37*
G36*
X101344591Y-67613085D02*
G01*
X101378569Y-67623393D01*
X101409890Y-67640134D01*
X101437339Y-67662661D01*
X101459866Y-67690110D01*
X101476607Y-67721431D01*
X101486915Y-67755409D01*
X101491000Y-67796890D01*
X101491000Y-68398110D01*
X101486915Y-68439591D01*
X101476607Y-68473569D01*
X101459866Y-68504890D01*
X101437339Y-68532339D01*
X101409890Y-68554866D01*
X101378569Y-68571607D01*
X101344591Y-68581915D01*
X101303110Y-68586000D01*
X100626890Y-68586000D01*
X100585409Y-68581915D01*
X100551431Y-68571607D01*
X100520110Y-68554866D01*
X100492661Y-68532339D01*
X100470134Y-68504890D01*
X100453393Y-68473569D01*
X100443085Y-68439591D01*
X100439000Y-68398110D01*
X100439000Y-67796890D01*
X100443085Y-67755409D01*
X100453393Y-67721431D01*
X100470134Y-67690110D01*
X100492661Y-67662661D01*
X100520110Y-67640134D01*
X100551431Y-67623393D01*
X100585409Y-67613085D01*
X100626890Y-67609000D01*
X101303110Y-67609000D01*
X101344591Y-67613085D01*
G37*
G36*
X110349591Y-67423085D02*
G01*
X110383569Y-67433393D01*
X110414890Y-67450134D01*
X110442339Y-67472661D01*
X110464866Y-67500110D01*
X110481607Y-67531431D01*
X110491915Y-67565409D01*
X110496000Y-67606890D01*
X110496000Y-68283110D01*
X110491915Y-68324591D01*
X110481607Y-68358569D01*
X110464866Y-68389890D01*
X110442339Y-68417339D01*
X110414890Y-68439866D01*
X110383569Y-68456607D01*
X110349591Y-68466915D01*
X110308110Y-68471000D01*
X109706890Y-68471000D01*
X109665409Y-68466915D01*
X109631431Y-68456607D01*
X109600110Y-68439866D01*
X109572661Y-68417339D01*
X109550134Y-68389890D01*
X109533393Y-68358569D01*
X109523085Y-68324591D01*
X109519000Y-68283110D01*
X109519000Y-67606890D01*
X109523085Y-67565409D01*
X109533393Y-67531431D01*
X109550134Y-67500110D01*
X109572661Y-67472661D01*
X109600110Y-67450134D01*
X109631431Y-67433393D01*
X109665409Y-67423085D01*
X109706890Y-67419000D01*
X110308110Y-67419000D01*
X110349591Y-67423085D01*
G37*
G36*
X108774591Y-67423085D02*
G01*
X108808569Y-67433393D01*
X108839890Y-67450134D01*
X108867339Y-67472661D01*
X108889866Y-67500110D01*
X108906607Y-67531431D01*
X108916915Y-67565409D01*
X108921000Y-67606890D01*
X108921000Y-68283110D01*
X108916915Y-68324591D01*
X108906607Y-68358569D01*
X108889866Y-68389890D01*
X108867339Y-68417339D01*
X108839890Y-68439866D01*
X108808569Y-68456607D01*
X108774591Y-68466915D01*
X108733110Y-68471000D01*
X108131890Y-68471000D01*
X108090409Y-68466915D01*
X108056431Y-68456607D01*
X108025110Y-68439866D01*
X107997661Y-68417339D01*
X107975134Y-68389890D01*
X107958393Y-68358569D01*
X107948085Y-68324591D01*
X107944000Y-68283110D01*
X107944000Y-67606890D01*
X107948085Y-67565409D01*
X107958393Y-67531431D01*
X107975134Y-67500110D01*
X107997661Y-67472661D01*
X108025110Y-67450134D01*
X108056431Y-67433393D01*
X108090409Y-67423085D01*
X108131890Y-67419000D01*
X108733110Y-67419000D01*
X108774591Y-67423085D01*
G37*
G36*
X117969591Y-66788085D02*
G01*
X118003569Y-66798393D01*
X118034890Y-66815134D01*
X118062339Y-66837661D01*
X118084866Y-66865110D01*
X118101607Y-66896431D01*
X118111915Y-66930409D01*
X118116000Y-66971890D01*
X118116000Y-67648110D01*
X118111915Y-67689591D01*
X118101607Y-67723569D01*
X118084866Y-67754890D01*
X118062339Y-67782339D01*
X118034890Y-67804866D01*
X118003569Y-67821607D01*
X117969591Y-67831915D01*
X117928110Y-67836000D01*
X117326890Y-67836000D01*
X117285409Y-67831915D01*
X117251431Y-67821607D01*
X117220110Y-67804866D01*
X117192661Y-67782339D01*
X117170134Y-67754890D01*
X117153393Y-67723569D01*
X117143085Y-67689591D01*
X117139000Y-67648110D01*
X117139000Y-66971890D01*
X117143085Y-66930409D01*
X117153393Y-66896431D01*
X117170134Y-66865110D01*
X117192661Y-66837661D01*
X117220110Y-66815134D01*
X117251431Y-66798393D01*
X117285409Y-66788085D01*
X117326890Y-66784000D01*
X117928110Y-66784000D01*
X117969591Y-66788085D01*
G37*
G36*
X116394591Y-66788085D02*
G01*
X116428569Y-66798393D01*
X116459890Y-66815134D01*
X116487339Y-66837661D01*
X116509866Y-66865110D01*
X116526607Y-66896431D01*
X116536915Y-66930409D01*
X116541000Y-66971890D01*
X116541000Y-67648110D01*
X116536915Y-67689591D01*
X116526607Y-67723569D01*
X116509866Y-67754890D01*
X116487339Y-67782339D01*
X116459890Y-67804866D01*
X116428569Y-67821607D01*
X116394591Y-67831915D01*
X116353110Y-67836000D01*
X115751890Y-67836000D01*
X115710409Y-67831915D01*
X115676431Y-67821607D01*
X115645110Y-67804866D01*
X115617661Y-67782339D01*
X115595134Y-67754890D01*
X115578393Y-67723569D01*
X115568085Y-67689591D01*
X115564000Y-67648110D01*
X115564000Y-66971890D01*
X115568085Y-66930409D01*
X115578393Y-66896431D01*
X115595134Y-66865110D01*
X115617661Y-66837661D01*
X115645110Y-66815134D01*
X115676431Y-66798393D01*
X115710409Y-66788085D01*
X115751890Y-66784000D01*
X116353110Y-66784000D01*
X116394591Y-66788085D01*
G37*
G36*
X119569591Y-66788085D02*
G01*
X119603569Y-66798393D01*
X119634890Y-66815134D01*
X119662339Y-66837661D01*
X119684866Y-66865110D01*
X119701607Y-66896431D01*
X119711915Y-66930409D01*
X119716000Y-66971890D01*
X119716000Y-67648110D01*
X119711915Y-67689591D01*
X119701607Y-67723569D01*
X119684866Y-67754890D01*
X119662339Y-67782339D01*
X119634890Y-67804866D01*
X119603569Y-67821607D01*
X119569591Y-67831915D01*
X119528110Y-67836000D01*
X118926890Y-67836000D01*
X118885409Y-67831915D01*
X118851431Y-67821607D01*
X118820110Y-67804866D01*
X118792661Y-67782339D01*
X118770134Y-67754890D01*
X118753393Y-67723569D01*
X118743085Y-67689591D01*
X118739000Y-67648110D01*
X118739000Y-66971890D01*
X118743085Y-66930409D01*
X118753393Y-66896431D01*
X118770134Y-66865110D01*
X118792661Y-66837661D01*
X118820110Y-66815134D01*
X118851431Y-66798393D01*
X118885409Y-66788085D01*
X118926890Y-66784000D01*
X119528110Y-66784000D01*
X119569591Y-66788085D01*
G37*
G36*
X121144591Y-66788085D02*
G01*
X121178569Y-66798393D01*
X121209890Y-66815134D01*
X121237339Y-66837661D01*
X121259866Y-66865110D01*
X121276607Y-66896431D01*
X121286915Y-66930409D01*
X121291000Y-66971890D01*
X121291000Y-67648110D01*
X121286915Y-67689591D01*
X121276607Y-67723569D01*
X121259866Y-67754890D01*
X121237339Y-67782339D01*
X121209890Y-67804866D01*
X121178569Y-67821607D01*
X121144591Y-67831915D01*
X121103110Y-67836000D01*
X120501890Y-67836000D01*
X120460409Y-67831915D01*
X120426431Y-67821607D01*
X120395110Y-67804866D01*
X120367661Y-67782339D01*
X120345134Y-67754890D01*
X120328393Y-67723569D01*
X120318085Y-67689591D01*
X120314000Y-67648110D01*
X120314000Y-66971890D01*
X120318085Y-66930409D01*
X120328393Y-66896431D01*
X120345134Y-66865110D01*
X120367661Y-66837661D01*
X120395110Y-66815134D01*
X120426431Y-66798393D01*
X120460409Y-66788085D01*
X120501890Y-66784000D01*
X121103110Y-66784000D01*
X121144591Y-66788085D01*
G37*
G36*
X101344591Y-66038085D02*
G01*
X101378569Y-66048393D01*
X101409890Y-66065134D01*
X101437339Y-66087661D01*
X101459866Y-66115110D01*
X101476607Y-66146431D01*
X101486915Y-66180409D01*
X101491000Y-66221890D01*
X101491000Y-66823110D01*
X101486915Y-66864591D01*
X101476607Y-66898569D01*
X101459866Y-66929890D01*
X101437339Y-66957339D01*
X101409890Y-66979866D01*
X101378569Y-66996607D01*
X101344591Y-67006915D01*
X101303110Y-67011000D01*
X100626890Y-67011000D01*
X100585409Y-67006915D01*
X100551431Y-66996607D01*
X100520110Y-66979866D01*
X100492661Y-66957339D01*
X100470134Y-66929890D01*
X100453393Y-66898569D01*
X100443085Y-66864591D01*
X100439000Y-66823110D01*
X100439000Y-66221890D01*
X100443085Y-66180409D01*
X100453393Y-66146431D01*
X100470134Y-66115110D01*
X100492661Y-66087661D01*
X100520110Y-66065134D01*
X100551431Y-66048393D01*
X100585409Y-66038085D01*
X100626890Y-66034000D01*
X101303110Y-66034000D01*
X101344591Y-66038085D01*
G37*
G36*
X124573512Y-65143927D02*
G01*
X124722812Y-65173624D01*
X124886784Y-65241544D01*
X125034354Y-65340147D01*
X125159853Y-65465646D01*
X125258456Y-65613216D01*
X125326376Y-65777188D01*
X125361000Y-65951259D01*
X125361000Y-66128741D01*
X125326376Y-66302812D01*
X125258456Y-66466784D01*
X125159853Y-66614354D01*
X125034354Y-66739853D01*
X124886784Y-66838456D01*
X124722812Y-66906376D01*
X124580012Y-66934780D01*
X124548742Y-66941000D01*
X124371258Y-66941000D01*
X124339988Y-66934780D01*
X124197188Y-66906376D01*
X124033216Y-66838456D01*
X123885646Y-66739853D01*
X123760147Y-66614354D01*
X123661544Y-66466784D01*
X123593624Y-66302812D01*
X123559000Y-66128741D01*
X123559000Y-65951259D01*
X123593624Y-65777188D01*
X123661544Y-65613216D01*
X123760147Y-65465646D01*
X123885646Y-65340147D01*
X124033216Y-65241544D01*
X124197188Y-65173624D01*
X124346488Y-65143927D01*
X124371258Y-65139000D01*
X124548742Y-65139000D01*
X124573512Y-65143927D01*
G37*
G36*
X94093512Y-65143927D02*
G01*
X94242812Y-65173624D01*
X94406784Y-65241544D01*
X94554354Y-65340147D01*
X94679853Y-65465646D01*
X94778456Y-65613216D01*
X94846376Y-65777188D01*
X94881000Y-65951259D01*
X94881000Y-66128741D01*
X94846376Y-66302812D01*
X94778456Y-66466784D01*
X94679853Y-66614354D01*
X94554354Y-66739853D01*
X94406784Y-66838456D01*
X94242812Y-66906376D01*
X94100012Y-66934780D01*
X94068742Y-66941000D01*
X93891258Y-66941000D01*
X93859988Y-66934780D01*
X93717188Y-66906376D01*
X93553216Y-66838456D01*
X93405646Y-66739853D01*
X93280147Y-66614354D01*
X93181544Y-66466784D01*
X93113624Y-66302812D01*
X93079000Y-66128741D01*
X93079000Y-65951259D01*
X93113624Y-65777188D01*
X93181544Y-65613216D01*
X93280147Y-65465646D01*
X93405646Y-65340147D01*
X93553216Y-65241544D01*
X93717188Y-65173624D01*
X93866488Y-65143927D01*
X93891258Y-65139000D01*
X94068742Y-65139000D01*
X94093512Y-65143927D01*
G37*
G36*
X99009468Y-65838565D02*
G01*
X99048138Y-65850296D01*
X99083777Y-65869346D01*
X99115017Y-65894983D01*
X99140654Y-65926223D01*
X99159704Y-65961862D01*
X99171435Y-66000532D01*
X99176000Y-66046888D01*
X99176000Y-66698112D01*
X99171435Y-66744468D01*
X99159704Y-66783138D01*
X99140654Y-66818777D01*
X99115017Y-66850017D01*
X99083777Y-66875654D01*
X99048138Y-66894704D01*
X99009468Y-66906435D01*
X98963112Y-66911000D01*
X97886888Y-66911000D01*
X97840532Y-66906435D01*
X97801862Y-66894704D01*
X97766223Y-66875654D01*
X97734983Y-66850017D01*
X97709346Y-66818777D01*
X97690296Y-66783138D01*
X97678565Y-66744468D01*
X97674000Y-66698112D01*
X97674000Y-66046888D01*
X97678565Y-66000532D01*
X97690296Y-65961862D01*
X97709346Y-65926223D01*
X97734983Y-65894983D01*
X97766223Y-65869346D01*
X97801862Y-65850296D01*
X97840532Y-65838565D01*
X97886888Y-65834000D01*
X98963112Y-65834000D01*
X99009468Y-65838565D01*
G37*
G36*
X110984999Y-64604737D02*
G01*
X110994608Y-64607652D01*
X111003472Y-64612390D01*
X111011237Y-64618763D01*
X111021448Y-64631206D01*
X111028378Y-64641575D01*
X111045705Y-64658902D01*
X111066080Y-64672515D01*
X111088720Y-64681891D01*
X111112753Y-64686671D01*
X111137257Y-64686670D01*
X111161290Y-64681888D01*
X111183929Y-64672510D01*
X111204302Y-64658895D01*
X111221629Y-64641568D01*
X111228558Y-64631198D01*
X111238763Y-64618763D01*
X111246528Y-64612390D01*
X111255392Y-64607652D01*
X111265001Y-64604737D01*
X111281140Y-64603148D01*
X111768861Y-64603148D01*
X111787199Y-64604954D01*
X111799450Y-64605556D01*
X111817869Y-64605556D01*
X111840149Y-64607750D01*
X111924233Y-64624476D01*
X111945660Y-64630976D01*
X112024858Y-64663780D01*
X112030303Y-64666691D01*
X112030309Y-64666693D01*
X112039169Y-64671429D01*
X112039173Y-64671432D01*
X112044614Y-64674340D01*
X112115899Y-64721971D01*
X112133204Y-64736172D01*
X112193828Y-64796796D01*
X112208029Y-64814101D01*
X112255660Y-64885386D01*
X112258568Y-64890827D01*
X112258571Y-64890831D01*
X112263307Y-64899691D01*
X112263309Y-64899697D01*
X112266220Y-64905142D01*
X112299024Y-64984340D01*
X112305524Y-65005767D01*
X112322250Y-65089851D01*
X112324444Y-65112131D01*
X112324444Y-65130550D01*
X112325046Y-65142801D01*
X112326852Y-65161139D01*
X112326852Y-65648862D01*
X112325046Y-65667199D01*
X112324444Y-65679450D01*
X112324444Y-65697869D01*
X112322250Y-65720149D01*
X112305524Y-65804233D01*
X112299024Y-65825660D01*
X112266220Y-65904858D01*
X112263309Y-65910303D01*
X112263307Y-65910309D01*
X112258571Y-65919169D01*
X112258568Y-65919173D01*
X112255660Y-65924614D01*
X112208029Y-65995899D01*
X112193828Y-66013204D01*
X112133204Y-66073828D01*
X112115899Y-66088029D01*
X112044614Y-66135660D01*
X112039173Y-66138568D01*
X112039169Y-66138571D01*
X112030309Y-66143307D01*
X112030303Y-66143309D01*
X112024858Y-66146220D01*
X111945660Y-66179024D01*
X111924233Y-66185524D01*
X111840149Y-66202250D01*
X111817869Y-66204444D01*
X111799450Y-66204444D01*
X111787199Y-66205046D01*
X111768862Y-66206852D01*
X111281140Y-66206852D01*
X111265001Y-66205263D01*
X111255392Y-66202348D01*
X111246528Y-66197610D01*
X111238763Y-66191237D01*
X111228552Y-66178794D01*
X111221622Y-66168425D01*
X111204295Y-66151098D01*
X111183920Y-66137485D01*
X111161280Y-66128109D01*
X111137247Y-66123329D01*
X111112743Y-66123330D01*
X111088710Y-66128112D01*
X111066071Y-66137490D01*
X111045698Y-66151105D01*
X111028371Y-66168432D01*
X111021442Y-66178802D01*
X111011237Y-66191237D01*
X111003472Y-66197610D01*
X110994608Y-66202348D01*
X110984999Y-66205263D01*
X110968860Y-66206852D01*
X110481138Y-66206852D01*
X110462801Y-66205046D01*
X110450550Y-66204444D01*
X110432131Y-66204444D01*
X110409851Y-66202250D01*
X110325767Y-66185524D01*
X110304340Y-66179024D01*
X110225142Y-66146220D01*
X110219697Y-66143309D01*
X110219691Y-66143307D01*
X110210831Y-66138571D01*
X110210827Y-66138568D01*
X110205386Y-66135660D01*
X110134101Y-66088029D01*
X110116796Y-66073828D01*
X110056172Y-66013204D01*
X110041971Y-65995899D01*
X109994340Y-65924614D01*
X109991432Y-65919173D01*
X109991429Y-65919169D01*
X109986693Y-65910309D01*
X109986691Y-65910303D01*
X109983780Y-65904858D01*
X109950976Y-65825660D01*
X109944476Y-65804233D01*
X109927750Y-65720149D01*
X109925556Y-65697869D01*
X109925556Y-65679450D01*
X109924954Y-65667199D01*
X109923148Y-65648862D01*
X109923148Y-65161139D01*
X109924954Y-65142801D01*
X109925556Y-65130550D01*
X109925556Y-65112131D01*
X109927750Y-65089851D01*
X109944476Y-65005767D01*
X109950976Y-64984340D01*
X109983780Y-64905142D01*
X109986691Y-64899697D01*
X109986693Y-64899691D01*
X109991429Y-64890831D01*
X109991432Y-64890827D01*
X109994340Y-64885386D01*
X110041971Y-64814101D01*
X110056172Y-64796796D01*
X110116796Y-64736172D01*
X110134101Y-64721971D01*
X110205386Y-64674340D01*
X110210827Y-64671432D01*
X110210831Y-64671429D01*
X110219691Y-64666693D01*
X110219697Y-64666691D01*
X110225142Y-64663780D01*
X110304340Y-64630976D01*
X110325767Y-64624476D01*
X110409851Y-64607750D01*
X110432131Y-64605556D01*
X110450550Y-64605556D01*
X110462801Y-64604954D01*
X110481139Y-64603148D01*
X110968860Y-64603148D01*
X110984999Y-64604737D01*
G37*
G36*
X107174999Y-64604737D02*
G01*
X107184608Y-64607652D01*
X107193472Y-64612390D01*
X107201237Y-64618763D01*
X107211448Y-64631206D01*
X107218378Y-64641575D01*
X107235705Y-64658902D01*
X107256080Y-64672515D01*
X107278720Y-64681891D01*
X107302753Y-64686671D01*
X107327257Y-64686670D01*
X107351290Y-64681888D01*
X107373929Y-64672510D01*
X107394302Y-64658895D01*
X107411629Y-64641568D01*
X107418558Y-64631198D01*
X107428763Y-64618763D01*
X107436528Y-64612390D01*
X107445392Y-64607652D01*
X107455001Y-64604737D01*
X107471140Y-64603148D01*
X107958861Y-64603148D01*
X107977199Y-64604954D01*
X107989450Y-64605556D01*
X108007869Y-64605556D01*
X108030149Y-64607750D01*
X108114233Y-64624476D01*
X108135660Y-64630976D01*
X108214858Y-64663780D01*
X108220303Y-64666691D01*
X108220309Y-64666693D01*
X108229169Y-64671429D01*
X108229173Y-64671432D01*
X108234614Y-64674340D01*
X108305899Y-64721971D01*
X108323204Y-64736172D01*
X108383828Y-64796796D01*
X108398029Y-64814101D01*
X108445660Y-64885386D01*
X108448568Y-64890827D01*
X108448571Y-64890831D01*
X108453307Y-64899691D01*
X108453309Y-64899697D01*
X108456220Y-64905142D01*
X108489024Y-64984340D01*
X108495524Y-65005767D01*
X108512250Y-65089851D01*
X108514444Y-65112131D01*
X108514444Y-65130550D01*
X108515046Y-65142801D01*
X108516852Y-65161139D01*
X108516852Y-65648862D01*
X108515046Y-65667199D01*
X108514444Y-65679450D01*
X108514444Y-65697869D01*
X108512250Y-65720149D01*
X108495524Y-65804233D01*
X108489024Y-65825660D01*
X108456220Y-65904858D01*
X108453309Y-65910303D01*
X108453307Y-65910309D01*
X108448571Y-65919169D01*
X108448568Y-65919173D01*
X108445660Y-65924614D01*
X108398029Y-65995899D01*
X108383828Y-66013204D01*
X108323204Y-66073828D01*
X108305899Y-66088029D01*
X108234614Y-66135660D01*
X108229173Y-66138568D01*
X108229169Y-66138571D01*
X108220309Y-66143307D01*
X108220303Y-66143309D01*
X108214858Y-66146220D01*
X108135660Y-66179024D01*
X108114233Y-66185524D01*
X108030149Y-66202250D01*
X108007869Y-66204444D01*
X107989450Y-66204444D01*
X107977199Y-66205046D01*
X107958862Y-66206852D01*
X107471140Y-66206852D01*
X107455001Y-66205263D01*
X107445392Y-66202348D01*
X107436528Y-66197610D01*
X107428763Y-66191237D01*
X107418552Y-66178794D01*
X107411622Y-66168425D01*
X107394295Y-66151098D01*
X107373920Y-66137485D01*
X107351280Y-66128109D01*
X107327247Y-66123329D01*
X107302743Y-66123330D01*
X107278710Y-66128112D01*
X107256071Y-66137490D01*
X107235698Y-66151105D01*
X107218371Y-66168432D01*
X107211442Y-66178802D01*
X107201237Y-66191237D01*
X107193472Y-66197610D01*
X107184608Y-66202348D01*
X107174999Y-66205263D01*
X107158860Y-66206852D01*
X106671138Y-66206852D01*
X106652801Y-66205046D01*
X106640550Y-66204444D01*
X106622131Y-66204444D01*
X106599851Y-66202250D01*
X106515767Y-66185524D01*
X106494340Y-66179024D01*
X106415142Y-66146220D01*
X106409697Y-66143309D01*
X106409691Y-66143307D01*
X106400831Y-66138571D01*
X106400827Y-66138568D01*
X106395386Y-66135660D01*
X106324101Y-66088029D01*
X106306796Y-66073828D01*
X106246172Y-66013204D01*
X106231971Y-65995899D01*
X106184340Y-65924614D01*
X106181432Y-65919173D01*
X106181429Y-65919169D01*
X106176693Y-65910309D01*
X106176691Y-65910303D01*
X106173780Y-65904858D01*
X106140976Y-65825660D01*
X106134476Y-65804233D01*
X106117750Y-65720149D01*
X106115556Y-65697869D01*
X106115556Y-65679450D01*
X106114954Y-65667199D01*
X106113148Y-65648862D01*
X106113148Y-65161139D01*
X106114954Y-65142801D01*
X106115556Y-65130550D01*
X106115556Y-65112131D01*
X106117750Y-65089851D01*
X106134476Y-65005767D01*
X106140976Y-64984340D01*
X106173780Y-64905142D01*
X106176691Y-64899697D01*
X106176693Y-64899691D01*
X106181429Y-64890831D01*
X106181432Y-64890827D01*
X106184340Y-64885386D01*
X106231971Y-64814101D01*
X106246172Y-64796796D01*
X106306796Y-64736172D01*
X106324101Y-64721971D01*
X106395386Y-64674340D01*
X106400827Y-64671432D01*
X106400831Y-64671429D01*
X106409691Y-64666693D01*
X106409697Y-64666691D01*
X106415142Y-64663780D01*
X106494340Y-64630976D01*
X106515767Y-64624476D01*
X106599851Y-64607750D01*
X106622131Y-64605556D01*
X106640550Y-64605556D01*
X106652801Y-64604954D01*
X106671139Y-64603148D01*
X107158860Y-64603148D01*
X107174999Y-64604737D01*
G37*
G36*
X99009468Y-63903565D02*
G01*
X99048138Y-63915296D01*
X99083777Y-63934346D01*
X99115017Y-63959983D01*
X99140654Y-63991223D01*
X99159704Y-64026862D01*
X99171435Y-64065532D01*
X99176000Y-64111888D01*
X99176000Y-64763112D01*
X99171435Y-64809468D01*
X99159704Y-64848138D01*
X99140654Y-64883777D01*
X99115017Y-64915017D01*
X99083777Y-64940654D01*
X99048138Y-64959704D01*
X99009468Y-64971435D01*
X98963112Y-64976000D01*
X97886888Y-64976000D01*
X97840532Y-64971435D01*
X97801862Y-64959704D01*
X97766223Y-64940654D01*
X97734983Y-64915017D01*
X97709346Y-64883777D01*
X97690296Y-64848138D01*
X97678565Y-64809468D01*
X97674000Y-64763112D01*
X97674000Y-64111888D01*
X97678565Y-64065532D01*
X97690296Y-64026862D01*
X97709346Y-63991223D01*
X97734983Y-63959983D01*
X97766223Y-63934346D01*
X97801862Y-63915296D01*
X97840532Y-63903565D01*
X97886888Y-63899000D01*
X98963112Y-63899000D01*
X99009468Y-63903565D01*
G37*
G36*
X101344591Y-63803085D02*
G01*
X101378569Y-63813393D01*
X101409890Y-63830134D01*
X101437339Y-63852661D01*
X101459866Y-63880110D01*
X101476607Y-63911431D01*
X101486915Y-63945409D01*
X101491000Y-63986890D01*
X101491000Y-64588110D01*
X101486915Y-64629591D01*
X101476607Y-64663569D01*
X101459866Y-64694890D01*
X101437339Y-64722339D01*
X101409890Y-64744866D01*
X101378569Y-64761607D01*
X101344591Y-64771915D01*
X101303110Y-64776000D01*
X100626890Y-64776000D01*
X100585409Y-64771915D01*
X100551431Y-64761607D01*
X100520110Y-64744866D01*
X100492661Y-64722339D01*
X100470134Y-64694890D01*
X100453393Y-64663569D01*
X100443085Y-64629591D01*
X100439000Y-64588110D01*
X100439000Y-63986890D01*
X100443085Y-63945409D01*
X100453393Y-63911431D01*
X100470134Y-63880110D01*
X100492661Y-63852661D01*
X100520110Y-63830134D01*
X100551431Y-63813393D01*
X100585409Y-63803085D01*
X100626890Y-63799000D01*
X101303110Y-63799000D01*
X101344591Y-63803085D01*
G37*
G36*
X124573512Y-62603927D02*
G01*
X124722812Y-62633624D01*
X124886784Y-62701544D01*
X125034354Y-62800147D01*
X125159853Y-62925646D01*
X125258456Y-63073216D01*
X125326376Y-63237188D01*
X125361000Y-63411259D01*
X125361000Y-63588741D01*
X125326376Y-63762812D01*
X125258456Y-63926784D01*
X125159853Y-64074354D01*
X125034354Y-64199853D01*
X124886784Y-64298456D01*
X124722812Y-64366376D01*
X124573512Y-64396073D01*
X124548742Y-64401000D01*
X124371258Y-64401000D01*
X124346488Y-64396073D01*
X124197188Y-64366376D01*
X124033216Y-64298456D01*
X123885646Y-64199853D01*
X123760147Y-64074354D01*
X123661544Y-63926784D01*
X123593624Y-63762812D01*
X123559000Y-63588741D01*
X123559000Y-63411259D01*
X123593624Y-63237188D01*
X123661544Y-63073216D01*
X123760147Y-62925646D01*
X123885646Y-62800147D01*
X124033216Y-62701544D01*
X124197188Y-62633624D01*
X124346488Y-62603927D01*
X124371258Y-62599000D01*
X124548742Y-62599000D01*
X124573512Y-62603927D01*
G37*
G36*
X94093512Y-62603927D02*
G01*
X94242812Y-62633624D01*
X94406784Y-62701544D01*
X94554354Y-62800147D01*
X94679853Y-62925646D01*
X94778456Y-63073216D01*
X94846376Y-63237188D01*
X94881000Y-63411259D01*
X94881000Y-63588741D01*
X94846376Y-63762812D01*
X94778456Y-63926784D01*
X94679853Y-64074354D01*
X94554354Y-64199853D01*
X94406784Y-64298456D01*
X94242812Y-64366376D01*
X94093512Y-64396073D01*
X94068742Y-64401000D01*
X93891258Y-64401000D01*
X93866488Y-64396073D01*
X93717188Y-64366376D01*
X93553216Y-64298456D01*
X93405646Y-64199853D01*
X93280147Y-64074354D01*
X93181544Y-63926784D01*
X93113624Y-63762812D01*
X93079000Y-63588741D01*
X93079000Y-63411259D01*
X93113624Y-63237188D01*
X93181544Y-63073216D01*
X93280147Y-62925646D01*
X93405646Y-62800147D01*
X93553216Y-62701544D01*
X93717188Y-62633624D01*
X93866488Y-62603927D01*
X93891258Y-62599000D01*
X94068742Y-62599000D01*
X94093512Y-62603927D01*
G37*
G36*
X101344591Y-62228085D02*
G01*
X101378569Y-62238393D01*
X101409890Y-62255134D01*
X101437339Y-62277661D01*
X101459866Y-62305110D01*
X101476607Y-62336431D01*
X101486915Y-62370409D01*
X101491000Y-62411890D01*
X101491000Y-63013110D01*
X101486915Y-63054591D01*
X101476607Y-63088569D01*
X101459866Y-63119890D01*
X101437339Y-63147339D01*
X101409890Y-63169866D01*
X101378569Y-63186607D01*
X101344591Y-63196915D01*
X101303110Y-63201000D01*
X100626890Y-63201000D01*
X100585409Y-63196915D01*
X100551431Y-63186607D01*
X100520110Y-63169866D01*
X100492661Y-63147339D01*
X100470134Y-63119890D01*
X100453393Y-63088569D01*
X100443085Y-63054591D01*
X100439000Y-63013110D01*
X100439000Y-62411890D01*
X100443085Y-62370409D01*
X100453393Y-62336431D01*
X100470134Y-62305110D01*
X100492661Y-62277661D01*
X100520110Y-62255134D01*
X100551431Y-62238393D01*
X100585409Y-62228085D01*
X100626890Y-62224000D01*
X101303110Y-62224000D01*
X101344591Y-62228085D01*
G37*
G36*
X99009468Y-62028565D02*
G01*
X99048138Y-62040296D01*
X99083777Y-62059346D01*
X99115017Y-62084983D01*
X99140654Y-62116223D01*
X99159704Y-62151862D01*
X99171435Y-62190532D01*
X99176000Y-62236888D01*
X99176000Y-62888112D01*
X99171435Y-62934468D01*
X99159704Y-62973138D01*
X99140654Y-63008777D01*
X99115017Y-63040017D01*
X99083777Y-63065654D01*
X99048138Y-63084704D01*
X99009468Y-63096435D01*
X98963112Y-63101000D01*
X97886888Y-63101000D01*
X97840532Y-63096435D01*
X97801862Y-63084704D01*
X97766223Y-63065654D01*
X97734983Y-63040017D01*
X97709346Y-63008777D01*
X97690296Y-62973138D01*
X97678565Y-62934468D01*
X97674000Y-62888112D01*
X97674000Y-62236888D01*
X97678565Y-62190532D01*
X97690296Y-62151862D01*
X97709346Y-62116223D01*
X97734983Y-62084983D01*
X97766223Y-62059346D01*
X97801862Y-62040296D01*
X97840532Y-62028565D01*
X97886888Y-62024000D01*
X98963112Y-62024000D01*
X99009468Y-62028565D01*
G37*
G36*
X113815568Y-57381775D02*
G01*
X113831960Y-57386748D01*
X113847072Y-57394825D01*
X113865081Y-57409605D01*
X113904926Y-57449450D01*
X113904937Y-57449459D01*
X114824883Y-58369405D01*
X114824892Y-58369416D01*
X114864737Y-58409261D01*
X114879517Y-58427270D01*
X114887594Y-58442382D01*
X114892567Y-58458774D01*
X114894246Y-58475825D01*
X114892567Y-58492876D01*
X114887594Y-58509268D01*
X114879517Y-58524380D01*
X114864737Y-58542389D01*
X114824892Y-58582234D01*
X114824883Y-58582245D01*
X114612043Y-58795085D01*
X114612032Y-58795094D01*
X114572187Y-58834939D01*
X114554178Y-58849719D01*
X114539066Y-58857796D01*
X114522674Y-58862769D01*
X114505623Y-58864448D01*
X114488575Y-58862769D01*
X114480261Y-58860247D01*
X114456227Y-58855467D01*
X114431723Y-58855467D01*
X114407690Y-58860248D01*
X114385051Y-58869625D01*
X114364677Y-58883239D01*
X114347350Y-58900566D01*
X114333736Y-58920941D01*
X114324359Y-58943579D01*
X114319579Y-58967613D01*
X114319579Y-58992117D01*
X114324360Y-59016150D01*
X114326881Y-59024459D01*
X114328560Y-59041510D01*
X114326881Y-59058561D01*
X114321908Y-59074953D01*
X114313831Y-59090065D01*
X114299051Y-59108074D01*
X114259206Y-59147919D01*
X114259197Y-59147930D01*
X114046357Y-59360770D01*
X114046346Y-59360779D01*
X114006501Y-59400624D01*
X113988492Y-59415404D01*
X113973380Y-59423481D01*
X113956988Y-59428454D01*
X113939937Y-59430133D01*
X113922886Y-59428454D01*
X113914577Y-59425933D01*
X113890544Y-59421152D01*
X113866040Y-59421152D01*
X113842007Y-59425932D01*
X113819368Y-59435309D01*
X113798993Y-59448923D01*
X113781666Y-59466250D01*
X113768052Y-59486624D01*
X113758675Y-59509263D01*
X113753894Y-59533296D01*
X113753894Y-59557800D01*
X113758674Y-59581834D01*
X113761196Y-59590148D01*
X113762875Y-59607196D01*
X113761196Y-59624247D01*
X113756223Y-59640639D01*
X113748146Y-59655751D01*
X113733366Y-59673760D01*
X113693521Y-59713605D01*
X113693512Y-59713616D01*
X113480672Y-59926456D01*
X113480661Y-59926465D01*
X113440816Y-59966310D01*
X113422807Y-59981090D01*
X113407695Y-59989167D01*
X113391303Y-59994140D01*
X113374252Y-59995819D01*
X113357201Y-59994140D01*
X113348892Y-59991619D01*
X113324859Y-59986838D01*
X113300355Y-59986838D01*
X113276322Y-59991618D01*
X113253683Y-60000995D01*
X113233308Y-60014609D01*
X113215981Y-60031936D01*
X113202367Y-60052310D01*
X113192990Y-60074949D01*
X113188209Y-60098982D01*
X113188209Y-60123486D01*
X113192990Y-60147521D01*
X113195511Y-60155830D01*
X113197190Y-60172881D01*
X113195511Y-60189932D01*
X113190538Y-60206324D01*
X113182461Y-60221436D01*
X113167681Y-60239445D01*
X113127836Y-60279290D01*
X113127827Y-60279301D01*
X112914987Y-60492141D01*
X112914976Y-60492150D01*
X112875131Y-60531995D01*
X112857122Y-60546775D01*
X112842010Y-60554852D01*
X112825618Y-60559825D01*
X112808567Y-60561504D01*
X112791519Y-60559825D01*
X112783205Y-60557303D01*
X112759171Y-60552523D01*
X112734667Y-60552523D01*
X112710634Y-60557304D01*
X112687995Y-60566681D01*
X112667621Y-60580295D01*
X112650294Y-60597622D01*
X112636680Y-60617997D01*
X112627303Y-60640635D01*
X112622523Y-60664669D01*
X112622523Y-60689173D01*
X112627303Y-60713205D01*
X112629825Y-60721519D01*
X112631504Y-60738567D01*
X112629825Y-60755618D01*
X112624852Y-60772010D01*
X112616775Y-60787122D01*
X112601995Y-60805131D01*
X112562150Y-60844976D01*
X112562141Y-60844987D01*
X112349301Y-61057827D01*
X112349290Y-61057836D01*
X112309445Y-61097681D01*
X112291436Y-61112461D01*
X112276324Y-61120538D01*
X112259932Y-61125511D01*
X112242881Y-61127190D01*
X112225830Y-61125511D01*
X112217521Y-61122990D01*
X112193488Y-61118209D01*
X112168984Y-61118209D01*
X112144951Y-61122989D01*
X112122312Y-61132366D01*
X112101937Y-61145980D01*
X112084610Y-61163307D01*
X112070996Y-61183681D01*
X112061619Y-61206320D01*
X112056838Y-61230353D01*
X112056838Y-61254857D01*
X112061619Y-61278892D01*
X112064140Y-61287201D01*
X112065819Y-61304252D01*
X112064140Y-61321303D01*
X112059167Y-61337695D01*
X112051090Y-61352807D01*
X112036310Y-61370816D01*
X111996465Y-61410661D01*
X111996456Y-61410672D01*
X111783616Y-61623512D01*
X111783605Y-61623521D01*
X111743760Y-61663366D01*
X111725751Y-61678146D01*
X111710639Y-61686223D01*
X111694247Y-61691196D01*
X111677196Y-61692875D01*
X111660148Y-61691196D01*
X111651834Y-61688674D01*
X111627800Y-61683894D01*
X111603296Y-61683894D01*
X111579263Y-61688675D01*
X111556624Y-61698052D01*
X111536250Y-61711666D01*
X111518923Y-61728993D01*
X111505309Y-61749368D01*
X111495932Y-61772006D01*
X111491152Y-61796040D01*
X111491152Y-61820544D01*
X111495933Y-61844577D01*
X111498454Y-61852886D01*
X111500133Y-61869937D01*
X111498454Y-61886988D01*
X111493481Y-61903380D01*
X111485404Y-61918492D01*
X111470624Y-61936501D01*
X111430779Y-61976346D01*
X111430770Y-61976357D01*
X111217930Y-62189197D01*
X111217919Y-62189206D01*
X111178074Y-62229051D01*
X111160065Y-62243831D01*
X111144953Y-62251908D01*
X111128561Y-62256881D01*
X111111510Y-62258560D01*
X111094459Y-62256881D01*
X111086150Y-62254360D01*
X111062117Y-62249579D01*
X111037613Y-62249579D01*
X111013580Y-62254359D01*
X110990941Y-62263736D01*
X110970566Y-62277350D01*
X110953239Y-62294677D01*
X110939625Y-62315051D01*
X110930248Y-62337690D01*
X110925467Y-62361723D01*
X110925467Y-62386227D01*
X110930247Y-62410261D01*
X110932769Y-62418575D01*
X110934448Y-62435623D01*
X110932769Y-62452674D01*
X110927796Y-62469066D01*
X110919719Y-62484178D01*
X110904939Y-62502187D01*
X110865094Y-62542032D01*
X110865085Y-62542043D01*
X110652245Y-62754883D01*
X110652234Y-62754892D01*
X110612389Y-62794737D01*
X110594380Y-62809517D01*
X110579268Y-62817594D01*
X110562876Y-62822567D01*
X110545825Y-62824246D01*
X110528774Y-62822567D01*
X110512382Y-62817594D01*
X110497270Y-62809517D01*
X110479261Y-62794737D01*
X110439416Y-62754892D01*
X110439405Y-62754883D01*
X109519459Y-61834937D01*
X109519450Y-61834926D01*
X109479605Y-61795081D01*
X109464825Y-61777072D01*
X109456748Y-61761960D01*
X109451775Y-61745568D01*
X109450096Y-61728517D01*
X109451775Y-61711466D01*
X109456748Y-61695074D01*
X109464825Y-61679962D01*
X109479605Y-61661953D01*
X109519450Y-61622108D01*
X109519459Y-61622097D01*
X109732299Y-61409257D01*
X109732310Y-61409248D01*
X109772155Y-61369403D01*
X109790164Y-61354623D01*
X109805276Y-61346546D01*
X109821668Y-61341573D01*
X109838719Y-61339894D01*
X109855770Y-61341573D01*
X109864079Y-61344094D01*
X109888112Y-61348875D01*
X109912616Y-61348875D01*
X109936649Y-61344095D01*
X109959288Y-61334718D01*
X109979663Y-61321104D01*
X109996990Y-61303777D01*
X110010604Y-61283403D01*
X110019981Y-61260764D01*
X110024762Y-61236731D01*
X110024762Y-61212227D01*
X110019982Y-61188193D01*
X110017460Y-61179879D01*
X110015781Y-61162831D01*
X110017460Y-61145780D01*
X110022433Y-61129388D01*
X110030510Y-61114276D01*
X110045290Y-61096267D01*
X110085135Y-61056422D01*
X110085144Y-61056411D01*
X110297984Y-60843571D01*
X110297995Y-60843562D01*
X110337840Y-60803717D01*
X110355849Y-60788937D01*
X110370961Y-60780860D01*
X110387353Y-60775887D01*
X110404404Y-60774208D01*
X110421452Y-60775887D01*
X110429766Y-60778409D01*
X110453800Y-60783189D01*
X110478304Y-60783189D01*
X110502337Y-60778408D01*
X110524976Y-60769031D01*
X110545350Y-60755417D01*
X110562677Y-60738090D01*
X110576291Y-60717715D01*
X110585668Y-60695077D01*
X110590448Y-60671043D01*
X110590448Y-60646539D01*
X110585667Y-60622506D01*
X110583146Y-60614197D01*
X110581467Y-60597146D01*
X110583146Y-60580095D01*
X110588119Y-60563703D01*
X110596196Y-60548591D01*
X110610976Y-60530582D01*
X110650821Y-60490737D01*
X110650830Y-60490726D01*
X110863670Y-60277886D01*
X110863681Y-60277877D01*
X110903526Y-60238032D01*
X110921535Y-60223252D01*
X110936647Y-60215175D01*
X110953039Y-60210202D01*
X110970090Y-60208523D01*
X110987141Y-60210202D01*
X110995450Y-60212723D01*
X111019483Y-60217504D01*
X111043987Y-60217504D01*
X111068020Y-60212724D01*
X111090659Y-60203347D01*
X111111034Y-60189733D01*
X111128361Y-60172406D01*
X111141975Y-60152032D01*
X111151352Y-60129393D01*
X111156133Y-60105360D01*
X111156133Y-60080856D01*
X111151352Y-60056821D01*
X111148831Y-60048512D01*
X111147152Y-60031461D01*
X111148831Y-60014410D01*
X111153804Y-59998018D01*
X111161881Y-59982906D01*
X111176661Y-59964897D01*
X111216506Y-59925052D01*
X111216515Y-59925041D01*
X111429355Y-59712201D01*
X111429366Y-59712192D01*
X111469211Y-59672347D01*
X111487220Y-59657567D01*
X111502332Y-59649490D01*
X111518724Y-59644517D01*
X111535775Y-59642838D01*
X111552823Y-59644517D01*
X111561137Y-59647039D01*
X111585171Y-59651819D01*
X111609675Y-59651819D01*
X111633708Y-59647038D01*
X111656347Y-59637661D01*
X111676721Y-59624047D01*
X111694048Y-59606720D01*
X111707662Y-59586345D01*
X111717039Y-59563707D01*
X111721819Y-59539673D01*
X111721819Y-59515169D01*
X111717039Y-59491137D01*
X111714517Y-59482823D01*
X111712838Y-59465775D01*
X111714517Y-59448724D01*
X111719490Y-59432332D01*
X111727567Y-59417220D01*
X111742347Y-59399211D01*
X111782192Y-59359366D01*
X111782201Y-59359355D01*
X111995041Y-59146515D01*
X111995052Y-59146506D01*
X112034897Y-59106661D01*
X112052906Y-59091881D01*
X112068018Y-59083804D01*
X112084410Y-59078831D01*
X112101461Y-59077152D01*
X112118512Y-59078831D01*
X112126821Y-59081352D01*
X112150854Y-59086133D01*
X112175358Y-59086133D01*
X112199391Y-59081353D01*
X112222030Y-59071976D01*
X112242405Y-59058362D01*
X112259732Y-59041035D01*
X112273346Y-59020661D01*
X112282723Y-58998022D01*
X112287504Y-58973989D01*
X112287504Y-58949485D01*
X112282723Y-58925450D01*
X112280202Y-58917141D01*
X112278523Y-58900090D01*
X112280202Y-58883039D01*
X112285175Y-58866647D01*
X112293252Y-58851535D01*
X112308032Y-58833526D01*
X112347877Y-58793681D01*
X112347886Y-58793670D01*
X112560726Y-58580830D01*
X112560737Y-58580821D01*
X112600582Y-58540976D01*
X112618591Y-58526196D01*
X112633703Y-58518119D01*
X112650095Y-58513146D01*
X112667146Y-58511467D01*
X112684197Y-58513146D01*
X112692506Y-58515667D01*
X112716539Y-58520448D01*
X112741043Y-58520448D01*
X112765076Y-58515668D01*
X112787715Y-58506291D01*
X112808090Y-58492677D01*
X112825417Y-58475350D01*
X112839031Y-58454976D01*
X112848408Y-58432337D01*
X112853189Y-58408304D01*
X112853189Y-58383800D01*
X112848409Y-58359766D01*
X112845887Y-58351452D01*
X112844208Y-58334404D01*
X112845887Y-58317353D01*
X112850860Y-58300961D01*
X112858937Y-58285849D01*
X112873717Y-58267840D01*
X112913562Y-58227995D01*
X112913571Y-58227984D01*
X113126411Y-58015144D01*
X113126422Y-58015135D01*
X113166267Y-57975290D01*
X113184276Y-57960510D01*
X113199388Y-57952433D01*
X113215780Y-57947460D01*
X113232831Y-57945781D01*
X113249879Y-57947460D01*
X113258193Y-57949982D01*
X113282227Y-57954762D01*
X113306731Y-57954762D01*
X113330764Y-57949981D01*
X113353403Y-57940604D01*
X113373777Y-57926990D01*
X113391104Y-57909663D01*
X113404718Y-57889288D01*
X113414095Y-57866650D01*
X113418875Y-57842616D01*
X113418875Y-57818112D01*
X113414094Y-57794079D01*
X113411573Y-57785770D01*
X113409894Y-57768719D01*
X113411573Y-57751668D01*
X113416546Y-57735276D01*
X113424623Y-57720164D01*
X113439403Y-57702155D01*
X113479248Y-57662310D01*
X113479257Y-57662299D01*
X113692097Y-57449459D01*
X113692108Y-57449450D01*
X113731953Y-57409605D01*
X113749962Y-57394825D01*
X113765074Y-57386748D01*
X113781466Y-57381775D01*
X113798517Y-57380096D01*
X113815568Y-57381775D01*
G37*
G36*
X104658534Y-57381775D02*
G01*
X104674926Y-57386748D01*
X104690038Y-57394825D01*
X104708047Y-57409605D01*
X104747892Y-57449450D01*
X104747903Y-57449459D01*
X104960743Y-57662299D01*
X104960752Y-57662310D01*
X105000597Y-57702155D01*
X105015377Y-57720164D01*
X105023454Y-57735276D01*
X105028427Y-57751668D01*
X105030106Y-57768719D01*
X105028427Y-57785770D01*
X105025906Y-57794079D01*
X105021125Y-57818112D01*
X105021125Y-57842616D01*
X105025905Y-57866649D01*
X105035282Y-57889288D01*
X105048896Y-57909663D01*
X105066223Y-57926990D01*
X105086597Y-57940604D01*
X105109236Y-57949981D01*
X105133269Y-57954762D01*
X105157773Y-57954762D01*
X105181807Y-57949982D01*
X105190121Y-57947460D01*
X105207169Y-57945781D01*
X105224220Y-57947460D01*
X105240612Y-57952433D01*
X105255724Y-57960510D01*
X105273733Y-57975290D01*
X105313578Y-58015135D01*
X105313589Y-58015144D01*
X105526429Y-58227984D01*
X105526438Y-58227995D01*
X105566283Y-58267840D01*
X105581063Y-58285849D01*
X105589140Y-58300961D01*
X105594113Y-58317353D01*
X105595792Y-58334404D01*
X105594113Y-58351452D01*
X105591591Y-58359766D01*
X105586811Y-58383800D01*
X105586811Y-58408304D01*
X105591592Y-58432337D01*
X105600969Y-58454976D01*
X105614583Y-58475350D01*
X105631910Y-58492677D01*
X105652285Y-58506291D01*
X105674923Y-58515668D01*
X105698957Y-58520448D01*
X105723461Y-58520448D01*
X105747494Y-58515667D01*
X105755803Y-58513146D01*
X105772854Y-58511467D01*
X105789905Y-58513146D01*
X105806297Y-58518119D01*
X105821409Y-58526196D01*
X105839418Y-58540976D01*
X105879263Y-58580821D01*
X105879274Y-58580830D01*
X106092114Y-58793670D01*
X106092123Y-58793681D01*
X106131968Y-58833526D01*
X106146748Y-58851535D01*
X106154825Y-58866647D01*
X106159798Y-58883039D01*
X106161477Y-58900090D01*
X106159798Y-58917141D01*
X106157277Y-58925450D01*
X106152496Y-58949483D01*
X106152496Y-58973987D01*
X106157276Y-58998020D01*
X106166653Y-59020659D01*
X106180267Y-59041034D01*
X106197594Y-59058361D01*
X106217968Y-59071975D01*
X106240607Y-59081352D01*
X106264640Y-59086133D01*
X106289144Y-59086133D01*
X106313179Y-59081352D01*
X106321488Y-59078831D01*
X106338539Y-59077152D01*
X106355590Y-59078831D01*
X106371982Y-59083804D01*
X106387094Y-59091881D01*
X106405103Y-59106661D01*
X106444948Y-59146506D01*
X106444959Y-59146515D01*
X106657799Y-59359355D01*
X106657808Y-59359366D01*
X106697653Y-59399211D01*
X106712433Y-59417220D01*
X106720510Y-59432332D01*
X106725483Y-59448724D01*
X106727162Y-59465775D01*
X106725483Y-59482823D01*
X106722961Y-59491137D01*
X106718181Y-59515171D01*
X106718181Y-59539675D01*
X106722962Y-59563708D01*
X106732339Y-59586347D01*
X106745953Y-59606721D01*
X106763280Y-59624048D01*
X106783655Y-59637662D01*
X106806293Y-59647039D01*
X106830327Y-59651819D01*
X106854831Y-59651819D01*
X106878863Y-59647039D01*
X106887177Y-59644517D01*
X106904225Y-59642838D01*
X106921276Y-59644517D01*
X106937668Y-59649490D01*
X106952780Y-59657567D01*
X106970789Y-59672347D01*
X107010634Y-59712192D01*
X107010645Y-59712201D01*
X107223485Y-59925041D01*
X107223494Y-59925052D01*
X107263339Y-59964897D01*
X107278119Y-59982906D01*
X107286196Y-59998018D01*
X107291169Y-60014410D01*
X107292848Y-60031461D01*
X107291169Y-60048512D01*
X107288648Y-60056821D01*
X107283867Y-60080854D01*
X107283867Y-60105358D01*
X107288647Y-60129391D01*
X107298024Y-60152030D01*
X107311638Y-60172405D01*
X107328965Y-60189732D01*
X107349339Y-60203346D01*
X107371978Y-60212723D01*
X107396011Y-60217504D01*
X107420515Y-60217504D01*
X107444550Y-60212723D01*
X107452859Y-60210202D01*
X107469910Y-60208523D01*
X107486961Y-60210202D01*
X107503353Y-60215175D01*
X107518465Y-60223252D01*
X107536474Y-60238032D01*
X107576319Y-60277877D01*
X107576330Y-60277886D01*
X107789170Y-60490726D01*
X107789179Y-60490737D01*
X107829024Y-60530582D01*
X107843804Y-60548591D01*
X107851881Y-60563703D01*
X107856854Y-60580095D01*
X107858533Y-60597146D01*
X107856854Y-60614197D01*
X107854333Y-60622506D01*
X107849552Y-60646539D01*
X107849552Y-60671043D01*
X107854332Y-60695076D01*
X107863709Y-60717715D01*
X107877323Y-60738090D01*
X107894650Y-60755417D01*
X107915024Y-60769031D01*
X107937663Y-60778408D01*
X107961696Y-60783189D01*
X107986200Y-60783189D01*
X108010234Y-60778409D01*
X108018548Y-60775887D01*
X108035596Y-60774208D01*
X108052647Y-60775887D01*
X108069039Y-60780860D01*
X108084151Y-60788937D01*
X108102160Y-60803717D01*
X108142005Y-60843562D01*
X108142016Y-60843571D01*
X108354856Y-61056411D01*
X108354865Y-61056422D01*
X108394710Y-61096267D01*
X108409490Y-61114276D01*
X108417567Y-61129388D01*
X108422540Y-61145780D01*
X108424219Y-61162831D01*
X108422540Y-61179879D01*
X108420018Y-61188193D01*
X108415238Y-61212227D01*
X108415238Y-61236731D01*
X108420019Y-61260764D01*
X108429396Y-61283403D01*
X108443010Y-61303777D01*
X108460337Y-61321104D01*
X108480712Y-61334718D01*
X108503350Y-61344095D01*
X108527384Y-61348875D01*
X108551888Y-61348875D01*
X108575921Y-61344094D01*
X108584230Y-61341573D01*
X108601281Y-61339894D01*
X108618332Y-61341573D01*
X108634724Y-61346546D01*
X108649836Y-61354623D01*
X108667845Y-61369403D01*
X108707690Y-61409248D01*
X108707701Y-61409257D01*
X108920541Y-61622097D01*
X108920550Y-61622108D01*
X108960395Y-61661953D01*
X108975175Y-61679962D01*
X108983252Y-61695074D01*
X108988225Y-61711466D01*
X108989904Y-61728517D01*
X108988225Y-61745568D01*
X108983252Y-61761960D01*
X108975175Y-61777072D01*
X108960395Y-61795081D01*
X108920550Y-61834926D01*
X108920541Y-61834937D01*
X108000595Y-62754883D01*
X108000584Y-62754892D01*
X107960739Y-62794737D01*
X107942730Y-62809517D01*
X107927618Y-62817594D01*
X107911226Y-62822567D01*
X107894175Y-62824246D01*
X107877124Y-62822567D01*
X107860732Y-62817594D01*
X107845620Y-62809517D01*
X107827611Y-62794737D01*
X107787766Y-62754892D01*
X107787755Y-62754883D01*
X107574915Y-62542043D01*
X107574906Y-62542032D01*
X107535061Y-62502187D01*
X107520281Y-62484178D01*
X107512204Y-62469066D01*
X107507231Y-62452674D01*
X107505552Y-62435623D01*
X107507231Y-62418575D01*
X107509753Y-62410261D01*
X107514533Y-62386227D01*
X107514533Y-62361723D01*
X107509752Y-62337690D01*
X107500375Y-62315051D01*
X107486761Y-62294677D01*
X107469434Y-62277350D01*
X107449059Y-62263736D01*
X107426421Y-62254359D01*
X107402387Y-62249579D01*
X107377883Y-62249579D01*
X107353850Y-62254360D01*
X107345541Y-62256881D01*
X107328490Y-62258560D01*
X107311439Y-62256881D01*
X107295047Y-62251908D01*
X107279935Y-62243831D01*
X107261926Y-62229051D01*
X107222081Y-62189206D01*
X107222070Y-62189197D01*
X107009230Y-61976357D01*
X107009221Y-61976346D01*
X106969376Y-61936501D01*
X106954596Y-61918492D01*
X106946519Y-61903380D01*
X106941546Y-61886988D01*
X106939867Y-61869937D01*
X106941546Y-61852886D01*
X106944067Y-61844577D01*
X106948848Y-61820544D01*
X106948848Y-61796040D01*
X106944068Y-61772007D01*
X106934691Y-61749368D01*
X106921077Y-61728993D01*
X106903750Y-61711666D01*
X106883376Y-61698052D01*
X106860737Y-61688675D01*
X106836704Y-61683894D01*
X106812200Y-61683894D01*
X106788166Y-61688674D01*
X106779852Y-61691196D01*
X106762804Y-61692875D01*
X106745753Y-61691196D01*
X106729361Y-61686223D01*
X106714249Y-61678146D01*
X106696240Y-61663366D01*
X106656395Y-61623521D01*
X106656384Y-61623512D01*
X106443544Y-61410672D01*
X106443535Y-61410661D01*
X106403690Y-61370816D01*
X106388910Y-61352807D01*
X106380833Y-61337695D01*
X106375860Y-61321303D01*
X106374181Y-61304252D01*
X106375860Y-61287201D01*
X106378381Y-61278892D01*
X106383162Y-61254859D01*
X106383162Y-61230355D01*
X106378382Y-61206322D01*
X106369005Y-61183683D01*
X106355391Y-61163308D01*
X106338064Y-61145981D01*
X106317690Y-61132367D01*
X106295051Y-61122990D01*
X106271018Y-61118209D01*
X106246514Y-61118209D01*
X106222479Y-61122990D01*
X106214170Y-61125511D01*
X106197119Y-61127190D01*
X106180068Y-61125511D01*
X106163676Y-61120538D01*
X106148564Y-61112461D01*
X106130555Y-61097681D01*
X106090710Y-61057836D01*
X106090699Y-61057827D01*
X105877859Y-60844987D01*
X105877850Y-60844976D01*
X105838005Y-60805131D01*
X105823225Y-60787122D01*
X105815148Y-60772010D01*
X105810175Y-60755618D01*
X105808496Y-60738567D01*
X105810175Y-60721519D01*
X105812697Y-60713205D01*
X105817477Y-60689171D01*
X105817477Y-60664667D01*
X105812696Y-60640634D01*
X105803319Y-60617995D01*
X105789705Y-60597621D01*
X105772378Y-60580294D01*
X105752003Y-60566680D01*
X105729365Y-60557303D01*
X105705331Y-60552523D01*
X105680827Y-60552523D01*
X105656795Y-60557303D01*
X105648481Y-60559825D01*
X105631433Y-60561504D01*
X105614382Y-60559825D01*
X105597990Y-60554852D01*
X105582878Y-60546775D01*
X105564869Y-60531995D01*
X105525024Y-60492150D01*
X105525013Y-60492141D01*
X105312173Y-60279301D01*
X105312164Y-60279290D01*
X105272319Y-60239445D01*
X105257539Y-60221436D01*
X105249462Y-60206324D01*
X105244489Y-60189932D01*
X105242810Y-60172881D01*
X105244489Y-60155830D01*
X105247010Y-60147521D01*
X105251791Y-60123488D01*
X105251791Y-60098984D01*
X105247011Y-60074951D01*
X105237634Y-60052312D01*
X105224020Y-60031937D01*
X105206693Y-60014610D01*
X105186319Y-60000996D01*
X105163680Y-59991619D01*
X105139647Y-59986838D01*
X105115143Y-59986838D01*
X105091108Y-59991619D01*
X105082799Y-59994140D01*
X105065748Y-59995819D01*
X105048697Y-59994140D01*
X105032305Y-59989167D01*
X105017193Y-59981090D01*
X104999184Y-59966310D01*
X104959339Y-59926465D01*
X104959328Y-59926456D01*
X104746488Y-59713616D01*
X104746479Y-59713605D01*
X104706634Y-59673760D01*
X104691854Y-59655751D01*
X104683777Y-59640639D01*
X104678804Y-59624247D01*
X104677125Y-59607196D01*
X104678804Y-59590148D01*
X104681326Y-59581834D01*
X104686106Y-59557800D01*
X104686106Y-59533296D01*
X104681325Y-59509263D01*
X104671948Y-59486624D01*
X104658334Y-59466250D01*
X104641007Y-59448923D01*
X104620632Y-59435309D01*
X104597994Y-59425932D01*
X104573960Y-59421152D01*
X104549456Y-59421152D01*
X104525423Y-59425933D01*
X104517114Y-59428454D01*
X104500063Y-59430133D01*
X104483012Y-59428454D01*
X104466620Y-59423481D01*
X104451508Y-59415404D01*
X104433499Y-59400624D01*
X104393654Y-59360779D01*
X104393643Y-59360770D01*
X104180803Y-59147930D01*
X104180794Y-59147919D01*
X104140949Y-59108074D01*
X104126169Y-59090065D01*
X104118092Y-59074953D01*
X104113119Y-59058561D01*
X104111440Y-59041510D01*
X104113119Y-59024459D01*
X104115640Y-59016150D01*
X104120421Y-58992117D01*
X104120421Y-58967613D01*
X104115641Y-58943580D01*
X104106264Y-58920941D01*
X104092650Y-58900566D01*
X104075323Y-58883239D01*
X104054949Y-58869625D01*
X104032310Y-58860248D01*
X104008277Y-58855467D01*
X103983773Y-58855467D01*
X103959739Y-58860247D01*
X103951425Y-58862769D01*
X103934377Y-58864448D01*
X103917326Y-58862769D01*
X103900934Y-58857796D01*
X103885822Y-58849719D01*
X103867813Y-58834939D01*
X103827968Y-58795094D01*
X103827957Y-58795085D01*
X103615117Y-58582245D01*
X103615108Y-58582234D01*
X103575263Y-58542389D01*
X103560483Y-58524380D01*
X103552406Y-58509268D01*
X103547433Y-58492876D01*
X103545754Y-58475825D01*
X103547433Y-58458774D01*
X103552406Y-58442382D01*
X103560483Y-58427270D01*
X103575263Y-58409261D01*
X103615108Y-58369416D01*
X103615117Y-58369405D01*
X104535063Y-57449459D01*
X104535074Y-57449450D01*
X104574919Y-57409605D01*
X104592928Y-57394825D01*
X104608040Y-57386748D01*
X104624432Y-57381775D01*
X104641483Y-57380096D01*
X104658534Y-57381775D01*
G37*
G36*
X94093512Y-60063927D02*
G01*
X94242812Y-60093624D01*
X94406784Y-60161544D01*
X94554354Y-60260147D01*
X94679853Y-60385646D01*
X94778456Y-60533216D01*
X94846376Y-60697188D01*
X94871238Y-60822180D01*
X94881000Y-60871258D01*
X94881000Y-61048742D01*
X94879193Y-61057827D01*
X94846376Y-61222812D01*
X94778456Y-61386784D01*
X94679853Y-61534354D01*
X94554354Y-61659853D01*
X94406784Y-61758456D01*
X94242812Y-61826376D01*
X94093512Y-61856073D01*
X94068742Y-61861000D01*
X93891258Y-61861000D01*
X93866488Y-61856073D01*
X93717188Y-61826376D01*
X93553216Y-61758456D01*
X93405646Y-61659853D01*
X93280147Y-61534354D01*
X93181544Y-61386784D01*
X93113624Y-61222812D01*
X93080807Y-61057827D01*
X93079000Y-61048742D01*
X93079000Y-60871258D01*
X93088762Y-60822180D01*
X93113624Y-60697188D01*
X93181544Y-60533216D01*
X93280147Y-60385646D01*
X93405646Y-60260147D01*
X93553216Y-60161544D01*
X93717188Y-60093624D01*
X93866488Y-60063927D01*
X93891258Y-60059000D01*
X94068742Y-60059000D01*
X94093512Y-60063927D01*
G37*
G36*
X124573512Y-60063927D02*
G01*
X124722812Y-60093624D01*
X124886784Y-60161544D01*
X125034354Y-60260147D01*
X125159853Y-60385646D01*
X125258456Y-60533216D01*
X125326376Y-60697188D01*
X125351238Y-60822180D01*
X125361000Y-60871258D01*
X125361000Y-61048742D01*
X125359193Y-61057827D01*
X125326376Y-61222812D01*
X125258456Y-61386784D01*
X125159853Y-61534354D01*
X125034354Y-61659853D01*
X124886784Y-61758456D01*
X124722812Y-61826376D01*
X124573512Y-61856073D01*
X124548742Y-61861000D01*
X124371258Y-61861000D01*
X124346488Y-61856073D01*
X124197188Y-61826376D01*
X124033216Y-61758456D01*
X123885646Y-61659853D01*
X123760147Y-61534354D01*
X123661544Y-61386784D01*
X123593624Y-61222812D01*
X123560807Y-61057827D01*
X123559000Y-61048742D01*
X123559000Y-60871258D01*
X123568762Y-60822180D01*
X123593624Y-60697188D01*
X123661544Y-60533216D01*
X123760147Y-60385646D01*
X123885646Y-60260147D01*
X124033216Y-60161544D01*
X124197188Y-60093624D01*
X124346488Y-60063927D01*
X124371258Y-60059000D01*
X124548742Y-60059000D01*
X124573512Y-60063927D01*
G37*
G36*
X94093512Y-57523927D02*
G01*
X94242812Y-57553624D01*
X94406784Y-57621544D01*
X94554354Y-57720147D01*
X94679853Y-57845646D01*
X94778456Y-57993216D01*
X94846376Y-58157188D01*
X94875785Y-58305043D01*
X94881000Y-58331258D01*
X94881000Y-58508742D01*
X94879622Y-58515668D01*
X94846376Y-58682812D01*
X94778456Y-58846784D01*
X94679853Y-58994354D01*
X94554354Y-59119853D01*
X94406784Y-59218456D01*
X94242812Y-59286376D01*
X94093512Y-59316073D01*
X94068742Y-59321000D01*
X93891258Y-59321000D01*
X93866488Y-59316073D01*
X93717188Y-59286376D01*
X93553216Y-59218456D01*
X93405646Y-59119853D01*
X93280147Y-58994354D01*
X93181544Y-58846784D01*
X93113624Y-58682812D01*
X93080378Y-58515668D01*
X93079000Y-58508742D01*
X93079000Y-58331258D01*
X93084215Y-58305043D01*
X93113624Y-58157188D01*
X93181544Y-57993216D01*
X93280147Y-57845646D01*
X93405646Y-57720147D01*
X93553216Y-57621544D01*
X93717188Y-57553624D01*
X93866488Y-57523927D01*
X93891258Y-57519000D01*
X94068742Y-57519000D01*
X94093512Y-57523927D01*
G37*
G36*
X124573512Y-57523927D02*
G01*
X124722812Y-57553624D01*
X124886784Y-57621544D01*
X125034354Y-57720147D01*
X125159853Y-57845646D01*
X125258456Y-57993216D01*
X125326376Y-58157188D01*
X125355785Y-58305043D01*
X125361000Y-58331258D01*
X125361000Y-58508742D01*
X125359622Y-58515668D01*
X125326376Y-58682812D01*
X125258456Y-58846784D01*
X125159853Y-58994354D01*
X125034354Y-59119853D01*
X124886784Y-59218456D01*
X124722812Y-59286376D01*
X124573512Y-59316073D01*
X124548742Y-59321000D01*
X124371258Y-59321000D01*
X124346488Y-59316073D01*
X124197188Y-59286376D01*
X124033216Y-59218456D01*
X123885646Y-59119853D01*
X123760147Y-58994354D01*
X123661544Y-58846784D01*
X123593624Y-58682812D01*
X123560378Y-58515668D01*
X123559000Y-58508742D01*
X123559000Y-58331258D01*
X123564215Y-58305043D01*
X123593624Y-58157188D01*
X123661544Y-57993216D01*
X123760147Y-57845646D01*
X123885646Y-57720147D01*
X124033216Y-57621544D01*
X124197188Y-57553624D01*
X124346488Y-57523927D01*
X124371258Y-57519000D01*
X124548742Y-57519000D01*
X124573512Y-57523927D01*
G37*
G36*
X110562876Y-51477433D02*
G01*
X110579268Y-51482406D01*
X110594380Y-51490483D01*
X110612389Y-51505263D01*
X110652234Y-51545108D01*
X110652245Y-51545117D01*
X110865085Y-51757957D01*
X110865094Y-51757968D01*
X110904939Y-51797813D01*
X110919719Y-51815822D01*
X110927796Y-51830934D01*
X110932769Y-51847326D01*
X110934448Y-51864377D01*
X110932769Y-51881425D01*
X110930247Y-51889739D01*
X110925467Y-51913773D01*
X110925467Y-51938277D01*
X110930248Y-51962310D01*
X110939625Y-51984949D01*
X110953239Y-52005323D01*
X110970566Y-52022650D01*
X110990941Y-52036264D01*
X111013579Y-52045641D01*
X111037613Y-52050421D01*
X111062117Y-52050421D01*
X111086150Y-52045640D01*
X111094459Y-52043119D01*
X111111510Y-52041440D01*
X111128561Y-52043119D01*
X111144953Y-52048092D01*
X111160065Y-52056169D01*
X111178074Y-52070949D01*
X111217919Y-52110794D01*
X111217930Y-52110803D01*
X111430770Y-52323643D01*
X111430779Y-52323654D01*
X111470624Y-52363499D01*
X111485404Y-52381508D01*
X111493481Y-52396620D01*
X111498454Y-52413012D01*
X111500133Y-52430063D01*
X111498454Y-52447114D01*
X111495933Y-52455423D01*
X111491152Y-52479456D01*
X111491152Y-52503960D01*
X111495932Y-52527993D01*
X111505309Y-52550632D01*
X111518923Y-52571007D01*
X111536250Y-52588334D01*
X111556624Y-52601948D01*
X111579263Y-52611325D01*
X111603296Y-52616106D01*
X111627800Y-52616106D01*
X111651834Y-52611326D01*
X111660148Y-52608804D01*
X111677196Y-52607125D01*
X111694247Y-52608804D01*
X111710639Y-52613777D01*
X111725751Y-52621854D01*
X111743760Y-52636634D01*
X111783605Y-52676479D01*
X111783616Y-52676488D01*
X111996456Y-52889328D01*
X111996465Y-52889339D01*
X112036310Y-52929184D01*
X112051090Y-52947193D01*
X112059167Y-52962305D01*
X112064140Y-52978697D01*
X112065819Y-52995748D01*
X112064140Y-53012799D01*
X112061619Y-53021108D01*
X112056838Y-53045141D01*
X112056838Y-53069645D01*
X112061618Y-53093678D01*
X112070995Y-53116317D01*
X112084609Y-53136692D01*
X112101936Y-53154019D01*
X112122310Y-53167633D01*
X112144949Y-53177010D01*
X112168982Y-53181791D01*
X112193486Y-53181791D01*
X112217521Y-53177010D01*
X112225830Y-53174489D01*
X112242881Y-53172810D01*
X112259932Y-53174489D01*
X112276324Y-53179462D01*
X112291436Y-53187539D01*
X112309445Y-53202319D01*
X112349290Y-53242164D01*
X112349301Y-53242173D01*
X112562141Y-53455013D01*
X112562150Y-53455024D01*
X112601995Y-53494869D01*
X112616775Y-53512878D01*
X112624852Y-53527990D01*
X112629825Y-53544382D01*
X112631504Y-53561433D01*
X112629825Y-53578481D01*
X112627303Y-53586795D01*
X112622523Y-53610829D01*
X112622523Y-53635333D01*
X112627304Y-53659366D01*
X112636681Y-53682005D01*
X112650295Y-53702379D01*
X112667622Y-53719706D01*
X112687997Y-53733320D01*
X112710635Y-53742697D01*
X112734669Y-53747477D01*
X112759173Y-53747477D01*
X112783205Y-53742697D01*
X112791519Y-53740175D01*
X112808567Y-53738496D01*
X112825618Y-53740175D01*
X112842010Y-53745148D01*
X112857122Y-53753225D01*
X112875131Y-53768005D01*
X112914976Y-53807850D01*
X112914987Y-53807859D01*
X113127827Y-54020699D01*
X113127836Y-54020710D01*
X113167681Y-54060555D01*
X113182461Y-54078564D01*
X113190538Y-54093676D01*
X113195511Y-54110068D01*
X113197190Y-54127119D01*
X113195511Y-54144170D01*
X113192990Y-54152479D01*
X113188209Y-54176512D01*
X113188209Y-54201016D01*
X113192989Y-54225049D01*
X113202366Y-54247688D01*
X113215980Y-54268063D01*
X113233307Y-54285390D01*
X113253681Y-54299004D01*
X113276320Y-54308381D01*
X113300353Y-54313162D01*
X113324857Y-54313162D01*
X113348892Y-54308381D01*
X113357201Y-54305860D01*
X113374252Y-54304181D01*
X113391303Y-54305860D01*
X113407695Y-54310833D01*
X113422807Y-54318910D01*
X113440816Y-54333690D01*
X113480661Y-54373535D01*
X113480672Y-54373544D01*
X113693512Y-54586384D01*
X113693521Y-54586395D01*
X113733366Y-54626240D01*
X113748146Y-54644249D01*
X113756223Y-54659361D01*
X113761196Y-54675753D01*
X113762875Y-54692804D01*
X113761196Y-54709852D01*
X113758674Y-54718166D01*
X113753894Y-54742200D01*
X113753894Y-54766704D01*
X113758675Y-54790737D01*
X113768052Y-54813376D01*
X113781666Y-54833750D01*
X113798993Y-54851077D01*
X113819368Y-54864691D01*
X113842006Y-54874068D01*
X113866040Y-54878848D01*
X113890544Y-54878848D01*
X113914577Y-54874067D01*
X113922886Y-54871546D01*
X113939937Y-54869867D01*
X113956988Y-54871546D01*
X113973380Y-54876519D01*
X113988492Y-54884596D01*
X114006501Y-54899376D01*
X114046346Y-54939221D01*
X114046357Y-54939230D01*
X114259197Y-55152070D01*
X114259206Y-55152081D01*
X114299051Y-55191926D01*
X114313831Y-55209935D01*
X114321908Y-55225047D01*
X114326881Y-55241439D01*
X114328560Y-55258490D01*
X114326881Y-55275541D01*
X114324360Y-55283850D01*
X114319579Y-55307883D01*
X114319579Y-55332387D01*
X114324359Y-55356420D01*
X114333736Y-55379059D01*
X114347350Y-55399434D01*
X114364677Y-55416761D01*
X114385051Y-55430375D01*
X114407690Y-55439752D01*
X114431723Y-55444533D01*
X114456227Y-55444533D01*
X114480261Y-55439753D01*
X114488575Y-55437231D01*
X114505623Y-55435552D01*
X114522674Y-55437231D01*
X114539066Y-55442204D01*
X114554178Y-55450281D01*
X114572187Y-55465061D01*
X114612032Y-55504906D01*
X114612043Y-55504915D01*
X114824883Y-55717755D01*
X114824892Y-55717766D01*
X114864737Y-55757611D01*
X114879517Y-55775620D01*
X114887594Y-55790732D01*
X114892567Y-55807124D01*
X114894246Y-55824175D01*
X114892567Y-55841226D01*
X114887594Y-55857618D01*
X114879517Y-55872730D01*
X114864737Y-55890739D01*
X114824892Y-55930584D01*
X114824883Y-55930595D01*
X113904937Y-56850541D01*
X113904926Y-56850550D01*
X113865081Y-56890395D01*
X113847072Y-56905175D01*
X113831960Y-56913252D01*
X113815568Y-56918225D01*
X113798517Y-56919904D01*
X113781466Y-56918225D01*
X113765074Y-56913252D01*
X113749962Y-56905175D01*
X113731953Y-56890395D01*
X113692108Y-56850550D01*
X113692097Y-56850541D01*
X113479257Y-56637701D01*
X113479248Y-56637690D01*
X113439403Y-56597845D01*
X113424623Y-56579836D01*
X113416546Y-56564724D01*
X113411573Y-56548332D01*
X113409894Y-56531281D01*
X113411573Y-56514230D01*
X113414094Y-56505921D01*
X113418875Y-56481888D01*
X113418875Y-56457384D01*
X113414095Y-56433351D01*
X113404718Y-56410712D01*
X113391104Y-56390337D01*
X113373777Y-56373010D01*
X113353403Y-56359396D01*
X113330764Y-56350019D01*
X113306731Y-56345238D01*
X113282227Y-56345238D01*
X113258193Y-56350018D01*
X113249879Y-56352540D01*
X113232831Y-56354219D01*
X113215780Y-56352540D01*
X113199388Y-56347567D01*
X113184276Y-56339490D01*
X113166267Y-56324710D01*
X113126422Y-56284865D01*
X113126411Y-56284856D01*
X112913571Y-56072016D01*
X112913562Y-56072005D01*
X112873717Y-56032160D01*
X112858937Y-56014151D01*
X112850860Y-55999039D01*
X112845887Y-55982647D01*
X112844208Y-55965596D01*
X112845887Y-55948548D01*
X112848409Y-55940234D01*
X112853189Y-55916200D01*
X112853189Y-55891696D01*
X112848408Y-55867663D01*
X112839031Y-55845024D01*
X112825417Y-55824650D01*
X112808090Y-55807323D01*
X112787715Y-55793709D01*
X112765077Y-55784332D01*
X112741043Y-55779552D01*
X112716539Y-55779552D01*
X112692506Y-55784333D01*
X112684197Y-55786854D01*
X112667146Y-55788533D01*
X112650095Y-55786854D01*
X112633703Y-55781881D01*
X112618591Y-55773804D01*
X112600582Y-55759024D01*
X112560737Y-55719179D01*
X112560726Y-55719170D01*
X112347886Y-55506330D01*
X112347877Y-55506319D01*
X112308032Y-55466474D01*
X112293252Y-55448465D01*
X112285175Y-55433353D01*
X112280202Y-55416961D01*
X112278523Y-55399910D01*
X112280202Y-55382859D01*
X112282723Y-55374550D01*
X112287504Y-55350517D01*
X112287504Y-55326013D01*
X112282724Y-55301980D01*
X112273347Y-55279341D01*
X112259733Y-55258966D01*
X112242406Y-55241639D01*
X112222032Y-55228025D01*
X112199393Y-55218648D01*
X112175360Y-55213867D01*
X112150856Y-55213867D01*
X112126821Y-55218648D01*
X112118512Y-55221169D01*
X112101461Y-55222848D01*
X112084410Y-55221169D01*
X112068018Y-55216196D01*
X112052906Y-55208119D01*
X112034897Y-55193339D01*
X111995052Y-55153494D01*
X111995041Y-55153485D01*
X111782201Y-54940645D01*
X111782192Y-54940634D01*
X111742347Y-54900789D01*
X111727567Y-54882780D01*
X111719490Y-54867668D01*
X111714517Y-54851276D01*
X111712838Y-54834225D01*
X111714517Y-54817177D01*
X111717039Y-54808863D01*
X111721819Y-54784829D01*
X111721819Y-54760325D01*
X111717038Y-54736292D01*
X111707661Y-54713653D01*
X111694047Y-54693279D01*
X111676720Y-54675952D01*
X111656345Y-54662338D01*
X111633707Y-54652961D01*
X111609673Y-54648181D01*
X111585169Y-54648181D01*
X111561137Y-54652961D01*
X111552823Y-54655483D01*
X111535775Y-54657162D01*
X111518724Y-54655483D01*
X111502332Y-54650510D01*
X111487220Y-54642433D01*
X111469211Y-54627653D01*
X111429366Y-54587808D01*
X111429355Y-54587799D01*
X111216515Y-54374959D01*
X111216506Y-54374948D01*
X111176661Y-54335103D01*
X111161881Y-54317094D01*
X111153804Y-54301982D01*
X111148831Y-54285590D01*
X111147152Y-54268539D01*
X111148831Y-54251488D01*
X111151352Y-54243179D01*
X111156133Y-54219146D01*
X111156133Y-54194642D01*
X111151353Y-54170609D01*
X111141976Y-54147970D01*
X111128362Y-54127595D01*
X111111035Y-54110268D01*
X111090661Y-54096654D01*
X111068022Y-54087277D01*
X111043989Y-54082496D01*
X111019485Y-54082496D01*
X110995450Y-54087277D01*
X110987141Y-54089798D01*
X110970090Y-54091477D01*
X110953039Y-54089798D01*
X110936647Y-54084825D01*
X110921535Y-54076748D01*
X110903526Y-54061968D01*
X110863681Y-54022123D01*
X110863670Y-54022114D01*
X110650830Y-53809274D01*
X110650821Y-53809263D01*
X110610976Y-53769418D01*
X110596196Y-53751409D01*
X110588119Y-53736297D01*
X110583146Y-53719905D01*
X110581467Y-53702854D01*
X110583146Y-53685803D01*
X110585667Y-53677494D01*
X110590448Y-53653461D01*
X110590448Y-53628957D01*
X110585668Y-53604924D01*
X110576291Y-53582285D01*
X110562677Y-53561910D01*
X110545350Y-53544583D01*
X110524976Y-53530969D01*
X110502337Y-53521592D01*
X110478304Y-53516811D01*
X110453800Y-53516811D01*
X110429766Y-53521591D01*
X110421452Y-53524113D01*
X110404404Y-53525792D01*
X110387353Y-53524113D01*
X110370961Y-53519140D01*
X110355849Y-53511063D01*
X110337840Y-53496283D01*
X110297995Y-53456438D01*
X110297984Y-53456429D01*
X110085144Y-53243589D01*
X110085135Y-53243578D01*
X110045290Y-53203733D01*
X110030510Y-53185724D01*
X110022433Y-53170612D01*
X110017460Y-53154220D01*
X110015781Y-53137169D01*
X110017460Y-53120121D01*
X110019982Y-53111807D01*
X110024762Y-53087773D01*
X110024762Y-53063269D01*
X110019981Y-53039236D01*
X110010604Y-53016597D01*
X109996990Y-52996223D01*
X109979663Y-52978896D01*
X109959288Y-52965282D01*
X109936650Y-52955905D01*
X109912616Y-52951125D01*
X109888112Y-52951125D01*
X109864079Y-52955906D01*
X109855770Y-52958427D01*
X109838719Y-52960106D01*
X109821668Y-52958427D01*
X109805276Y-52953454D01*
X109790164Y-52945377D01*
X109772155Y-52930597D01*
X109732310Y-52890752D01*
X109732299Y-52890743D01*
X109519459Y-52677903D01*
X109519450Y-52677892D01*
X109479605Y-52638047D01*
X109464825Y-52620038D01*
X109456748Y-52604926D01*
X109451775Y-52588534D01*
X109450096Y-52571483D01*
X109451775Y-52554432D01*
X109456748Y-52538040D01*
X109464825Y-52522928D01*
X109479605Y-52504919D01*
X109519450Y-52465074D01*
X109519459Y-52465063D01*
X110439405Y-51545117D01*
X110439416Y-51545108D01*
X110479261Y-51505263D01*
X110497270Y-51490483D01*
X110512382Y-51482406D01*
X110528774Y-51477433D01*
X110545825Y-51475754D01*
X110562876Y-51477433D01*
G37*
G36*
X107911226Y-51477433D02*
G01*
X107927618Y-51482406D01*
X107942730Y-51490483D01*
X107960739Y-51505263D01*
X108000584Y-51545108D01*
X108000595Y-51545117D01*
X108920541Y-52465063D01*
X108920550Y-52465074D01*
X108960395Y-52504919D01*
X108975175Y-52522928D01*
X108983252Y-52538040D01*
X108988225Y-52554432D01*
X108989904Y-52571483D01*
X108988225Y-52588534D01*
X108983252Y-52604926D01*
X108975175Y-52620038D01*
X108960395Y-52638047D01*
X108920550Y-52677892D01*
X108920541Y-52677903D01*
X108707701Y-52890743D01*
X108707690Y-52890752D01*
X108667845Y-52930597D01*
X108649836Y-52945377D01*
X108634724Y-52953454D01*
X108618332Y-52958427D01*
X108601281Y-52960106D01*
X108584230Y-52958427D01*
X108575921Y-52955906D01*
X108551888Y-52951125D01*
X108527384Y-52951125D01*
X108503351Y-52955905D01*
X108480712Y-52965282D01*
X108460337Y-52978896D01*
X108443010Y-52996223D01*
X108429396Y-53016597D01*
X108420019Y-53039236D01*
X108415238Y-53063269D01*
X108415238Y-53087773D01*
X108420018Y-53111807D01*
X108422540Y-53120121D01*
X108424219Y-53137169D01*
X108422540Y-53154220D01*
X108417567Y-53170612D01*
X108409490Y-53185724D01*
X108394710Y-53203733D01*
X108354865Y-53243578D01*
X108354856Y-53243589D01*
X108142016Y-53456429D01*
X108142005Y-53456438D01*
X108102160Y-53496283D01*
X108084151Y-53511063D01*
X108069039Y-53519140D01*
X108052647Y-53524113D01*
X108035596Y-53525792D01*
X108018548Y-53524113D01*
X108010234Y-53521591D01*
X107986200Y-53516811D01*
X107961696Y-53516811D01*
X107937663Y-53521592D01*
X107915024Y-53530969D01*
X107894650Y-53544583D01*
X107877323Y-53561910D01*
X107863709Y-53582285D01*
X107854332Y-53604923D01*
X107849552Y-53628957D01*
X107849552Y-53653461D01*
X107854333Y-53677494D01*
X107856854Y-53685803D01*
X107858533Y-53702854D01*
X107856854Y-53719905D01*
X107851881Y-53736297D01*
X107843804Y-53751409D01*
X107829024Y-53769418D01*
X107789179Y-53809263D01*
X107789170Y-53809274D01*
X107576330Y-54022114D01*
X107576319Y-54022123D01*
X107536474Y-54061968D01*
X107518465Y-54076748D01*
X107503353Y-54084825D01*
X107486961Y-54089798D01*
X107469910Y-54091477D01*
X107452859Y-54089798D01*
X107444550Y-54087277D01*
X107420517Y-54082496D01*
X107396013Y-54082496D01*
X107371980Y-54087276D01*
X107349341Y-54096653D01*
X107328966Y-54110267D01*
X107311639Y-54127594D01*
X107298025Y-54147968D01*
X107288648Y-54170607D01*
X107283867Y-54194640D01*
X107283867Y-54219144D01*
X107288648Y-54243179D01*
X107291169Y-54251488D01*
X107292848Y-54268539D01*
X107291169Y-54285590D01*
X107286196Y-54301982D01*
X107278119Y-54317094D01*
X107263339Y-54335103D01*
X107223494Y-54374948D01*
X107223485Y-54374959D01*
X107010645Y-54587799D01*
X107010634Y-54587808D01*
X106970789Y-54627653D01*
X106952780Y-54642433D01*
X106937668Y-54650510D01*
X106921276Y-54655483D01*
X106904225Y-54657162D01*
X106887177Y-54655483D01*
X106878863Y-54652961D01*
X106854829Y-54648181D01*
X106830325Y-54648181D01*
X106806292Y-54652962D01*
X106783653Y-54662339D01*
X106763279Y-54675953D01*
X106745952Y-54693280D01*
X106732338Y-54713655D01*
X106722961Y-54736293D01*
X106718181Y-54760327D01*
X106718181Y-54784831D01*
X106722961Y-54808863D01*
X106725483Y-54817177D01*
X106727162Y-54834225D01*
X106725483Y-54851276D01*
X106720510Y-54867668D01*
X106712433Y-54882780D01*
X106697653Y-54900789D01*
X106657808Y-54940634D01*
X106657799Y-54940645D01*
X106444959Y-55153485D01*
X106444948Y-55153494D01*
X106405103Y-55193339D01*
X106387094Y-55208119D01*
X106371982Y-55216196D01*
X106355590Y-55221169D01*
X106338539Y-55222848D01*
X106321488Y-55221169D01*
X106313179Y-55218648D01*
X106289146Y-55213867D01*
X106264642Y-55213867D01*
X106240609Y-55218647D01*
X106217970Y-55228024D01*
X106197595Y-55241638D01*
X106180268Y-55258965D01*
X106166654Y-55279339D01*
X106157277Y-55301978D01*
X106152496Y-55326011D01*
X106152496Y-55350515D01*
X106157277Y-55374550D01*
X106159798Y-55382859D01*
X106161477Y-55399910D01*
X106159798Y-55416961D01*
X106154825Y-55433353D01*
X106146748Y-55448465D01*
X106131968Y-55466474D01*
X106092123Y-55506319D01*
X106092114Y-55506330D01*
X105879274Y-55719170D01*
X105879263Y-55719179D01*
X105839418Y-55759024D01*
X105821409Y-55773804D01*
X105806297Y-55781881D01*
X105789905Y-55786854D01*
X105772854Y-55788533D01*
X105755803Y-55786854D01*
X105747494Y-55784333D01*
X105723461Y-55779552D01*
X105698957Y-55779552D01*
X105674924Y-55784332D01*
X105652285Y-55793709D01*
X105631910Y-55807323D01*
X105614583Y-55824650D01*
X105600969Y-55845024D01*
X105591592Y-55867663D01*
X105586811Y-55891696D01*
X105586811Y-55916200D01*
X105591591Y-55940234D01*
X105594113Y-55948548D01*
X105595792Y-55965596D01*
X105594113Y-55982647D01*
X105589140Y-55999039D01*
X105581063Y-56014151D01*
X105566283Y-56032160D01*
X105526438Y-56072005D01*
X105526429Y-56072016D01*
X105313589Y-56284856D01*
X105313578Y-56284865D01*
X105273733Y-56324710D01*
X105255724Y-56339490D01*
X105240612Y-56347567D01*
X105224220Y-56352540D01*
X105207169Y-56354219D01*
X105190121Y-56352540D01*
X105181807Y-56350018D01*
X105157773Y-56345238D01*
X105133269Y-56345238D01*
X105109236Y-56350019D01*
X105086597Y-56359396D01*
X105066223Y-56373010D01*
X105048896Y-56390337D01*
X105035282Y-56410712D01*
X105025905Y-56433350D01*
X105021125Y-56457384D01*
X105021125Y-56481888D01*
X105025906Y-56505921D01*
X105028427Y-56514230D01*
X105030106Y-56531281D01*
X105028427Y-56548332D01*
X105023454Y-56564724D01*
X105015377Y-56579836D01*
X105000597Y-56597845D01*
X104960752Y-56637690D01*
X104960743Y-56637701D01*
X104747903Y-56850541D01*
X104747892Y-56850550D01*
X104708047Y-56890395D01*
X104690038Y-56905175D01*
X104674926Y-56913252D01*
X104658534Y-56918225D01*
X104641483Y-56919904D01*
X104624432Y-56918225D01*
X104608040Y-56913252D01*
X104592928Y-56905175D01*
X104574919Y-56890395D01*
X104535074Y-56850550D01*
X104535063Y-56850541D01*
X103615117Y-55930595D01*
X103615108Y-55930584D01*
X103575263Y-55890739D01*
X103560483Y-55872730D01*
X103552406Y-55857618D01*
X103547433Y-55841226D01*
X103545754Y-55824175D01*
X103547433Y-55807124D01*
X103552406Y-55790732D01*
X103560483Y-55775620D01*
X103575263Y-55757611D01*
X103615108Y-55717766D01*
X103615117Y-55717755D01*
X103827957Y-55504915D01*
X103827968Y-55504906D01*
X103867813Y-55465061D01*
X103885822Y-55450281D01*
X103900934Y-55442204D01*
X103917326Y-55437231D01*
X103934377Y-55435552D01*
X103951425Y-55437231D01*
X103959739Y-55439753D01*
X103983773Y-55444533D01*
X104008277Y-55444533D01*
X104032310Y-55439752D01*
X104054949Y-55430375D01*
X104075323Y-55416761D01*
X104092650Y-55399434D01*
X104106264Y-55379059D01*
X104115641Y-55356421D01*
X104120421Y-55332387D01*
X104120421Y-55307883D01*
X104115640Y-55283850D01*
X104113119Y-55275541D01*
X104111440Y-55258490D01*
X104113119Y-55241439D01*
X104118092Y-55225047D01*
X104126169Y-55209935D01*
X104140949Y-55191926D01*
X104180794Y-55152081D01*
X104180803Y-55152070D01*
X104393643Y-54939230D01*
X104393654Y-54939221D01*
X104433499Y-54899376D01*
X104451508Y-54884596D01*
X104466620Y-54876519D01*
X104483012Y-54871546D01*
X104500063Y-54869867D01*
X104517114Y-54871546D01*
X104525423Y-54874067D01*
X104549456Y-54878848D01*
X104573960Y-54878848D01*
X104597993Y-54874068D01*
X104620632Y-54864691D01*
X104641007Y-54851077D01*
X104658334Y-54833750D01*
X104671948Y-54813376D01*
X104681325Y-54790737D01*
X104686106Y-54766704D01*
X104686106Y-54742200D01*
X104681326Y-54718166D01*
X104678804Y-54709852D01*
X104677125Y-54692804D01*
X104678804Y-54675753D01*
X104683777Y-54659361D01*
X104691854Y-54644249D01*
X104706634Y-54626240D01*
X104746479Y-54586395D01*
X104746488Y-54586384D01*
X104959328Y-54373544D01*
X104959339Y-54373535D01*
X104999184Y-54333690D01*
X105017193Y-54318910D01*
X105032305Y-54310833D01*
X105048697Y-54305860D01*
X105065748Y-54304181D01*
X105082799Y-54305860D01*
X105091108Y-54308381D01*
X105115141Y-54313162D01*
X105139645Y-54313162D01*
X105163678Y-54308382D01*
X105186317Y-54299005D01*
X105206692Y-54285391D01*
X105224019Y-54268064D01*
X105237633Y-54247690D01*
X105247010Y-54225051D01*
X105251791Y-54201018D01*
X105251791Y-54176514D01*
X105247010Y-54152479D01*
X105244489Y-54144170D01*
X105242810Y-54127119D01*
X105244489Y-54110068D01*
X105249462Y-54093676D01*
X105257539Y-54078564D01*
X105272319Y-54060555D01*
X105312164Y-54020710D01*
X105312173Y-54020699D01*
X105525013Y-53807859D01*
X105525024Y-53807850D01*
X105564869Y-53768005D01*
X105582878Y-53753225D01*
X105597990Y-53745148D01*
X105614382Y-53740175D01*
X105631433Y-53738496D01*
X105648481Y-53740175D01*
X105656795Y-53742697D01*
X105680829Y-53747477D01*
X105705333Y-53747477D01*
X105729366Y-53742696D01*
X105752005Y-53733319D01*
X105772379Y-53719705D01*
X105789706Y-53702378D01*
X105803320Y-53682003D01*
X105812697Y-53659365D01*
X105817477Y-53635331D01*
X105817477Y-53610827D01*
X105812697Y-53586795D01*
X105810175Y-53578481D01*
X105808496Y-53561433D01*
X105810175Y-53544382D01*
X105815148Y-53527990D01*
X105823225Y-53512878D01*
X105838005Y-53494869D01*
X105877850Y-53455024D01*
X105877859Y-53455013D01*
X106090699Y-53242173D01*
X106090710Y-53242164D01*
X106130555Y-53202319D01*
X106148564Y-53187539D01*
X106163676Y-53179462D01*
X106180068Y-53174489D01*
X106197119Y-53172810D01*
X106214170Y-53174489D01*
X106222479Y-53177010D01*
X106246512Y-53181791D01*
X106271016Y-53181791D01*
X106295049Y-53177011D01*
X106317688Y-53167634D01*
X106338063Y-53154020D01*
X106355390Y-53136693D01*
X106369004Y-53116319D01*
X106378381Y-53093680D01*
X106383162Y-53069647D01*
X106383162Y-53045143D01*
X106378381Y-53021108D01*
X106375860Y-53012799D01*
X106374181Y-52995748D01*
X106375860Y-52978697D01*
X106380833Y-52962305D01*
X106388910Y-52947193D01*
X106403690Y-52929184D01*
X106443535Y-52889339D01*
X106443544Y-52889328D01*
X106656384Y-52676488D01*
X106656395Y-52676479D01*
X106696240Y-52636634D01*
X106714249Y-52621854D01*
X106729361Y-52613777D01*
X106745753Y-52608804D01*
X106762804Y-52607125D01*
X106779852Y-52608804D01*
X106788166Y-52611326D01*
X106812200Y-52616106D01*
X106836704Y-52616106D01*
X106860737Y-52611325D01*
X106883376Y-52601948D01*
X106903750Y-52588334D01*
X106921077Y-52571007D01*
X106934691Y-52550632D01*
X106944068Y-52527994D01*
X106948848Y-52503960D01*
X106948848Y-52479456D01*
X106944067Y-52455423D01*
X106941546Y-52447114D01*
X106939867Y-52430063D01*
X106941546Y-52413012D01*
X106946519Y-52396620D01*
X106954596Y-52381508D01*
X106969376Y-52363499D01*
X107009221Y-52323654D01*
X107009230Y-52323643D01*
X107222070Y-52110803D01*
X107222081Y-52110794D01*
X107261926Y-52070949D01*
X107279935Y-52056169D01*
X107295047Y-52048092D01*
X107311439Y-52043119D01*
X107328490Y-52041440D01*
X107345541Y-52043119D01*
X107353850Y-52045640D01*
X107377883Y-52050421D01*
X107402387Y-52050421D01*
X107426420Y-52045641D01*
X107449059Y-52036264D01*
X107469434Y-52022650D01*
X107486761Y-52005323D01*
X107500375Y-51984949D01*
X107509752Y-51962310D01*
X107514533Y-51938277D01*
X107514533Y-51913773D01*
X107509753Y-51889739D01*
X107507231Y-51881425D01*
X107505552Y-51864377D01*
X107507231Y-51847326D01*
X107512204Y-51830934D01*
X107520281Y-51815822D01*
X107535061Y-51797813D01*
X107574906Y-51757968D01*
X107574915Y-51757957D01*
X107787755Y-51545117D01*
X107787766Y-51545108D01*
X107827611Y-51505263D01*
X107845620Y-51490483D01*
X107860732Y-51482406D01*
X107877124Y-51477433D01*
X107894175Y-51475754D01*
X107911226Y-51477433D01*
G37*
G36*
X124573512Y-54983927D02*
G01*
X124722812Y-55013624D01*
X124886784Y-55081544D01*
X125034354Y-55180147D01*
X125159853Y-55305646D01*
X125258456Y-55453216D01*
X125326376Y-55617188D01*
X125350916Y-55740562D01*
X125359623Y-55784333D01*
X125361000Y-55791259D01*
X125361000Y-55968741D01*
X125326376Y-56142812D01*
X125258456Y-56306784D01*
X125159853Y-56454354D01*
X125034354Y-56579853D01*
X124886784Y-56678456D01*
X124722812Y-56746376D01*
X124573512Y-56776073D01*
X124548742Y-56781000D01*
X124371258Y-56781000D01*
X124346488Y-56776073D01*
X124197188Y-56746376D01*
X124033216Y-56678456D01*
X123885646Y-56579853D01*
X123760147Y-56454354D01*
X123661544Y-56306784D01*
X123593624Y-56142812D01*
X123559000Y-55968741D01*
X123559000Y-55791259D01*
X123560378Y-55784333D01*
X123569084Y-55740562D01*
X123593624Y-55617188D01*
X123661544Y-55453216D01*
X123760147Y-55305646D01*
X123885646Y-55180147D01*
X124033216Y-55081544D01*
X124197188Y-55013624D01*
X124346488Y-54983927D01*
X124371258Y-54979000D01*
X124548742Y-54979000D01*
X124573512Y-54983927D01*
G37*
G36*
X94093512Y-54983927D02*
G01*
X94242812Y-55013624D01*
X94406784Y-55081544D01*
X94554354Y-55180147D01*
X94679853Y-55305646D01*
X94778456Y-55453216D01*
X94846376Y-55617188D01*
X94870916Y-55740562D01*
X94879623Y-55784333D01*
X94881000Y-55791259D01*
X94881000Y-55968741D01*
X94846376Y-56142812D01*
X94778456Y-56306784D01*
X94679853Y-56454354D01*
X94554354Y-56579853D01*
X94406784Y-56678456D01*
X94242812Y-56746376D01*
X94093512Y-56776073D01*
X94068742Y-56781000D01*
X93891258Y-56781000D01*
X93866488Y-56776073D01*
X93717188Y-56746376D01*
X93553216Y-56678456D01*
X93405646Y-56579853D01*
X93280147Y-56454354D01*
X93181544Y-56306784D01*
X93113624Y-56142812D01*
X93079000Y-55968741D01*
X93079000Y-55791259D01*
X93080378Y-55784333D01*
X93089084Y-55740562D01*
X93113624Y-55617188D01*
X93181544Y-55453216D01*
X93280147Y-55305646D01*
X93405646Y-55180147D01*
X93553216Y-55081544D01*
X93717188Y-55013624D01*
X93866488Y-54983927D01*
X93891258Y-54979000D01*
X94068742Y-54979000D01*
X94093512Y-54983927D01*
G37*
G36*
X124573512Y-52443927D02*
G01*
X124722812Y-52473624D01*
X124886784Y-52541544D01*
X125034354Y-52640147D01*
X125159853Y-52765646D01*
X125258456Y-52913216D01*
X125326376Y-53077188D01*
X125354938Y-53220782D01*
X125359475Y-53243589D01*
X125361000Y-53251259D01*
X125361000Y-53428741D01*
X125326376Y-53602812D01*
X125258456Y-53766784D01*
X125159853Y-53914354D01*
X125034354Y-54039853D01*
X124886784Y-54138456D01*
X124722812Y-54206376D01*
X124573512Y-54236073D01*
X124548742Y-54241000D01*
X124371258Y-54241000D01*
X124346488Y-54236073D01*
X124197188Y-54206376D01*
X124033216Y-54138456D01*
X123885646Y-54039853D01*
X123760147Y-53914354D01*
X123661544Y-53766784D01*
X123593624Y-53602812D01*
X123559000Y-53428741D01*
X123559000Y-53251259D01*
X123560526Y-53243589D01*
X123565062Y-53220782D01*
X123593624Y-53077188D01*
X123661544Y-52913216D01*
X123760147Y-52765646D01*
X123885646Y-52640147D01*
X124033216Y-52541544D01*
X124197188Y-52473624D01*
X124346488Y-52443927D01*
X124371258Y-52439000D01*
X124548742Y-52439000D01*
X124573512Y-52443927D01*
G37*
G36*
X94093512Y-52443927D02*
G01*
X94242812Y-52473624D01*
X94406784Y-52541544D01*
X94554354Y-52640147D01*
X94679853Y-52765646D01*
X94778456Y-52913216D01*
X94846376Y-53077188D01*
X94874938Y-53220782D01*
X94879475Y-53243589D01*
X94881000Y-53251259D01*
X94881000Y-53428741D01*
X94846376Y-53602812D01*
X94778456Y-53766784D01*
X94679853Y-53914354D01*
X94554354Y-54039853D01*
X94406784Y-54138456D01*
X94242812Y-54206376D01*
X94093512Y-54236073D01*
X94068742Y-54241000D01*
X93891258Y-54241000D01*
X93866488Y-54236073D01*
X93717188Y-54206376D01*
X93553216Y-54138456D01*
X93405646Y-54039853D01*
X93280147Y-53914354D01*
X93181544Y-53766784D01*
X93113624Y-53602812D01*
X93079000Y-53428741D01*
X93079000Y-53251259D01*
X93080526Y-53243589D01*
X93085062Y-53220782D01*
X93113624Y-53077188D01*
X93181544Y-52913216D01*
X93280147Y-52765646D01*
X93405646Y-52640147D01*
X93553216Y-52541544D01*
X93717188Y-52473624D01*
X93866488Y-52443927D01*
X93891258Y-52439000D01*
X94068742Y-52439000D01*
X94093512Y-52443927D01*
G37*
G36*
X101789591Y-50913085D02*
G01*
X101823569Y-50923393D01*
X101854890Y-50940134D01*
X101882339Y-50962661D01*
X101904866Y-50990110D01*
X101921607Y-51021431D01*
X101931915Y-51055409D01*
X101936000Y-51096890D01*
X101936000Y-51773110D01*
X101931915Y-51814591D01*
X101921607Y-51848569D01*
X101904866Y-51879890D01*
X101882339Y-51907339D01*
X101854890Y-51929866D01*
X101823569Y-51946607D01*
X101789591Y-51956915D01*
X101748110Y-51961000D01*
X101146890Y-51961000D01*
X101105409Y-51956915D01*
X101071431Y-51946607D01*
X101040110Y-51929866D01*
X101012661Y-51907339D01*
X100990134Y-51879890D01*
X100973393Y-51848569D01*
X100963085Y-51814591D01*
X100959000Y-51773110D01*
X100959000Y-51096890D01*
X100963085Y-51055409D01*
X100973393Y-51021431D01*
X100990134Y-50990110D01*
X101012661Y-50962661D01*
X101040110Y-50940134D01*
X101071431Y-50923393D01*
X101105409Y-50913085D01*
X101146890Y-50909000D01*
X101748110Y-50909000D01*
X101789591Y-50913085D01*
G37*
G36*
X103364591Y-50913085D02*
G01*
X103398569Y-50923393D01*
X103429890Y-50940134D01*
X103457339Y-50962661D01*
X103479866Y-50990110D01*
X103496607Y-51021431D01*
X103506915Y-51055409D01*
X103511000Y-51096890D01*
X103511000Y-51773110D01*
X103506915Y-51814591D01*
X103496607Y-51848569D01*
X103479866Y-51879890D01*
X103457339Y-51907339D01*
X103429890Y-51929866D01*
X103398569Y-51946607D01*
X103364591Y-51956915D01*
X103323110Y-51961000D01*
X102721890Y-51961000D01*
X102680409Y-51956915D01*
X102646431Y-51946607D01*
X102615110Y-51929866D01*
X102587661Y-51907339D01*
X102565134Y-51879890D01*
X102548393Y-51848569D01*
X102538085Y-51814591D01*
X102534000Y-51773110D01*
X102534000Y-51096890D01*
X102538085Y-51055409D01*
X102548393Y-51021431D01*
X102565134Y-50990110D01*
X102587661Y-50962661D01*
X102615110Y-50940134D01*
X102646431Y-50923393D01*
X102680409Y-50913085D01*
X102721890Y-50909000D01*
X103323110Y-50909000D01*
X103364591Y-50913085D01*
G37*
G36*
X124573512Y-49903927D02*
G01*
X124722812Y-49933624D01*
X124886784Y-50001544D01*
X125034354Y-50100147D01*
X125159853Y-50225646D01*
X125258456Y-50373216D01*
X125326376Y-50537188D01*
X125361000Y-50711259D01*
X125361000Y-50888741D01*
X125326376Y-51062812D01*
X125258456Y-51226784D01*
X125159853Y-51374354D01*
X125034354Y-51499853D01*
X124886784Y-51598456D01*
X124722812Y-51666376D01*
X124573512Y-51696073D01*
X124548742Y-51701000D01*
X124371258Y-51701000D01*
X124346488Y-51696073D01*
X124197188Y-51666376D01*
X124033216Y-51598456D01*
X123885646Y-51499853D01*
X123760147Y-51374354D01*
X123661544Y-51226784D01*
X123593624Y-51062812D01*
X123559000Y-50888741D01*
X123559000Y-50711259D01*
X123593624Y-50537188D01*
X123661544Y-50373216D01*
X123760147Y-50225646D01*
X123885646Y-50100147D01*
X124033216Y-50001544D01*
X124197188Y-49933624D01*
X124346488Y-49903927D01*
X124371258Y-49899000D01*
X124548742Y-49899000D01*
X124573512Y-49903927D01*
G37*
G36*
X94093512Y-49903927D02*
G01*
X94242812Y-49933624D01*
X94406784Y-50001544D01*
X94554354Y-50100147D01*
X94679853Y-50225646D01*
X94778456Y-50373216D01*
X94846376Y-50537188D01*
X94881000Y-50711259D01*
X94881000Y-50888741D01*
X94846376Y-51062812D01*
X94778456Y-51226784D01*
X94679853Y-51374354D01*
X94554354Y-51499853D01*
X94406784Y-51598456D01*
X94242812Y-51666376D01*
X94093512Y-51696073D01*
X94068742Y-51701000D01*
X93891258Y-51701000D01*
X93866488Y-51696073D01*
X93717188Y-51666376D01*
X93553216Y-51598456D01*
X93405646Y-51499853D01*
X93280147Y-51374354D01*
X93181544Y-51226784D01*
X93113624Y-51062812D01*
X93079000Y-50888741D01*
X93079000Y-50711259D01*
X93113624Y-50537188D01*
X93181544Y-50373216D01*
X93280147Y-50225646D01*
X93405646Y-50100147D01*
X93553216Y-50001544D01*
X93717188Y-49933624D01*
X93866488Y-49903927D01*
X93891258Y-49899000D01*
X94068742Y-49899000D01*
X94093512Y-49903927D01*
G37*
G36*
X107174591Y-49008085D02*
G01*
X107208569Y-49018393D01*
X107239890Y-49035134D01*
X107267339Y-49057661D01*
X107289866Y-49085110D01*
X107306607Y-49116431D01*
X107316915Y-49150409D01*
X107321000Y-49191890D01*
X107321000Y-49868110D01*
X107316915Y-49909591D01*
X107306607Y-49943569D01*
X107289866Y-49974890D01*
X107267339Y-50002339D01*
X107239890Y-50024866D01*
X107208569Y-50041607D01*
X107174591Y-50051915D01*
X107133110Y-50056000D01*
X106531890Y-50056000D01*
X106490409Y-50051915D01*
X106456431Y-50041607D01*
X106425110Y-50024866D01*
X106397661Y-50002339D01*
X106375134Y-49974890D01*
X106358393Y-49943569D01*
X106348085Y-49909591D01*
X106344000Y-49868110D01*
X106344000Y-49191890D01*
X106348085Y-49150409D01*
X106358393Y-49116431D01*
X106375134Y-49085110D01*
X106397661Y-49057661D01*
X106425110Y-49035134D01*
X106456431Y-49018393D01*
X106490409Y-49008085D01*
X106531890Y-49004000D01*
X107133110Y-49004000D01*
X107174591Y-49008085D01*
G37*
G36*
X110984591Y-49008085D02*
G01*
X111018569Y-49018393D01*
X111049890Y-49035134D01*
X111077339Y-49057661D01*
X111099866Y-49085110D01*
X111116607Y-49116431D01*
X111126915Y-49150409D01*
X111131000Y-49191890D01*
X111131000Y-49868110D01*
X111126915Y-49909591D01*
X111116607Y-49943569D01*
X111099866Y-49974890D01*
X111077339Y-50002339D01*
X111049890Y-50024866D01*
X111018569Y-50041607D01*
X110984591Y-50051915D01*
X110943110Y-50056000D01*
X110341890Y-50056000D01*
X110300409Y-50051915D01*
X110266431Y-50041607D01*
X110235110Y-50024866D01*
X110207661Y-50002339D01*
X110185134Y-49974890D01*
X110168393Y-49943569D01*
X110158085Y-49909591D01*
X110154000Y-49868110D01*
X110154000Y-49191890D01*
X110158085Y-49150409D01*
X110168393Y-49116431D01*
X110185134Y-49085110D01*
X110207661Y-49057661D01*
X110235110Y-49035134D01*
X110266431Y-49018393D01*
X110300409Y-49008085D01*
X110341890Y-49004000D01*
X110943110Y-49004000D01*
X110984591Y-49008085D01*
G37*
G36*
X109409591Y-49008085D02*
G01*
X109443569Y-49018393D01*
X109474890Y-49035134D01*
X109502339Y-49057661D01*
X109524866Y-49085110D01*
X109541607Y-49116431D01*
X109551915Y-49150409D01*
X109556000Y-49191890D01*
X109556000Y-49868110D01*
X109551915Y-49909591D01*
X109541607Y-49943569D01*
X109524866Y-49974890D01*
X109502339Y-50002339D01*
X109474890Y-50024866D01*
X109443569Y-50041607D01*
X109409591Y-50051915D01*
X109368110Y-50056000D01*
X108766890Y-50056000D01*
X108725409Y-50051915D01*
X108691431Y-50041607D01*
X108660110Y-50024866D01*
X108632661Y-50002339D01*
X108610134Y-49974890D01*
X108593393Y-49943569D01*
X108583085Y-49909591D01*
X108579000Y-49868110D01*
X108579000Y-49191890D01*
X108583085Y-49150409D01*
X108593393Y-49116431D01*
X108610134Y-49085110D01*
X108632661Y-49057661D01*
X108660110Y-49035134D01*
X108691431Y-49018393D01*
X108725409Y-49008085D01*
X108766890Y-49004000D01*
X109368110Y-49004000D01*
X109409591Y-49008085D01*
G37*
G36*
X101789591Y-49008085D02*
G01*
X101823569Y-49018393D01*
X101854890Y-49035134D01*
X101882339Y-49057661D01*
X101904866Y-49085110D01*
X101921607Y-49116431D01*
X101931915Y-49150409D01*
X101936000Y-49191890D01*
X101936000Y-49868110D01*
X101931915Y-49909591D01*
X101921607Y-49943569D01*
X101904866Y-49974890D01*
X101882339Y-50002339D01*
X101854890Y-50024866D01*
X101823569Y-50041607D01*
X101789591Y-50051915D01*
X101748110Y-50056000D01*
X101146890Y-50056000D01*
X101105409Y-50051915D01*
X101071431Y-50041607D01*
X101040110Y-50024866D01*
X101012661Y-50002339D01*
X100990134Y-49974890D01*
X100973393Y-49943569D01*
X100963085Y-49909591D01*
X100959000Y-49868110D01*
X100959000Y-49191890D01*
X100963085Y-49150409D01*
X100973393Y-49116431D01*
X100990134Y-49085110D01*
X101012661Y-49057661D01*
X101040110Y-49035134D01*
X101071431Y-49018393D01*
X101105409Y-49008085D01*
X101146890Y-49004000D01*
X101748110Y-49004000D01*
X101789591Y-49008085D01*
G37*
G36*
X103364591Y-49008085D02*
G01*
X103398569Y-49018393D01*
X103429890Y-49035134D01*
X103457339Y-49057661D01*
X103479866Y-49085110D01*
X103496607Y-49116431D01*
X103506915Y-49150409D01*
X103511000Y-49191890D01*
X103511000Y-49868110D01*
X103506915Y-49909591D01*
X103496607Y-49943569D01*
X103479866Y-49974890D01*
X103457339Y-50002339D01*
X103429890Y-50024866D01*
X103398569Y-50041607D01*
X103364591Y-50051915D01*
X103323110Y-50056000D01*
X102721890Y-50056000D01*
X102680409Y-50051915D01*
X102646431Y-50041607D01*
X102615110Y-50024866D01*
X102587661Y-50002339D01*
X102565134Y-49974890D01*
X102548393Y-49943569D01*
X102538085Y-49909591D01*
X102534000Y-49868110D01*
X102534000Y-49191890D01*
X102538085Y-49150409D01*
X102548393Y-49116431D01*
X102565134Y-49085110D01*
X102587661Y-49057661D01*
X102615110Y-49035134D01*
X102646431Y-49018393D01*
X102680409Y-49008085D01*
X102721890Y-49004000D01*
X103323110Y-49004000D01*
X103364591Y-49008085D01*
G37*
G36*
X105599591Y-49008085D02*
G01*
X105633569Y-49018393D01*
X105664890Y-49035134D01*
X105692339Y-49057661D01*
X105714866Y-49085110D01*
X105731607Y-49116431D01*
X105741915Y-49150409D01*
X105746000Y-49191890D01*
X105746000Y-49868110D01*
X105741915Y-49909591D01*
X105731607Y-49943569D01*
X105714866Y-49974890D01*
X105692339Y-50002339D01*
X105664890Y-50024866D01*
X105633569Y-50041607D01*
X105599591Y-50051915D01*
X105558110Y-50056000D01*
X104956890Y-50056000D01*
X104915409Y-50051915D01*
X104881431Y-50041607D01*
X104850110Y-50024866D01*
X104822661Y-50002339D01*
X104800134Y-49974890D01*
X104783393Y-49943569D01*
X104773085Y-49909591D01*
X104769000Y-49868110D01*
X104769000Y-49191890D01*
X104773085Y-49150409D01*
X104783393Y-49116431D01*
X104800134Y-49085110D01*
X104822661Y-49057661D01*
X104850110Y-49035134D01*
X104881431Y-49018393D01*
X104915409Y-49008085D01*
X104956890Y-49004000D01*
X105558110Y-49004000D01*
X105599591Y-49008085D01*
G37*
G36*
X124573512Y-47363927D02*
G01*
X124722812Y-47393624D01*
X124886784Y-47461544D01*
X125034354Y-47560147D01*
X125159853Y-47685646D01*
X125258456Y-47833216D01*
X125326376Y-47997188D01*
X125361000Y-48171259D01*
X125361000Y-48348741D01*
X125326376Y-48522812D01*
X125258456Y-48686784D01*
X125159853Y-48834354D01*
X125034354Y-48959853D01*
X124886784Y-49058456D01*
X124722812Y-49126376D01*
X124580012Y-49154780D01*
X124548742Y-49161000D01*
X124371258Y-49161000D01*
X124339988Y-49154780D01*
X124197188Y-49126376D01*
X124033216Y-49058456D01*
X123885646Y-48959853D01*
X123760147Y-48834354D01*
X123661544Y-48686784D01*
X123593624Y-48522812D01*
X123559000Y-48348741D01*
X123559000Y-48171259D01*
X123593624Y-47997188D01*
X123661544Y-47833216D01*
X123760147Y-47685646D01*
X123885646Y-47560147D01*
X124033216Y-47461544D01*
X124197188Y-47393624D01*
X124346488Y-47363927D01*
X124371258Y-47359000D01*
X124548742Y-47359000D01*
X124573512Y-47363927D01*
G37*
G36*
X94093512Y-47363927D02*
G01*
X94242812Y-47393624D01*
X94406784Y-47461544D01*
X94554354Y-47560147D01*
X94679853Y-47685646D01*
X94778456Y-47833216D01*
X94846376Y-47997188D01*
X94881000Y-48171259D01*
X94881000Y-48348741D01*
X94846376Y-48522812D01*
X94778456Y-48686784D01*
X94679853Y-48834354D01*
X94554354Y-48959853D01*
X94406784Y-49058456D01*
X94242812Y-49126376D01*
X94100012Y-49154780D01*
X94068742Y-49161000D01*
X93891258Y-49161000D01*
X93859988Y-49154780D01*
X93717188Y-49126376D01*
X93553216Y-49058456D01*
X93405646Y-48959853D01*
X93280147Y-48834354D01*
X93181544Y-48686784D01*
X93113624Y-48522812D01*
X93079000Y-48348741D01*
X93079000Y-48171259D01*
X93113624Y-47997188D01*
X93181544Y-47833216D01*
X93280147Y-47685646D01*
X93405646Y-47560147D01*
X93553216Y-47461544D01*
X93717188Y-47393624D01*
X93866488Y-47363927D01*
X93891258Y-47359000D01*
X94068742Y-47359000D01*
X94093512Y-47363927D01*
G37*
G36*
X110984591Y-47103085D02*
G01*
X111018569Y-47113393D01*
X111049890Y-47130134D01*
X111077339Y-47152661D01*
X111099866Y-47180110D01*
X111116607Y-47211431D01*
X111126915Y-47245409D01*
X111131000Y-47286890D01*
X111131000Y-47963110D01*
X111126915Y-48004591D01*
X111116607Y-48038569D01*
X111099866Y-48069890D01*
X111077339Y-48097339D01*
X111049890Y-48119866D01*
X111018569Y-48136607D01*
X110984591Y-48146915D01*
X110943110Y-48151000D01*
X110341890Y-48151000D01*
X110300409Y-48146915D01*
X110266431Y-48136607D01*
X110235110Y-48119866D01*
X110207661Y-48097339D01*
X110185134Y-48069890D01*
X110168393Y-48038569D01*
X110158085Y-48004591D01*
X110154000Y-47963110D01*
X110154000Y-47286890D01*
X110158085Y-47245409D01*
X110168393Y-47211431D01*
X110185134Y-47180110D01*
X110207661Y-47152661D01*
X110235110Y-47130134D01*
X110266431Y-47113393D01*
X110300409Y-47103085D01*
X110341890Y-47099000D01*
X110943110Y-47099000D01*
X110984591Y-47103085D01*
G37*
G36*
X109409591Y-47103085D02*
G01*
X109443569Y-47113393D01*
X109474890Y-47130134D01*
X109502339Y-47152661D01*
X109524866Y-47180110D01*
X109541607Y-47211431D01*
X109551915Y-47245409D01*
X109556000Y-47286890D01*
X109556000Y-47963110D01*
X109551915Y-48004591D01*
X109541607Y-48038569D01*
X109524866Y-48069890D01*
X109502339Y-48097339D01*
X109474890Y-48119866D01*
X109443569Y-48136607D01*
X109409591Y-48146915D01*
X109368110Y-48151000D01*
X108766890Y-48151000D01*
X108725409Y-48146915D01*
X108691431Y-48136607D01*
X108660110Y-48119866D01*
X108632661Y-48097339D01*
X108610134Y-48069890D01*
X108593393Y-48038569D01*
X108583085Y-48004591D01*
X108579000Y-47963110D01*
X108579000Y-47286890D01*
X108583085Y-47245409D01*
X108593393Y-47211431D01*
X108610134Y-47180110D01*
X108632661Y-47152661D01*
X108660110Y-47130134D01*
X108691431Y-47113393D01*
X108725409Y-47103085D01*
X108766890Y-47099000D01*
X109368110Y-47099000D01*
X109409591Y-47103085D01*
G37*
G36*
X103926000Y-48106000D02*
G01*
X101924000Y-48106000D01*
X101924000Y-46904000D01*
X103926000Y-46904000D01*
X103926000Y-48106000D01*
G37*
G36*
X107626000Y-48106000D02*
G01*
X105624000Y-48106000D01*
X105624000Y-46904000D01*
X107626000Y-46904000D01*
X107626000Y-48106000D01*
G37*
G36*
X97649999Y-46189737D02*
G01*
X97659608Y-46192652D01*
X97668472Y-46197390D01*
X97676237Y-46203763D01*
X97686448Y-46216206D01*
X97693378Y-46226575D01*
X97710705Y-46243902D01*
X97731080Y-46257515D01*
X97753720Y-46266891D01*
X97777753Y-46271671D01*
X97802257Y-46271670D01*
X97826290Y-46266888D01*
X97848929Y-46257510D01*
X97869302Y-46243895D01*
X97886629Y-46226568D01*
X97893558Y-46216198D01*
X97903763Y-46203763D01*
X97911528Y-46197390D01*
X97920392Y-46192652D01*
X97930001Y-46189737D01*
X97946140Y-46188148D01*
X98433861Y-46188148D01*
X98452199Y-46189954D01*
X98464450Y-46190556D01*
X98482869Y-46190556D01*
X98505149Y-46192750D01*
X98589233Y-46209476D01*
X98610660Y-46215976D01*
X98689858Y-46248780D01*
X98695303Y-46251691D01*
X98695309Y-46251693D01*
X98704169Y-46256429D01*
X98704173Y-46256432D01*
X98709614Y-46259340D01*
X98780899Y-46306971D01*
X98798204Y-46321172D01*
X98858828Y-46381796D01*
X98873029Y-46399101D01*
X98920660Y-46470386D01*
X98923568Y-46475827D01*
X98923571Y-46475831D01*
X98928307Y-46484691D01*
X98928309Y-46484697D01*
X98931220Y-46490142D01*
X98964024Y-46569340D01*
X98970524Y-46590767D01*
X98987250Y-46674851D01*
X98989444Y-46697131D01*
X98989444Y-46715550D01*
X98990046Y-46727801D01*
X98991852Y-46746139D01*
X98991852Y-47233862D01*
X98990046Y-47252199D01*
X98989444Y-47264450D01*
X98989444Y-47282869D01*
X98987250Y-47305149D01*
X98970524Y-47389233D01*
X98964024Y-47410660D01*
X98931220Y-47489858D01*
X98928309Y-47495303D01*
X98928307Y-47495309D01*
X98923571Y-47504169D01*
X98923568Y-47504173D01*
X98920660Y-47509614D01*
X98873029Y-47580899D01*
X98858828Y-47598204D01*
X98798204Y-47658828D01*
X98780899Y-47673029D01*
X98709614Y-47720660D01*
X98704173Y-47723568D01*
X98704169Y-47723571D01*
X98695309Y-47728307D01*
X98695303Y-47728309D01*
X98689858Y-47731220D01*
X98610660Y-47764024D01*
X98589233Y-47770524D01*
X98505149Y-47787250D01*
X98482869Y-47789444D01*
X98464450Y-47789444D01*
X98452199Y-47790046D01*
X98433862Y-47791852D01*
X97946140Y-47791852D01*
X97930001Y-47790263D01*
X97920392Y-47787348D01*
X97911528Y-47782610D01*
X97903763Y-47776237D01*
X97893552Y-47763794D01*
X97886622Y-47753425D01*
X97869295Y-47736098D01*
X97848920Y-47722485D01*
X97826280Y-47713109D01*
X97802247Y-47708329D01*
X97777743Y-47708330D01*
X97753710Y-47713112D01*
X97731071Y-47722490D01*
X97710698Y-47736105D01*
X97693371Y-47753432D01*
X97686442Y-47763802D01*
X97676237Y-47776237D01*
X97668472Y-47782610D01*
X97659608Y-47787348D01*
X97649999Y-47790263D01*
X97633860Y-47791852D01*
X97146138Y-47791852D01*
X97127801Y-47790046D01*
X97115550Y-47789444D01*
X97097131Y-47789444D01*
X97074851Y-47787250D01*
X96990767Y-47770524D01*
X96969340Y-47764024D01*
X96890142Y-47731220D01*
X96884697Y-47728309D01*
X96884691Y-47728307D01*
X96875831Y-47723571D01*
X96875827Y-47723568D01*
X96870386Y-47720660D01*
X96799101Y-47673029D01*
X96781796Y-47658828D01*
X96721172Y-47598204D01*
X96706971Y-47580899D01*
X96659340Y-47509614D01*
X96656432Y-47504173D01*
X96656429Y-47504169D01*
X96651693Y-47495309D01*
X96651691Y-47495303D01*
X96648780Y-47489858D01*
X96615976Y-47410660D01*
X96609476Y-47389233D01*
X96592750Y-47305149D01*
X96590556Y-47282869D01*
X96590556Y-47264450D01*
X96589954Y-47252199D01*
X96588148Y-47233862D01*
X96588148Y-46746139D01*
X96589954Y-46727801D01*
X96590556Y-46715550D01*
X96590556Y-46697131D01*
X96592750Y-46674851D01*
X96609476Y-46590767D01*
X96615976Y-46569340D01*
X96648780Y-46490142D01*
X96651691Y-46484697D01*
X96651693Y-46484691D01*
X96656429Y-46475831D01*
X96656432Y-46475827D01*
X96659340Y-46470386D01*
X96706971Y-46399101D01*
X96721172Y-46381796D01*
X96781796Y-46321172D01*
X96799101Y-46306971D01*
X96870386Y-46259340D01*
X96875827Y-46256432D01*
X96875831Y-46256429D01*
X96884691Y-46251693D01*
X96884697Y-46251691D01*
X96890142Y-46248780D01*
X96969340Y-46215976D01*
X96990767Y-46209476D01*
X97074851Y-46192750D01*
X97097131Y-46190556D01*
X97115550Y-46190556D01*
X97127801Y-46189954D01*
X97146139Y-46188148D01*
X97633860Y-46188148D01*
X97649999Y-46189737D01*
G37*
G36*
X124573512Y-44823927D02*
G01*
X124722812Y-44853624D01*
X124886784Y-44921544D01*
X125034354Y-45020147D01*
X125159853Y-45145646D01*
X125258456Y-45293216D01*
X125326376Y-45457188D01*
X125361000Y-45631259D01*
X125361000Y-45808741D01*
X125326376Y-45982812D01*
X125258456Y-46146784D01*
X125159853Y-46294354D01*
X125034354Y-46419853D01*
X124886784Y-46518456D01*
X124722812Y-46586376D01*
X124573512Y-46616073D01*
X124548742Y-46621000D01*
X124371258Y-46621000D01*
X124346488Y-46616073D01*
X124197188Y-46586376D01*
X124033216Y-46518456D01*
X123885646Y-46419853D01*
X123760147Y-46294354D01*
X123661544Y-46146784D01*
X123593624Y-45982812D01*
X123559000Y-45808741D01*
X123559000Y-45631259D01*
X123593624Y-45457188D01*
X123661544Y-45293216D01*
X123760147Y-45145646D01*
X123885646Y-45020147D01*
X124033216Y-44921544D01*
X124197188Y-44853624D01*
X124346488Y-44823927D01*
X124371258Y-44819000D01*
X124548742Y-44819000D01*
X124573512Y-44823927D01*
G37*
G36*
X94093512Y-44823927D02*
G01*
X94242812Y-44853624D01*
X94406784Y-44921544D01*
X94554354Y-45020147D01*
X94679853Y-45145646D01*
X94778456Y-45293216D01*
X94846376Y-45457188D01*
X94881000Y-45631259D01*
X94881000Y-45808741D01*
X94846376Y-45982812D01*
X94778456Y-46146784D01*
X94679853Y-46294354D01*
X94554354Y-46419853D01*
X94406784Y-46518456D01*
X94242812Y-46586376D01*
X94093512Y-46616073D01*
X94068742Y-46621000D01*
X93891258Y-46621000D01*
X93866488Y-46616073D01*
X93717188Y-46586376D01*
X93553216Y-46518456D01*
X93405646Y-46419853D01*
X93280147Y-46294354D01*
X93181544Y-46146784D01*
X93113624Y-45982812D01*
X93079000Y-45808741D01*
X93079000Y-45631259D01*
X93113624Y-45457188D01*
X93181544Y-45293216D01*
X93280147Y-45145646D01*
X93405646Y-45020147D01*
X93553216Y-44921544D01*
X93717188Y-44853624D01*
X93866488Y-44823927D01*
X93891258Y-44819000D01*
X94068742Y-44819000D01*
X94093512Y-44823927D01*
G37*
G36*
X110984591Y-45198085D02*
G01*
X111018569Y-45208393D01*
X111049890Y-45225134D01*
X111077339Y-45247661D01*
X111099866Y-45275110D01*
X111116607Y-45306431D01*
X111126915Y-45340409D01*
X111131000Y-45381890D01*
X111131000Y-46058110D01*
X111126915Y-46099591D01*
X111116607Y-46133569D01*
X111099866Y-46164890D01*
X111077339Y-46192339D01*
X111049890Y-46214866D01*
X111018569Y-46231607D01*
X110984591Y-46241915D01*
X110943110Y-46246000D01*
X110341890Y-46246000D01*
X110300409Y-46241915D01*
X110266431Y-46231607D01*
X110235110Y-46214866D01*
X110207661Y-46192339D01*
X110185134Y-46164890D01*
X110168393Y-46133569D01*
X110158085Y-46099591D01*
X110154000Y-46058110D01*
X110154000Y-45381890D01*
X110158085Y-45340409D01*
X110168393Y-45306431D01*
X110185134Y-45275110D01*
X110207661Y-45247661D01*
X110235110Y-45225134D01*
X110266431Y-45208393D01*
X110300409Y-45198085D01*
X110341890Y-45194000D01*
X110943110Y-45194000D01*
X110984591Y-45198085D01*
G37*
G36*
X109409591Y-45198085D02*
G01*
X109443569Y-45208393D01*
X109474890Y-45225134D01*
X109502339Y-45247661D01*
X109524866Y-45275110D01*
X109541607Y-45306431D01*
X109551915Y-45340409D01*
X109556000Y-45381890D01*
X109556000Y-46058110D01*
X109551915Y-46099591D01*
X109541607Y-46133569D01*
X109524866Y-46164890D01*
X109502339Y-46192339D01*
X109474890Y-46214866D01*
X109443569Y-46231607D01*
X109409591Y-46241915D01*
X109368110Y-46246000D01*
X108766890Y-46246000D01*
X108725409Y-46241915D01*
X108691431Y-46231607D01*
X108660110Y-46214866D01*
X108632661Y-46192339D01*
X108610134Y-46164890D01*
X108593393Y-46133569D01*
X108583085Y-46099591D01*
X108579000Y-46058110D01*
X108579000Y-45381890D01*
X108583085Y-45340409D01*
X108593393Y-45306431D01*
X108610134Y-45275110D01*
X108632661Y-45247661D01*
X108660110Y-45225134D01*
X108691431Y-45208393D01*
X108725409Y-45198085D01*
X108766890Y-45194000D01*
X109368110Y-45194000D01*
X109409591Y-45198085D01*
G37*
G36*
X103926000Y-45806000D02*
G01*
X101924000Y-45806000D01*
X101924000Y-44604000D01*
X103926000Y-44604000D01*
X103926000Y-45806000D01*
G37*
G36*
X107626000Y-45806000D02*
G01*
X105624000Y-45806000D01*
X105624000Y-44604000D01*
X107626000Y-44604000D01*
X107626000Y-45806000D01*
G37*
G36*
X97649999Y-43014737D02*
G01*
X97659608Y-43017652D01*
X97668472Y-43022390D01*
X97676237Y-43028763D01*
X97686448Y-43041206D01*
X97693378Y-43051575D01*
X97710705Y-43068902D01*
X97731080Y-43082515D01*
X97753720Y-43091891D01*
X97777753Y-43096671D01*
X97802257Y-43096670D01*
X97826290Y-43091888D01*
X97848929Y-43082510D01*
X97869302Y-43068895D01*
X97886629Y-43051568D01*
X97893558Y-43041198D01*
X97903763Y-43028763D01*
X97911528Y-43022390D01*
X97920392Y-43017652D01*
X97930001Y-43014737D01*
X97946140Y-43013148D01*
X98433861Y-43013148D01*
X98452199Y-43014954D01*
X98464450Y-43015556D01*
X98482869Y-43015556D01*
X98505149Y-43017750D01*
X98589233Y-43034476D01*
X98610660Y-43040976D01*
X98689858Y-43073780D01*
X98695303Y-43076691D01*
X98695309Y-43076693D01*
X98704169Y-43081429D01*
X98704173Y-43081432D01*
X98709614Y-43084340D01*
X98780899Y-43131971D01*
X98798204Y-43146172D01*
X98858828Y-43206796D01*
X98873029Y-43224101D01*
X98920660Y-43295386D01*
X98923568Y-43300827D01*
X98923571Y-43300831D01*
X98928307Y-43309691D01*
X98928309Y-43309697D01*
X98931220Y-43315142D01*
X98964024Y-43394340D01*
X98970524Y-43415767D01*
X98987250Y-43499851D01*
X98989444Y-43522131D01*
X98989444Y-43540550D01*
X98990046Y-43552801D01*
X98991852Y-43571139D01*
X98991852Y-44058862D01*
X98990046Y-44077199D01*
X98989444Y-44089450D01*
X98989444Y-44107869D01*
X98987250Y-44130149D01*
X98970524Y-44214233D01*
X98964024Y-44235660D01*
X98931220Y-44314858D01*
X98928309Y-44320303D01*
X98928307Y-44320309D01*
X98923571Y-44329169D01*
X98923568Y-44329173D01*
X98920660Y-44334614D01*
X98873029Y-44405899D01*
X98858828Y-44423204D01*
X98798204Y-44483828D01*
X98780899Y-44498029D01*
X98709614Y-44545660D01*
X98704173Y-44548568D01*
X98704169Y-44548571D01*
X98695309Y-44553307D01*
X98695303Y-44553309D01*
X98689858Y-44556220D01*
X98610660Y-44589024D01*
X98589233Y-44595524D01*
X98505149Y-44612250D01*
X98482869Y-44614444D01*
X98464450Y-44614444D01*
X98452199Y-44615046D01*
X98433862Y-44616852D01*
X97946140Y-44616852D01*
X97930001Y-44615263D01*
X97920392Y-44612348D01*
X97911528Y-44607610D01*
X97903763Y-44601237D01*
X97893552Y-44588794D01*
X97886622Y-44578425D01*
X97869295Y-44561098D01*
X97848920Y-44547485D01*
X97826280Y-44538109D01*
X97802247Y-44533329D01*
X97777743Y-44533330D01*
X97753710Y-44538112D01*
X97731071Y-44547490D01*
X97710698Y-44561105D01*
X97693371Y-44578432D01*
X97686442Y-44588802D01*
X97676237Y-44601237D01*
X97668472Y-44607610D01*
X97659608Y-44612348D01*
X97649999Y-44615263D01*
X97633860Y-44616852D01*
X97146138Y-44616852D01*
X97127801Y-44615046D01*
X97115550Y-44614444D01*
X97097131Y-44614444D01*
X97074851Y-44612250D01*
X96990767Y-44595524D01*
X96969340Y-44589024D01*
X96890142Y-44556220D01*
X96884697Y-44553309D01*
X96884691Y-44553307D01*
X96875831Y-44548571D01*
X96875827Y-44548568D01*
X96870386Y-44545660D01*
X96799101Y-44498029D01*
X96781796Y-44483828D01*
X96721172Y-44423204D01*
X96706971Y-44405899D01*
X96659340Y-44334614D01*
X96656432Y-44329173D01*
X96656429Y-44329169D01*
X96651693Y-44320309D01*
X96651691Y-44320303D01*
X96648780Y-44314858D01*
X96615976Y-44235660D01*
X96609476Y-44214233D01*
X96592750Y-44130149D01*
X96590556Y-44107869D01*
X96590556Y-44089450D01*
X96589954Y-44077199D01*
X96588148Y-44058862D01*
X96588148Y-43571139D01*
X96589954Y-43552801D01*
X96590556Y-43540550D01*
X96590556Y-43522131D01*
X96592750Y-43499851D01*
X96609476Y-43415767D01*
X96615976Y-43394340D01*
X96648780Y-43315142D01*
X96651691Y-43309697D01*
X96651693Y-43309691D01*
X96656429Y-43300831D01*
X96656432Y-43300827D01*
X96659340Y-43295386D01*
X96706971Y-43224101D01*
X96721172Y-43206796D01*
X96781796Y-43146172D01*
X96799101Y-43131971D01*
X96870386Y-43084340D01*
X96875827Y-43081432D01*
X96875831Y-43081429D01*
X96884691Y-43076693D01*
X96884697Y-43076691D01*
X96890142Y-43073780D01*
X96969340Y-43040976D01*
X96990767Y-43034476D01*
X97074851Y-43017750D01*
X97097131Y-43015556D01*
X97115550Y-43015556D01*
X97127801Y-43014954D01*
X97146139Y-43013148D01*
X97633860Y-43013148D01*
X97649999Y-43014737D01*
G37*
G36*
X94093512Y-42283927D02*
G01*
X94242812Y-42313624D01*
X94406784Y-42381544D01*
X94554354Y-42480147D01*
X94679853Y-42605646D01*
X94778456Y-42753216D01*
X94846376Y-42917188D01*
X94881000Y-43091259D01*
X94881000Y-43268741D01*
X94846376Y-43442812D01*
X94778456Y-43606784D01*
X94679853Y-43754354D01*
X94554354Y-43879853D01*
X94406784Y-43978456D01*
X94242812Y-44046376D01*
X94098916Y-44074998D01*
X94068742Y-44081000D01*
X93891258Y-44081000D01*
X93861084Y-44074998D01*
X93717188Y-44046376D01*
X93553216Y-43978456D01*
X93405646Y-43879853D01*
X93280147Y-43754354D01*
X93181544Y-43606784D01*
X93113624Y-43442812D01*
X93079000Y-43268741D01*
X93079000Y-43091259D01*
X93113624Y-42917188D01*
X93181544Y-42753216D01*
X93280147Y-42605646D01*
X93405646Y-42480147D01*
X93553216Y-42381544D01*
X93717188Y-42313624D01*
X93866488Y-42283927D01*
X93891258Y-42279000D01*
X94068742Y-42279000D01*
X94093512Y-42283927D01*
G37*
G36*
X124573512Y-42283927D02*
G01*
X124722812Y-42313624D01*
X124886784Y-42381544D01*
X125034354Y-42480147D01*
X125159853Y-42605646D01*
X125258456Y-42753216D01*
X125326376Y-42917188D01*
X125361000Y-43091259D01*
X125361000Y-43268741D01*
X125326376Y-43442812D01*
X125258456Y-43606784D01*
X125159853Y-43754354D01*
X125034354Y-43879853D01*
X124886784Y-43978456D01*
X124722812Y-44046376D01*
X124578916Y-44074998D01*
X124548742Y-44081000D01*
X124371258Y-44081000D01*
X124341084Y-44074998D01*
X124197188Y-44046376D01*
X124033216Y-43978456D01*
X123885646Y-43879853D01*
X123760147Y-43754354D01*
X123661544Y-43606784D01*
X123593624Y-43442812D01*
X123559000Y-43268741D01*
X123559000Y-43091259D01*
X123593624Y-42917188D01*
X123661544Y-42753216D01*
X123760147Y-42605646D01*
X123885646Y-42480147D01*
X124033216Y-42381544D01*
X124197188Y-42313624D01*
X124346488Y-42283927D01*
X124371258Y-42279000D01*
X124548742Y-42279000D01*
X124573512Y-42283927D01*
G37*
G36*
X104329591Y-42658085D02*
G01*
X104363569Y-42668393D01*
X104394890Y-42685134D01*
X104422339Y-42707661D01*
X104444866Y-42735110D01*
X104461607Y-42766431D01*
X104471915Y-42800409D01*
X104476000Y-42841890D01*
X104476000Y-43518110D01*
X104471915Y-43559591D01*
X104461607Y-43593569D01*
X104444866Y-43624890D01*
X104422339Y-43652339D01*
X104394890Y-43674866D01*
X104363569Y-43691607D01*
X104329591Y-43701915D01*
X104288110Y-43706000D01*
X103686890Y-43706000D01*
X103645409Y-43701915D01*
X103611431Y-43691607D01*
X103580110Y-43674866D01*
X103552661Y-43652339D01*
X103530134Y-43624890D01*
X103513393Y-43593569D01*
X103503085Y-43559591D01*
X103499000Y-43518110D01*
X103499000Y-42841890D01*
X103503085Y-42800409D01*
X103513393Y-42766431D01*
X103530134Y-42735110D01*
X103552661Y-42707661D01*
X103580110Y-42685134D01*
X103611431Y-42668393D01*
X103645409Y-42658085D01*
X103686890Y-42654000D01*
X104288110Y-42654000D01*
X104329591Y-42658085D01*
G37*
G36*
X105904591Y-42658085D02*
G01*
X105938569Y-42668393D01*
X105969890Y-42685134D01*
X105997339Y-42707661D01*
X106019866Y-42735110D01*
X106036607Y-42766431D01*
X106046915Y-42800409D01*
X106051000Y-42841890D01*
X106051000Y-43518110D01*
X106046915Y-43559591D01*
X106036607Y-43593569D01*
X106019866Y-43624890D01*
X105997339Y-43652339D01*
X105969890Y-43674866D01*
X105938569Y-43691607D01*
X105904591Y-43701915D01*
X105863110Y-43706000D01*
X105261890Y-43706000D01*
X105220409Y-43701915D01*
X105186431Y-43691607D01*
X105155110Y-43674866D01*
X105127661Y-43652339D01*
X105105134Y-43624890D01*
X105088393Y-43593569D01*
X105078085Y-43559591D01*
X105074000Y-43518110D01*
X105074000Y-42841890D01*
X105078085Y-42800409D01*
X105088393Y-42766431D01*
X105105134Y-42735110D01*
X105127661Y-42707661D01*
X105155110Y-42685134D01*
X105186431Y-42668393D01*
X105220409Y-42658085D01*
X105261890Y-42654000D01*
X105863110Y-42654000D01*
X105904591Y-42658085D01*
G37*
G36*
X124573512Y-39743927D02*
G01*
X124722812Y-39773624D01*
X124886784Y-39841544D01*
X125034354Y-39940147D01*
X125159853Y-40065646D01*
X125258456Y-40213216D01*
X125326376Y-40377188D01*
X125361000Y-40551259D01*
X125361000Y-40728741D01*
X125326376Y-40902812D01*
X125258456Y-41066784D01*
X125159853Y-41214354D01*
X125034354Y-41339853D01*
X124886784Y-41438456D01*
X124722812Y-41506376D01*
X124573512Y-41536073D01*
X124548742Y-41541000D01*
X124371258Y-41541000D01*
X124346488Y-41536073D01*
X124197188Y-41506376D01*
X124033216Y-41438456D01*
X123885646Y-41339853D01*
X123760147Y-41214354D01*
X123661544Y-41066784D01*
X123593624Y-40902812D01*
X123559000Y-40728741D01*
X123559000Y-40551259D01*
X123593624Y-40377188D01*
X123661544Y-40213216D01*
X123760147Y-40065646D01*
X123885646Y-39940147D01*
X124033216Y-39841544D01*
X124197188Y-39773624D01*
X124346488Y-39743927D01*
X124371258Y-39739000D01*
X124548742Y-39739000D01*
X124573512Y-39743927D01*
G37*
G36*
X94093512Y-39743927D02*
G01*
X94242812Y-39773624D01*
X94406784Y-39841544D01*
X94554354Y-39940147D01*
X94679853Y-40065646D01*
X94778456Y-40213216D01*
X94846376Y-40377188D01*
X94881000Y-40551259D01*
X94881000Y-40728741D01*
X94846376Y-40902812D01*
X94778456Y-41066784D01*
X94679853Y-41214354D01*
X94554354Y-41339853D01*
X94406784Y-41438456D01*
X94242812Y-41506376D01*
X94093512Y-41536073D01*
X94068742Y-41541000D01*
X93891258Y-41541000D01*
X93866488Y-41536073D01*
X93717188Y-41506376D01*
X93553216Y-41438456D01*
X93405646Y-41339853D01*
X93280147Y-41214354D01*
X93181544Y-41066784D01*
X93113624Y-40902812D01*
X93079000Y-40728741D01*
X93079000Y-40551259D01*
X93113624Y-40377188D01*
X93181544Y-40213216D01*
X93280147Y-40065646D01*
X93405646Y-39940147D01*
X93553216Y-39841544D01*
X93717188Y-39773624D01*
X93866488Y-39743927D01*
X93891258Y-39739000D01*
X94068742Y-39739000D01*
X94093512Y-39743927D01*
G37*
G36*
X97649999Y-39839737D02*
G01*
X97659608Y-39842652D01*
X97668472Y-39847390D01*
X97676237Y-39853763D01*
X97686448Y-39866206D01*
X97693378Y-39876575D01*
X97710705Y-39893902D01*
X97731080Y-39907515D01*
X97753720Y-39916891D01*
X97777753Y-39921671D01*
X97802257Y-39921670D01*
X97826290Y-39916888D01*
X97848929Y-39907510D01*
X97869302Y-39893895D01*
X97886629Y-39876568D01*
X97893558Y-39866198D01*
X97903763Y-39853763D01*
X97911528Y-39847390D01*
X97920392Y-39842652D01*
X97930001Y-39839737D01*
X97946140Y-39838148D01*
X98433861Y-39838148D01*
X98452199Y-39839954D01*
X98464450Y-39840556D01*
X98482869Y-39840556D01*
X98505149Y-39842750D01*
X98589233Y-39859476D01*
X98610660Y-39865976D01*
X98689858Y-39898780D01*
X98695303Y-39901691D01*
X98695309Y-39901693D01*
X98704169Y-39906429D01*
X98704173Y-39906432D01*
X98709614Y-39909340D01*
X98780899Y-39956971D01*
X98798204Y-39971172D01*
X98858828Y-40031796D01*
X98873029Y-40049101D01*
X98920660Y-40120386D01*
X98923568Y-40125827D01*
X98923571Y-40125831D01*
X98928307Y-40134691D01*
X98928309Y-40134697D01*
X98931220Y-40140142D01*
X98964024Y-40219340D01*
X98970524Y-40240767D01*
X98987250Y-40324851D01*
X98989444Y-40347131D01*
X98989444Y-40365550D01*
X98990046Y-40377801D01*
X98991852Y-40396139D01*
X98991852Y-40883862D01*
X98990046Y-40902199D01*
X98989444Y-40914450D01*
X98989444Y-40932869D01*
X98987250Y-40955149D01*
X98970524Y-41039233D01*
X98964024Y-41060660D01*
X98931220Y-41139858D01*
X98928309Y-41145303D01*
X98928307Y-41145309D01*
X98923571Y-41154169D01*
X98923568Y-41154173D01*
X98920660Y-41159614D01*
X98873029Y-41230899D01*
X98858828Y-41248204D01*
X98798204Y-41308828D01*
X98780899Y-41323029D01*
X98709614Y-41370660D01*
X98704173Y-41373568D01*
X98704169Y-41373571D01*
X98695309Y-41378307D01*
X98695303Y-41378309D01*
X98689858Y-41381220D01*
X98610660Y-41414024D01*
X98589233Y-41420524D01*
X98505149Y-41437250D01*
X98482869Y-41439444D01*
X98464450Y-41439444D01*
X98452199Y-41440046D01*
X98433862Y-41441852D01*
X97946140Y-41441852D01*
X97930001Y-41440263D01*
X97920392Y-41437348D01*
X97911528Y-41432610D01*
X97903763Y-41426237D01*
X97893552Y-41413794D01*
X97886622Y-41403425D01*
X97869295Y-41386098D01*
X97848920Y-41372485D01*
X97826280Y-41363109D01*
X97802247Y-41358329D01*
X97777743Y-41358330D01*
X97753710Y-41363112D01*
X97731071Y-41372490D01*
X97710698Y-41386105D01*
X97693371Y-41403432D01*
X97686442Y-41413802D01*
X97676237Y-41426237D01*
X97668472Y-41432610D01*
X97659608Y-41437348D01*
X97649999Y-41440263D01*
X97633860Y-41441852D01*
X97146138Y-41441852D01*
X97127801Y-41440046D01*
X97115550Y-41439444D01*
X97097131Y-41439444D01*
X97074851Y-41437250D01*
X96990767Y-41420524D01*
X96969340Y-41414024D01*
X96890142Y-41381220D01*
X96884697Y-41378309D01*
X96884691Y-41378307D01*
X96875831Y-41373571D01*
X96875827Y-41373568D01*
X96870386Y-41370660D01*
X96799101Y-41323029D01*
X96781796Y-41308828D01*
X96721172Y-41248204D01*
X96706971Y-41230899D01*
X96659340Y-41159614D01*
X96656432Y-41154173D01*
X96656429Y-41154169D01*
X96651693Y-41145309D01*
X96651691Y-41145303D01*
X96648780Y-41139858D01*
X96615976Y-41060660D01*
X96609476Y-41039233D01*
X96592750Y-40955149D01*
X96590556Y-40932869D01*
X96590556Y-40914450D01*
X96589954Y-40902199D01*
X96588148Y-40883862D01*
X96588148Y-40396139D01*
X96589954Y-40377801D01*
X96590556Y-40365550D01*
X96590556Y-40347131D01*
X96592750Y-40324851D01*
X96609476Y-40240767D01*
X96615976Y-40219340D01*
X96648780Y-40140142D01*
X96651691Y-40134697D01*
X96651693Y-40134691D01*
X96656429Y-40125831D01*
X96656432Y-40125827D01*
X96659340Y-40120386D01*
X96706971Y-40049101D01*
X96721172Y-40031796D01*
X96781796Y-39971172D01*
X96799101Y-39956971D01*
X96870386Y-39909340D01*
X96875827Y-39906432D01*
X96875831Y-39906429D01*
X96884691Y-39901693D01*
X96884697Y-39901691D01*
X96890142Y-39898780D01*
X96969340Y-39865976D01*
X96990767Y-39859476D01*
X97074851Y-39842750D01*
X97097131Y-39840556D01*
X97115550Y-39840556D01*
X97127801Y-39839954D01*
X97146139Y-39838148D01*
X97633860Y-39838148D01*
X97649999Y-39839737D01*
G37*
G36*
X104634999Y-39839737D02*
G01*
X104644608Y-39842652D01*
X104653472Y-39847390D01*
X104661237Y-39853763D01*
X104671448Y-39866206D01*
X104678378Y-39876575D01*
X104695705Y-39893902D01*
X104716080Y-39907515D01*
X104738720Y-39916891D01*
X104762753Y-39921671D01*
X104787257Y-39921670D01*
X104811290Y-39916888D01*
X104833929Y-39907510D01*
X104854302Y-39893895D01*
X104871629Y-39876568D01*
X104878558Y-39866198D01*
X104888763Y-39853763D01*
X104896528Y-39847390D01*
X104905392Y-39842652D01*
X104915001Y-39839737D01*
X104931140Y-39838148D01*
X105418861Y-39838148D01*
X105437199Y-39839954D01*
X105449450Y-39840556D01*
X105467869Y-39840556D01*
X105490149Y-39842750D01*
X105574233Y-39859476D01*
X105595660Y-39865976D01*
X105674858Y-39898780D01*
X105680303Y-39901691D01*
X105680309Y-39901693D01*
X105689169Y-39906429D01*
X105689173Y-39906432D01*
X105694614Y-39909340D01*
X105765899Y-39956971D01*
X105783204Y-39971172D01*
X105843828Y-40031796D01*
X105858029Y-40049101D01*
X105905660Y-40120386D01*
X105908568Y-40125827D01*
X105908571Y-40125831D01*
X105913307Y-40134691D01*
X105913309Y-40134697D01*
X105916220Y-40140142D01*
X105949024Y-40219340D01*
X105955524Y-40240767D01*
X105972250Y-40324851D01*
X105974444Y-40347131D01*
X105974444Y-40365550D01*
X105975046Y-40377801D01*
X105976852Y-40396139D01*
X105976852Y-40883862D01*
X105975046Y-40902199D01*
X105974444Y-40914450D01*
X105974444Y-40932869D01*
X105972250Y-40955149D01*
X105955524Y-41039233D01*
X105949024Y-41060660D01*
X105916220Y-41139858D01*
X105913309Y-41145303D01*
X105913307Y-41145309D01*
X105908571Y-41154169D01*
X105908568Y-41154173D01*
X105905660Y-41159614D01*
X105858029Y-41230899D01*
X105843828Y-41248204D01*
X105783204Y-41308828D01*
X105765899Y-41323029D01*
X105694614Y-41370660D01*
X105689173Y-41373568D01*
X105689169Y-41373571D01*
X105680309Y-41378307D01*
X105680303Y-41378309D01*
X105674858Y-41381220D01*
X105595660Y-41414024D01*
X105574233Y-41420524D01*
X105490149Y-41437250D01*
X105467869Y-41439444D01*
X105449450Y-41439444D01*
X105437199Y-41440046D01*
X105418862Y-41441852D01*
X104931140Y-41441852D01*
X104915001Y-41440263D01*
X104905392Y-41437348D01*
X104896528Y-41432610D01*
X104888763Y-41426237D01*
X104878552Y-41413794D01*
X104871622Y-41403425D01*
X104854295Y-41386098D01*
X104833920Y-41372485D01*
X104811280Y-41363109D01*
X104787247Y-41358329D01*
X104762743Y-41358330D01*
X104738710Y-41363112D01*
X104716071Y-41372490D01*
X104695698Y-41386105D01*
X104678371Y-41403432D01*
X104671442Y-41413802D01*
X104661237Y-41426237D01*
X104653472Y-41432610D01*
X104644608Y-41437348D01*
X104634999Y-41440263D01*
X104618860Y-41441852D01*
X104131138Y-41441852D01*
X104112801Y-41440046D01*
X104100550Y-41439444D01*
X104082131Y-41439444D01*
X104059851Y-41437250D01*
X103975767Y-41420524D01*
X103954340Y-41414024D01*
X103875142Y-41381220D01*
X103869697Y-41378309D01*
X103869691Y-41378307D01*
X103860831Y-41373571D01*
X103860827Y-41373568D01*
X103855386Y-41370660D01*
X103784101Y-41323029D01*
X103766796Y-41308828D01*
X103706172Y-41248204D01*
X103691971Y-41230899D01*
X103644340Y-41159614D01*
X103641432Y-41154173D01*
X103641429Y-41154169D01*
X103636693Y-41145309D01*
X103636691Y-41145303D01*
X103633780Y-41139858D01*
X103600976Y-41060660D01*
X103594476Y-41039233D01*
X103577750Y-40955149D01*
X103575556Y-40932869D01*
X103575556Y-40914450D01*
X103574954Y-40902199D01*
X103573148Y-40883862D01*
X103573148Y-40396139D01*
X103574954Y-40377801D01*
X103575556Y-40365550D01*
X103575556Y-40347131D01*
X103577750Y-40324851D01*
X103594476Y-40240767D01*
X103600976Y-40219340D01*
X103633780Y-40140142D01*
X103636691Y-40134697D01*
X103636693Y-40134691D01*
X103641429Y-40125831D01*
X103641432Y-40125827D01*
X103644340Y-40120386D01*
X103691971Y-40049101D01*
X103706172Y-40031796D01*
X103766796Y-39971172D01*
X103784101Y-39956971D01*
X103855386Y-39909340D01*
X103860827Y-39906432D01*
X103860831Y-39906429D01*
X103869691Y-39901693D01*
X103869697Y-39901691D01*
X103875142Y-39898780D01*
X103954340Y-39865976D01*
X103975767Y-39859476D01*
X104059851Y-39842750D01*
X104082131Y-39840556D01*
X104100550Y-39840556D01*
X104112801Y-39839954D01*
X104131139Y-39838148D01*
X104618860Y-39838148D01*
X104634999Y-39839737D01*
G37*
G36*
X112657199Y-36884954D02*
G01*
X112669450Y-36885556D01*
X112687869Y-36885556D01*
X112710149Y-36887750D01*
X112794233Y-36904476D01*
X112815660Y-36910976D01*
X112894858Y-36943780D01*
X112900303Y-36946691D01*
X112900309Y-36946693D01*
X112909169Y-36951429D01*
X112909173Y-36951432D01*
X112914614Y-36954340D01*
X112985899Y-37001971D01*
X113003204Y-37016172D01*
X113063828Y-37076796D01*
X113078029Y-37094101D01*
X113125660Y-37165386D01*
X113128568Y-37170827D01*
X113128571Y-37170831D01*
X113133307Y-37179691D01*
X113133309Y-37179697D01*
X113136220Y-37185142D01*
X113169024Y-37264340D01*
X113175524Y-37285767D01*
X113192250Y-37369851D01*
X113194444Y-37392131D01*
X113194444Y-37410550D01*
X113195046Y-37422801D01*
X113196852Y-37441139D01*
X113196852Y-37978860D01*
X113195263Y-37994999D01*
X113190855Y-38009528D01*
X113185394Y-38022711D01*
X113180612Y-38046745D01*
X113180611Y-38071249D01*
X113185391Y-38095282D01*
X113194768Y-38117921D01*
X113196000Y-38119765D01*
X113196000Y-39351050D01*
X113189525Y-39363164D01*
X113182412Y-39386613D01*
X113180010Y-39410999D01*
X113182412Y-39435385D01*
X113189525Y-39458834D01*
X113191848Y-39463746D01*
X113195263Y-39475001D01*
X113196852Y-39491140D01*
X113196852Y-40028862D01*
X113195046Y-40047199D01*
X113194444Y-40059450D01*
X113194444Y-40077869D01*
X113192250Y-40100149D01*
X113175524Y-40184233D01*
X113169024Y-40205660D01*
X113136220Y-40284858D01*
X113133309Y-40290303D01*
X113133307Y-40290309D01*
X113128571Y-40299169D01*
X113128568Y-40299173D01*
X113125660Y-40304614D01*
X113078029Y-40375899D01*
X113063828Y-40393204D01*
X113003204Y-40453828D01*
X112985899Y-40468029D01*
X112914614Y-40515660D01*
X112909173Y-40518568D01*
X112909169Y-40518571D01*
X112900309Y-40523307D01*
X112900303Y-40523309D01*
X112894858Y-40526220D01*
X112815660Y-40559024D01*
X112794233Y-40565524D01*
X112710149Y-40582250D01*
X112687869Y-40584444D01*
X112669450Y-40584444D01*
X112657199Y-40585046D01*
X112638862Y-40586852D01*
X112151138Y-40586852D01*
X112132801Y-40585046D01*
X112120550Y-40584444D01*
X112102131Y-40584444D01*
X112079851Y-40582250D01*
X111995767Y-40565524D01*
X111974340Y-40559024D01*
X111895142Y-40526220D01*
X111889697Y-40523309D01*
X111889691Y-40523307D01*
X111880831Y-40518571D01*
X111880827Y-40518568D01*
X111875386Y-40515660D01*
X111804101Y-40468029D01*
X111786796Y-40453828D01*
X111726172Y-40393204D01*
X111711971Y-40375899D01*
X111664340Y-40304614D01*
X111661432Y-40299173D01*
X111661429Y-40299169D01*
X111656693Y-40290309D01*
X111656691Y-40290303D01*
X111653780Y-40284858D01*
X111620976Y-40205660D01*
X111614476Y-40184233D01*
X111597750Y-40100149D01*
X111595556Y-40077869D01*
X111595556Y-40059450D01*
X111594954Y-40047199D01*
X111593148Y-40028862D01*
X111593148Y-39491140D01*
X111594737Y-39475001D01*
X111599145Y-39460472D01*
X111604606Y-39447289D01*
X111609388Y-39423255D01*
X111609389Y-39398751D01*
X111604609Y-39374718D01*
X111595232Y-39352079D01*
X111594000Y-39350235D01*
X111594000Y-38118950D01*
X111600475Y-38106836D01*
X111607588Y-38083387D01*
X111609990Y-38059001D01*
X111607588Y-38034615D01*
X111600475Y-38011166D01*
X111598152Y-38006254D01*
X111594737Y-37994999D01*
X111593148Y-37978860D01*
X111593148Y-37441139D01*
X111594954Y-37422801D01*
X111595556Y-37410550D01*
X111595556Y-37392131D01*
X111597750Y-37369851D01*
X111614476Y-37285767D01*
X111620976Y-37264340D01*
X111653780Y-37185142D01*
X111656691Y-37179697D01*
X111656693Y-37179691D01*
X111661429Y-37170831D01*
X111661432Y-37170827D01*
X111664340Y-37165386D01*
X111711971Y-37094101D01*
X111726172Y-37076796D01*
X111786796Y-37016172D01*
X111804101Y-37001971D01*
X111875386Y-36954340D01*
X111880827Y-36951432D01*
X111880831Y-36951429D01*
X111889691Y-36946693D01*
X111889697Y-36946691D01*
X111895142Y-36943780D01*
X111974340Y-36910976D01*
X111995767Y-36904476D01*
X112079851Y-36887750D01*
X112102131Y-36885556D01*
X112120550Y-36885556D01*
X112132801Y-36884954D01*
X112151139Y-36883148D01*
X112638861Y-36883148D01*
X112657199Y-36884954D01*
G37*
G36*
X125361000Y-39001000D02*
G01*
X123559000Y-39001000D01*
X123559000Y-37199000D01*
X125361000Y-37199000D01*
X125361000Y-39001000D01*
G37*
G36*
X94881000Y-39001000D02*
G01*
X93079000Y-39001000D01*
X93079000Y-37199000D01*
X94881000Y-37199000D01*
X94881000Y-39001000D01*
G37*
G36*
X104634999Y-36664737D02*
G01*
X104644608Y-36667652D01*
X104653472Y-36672390D01*
X104661237Y-36678763D01*
X104671448Y-36691206D01*
X104678378Y-36701575D01*
X104695705Y-36718902D01*
X104716080Y-36732515D01*
X104738720Y-36741891D01*
X104762753Y-36746671D01*
X104787257Y-36746670D01*
X104811290Y-36741888D01*
X104833929Y-36732510D01*
X104854302Y-36718895D01*
X104871629Y-36701568D01*
X104878558Y-36691198D01*
X104888763Y-36678763D01*
X104896528Y-36672390D01*
X104905392Y-36667652D01*
X104915001Y-36664737D01*
X104931140Y-36663148D01*
X105418861Y-36663148D01*
X105437199Y-36664954D01*
X105449450Y-36665556D01*
X105467869Y-36665556D01*
X105490149Y-36667750D01*
X105574233Y-36684476D01*
X105595660Y-36690976D01*
X105674858Y-36723780D01*
X105680303Y-36726691D01*
X105680309Y-36726693D01*
X105689169Y-36731429D01*
X105689173Y-36731432D01*
X105694614Y-36734340D01*
X105765899Y-36781971D01*
X105783204Y-36796172D01*
X105843828Y-36856796D01*
X105858029Y-36874101D01*
X105905660Y-36945386D01*
X105908568Y-36950827D01*
X105908571Y-36950831D01*
X105913307Y-36959691D01*
X105913309Y-36959697D01*
X105916220Y-36965142D01*
X105949024Y-37044340D01*
X105955524Y-37065767D01*
X105972250Y-37149851D01*
X105974444Y-37172131D01*
X105974444Y-37190550D01*
X105975046Y-37202801D01*
X105976852Y-37221139D01*
X105976852Y-37708862D01*
X105975046Y-37727199D01*
X105974444Y-37739450D01*
X105974444Y-37757869D01*
X105972250Y-37780149D01*
X105955524Y-37864233D01*
X105949024Y-37885660D01*
X105916220Y-37964858D01*
X105913309Y-37970303D01*
X105913307Y-37970309D01*
X105908571Y-37979169D01*
X105908568Y-37979173D01*
X105905660Y-37984614D01*
X105858029Y-38055899D01*
X105843828Y-38073204D01*
X105783204Y-38133828D01*
X105765899Y-38148029D01*
X105694614Y-38195660D01*
X105689173Y-38198568D01*
X105689169Y-38198571D01*
X105680309Y-38203307D01*
X105680303Y-38203309D01*
X105674858Y-38206220D01*
X105595660Y-38239024D01*
X105574233Y-38245524D01*
X105490149Y-38262250D01*
X105467869Y-38264444D01*
X105449450Y-38264444D01*
X105437199Y-38265046D01*
X105418862Y-38266852D01*
X104931140Y-38266852D01*
X104915001Y-38265263D01*
X104905392Y-38262348D01*
X104896528Y-38257610D01*
X104888763Y-38251237D01*
X104878552Y-38238794D01*
X104871622Y-38228425D01*
X104854295Y-38211098D01*
X104833920Y-38197485D01*
X104811280Y-38188109D01*
X104787247Y-38183329D01*
X104762743Y-38183330D01*
X104738710Y-38188112D01*
X104716071Y-38197490D01*
X104695698Y-38211105D01*
X104678371Y-38228432D01*
X104671442Y-38238802D01*
X104661237Y-38251237D01*
X104653472Y-38257610D01*
X104644608Y-38262348D01*
X104634999Y-38265263D01*
X104618860Y-38266852D01*
X104131138Y-38266852D01*
X104112801Y-38265046D01*
X104100550Y-38264444D01*
X104082131Y-38264444D01*
X104059851Y-38262250D01*
X103975767Y-38245524D01*
X103954340Y-38239024D01*
X103875142Y-38206220D01*
X103869697Y-38203309D01*
X103869691Y-38203307D01*
X103860831Y-38198571D01*
X103860827Y-38198568D01*
X103855386Y-38195660D01*
X103784101Y-38148029D01*
X103766796Y-38133828D01*
X103706172Y-38073204D01*
X103691971Y-38055899D01*
X103644340Y-37984614D01*
X103641432Y-37979173D01*
X103641429Y-37979169D01*
X103636693Y-37970309D01*
X103636691Y-37970303D01*
X103633780Y-37964858D01*
X103600976Y-37885660D01*
X103594476Y-37864233D01*
X103577750Y-37780149D01*
X103575556Y-37757869D01*
X103575556Y-37739450D01*
X103574954Y-37727199D01*
X103573148Y-37708862D01*
X103573148Y-37221139D01*
X103574954Y-37202801D01*
X103575556Y-37190550D01*
X103575556Y-37172131D01*
X103577750Y-37149851D01*
X103594476Y-37065767D01*
X103600976Y-37044340D01*
X103633780Y-36965142D01*
X103636691Y-36959697D01*
X103636693Y-36959691D01*
X103641429Y-36950831D01*
X103641432Y-36950827D01*
X103644340Y-36945386D01*
X103691971Y-36874101D01*
X103706172Y-36856796D01*
X103766796Y-36796172D01*
X103784101Y-36781971D01*
X103855386Y-36734340D01*
X103860827Y-36731432D01*
X103860831Y-36731429D01*
X103869691Y-36726693D01*
X103869697Y-36726691D01*
X103875142Y-36723780D01*
X103954340Y-36690976D01*
X103975767Y-36684476D01*
X104059851Y-36667750D01*
X104082131Y-36665556D01*
X104100550Y-36665556D01*
X104112801Y-36664954D01*
X104131139Y-36663148D01*
X104618860Y-36663148D01*
X104634999Y-36664737D01*
G37*
M02*
