M48
; DRILL file {KiCad (5.1.5)-3} date 6/5/2020 11:08:32 PM
; FORMAT={-:-/ absolute / inch / decimal}
; #@! TF.CreationDate,2020-06-05T23:08:32+02:00
; #@! TF.GenerationSoftware,Kicad,Pcbnew,(5.1.5)-3
; #@! TF.FileFunction,Plated,1,2,PTH
FMAT,2
INCH
T1C0.0157
T2C0.0197
T3C0.0394
T4C0.0433
%
G90
G05
T1
X3.95Y-2.1
X4.0Y-1.575
X4.025Y-1.625
X4.025Y-2.075
X4.025Y-2.25
X4.025Y-2.575
X4.025Y-2.725
X4.05Y-1.5
X4.05Y-1.825
X4.075Y-2.075
X4.175Y-2.7
X4.2Y-1.825
X4.2059Y-1.6405
X4.225Y-2.675
X4.25Y-1.95
X4.25Y-3.05
X4.275Y-2.3
X4.275Y-2.725
X4.2766Y-1.75
X4.3Y-2.4
X4.3Y-2.475
X4.3Y-3.05
X4.325Y-1.5
X4.325Y-1.575
X4.325Y-1.725
X4.325Y-2.0
X4.325Y-2.35
X4.4756Y-2.65
X4.5Y-1.725
X4.525Y-2.35
X4.625Y-2.925
X4.65Y-1.775
X4.675Y-2.775
X4.95Y-2.35
T2
X4.2Y-2.875
X4.2Y-2.925
X4.25Y-2.875
X4.25Y-2.925
X4.3Y-2.875
X4.3Y-2.925
X4.35Y-2.875
X4.35Y-2.925
X4.4Y-2.875
X4.4Y-2.925
T3
X4.9Y-1.5
X4.9Y-1.6
X4.9Y-1.7
X4.9Y-1.8
X4.9Y-1.9
X4.9Y-2.0
X4.9Y-2.1
X4.9Y-2.2
X4.9Y-2.3
X4.9Y-2.4
X4.9Y-2.5
X4.9Y-2.6
X4.9Y-2.7
X4.9Y-2.8
X4.9Y-2.9
X4.9Y-3.0
X3.7Y-1.5
X3.7Y-1.6
X3.7Y-1.7
X3.7Y-1.8
X3.7Y-1.9
X3.7Y-2.0
X3.7Y-2.1
X3.7Y-2.2
X3.7Y-2.3
X3.7Y-2.4
X3.7Y-2.5
X3.7Y-2.6
X3.7Y-2.7
X3.7Y-2.8
X3.7Y-2.9
X3.7Y-3.0
X3.875Y-3.0
X3.975Y-3.0
T4
X4.575Y-2.7441
X4.575Y-3.0
X4.7522Y-2.7441
X4.7522Y-3.0
T0
M30
