G04 #@! TF.GenerationSoftware,KiCad,Pcbnew,(5.1.5)-3*
G04 #@! TF.CreationDate,2020-06-05T23:08:29+02:00*
G04 #@! TF.ProjectId,STM32F030K6Tx_Breakout,53544d33-3246-4303-9330-4b3654785f42,rev?*
G04 #@! TF.SameCoordinates,Original*
G04 #@! TF.FileFunction,Soldermask,Bot*
G04 #@! TF.FilePolarity,Negative*
%FSLAX46Y46*%
G04 Gerber Fmt 4.6, Leading zero omitted, Abs format (unit mm)*
G04 Created by KiCad (PCBNEW (5.1.5)-3) date 2020-06-05 23:08:29*
%MOMM*%
%LPD*%
G04 APERTURE LIST*
%ADD10C,0.100000*%
G04 APERTURE END LIST*
D10*
G36*
X121011564Y-75189389D02*
G01*
X121202833Y-75268615D01*
X121202835Y-75268616D01*
X121374973Y-75383635D01*
X121521365Y-75530027D01*
X121585256Y-75625646D01*
X121636385Y-75702167D01*
X121715611Y-75893436D01*
X121756000Y-76096484D01*
X121756000Y-76303516D01*
X121715611Y-76506564D01*
X121665815Y-76626782D01*
X121636384Y-76697835D01*
X121521365Y-76869973D01*
X121374973Y-77016365D01*
X121202835Y-77131384D01*
X121202834Y-77131385D01*
X121202833Y-77131385D01*
X121011564Y-77210611D01*
X120808516Y-77251000D01*
X120601484Y-77251000D01*
X120398436Y-77210611D01*
X120207167Y-77131385D01*
X120207166Y-77131385D01*
X120207165Y-77131384D01*
X120035027Y-77016365D01*
X119888635Y-76869973D01*
X119773616Y-76697835D01*
X119744185Y-76626782D01*
X119694389Y-76506564D01*
X119654000Y-76303516D01*
X119654000Y-76096484D01*
X119694389Y-75893436D01*
X119773615Y-75702167D01*
X119824745Y-75625646D01*
X119888635Y-75530027D01*
X120035027Y-75383635D01*
X120207165Y-75268616D01*
X120207167Y-75268615D01*
X120398436Y-75189389D01*
X120601484Y-75149000D01*
X120808516Y-75149000D01*
X121011564Y-75189389D01*
G37*
G36*
X116511564Y-75189389D02*
G01*
X116702833Y-75268615D01*
X116702835Y-75268616D01*
X116874973Y-75383635D01*
X117021365Y-75530027D01*
X117085256Y-75625646D01*
X117136385Y-75702167D01*
X117215611Y-75893436D01*
X117256000Y-76096484D01*
X117256000Y-76303516D01*
X117215611Y-76506564D01*
X117165815Y-76626782D01*
X117136384Y-76697835D01*
X117021365Y-76869973D01*
X116874973Y-77016365D01*
X116702835Y-77131384D01*
X116702834Y-77131385D01*
X116702833Y-77131385D01*
X116511564Y-77210611D01*
X116308516Y-77251000D01*
X116101484Y-77251000D01*
X115898436Y-77210611D01*
X115707167Y-77131385D01*
X115707166Y-77131385D01*
X115707165Y-77131384D01*
X115535027Y-77016365D01*
X115388635Y-76869973D01*
X115273616Y-76697835D01*
X115244185Y-76626782D01*
X115194389Y-76506564D01*
X115154000Y-76303516D01*
X115154000Y-76096484D01*
X115194389Y-75893436D01*
X115273615Y-75702167D01*
X115324745Y-75625646D01*
X115388635Y-75530027D01*
X115535027Y-75383635D01*
X115707165Y-75268616D01*
X115707167Y-75268615D01*
X115898436Y-75189389D01*
X116101484Y-75149000D01*
X116308516Y-75149000D01*
X116511564Y-75189389D01*
G37*
G36*
X99326000Y-77101000D02*
G01*
X97524000Y-77101000D01*
X97524000Y-75299000D01*
X99326000Y-75299000D01*
X99326000Y-77101000D01*
G37*
G36*
X101078512Y-75303927D02*
G01*
X101227812Y-75333624D01*
X101391784Y-75401544D01*
X101539354Y-75500147D01*
X101664853Y-75625646D01*
X101763456Y-75773216D01*
X101831376Y-75937188D01*
X101866000Y-76111259D01*
X101866000Y-76288741D01*
X101831376Y-76462812D01*
X101763456Y-76626784D01*
X101664853Y-76774354D01*
X101539354Y-76899853D01*
X101391784Y-76998456D01*
X101227812Y-77066376D01*
X101078512Y-77096073D01*
X101053742Y-77101000D01*
X100876258Y-77101000D01*
X100851488Y-77096073D01*
X100702188Y-77066376D01*
X100538216Y-76998456D01*
X100390646Y-76899853D01*
X100265147Y-76774354D01*
X100166544Y-76626784D01*
X100098624Y-76462812D01*
X100064000Y-76288741D01*
X100064000Y-76111259D01*
X100098624Y-75937188D01*
X100166544Y-75773216D01*
X100265147Y-75625646D01*
X100390646Y-75500147D01*
X100538216Y-75401544D01*
X100702188Y-75333624D01*
X100851488Y-75303927D01*
X100876258Y-75299000D01*
X101053742Y-75299000D01*
X101078512Y-75303927D01*
G37*
G36*
X94093512Y-75303927D02*
G01*
X94242812Y-75333624D01*
X94406784Y-75401544D01*
X94554354Y-75500147D01*
X94679853Y-75625646D01*
X94778456Y-75773216D01*
X94846376Y-75937188D01*
X94881000Y-76111259D01*
X94881000Y-76288741D01*
X94846376Y-76462812D01*
X94778456Y-76626784D01*
X94679853Y-76774354D01*
X94554354Y-76899853D01*
X94406784Y-76998456D01*
X94242812Y-77066376D01*
X94093512Y-77096073D01*
X94068742Y-77101000D01*
X93891258Y-77101000D01*
X93866488Y-77096073D01*
X93717188Y-77066376D01*
X93553216Y-76998456D01*
X93405646Y-76899853D01*
X93280147Y-76774354D01*
X93181544Y-76626784D01*
X93113624Y-76462812D01*
X93079000Y-76288741D01*
X93079000Y-76111259D01*
X93113624Y-75937188D01*
X93181544Y-75773216D01*
X93280147Y-75625646D01*
X93405646Y-75500147D01*
X93553216Y-75401544D01*
X93717188Y-75333624D01*
X93866488Y-75303927D01*
X93891258Y-75299000D01*
X94068742Y-75299000D01*
X94093512Y-75303927D01*
G37*
G36*
X124573512Y-75303927D02*
G01*
X124722812Y-75333624D01*
X124886784Y-75401544D01*
X125034354Y-75500147D01*
X125159853Y-75625646D01*
X125258456Y-75773216D01*
X125326376Y-75937188D01*
X125361000Y-76111259D01*
X125361000Y-76288741D01*
X125326376Y-76462812D01*
X125258456Y-76626784D01*
X125159853Y-76774354D01*
X125034354Y-76899853D01*
X124886784Y-76998456D01*
X124722812Y-77066376D01*
X124573512Y-77096073D01*
X124548742Y-77101000D01*
X124371258Y-77101000D01*
X124346488Y-77096073D01*
X124197188Y-77066376D01*
X124033216Y-76998456D01*
X123885646Y-76899853D01*
X123760147Y-76774354D01*
X123661544Y-76626784D01*
X123593624Y-76462812D01*
X123559000Y-76288741D01*
X123559000Y-76111259D01*
X123593624Y-75937188D01*
X123661544Y-75773216D01*
X123760147Y-75625646D01*
X123885646Y-75500147D01*
X124033216Y-75401544D01*
X124197188Y-75333624D01*
X124346488Y-75303927D01*
X124371258Y-75299000D01*
X124548742Y-75299000D01*
X124573512Y-75303927D01*
G37*
G36*
X108088843Y-73837292D02*
G01*
X108139588Y-73858311D01*
X108175470Y-73873174D01*
X108253432Y-73925267D01*
X108319733Y-73991568D01*
X108371826Y-74069530D01*
X108386689Y-74105412D01*
X108407708Y-74156157D01*
X108426000Y-74248117D01*
X108426000Y-74341883D01*
X108407708Y-74433843D01*
X108397513Y-74458456D01*
X108371826Y-74520470D01*
X108319733Y-74598432D01*
X108253432Y-74664733D01*
X108175470Y-74716826D01*
X108139588Y-74731689D01*
X108088843Y-74752708D01*
X107996883Y-74771000D01*
X107903117Y-74771000D01*
X107811157Y-74752708D01*
X107760412Y-74731689D01*
X107724530Y-74716826D01*
X107646568Y-74664733D01*
X107580267Y-74598432D01*
X107528174Y-74520470D01*
X107502487Y-74458456D01*
X107492292Y-74433843D01*
X107474000Y-74341883D01*
X107474000Y-74248117D01*
X107492292Y-74156157D01*
X107513311Y-74105412D01*
X107528174Y-74069530D01*
X107580267Y-73991568D01*
X107646568Y-73925267D01*
X107724530Y-73873174D01*
X107760412Y-73858311D01*
X107811157Y-73837292D01*
X107903117Y-73819000D01*
X107996883Y-73819000D01*
X108088843Y-73837292D01*
G37*
G36*
X107156000Y-74771000D02*
G01*
X106204000Y-74771000D01*
X106204000Y-73819000D01*
X107156000Y-73819000D01*
X107156000Y-74771000D01*
G37*
G36*
X109358843Y-73837292D02*
G01*
X109409588Y-73858311D01*
X109445470Y-73873174D01*
X109523432Y-73925267D01*
X109589733Y-73991568D01*
X109641826Y-74069530D01*
X109656689Y-74105412D01*
X109677708Y-74156157D01*
X109696000Y-74248117D01*
X109696000Y-74341883D01*
X109677708Y-74433843D01*
X109667513Y-74458456D01*
X109641826Y-74520470D01*
X109589733Y-74598432D01*
X109523432Y-74664733D01*
X109445470Y-74716826D01*
X109409588Y-74731689D01*
X109358843Y-74752708D01*
X109266883Y-74771000D01*
X109173117Y-74771000D01*
X109081157Y-74752708D01*
X109030412Y-74731689D01*
X108994530Y-74716826D01*
X108916568Y-74664733D01*
X108850267Y-74598432D01*
X108798174Y-74520470D01*
X108772487Y-74458456D01*
X108762292Y-74433843D01*
X108744000Y-74341883D01*
X108744000Y-74248117D01*
X108762292Y-74156157D01*
X108783311Y-74105412D01*
X108798174Y-74069530D01*
X108850267Y-73991568D01*
X108916568Y-73925267D01*
X108994530Y-73873174D01*
X109030412Y-73858311D01*
X109081157Y-73837292D01*
X109173117Y-73819000D01*
X109266883Y-73819000D01*
X109358843Y-73837292D01*
G37*
G36*
X110628843Y-73837292D02*
G01*
X110679588Y-73858311D01*
X110715470Y-73873174D01*
X110793432Y-73925267D01*
X110859733Y-73991568D01*
X110911826Y-74069530D01*
X110926689Y-74105412D01*
X110947708Y-74156157D01*
X110966000Y-74248117D01*
X110966000Y-74341883D01*
X110947708Y-74433843D01*
X110937513Y-74458456D01*
X110911826Y-74520470D01*
X110859733Y-74598432D01*
X110793432Y-74664733D01*
X110715470Y-74716826D01*
X110679588Y-74731689D01*
X110628843Y-74752708D01*
X110536883Y-74771000D01*
X110443117Y-74771000D01*
X110351157Y-74752708D01*
X110300412Y-74731689D01*
X110264530Y-74716826D01*
X110186568Y-74664733D01*
X110120267Y-74598432D01*
X110068174Y-74520470D01*
X110042487Y-74458456D01*
X110032292Y-74433843D01*
X110014000Y-74341883D01*
X110014000Y-74248117D01*
X110032292Y-74156157D01*
X110053311Y-74105412D01*
X110068174Y-74069530D01*
X110120267Y-73991568D01*
X110186568Y-73925267D01*
X110264530Y-73873174D01*
X110300412Y-73858311D01*
X110351157Y-73837292D01*
X110443117Y-73819000D01*
X110536883Y-73819000D01*
X110628843Y-73837292D01*
G37*
G36*
X111898843Y-73837292D02*
G01*
X111949588Y-73858311D01*
X111985470Y-73873174D01*
X112063432Y-73925267D01*
X112129733Y-73991568D01*
X112181826Y-74069530D01*
X112196689Y-74105412D01*
X112217708Y-74156157D01*
X112236000Y-74248117D01*
X112236000Y-74341883D01*
X112217708Y-74433843D01*
X112207513Y-74458456D01*
X112181826Y-74520470D01*
X112129733Y-74598432D01*
X112063432Y-74664733D01*
X111985470Y-74716826D01*
X111949588Y-74731689D01*
X111898843Y-74752708D01*
X111806883Y-74771000D01*
X111713117Y-74771000D01*
X111621157Y-74752708D01*
X111570412Y-74731689D01*
X111534530Y-74716826D01*
X111456568Y-74664733D01*
X111390267Y-74598432D01*
X111338174Y-74520470D01*
X111312487Y-74458456D01*
X111302292Y-74433843D01*
X111284000Y-74341883D01*
X111284000Y-74248117D01*
X111302292Y-74156157D01*
X111323311Y-74105412D01*
X111338174Y-74069530D01*
X111390267Y-73991568D01*
X111456568Y-73925267D01*
X111534530Y-73873174D01*
X111570412Y-73858311D01*
X111621157Y-73837292D01*
X111713117Y-73819000D01*
X111806883Y-73819000D01*
X111898843Y-73837292D01*
G37*
G36*
X124573512Y-72763927D02*
G01*
X124722812Y-72793624D01*
X124886784Y-72861544D01*
X125034354Y-72960147D01*
X125159853Y-73085646D01*
X125258456Y-73233216D01*
X125326376Y-73397188D01*
X125361000Y-73571259D01*
X125361000Y-73748741D01*
X125326376Y-73922812D01*
X125258456Y-74086784D01*
X125159853Y-74234354D01*
X125034354Y-74359853D01*
X124886784Y-74458456D01*
X124722812Y-74526376D01*
X124573512Y-74556073D01*
X124548742Y-74561000D01*
X124371258Y-74561000D01*
X124346488Y-74556073D01*
X124197188Y-74526376D01*
X124033216Y-74458456D01*
X123885646Y-74359853D01*
X123760147Y-74234354D01*
X123661544Y-74086784D01*
X123593624Y-73922812D01*
X123559000Y-73748741D01*
X123559000Y-73571259D01*
X123593624Y-73397188D01*
X123661544Y-73233216D01*
X123760147Y-73085646D01*
X123885646Y-72960147D01*
X124033216Y-72861544D01*
X124197188Y-72793624D01*
X124346488Y-72763927D01*
X124371258Y-72759000D01*
X124548742Y-72759000D01*
X124573512Y-72763927D01*
G37*
G36*
X94093512Y-72763927D02*
G01*
X94242812Y-72793624D01*
X94406784Y-72861544D01*
X94554354Y-72960147D01*
X94679853Y-73085646D01*
X94778456Y-73233216D01*
X94846376Y-73397188D01*
X94881000Y-73571259D01*
X94881000Y-73748741D01*
X94846376Y-73922812D01*
X94778456Y-74086784D01*
X94679853Y-74234354D01*
X94554354Y-74359853D01*
X94406784Y-74458456D01*
X94242812Y-74526376D01*
X94093512Y-74556073D01*
X94068742Y-74561000D01*
X93891258Y-74561000D01*
X93866488Y-74556073D01*
X93717188Y-74526376D01*
X93553216Y-74458456D01*
X93405646Y-74359853D01*
X93280147Y-74234354D01*
X93181544Y-74086784D01*
X93113624Y-73922812D01*
X93079000Y-73748741D01*
X93079000Y-73571259D01*
X93113624Y-73397188D01*
X93181544Y-73233216D01*
X93280147Y-73085646D01*
X93405646Y-72960147D01*
X93553216Y-72861544D01*
X93717188Y-72793624D01*
X93866488Y-72763927D01*
X93891258Y-72759000D01*
X94068742Y-72759000D01*
X94093512Y-72763927D01*
G37*
G36*
X110628843Y-72567292D02*
G01*
X110679588Y-72588311D01*
X110715470Y-72603174D01*
X110793432Y-72655267D01*
X110859733Y-72721568D01*
X110911826Y-72799530D01*
X110911826Y-72799531D01*
X110947708Y-72886157D01*
X110966000Y-72978117D01*
X110966000Y-73071883D01*
X110947708Y-73163843D01*
X110926689Y-73214588D01*
X110911826Y-73250470D01*
X110859733Y-73328432D01*
X110793432Y-73394733D01*
X110715470Y-73446826D01*
X110679588Y-73461689D01*
X110628843Y-73482708D01*
X110536883Y-73501000D01*
X110443117Y-73501000D01*
X110351157Y-73482708D01*
X110300412Y-73461689D01*
X110264530Y-73446826D01*
X110186568Y-73394733D01*
X110120267Y-73328432D01*
X110068174Y-73250470D01*
X110053311Y-73214588D01*
X110032292Y-73163843D01*
X110014000Y-73071883D01*
X110014000Y-72978117D01*
X110032292Y-72886157D01*
X110068174Y-72799531D01*
X110068174Y-72799530D01*
X110120267Y-72721568D01*
X110186568Y-72655267D01*
X110264530Y-72603174D01*
X110300412Y-72588311D01*
X110351157Y-72567292D01*
X110443117Y-72549000D01*
X110536883Y-72549000D01*
X110628843Y-72567292D01*
G37*
G36*
X111898843Y-72567292D02*
G01*
X111949588Y-72588311D01*
X111985470Y-72603174D01*
X112063432Y-72655267D01*
X112129733Y-72721568D01*
X112181826Y-72799530D01*
X112181826Y-72799531D01*
X112217708Y-72886157D01*
X112236000Y-72978117D01*
X112236000Y-73071883D01*
X112217708Y-73163843D01*
X112196689Y-73214588D01*
X112181826Y-73250470D01*
X112129733Y-73328432D01*
X112063432Y-73394733D01*
X111985470Y-73446826D01*
X111949588Y-73461689D01*
X111898843Y-73482708D01*
X111806883Y-73501000D01*
X111713117Y-73501000D01*
X111621157Y-73482708D01*
X111570412Y-73461689D01*
X111534530Y-73446826D01*
X111456568Y-73394733D01*
X111390267Y-73328432D01*
X111338174Y-73250470D01*
X111323311Y-73214588D01*
X111302292Y-73163843D01*
X111284000Y-73071883D01*
X111284000Y-72978117D01*
X111302292Y-72886157D01*
X111338174Y-72799531D01*
X111338174Y-72799530D01*
X111390267Y-72721568D01*
X111456568Y-72655267D01*
X111534530Y-72603174D01*
X111570412Y-72588311D01*
X111621157Y-72567292D01*
X111713117Y-72549000D01*
X111806883Y-72549000D01*
X111898843Y-72567292D01*
G37*
G36*
X109358843Y-72567292D02*
G01*
X109409588Y-72588311D01*
X109445470Y-72603174D01*
X109523432Y-72655267D01*
X109589733Y-72721568D01*
X109641826Y-72799530D01*
X109641826Y-72799531D01*
X109677708Y-72886157D01*
X109696000Y-72978117D01*
X109696000Y-73071883D01*
X109677708Y-73163843D01*
X109656689Y-73214588D01*
X109641826Y-73250470D01*
X109589733Y-73328432D01*
X109523432Y-73394733D01*
X109445470Y-73446826D01*
X109409588Y-73461689D01*
X109358843Y-73482708D01*
X109266883Y-73501000D01*
X109173117Y-73501000D01*
X109081157Y-73482708D01*
X109030412Y-73461689D01*
X108994530Y-73446826D01*
X108916568Y-73394733D01*
X108850267Y-73328432D01*
X108798174Y-73250470D01*
X108783311Y-73214588D01*
X108762292Y-73163843D01*
X108744000Y-73071883D01*
X108744000Y-72978117D01*
X108762292Y-72886157D01*
X108798174Y-72799531D01*
X108798174Y-72799530D01*
X108850267Y-72721568D01*
X108916568Y-72655267D01*
X108994530Y-72603174D01*
X109030412Y-72588311D01*
X109081157Y-72567292D01*
X109173117Y-72549000D01*
X109266883Y-72549000D01*
X109358843Y-72567292D01*
G37*
G36*
X108088843Y-72567292D02*
G01*
X108139588Y-72588311D01*
X108175470Y-72603174D01*
X108253432Y-72655267D01*
X108319733Y-72721568D01*
X108371826Y-72799530D01*
X108371826Y-72799531D01*
X108407708Y-72886157D01*
X108426000Y-72978117D01*
X108426000Y-73071883D01*
X108407708Y-73163843D01*
X108386689Y-73214588D01*
X108371826Y-73250470D01*
X108319733Y-73328432D01*
X108253432Y-73394733D01*
X108175470Y-73446826D01*
X108139588Y-73461689D01*
X108088843Y-73482708D01*
X107996883Y-73501000D01*
X107903117Y-73501000D01*
X107811157Y-73482708D01*
X107760412Y-73461689D01*
X107724530Y-73446826D01*
X107646568Y-73394733D01*
X107580267Y-73328432D01*
X107528174Y-73250470D01*
X107513311Y-73214588D01*
X107492292Y-73163843D01*
X107474000Y-73071883D01*
X107474000Y-72978117D01*
X107492292Y-72886157D01*
X107528174Y-72799531D01*
X107528174Y-72799530D01*
X107580267Y-72721568D01*
X107646568Y-72655267D01*
X107724530Y-72603174D01*
X107760412Y-72588311D01*
X107811157Y-72567292D01*
X107903117Y-72549000D01*
X107996883Y-72549000D01*
X108088843Y-72567292D01*
G37*
G36*
X106818843Y-72567292D02*
G01*
X106869588Y-72588311D01*
X106905470Y-72603174D01*
X106983432Y-72655267D01*
X107049733Y-72721568D01*
X107101826Y-72799530D01*
X107101826Y-72799531D01*
X107137708Y-72886157D01*
X107156000Y-72978117D01*
X107156000Y-73071883D01*
X107137708Y-73163843D01*
X107116689Y-73214588D01*
X107101826Y-73250470D01*
X107049733Y-73328432D01*
X106983432Y-73394733D01*
X106905470Y-73446826D01*
X106869588Y-73461689D01*
X106818843Y-73482708D01*
X106726883Y-73501000D01*
X106633117Y-73501000D01*
X106541157Y-73482708D01*
X106490412Y-73461689D01*
X106454530Y-73446826D01*
X106376568Y-73394733D01*
X106310267Y-73328432D01*
X106258174Y-73250470D01*
X106243311Y-73214588D01*
X106222292Y-73163843D01*
X106204000Y-73071883D01*
X106204000Y-72978117D01*
X106222292Y-72886157D01*
X106258174Y-72799531D01*
X106258174Y-72799530D01*
X106310267Y-72721568D01*
X106376568Y-72655267D01*
X106454530Y-72603174D01*
X106490412Y-72588311D01*
X106541157Y-72567292D01*
X106633117Y-72549000D01*
X106726883Y-72549000D01*
X106818843Y-72567292D01*
G37*
G36*
X94093512Y-70223927D02*
G01*
X94242812Y-70253624D01*
X94406784Y-70321544D01*
X94554354Y-70420147D01*
X94679853Y-70545646D01*
X94778456Y-70693216D01*
X94846376Y-70857188D01*
X94881000Y-71031259D01*
X94881000Y-71208741D01*
X94846376Y-71382812D01*
X94778456Y-71546784D01*
X94679853Y-71694354D01*
X94554354Y-71819853D01*
X94406784Y-71918456D01*
X94242812Y-71986376D01*
X94093512Y-72016073D01*
X94068742Y-72021000D01*
X93891258Y-72021000D01*
X93866488Y-72016073D01*
X93717188Y-71986376D01*
X93553216Y-71918456D01*
X93405646Y-71819853D01*
X93280147Y-71694354D01*
X93181544Y-71546784D01*
X93113624Y-71382812D01*
X93079000Y-71208741D01*
X93079000Y-71031259D01*
X93113624Y-70857188D01*
X93181544Y-70693216D01*
X93280147Y-70545646D01*
X93405646Y-70420147D01*
X93553216Y-70321544D01*
X93717188Y-70253624D01*
X93866488Y-70223927D01*
X93891258Y-70219000D01*
X94068742Y-70219000D01*
X94093512Y-70223927D01*
G37*
G36*
X124573512Y-70223927D02*
G01*
X124722812Y-70253624D01*
X124886784Y-70321544D01*
X125034354Y-70420147D01*
X125159853Y-70545646D01*
X125258456Y-70693216D01*
X125326376Y-70857188D01*
X125361000Y-71031259D01*
X125361000Y-71208741D01*
X125326376Y-71382812D01*
X125258456Y-71546784D01*
X125159853Y-71694354D01*
X125034354Y-71819853D01*
X124886784Y-71918456D01*
X124722812Y-71986376D01*
X124573512Y-72016073D01*
X124548742Y-72021000D01*
X124371258Y-72021000D01*
X124346488Y-72016073D01*
X124197188Y-71986376D01*
X124033216Y-71918456D01*
X123885646Y-71819853D01*
X123760147Y-71694354D01*
X123661544Y-71546784D01*
X123593624Y-71382812D01*
X123559000Y-71208741D01*
X123559000Y-71031259D01*
X123593624Y-70857188D01*
X123661544Y-70693216D01*
X123760147Y-70545646D01*
X123885646Y-70420147D01*
X124033216Y-70321544D01*
X124197188Y-70253624D01*
X124346488Y-70223927D01*
X124371258Y-70219000D01*
X124548742Y-70219000D01*
X124573512Y-70223927D01*
G37*
G36*
X116511564Y-68689389D02*
G01*
X116702833Y-68768615D01*
X116702835Y-68768616D01*
X116874973Y-68883635D01*
X117021365Y-69030027D01*
X117104438Y-69154354D01*
X117136385Y-69202167D01*
X117215611Y-69393436D01*
X117256000Y-69596484D01*
X117256000Y-69803516D01*
X117215611Y-70006564D01*
X117136385Y-70197833D01*
X117136384Y-70197835D01*
X117021365Y-70369973D01*
X116874973Y-70516365D01*
X116702835Y-70631384D01*
X116702834Y-70631385D01*
X116702833Y-70631385D01*
X116511564Y-70710611D01*
X116308516Y-70751000D01*
X116101484Y-70751000D01*
X115898436Y-70710611D01*
X115707167Y-70631385D01*
X115707166Y-70631385D01*
X115707165Y-70631384D01*
X115535027Y-70516365D01*
X115388635Y-70369973D01*
X115273616Y-70197835D01*
X115273615Y-70197833D01*
X115194389Y-70006564D01*
X115154000Y-69803516D01*
X115154000Y-69596484D01*
X115194389Y-69393436D01*
X115273615Y-69202167D01*
X115305563Y-69154354D01*
X115388635Y-69030027D01*
X115535027Y-68883635D01*
X115707165Y-68768616D01*
X115707167Y-68768615D01*
X115898436Y-68689389D01*
X116101484Y-68649000D01*
X116308516Y-68649000D01*
X116511564Y-68689389D01*
G37*
G36*
X121011564Y-68689389D02*
G01*
X121202833Y-68768615D01*
X121202835Y-68768616D01*
X121374973Y-68883635D01*
X121521365Y-69030027D01*
X121604438Y-69154354D01*
X121636385Y-69202167D01*
X121715611Y-69393436D01*
X121756000Y-69596484D01*
X121756000Y-69803516D01*
X121715611Y-70006564D01*
X121636385Y-70197833D01*
X121636384Y-70197835D01*
X121521365Y-70369973D01*
X121374973Y-70516365D01*
X121202835Y-70631384D01*
X121202834Y-70631385D01*
X121202833Y-70631385D01*
X121011564Y-70710611D01*
X120808516Y-70751000D01*
X120601484Y-70751000D01*
X120398436Y-70710611D01*
X120207167Y-70631385D01*
X120207166Y-70631385D01*
X120207165Y-70631384D01*
X120035027Y-70516365D01*
X119888635Y-70369973D01*
X119773616Y-70197835D01*
X119773615Y-70197833D01*
X119694389Y-70006564D01*
X119654000Y-69803516D01*
X119654000Y-69596484D01*
X119694389Y-69393436D01*
X119773615Y-69202167D01*
X119805563Y-69154354D01*
X119888635Y-69030027D01*
X120035027Y-68883635D01*
X120207165Y-68768616D01*
X120207167Y-68768615D01*
X120398436Y-68689389D01*
X120601484Y-68649000D01*
X120808516Y-68649000D01*
X121011564Y-68689389D01*
G37*
G36*
X124573512Y-67683927D02*
G01*
X124722812Y-67713624D01*
X124886784Y-67781544D01*
X125034354Y-67880147D01*
X125159853Y-68005646D01*
X125258456Y-68153216D01*
X125326376Y-68317188D01*
X125361000Y-68491259D01*
X125361000Y-68668741D01*
X125326376Y-68842812D01*
X125258456Y-69006784D01*
X125159853Y-69154354D01*
X125034354Y-69279853D01*
X124886784Y-69378456D01*
X124722812Y-69446376D01*
X124573512Y-69476073D01*
X124548742Y-69481000D01*
X124371258Y-69481000D01*
X124346488Y-69476073D01*
X124197188Y-69446376D01*
X124033216Y-69378456D01*
X123885646Y-69279853D01*
X123760147Y-69154354D01*
X123661544Y-69006784D01*
X123593624Y-68842812D01*
X123559000Y-68668741D01*
X123559000Y-68491259D01*
X123593624Y-68317188D01*
X123661544Y-68153216D01*
X123760147Y-68005646D01*
X123885646Y-67880147D01*
X124033216Y-67781544D01*
X124197188Y-67713624D01*
X124346488Y-67683927D01*
X124371258Y-67679000D01*
X124548742Y-67679000D01*
X124573512Y-67683927D01*
G37*
G36*
X94093512Y-67683927D02*
G01*
X94242812Y-67713624D01*
X94406784Y-67781544D01*
X94554354Y-67880147D01*
X94679853Y-68005646D01*
X94778456Y-68153216D01*
X94846376Y-68317188D01*
X94881000Y-68491259D01*
X94881000Y-68668741D01*
X94846376Y-68842812D01*
X94778456Y-69006784D01*
X94679853Y-69154354D01*
X94554354Y-69279853D01*
X94406784Y-69378456D01*
X94242812Y-69446376D01*
X94093512Y-69476073D01*
X94068742Y-69481000D01*
X93891258Y-69481000D01*
X93866488Y-69476073D01*
X93717188Y-69446376D01*
X93553216Y-69378456D01*
X93405646Y-69279853D01*
X93280147Y-69154354D01*
X93181544Y-69006784D01*
X93113624Y-68842812D01*
X93079000Y-68668741D01*
X93079000Y-68491259D01*
X93113624Y-68317188D01*
X93181544Y-68153216D01*
X93280147Y-68005646D01*
X93405646Y-67880147D01*
X93553216Y-67781544D01*
X93717188Y-67713624D01*
X93866488Y-67683927D01*
X93891258Y-67679000D01*
X94068742Y-67679000D01*
X94093512Y-67683927D01*
G37*
G36*
X124573512Y-65143927D02*
G01*
X124722812Y-65173624D01*
X124886784Y-65241544D01*
X125034354Y-65340147D01*
X125159853Y-65465646D01*
X125258456Y-65613216D01*
X125326376Y-65777188D01*
X125361000Y-65951259D01*
X125361000Y-66128741D01*
X125326376Y-66302812D01*
X125258456Y-66466784D01*
X125159853Y-66614354D01*
X125034354Y-66739853D01*
X124886784Y-66838456D01*
X124722812Y-66906376D01*
X124573512Y-66936073D01*
X124548742Y-66941000D01*
X124371258Y-66941000D01*
X124346488Y-66936073D01*
X124197188Y-66906376D01*
X124033216Y-66838456D01*
X123885646Y-66739853D01*
X123760147Y-66614354D01*
X123661544Y-66466784D01*
X123593624Y-66302812D01*
X123559000Y-66128741D01*
X123559000Y-65951259D01*
X123593624Y-65777188D01*
X123661544Y-65613216D01*
X123760147Y-65465646D01*
X123885646Y-65340147D01*
X124033216Y-65241544D01*
X124197188Y-65173624D01*
X124346488Y-65143927D01*
X124371258Y-65139000D01*
X124548742Y-65139000D01*
X124573512Y-65143927D01*
G37*
G36*
X94093512Y-65143927D02*
G01*
X94242812Y-65173624D01*
X94406784Y-65241544D01*
X94554354Y-65340147D01*
X94679853Y-65465646D01*
X94778456Y-65613216D01*
X94846376Y-65777188D01*
X94881000Y-65951259D01*
X94881000Y-66128741D01*
X94846376Y-66302812D01*
X94778456Y-66466784D01*
X94679853Y-66614354D01*
X94554354Y-66739853D01*
X94406784Y-66838456D01*
X94242812Y-66906376D01*
X94093512Y-66936073D01*
X94068742Y-66941000D01*
X93891258Y-66941000D01*
X93866488Y-66936073D01*
X93717188Y-66906376D01*
X93553216Y-66838456D01*
X93405646Y-66739853D01*
X93280147Y-66614354D01*
X93181544Y-66466784D01*
X93113624Y-66302812D01*
X93079000Y-66128741D01*
X93079000Y-65951259D01*
X93113624Y-65777188D01*
X93181544Y-65613216D01*
X93280147Y-65465646D01*
X93405646Y-65340147D01*
X93553216Y-65241544D01*
X93717188Y-65173624D01*
X93866488Y-65143927D01*
X93891258Y-65139000D01*
X94068742Y-65139000D01*
X94093512Y-65143927D01*
G37*
G36*
X94093512Y-62603927D02*
G01*
X94242812Y-62633624D01*
X94406784Y-62701544D01*
X94554354Y-62800147D01*
X94679853Y-62925646D01*
X94778456Y-63073216D01*
X94846376Y-63237188D01*
X94881000Y-63411259D01*
X94881000Y-63588741D01*
X94846376Y-63762812D01*
X94778456Y-63926784D01*
X94679853Y-64074354D01*
X94554354Y-64199853D01*
X94406784Y-64298456D01*
X94242812Y-64366376D01*
X94093512Y-64396073D01*
X94068742Y-64401000D01*
X93891258Y-64401000D01*
X93866488Y-64396073D01*
X93717188Y-64366376D01*
X93553216Y-64298456D01*
X93405646Y-64199853D01*
X93280147Y-64074354D01*
X93181544Y-63926784D01*
X93113624Y-63762812D01*
X93079000Y-63588741D01*
X93079000Y-63411259D01*
X93113624Y-63237188D01*
X93181544Y-63073216D01*
X93280147Y-62925646D01*
X93405646Y-62800147D01*
X93553216Y-62701544D01*
X93717188Y-62633624D01*
X93866488Y-62603927D01*
X93891258Y-62599000D01*
X94068742Y-62599000D01*
X94093512Y-62603927D01*
G37*
G36*
X124573512Y-62603927D02*
G01*
X124722812Y-62633624D01*
X124886784Y-62701544D01*
X125034354Y-62800147D01*
X125159853Y-62925646D01*
X125258456Y-63073216D01*
X125326376Y-63237188D01*
X125361000Y-63411259D01*
X125361000Y-63588741D01*
X125326376Y-63762812D01*
X125258456Y-63926784D01*
X125159853Y-64074354D01*
X125034354Y-64199853D01*
X124886784Y-64298456D01*
X124722812Y-64366376D01*
X124573512Y-64396073D01*
X124548742Y-64401000D01*
X124371258Y-64401000D01*
X124346488Y-64396073D01*
X124197188Y-64366376D01*
X124033216Y-64298456D01*
X123885646Y-64199853D01*
X123760147Y-64074354D01*
X123661544Y-63926784D01*
X123593624Y-63762812D01*
X123559000Y-63588741D01*
X123559000Y-63411259D01*
X123593624Y-63237188D01*
X123661544Y-63073216D01*
X123760147Y-62925646D01*
X123885646Y-62800147D01*
X124033216Y-62701544D01*
X124197188Y-62633624D01*
X124346488Y-62603927D01*
X124371258Y-62599000D01*
X124548742Y-62599000D01*
X124573512Y-62603927D01*
G37*
G36*
X124573512Y-60063927D02*
G01*
X124722812Y-60093624D01*
X124886784Y-60161544D01*
X125034354Y-60260147D01*
X125159853Y-60385646D01*
X125258456Y-60533216D01*
X125326376Y-60697188D01*
X125361000Y-60871259D01*
X125361000Y-61048741D01*
X125326376Y-61222812D01*
X125258456Y-61386784D01*
X125159853Y-61534354D01*
X125034354Y-61659853D01*
X124886784Y-61758456D01*
X124722812Y-61826376D01*
X124573512Y-61856073D01*
X124548742Y-61861000D01*
X124371258Y-61861000D01*
X124346488Y-61856073D01*
X124197188Y-61826376D01*
X124033216Y-61758456D01*
X123885646Y-61659853D01*
X123760147Y-61534354D01*
X123661544Y-61386784D01*
X123593624Y-61222812D01*
X123559000Y-61048741D01*
X123559000Y-60871259D01*
X123593624Y-60697188D01*
X123661544Y-60533216D01*
X123760147Y-60385646D01*
X123885646Y-60260147D01*
X124033216Y-60161544D01*
X124197188Y-60093624D01*
X124346488Y-60063927D01*
X124371258Y-60059000D01*
X124548742Y-60059000D01*
X124573512Y-60063927D01*
G37*
G36*
X94093512Y-60063927D02*
G01*
X94242812Y-60093624D01*
X94406784Y-60161544D01*
X94554354Y-60260147D01*
X94679853Y-60385646D01*
X94778456Y-60533216D01*
X94846376Y-60697188D01*
X94881000Y-60871259D01*
X94881000Y-61048741D01*
X94846376Y-61222812D01*
X94778456Y-61386784D01*
X94679853Y-61534354D01*
X94554354Y-61659853D01*
X94406784Y-61758456D01*
X94242812Y-61826376D01*
X94093512Y-61856073D01*
X94068742Y-61861000D01*
X93891258Y-61861000D01*
X93866488Y-61856073D01*
X93717188Y-61826376D01*
X93553216Y-61758456D01*
X93405646Y-61659853D01*
X93280147Y-61534354D01*
X93181544Y-61386784D01*
X93113624Y-61222812D01*
X93079000Y-61048741D01*
X93079000Y-60871259D01*
X93113624Y-60697188D01*
X93181544Y-60533216D01*
X93280147Y-60385646D01*
X93405646Y-60260147D01*
X93553216Y-60161544D01*
X93717188Y-60093624D01*
X93866488Y-60063927D01*
X93891258Y-60059000D01*
X94068742Y-60059000D01*
X94093512Y-60063927D01*
G37*
G36*
X94093512Y-57523927D02*
G01*
X94242812Y-57553624D01*
X94406784Y-57621544D01*
X94554354Y-57720147D01*
X94679853Y-57845646D01*
X94778456Y-57993216D01*
X94846376Y-58157188D01*
X94881000Y-58331259D01*
X94881000Y-58508741D01*
X94846376Y-58682812D01*
X94778456Y-58846784D01*
X94679853Y-58994354D01*
X94554354Y-59119853D01*
X94406784Y-59218456D01*
X94242812Y-59286376D01*
X94093512Y-59316073D01*
X94068742Y-59321000D01*
X93891258Y-59321000D01*
X93866488Y-59316073D01*
X93717188Y-59286376D01*
X93553216Y-59218456D01*
X93405646Y-59119853D01*
X93280147Y-58994354D01*
X93181544Y-58846784D01*
X93113624Y-58682812D01*
X93079000Y-58508741D01*
X93079000Y-58331259D01*
X93113624Y-58157188D01*
X93181544Y-57993216D01*
X93280147Y-57845646D01*
X93405646Y-57720147D01*
X93553216Y-57621544D01*
X93717188Y-57553624D01*
X93866488Y-57523927D01*
X93891258Y-57519000D01*
X94068742Y-57519000D01*
X94093512Y-57523927D01*
G37*
G36*
X124573512Y-57523927D02*
G01*
X124722812Y-57553624D01*
X124886784Y-57621544D01*
X125034354Y-57720147D01*
X125159853Y-57845646D01*
X125258456Y-57993216D01*
X125326376Y-58157188D01*
X125361000Y-58331259D01*
X125361000Y-58508741D01*
X125326376Y-58682812D01*
X125258456Y-58846784D01*
X125159853Y-58994354D01*
X125034354Y-59119853D01*
X124886784Y-59218456D01*
X124722812Y-59286376D01*
X124573512Y-59316073D01*
X124548742Y-59321000D01*
X124371258Y-59321000D01*
X124346488Y-59316073D01*
X124197188Y-59286376D01*
X124033216Y-59218456D01*
X123885646Y-59119853D01*
X123760147Y-58994354D01*
X123661544Y-58846784D01*
X123593624Y-58682812D01*
X123559000Y-58508741D01*
X123559000Y-58331259D01*
X123593624Y-58157188D01*
X123661544Y-57993216D01*
X123760147Y-57845646D01*
X123885646Y-57720147D01*
X124033216Y-57621544D01*
X124197188Y-57553624D01*
X124346488Y-57523927D01*
X124371258Y-57519000D01*
X124548742Y-57519000D01*
X124573512Y-57523927D01*
G37*
G36*
X124573512Y-54983927D02*
G01*
X124722812Y-55013624D01*
X124886784Y-55081544D01*
X125034354Y-55180147D01*
X125159853Y-55305646D01*
X125258456Y-55453216D01*
X125326376Y-55617188D01*
X125361000Y-55791259D01*
X125361000Y-55968741D01*
X125326376Y-56142812D01*
X125258456Y-56306784D01*
X125159853Y-56454354D01*
X125034354Y-56579853D01*
X124886784Y-56678456D01*
X124722812Y-56746376D01*
X124573512Y-56776073D01*
X124548742Y-56781000D01*
X124371258Y-56781000D01*
X124346488Y-56776073D01*
X124197188Y-56746376D01*
X124033216Y-56678456D01*
X123885646Y-56579853D01*
X123760147Y-56454354D01*
X123661544Y-56306784D01*
X123593624Y-56142812D01*
X123559000Y-55968741D01*
X123559000Y-55791259D01*
X123593624Y-55617188D01*
X123661544Y-55453216D01*
X123760147Y-55305646D01*
X123885646Y-55180147D01*
X124033216Y-55081544D01*
X124197188Y-55013624D01*
X124346488Y-54983927D01*
X124371258Y-54979000D01*
X124548742Y-54979000D01*
X124573512Y-54983927D01*
G37*
G36*
X94093512Y-54983927D02*
G01*
X94242812Y-55013624D01*
X94406784Y-55081544D01*
X94554354Y-55180147D01*
X94679853Y-55305646D01*
X94778456Y-55453216D01*
X94846376Y-55617188D01*
X94881000Y-55791259D01*
X94881000Y-55968741D01*
X94846376Y-56142812D01*
X94778456Y-56306784D01*
X94679853Y-56454354D01*
X94554354Y-56579853D01*
X94406784Y-56678456D01*
X94242812Y-56746376D01*
X94093512Y-56776073D01*
X94068742Y-56781000D01*
X93891258Y-56781000D01*
X93866488Y-56776073D01*
X93717188Y-56746376D01*
X93553216Y-56678456D01*
X93405646Y-56579853D01*
X93280147Y-56454354D01*
X93181544Y-56306784D01*
X93113624Y-56142812D01*
X93079000Y-55968741D01*
X93079000Y-55791259D01*
X93113624Y-55617188D01*
X93181544Y-55453216D01*
X93280147Y-55305646D01*
X93405646Y-55180147D01*
X93553216Y-55081544D01*
X93717188Y-55013624D01*
X93866488Y-54983927D01*
X93891258Y-54979000D01*
X94068742Y-54979000D01*
X94093512Y-54983927D01*
G37*
G36*
X124573512Y-52443927D02*
G01*
X124722812Y-52473624D01*
X124886784Y-52541544D01*
X125034354Y-52640147D01*
X125159853Y-52765646D01*
X125258456Y-52913216D01*
X125326376Y-53077188D01*
X125361000Y-53251259D01*
X125361000Y-53428741D01*
X125326376Y-53602812D01*
X125258456Y-53766784D01*
X125159853Y-53914354D01*
X125034354Y-54039853D01*
X124886784Y-54138456D01*
X124722812Y-54206376D01*
X124573512Y-54236073D01*
X124548742Y-54241000D01*
X124371258Y-54241000D01*
X124346488Y-54236073D01*
X124197188Y-54206376D01*
X124033216Y-54138456D01*
X123885646Y-54039853D01*
X123760147Y-53914354D01*
X123661544Y-53766784D01*
X123593624Y-53602812D01*
X123559000Y-53428741D01*
X123559000Y-53251259D01*
X123593624Y-53077188D01*
X123661544Y-52913216D01*
X123760147Y-52765646D01*
X123885646Y-52640147D01*
X124033216Y-52541544D01*
X124197188Y-52473624D01*
X124346488Y-52443927D01*
X124371258Y-52439000D01*
X124548742Y-52439000D01*
X124573512Y-52443927D01*
G37*
G36*
X94093512Y-52443927D02*
G01*
X94242812Y-52473624D01*
X94406784Y-52541544D01*
X94554354Y-52640147D01*
X94679853Y-52765646D01*
X94778456Y-52913216D01*
X94846376Y-53077188D01*
X94881000Y-53251259D01*
X94881000Y-53428741D01*
X94846376Y-53602812D01*
X94778456Y-53766784D01*
X94679853Y-53914354D01*
X94554354Y-54039853D01*
X94406784Y-54138456D01*
X94242812Y-54206376D01*
X94093512Y-54236073D01*
X94068742Y-54241000D01*
X93891258Y-54241000D01*
X93866488Y-54236073D01*
X93717188Y-54206376D01*
X93553216Y-54138456D01*
X93405646Y-54039853D01*
X93280147Y-53914354D01*
X93181544Y-53766784D01*
X93113624Y-53602812D01*
X93079000Y-53428741D01*
X93079000Y-53251259D01*
X93113624Y-53077188D01*
X93181544Y-52913216D01*
X93280147Y-52765646D01*
X93405646Y-52640147D01*
X93553216Y-52541544D01*
X93717188Y-52473624D01*
X93866488Y-52443927D01*
X93891258Y-52439000D01*
X94068742Y-52439000D01*
X94093512Y-52443927D01*
G37*
G36*
X94093512Y-49903927D02*
G01*
X94242812Y-49933624D01*
X94406784Y-50001544D01*
X94554354Y-50100147D01*
X94679853Y-50225646D01*
X94778456Y-50373216D01*
X94846376Y-50537188D01*
X94881000Y-50711259D01*
X94881000Y-50888741D01*
X94846376Y-51062812D01*
X94778456Y-51226784D01*
X94679853Y-51374354D01*
X94554354Y-51499853D01*
X94406784Y-51598456D01*
X94242812Y-51666376D01*
X94093512Y-51696073D01*
X94068742Y-51701000D01*
X93891258Y-51701000D01*
X93866488Y-51696073D01*
X93717188Y-51666376D01*
X93553216Y-51598456D01*
X93405646Y-51499853D01*
X93280147Y-51374354D01*
X93181544Y-51226784D01*
X93113624Y-51062812D01*
X93079000Y-50888741D01*
X93079000Y-50711259D01*
X93113624Y-50537188D01*
X93181544Y-50373216D01*
X93280147Y-50225646D01*
X93405646Y-50100147D01*
X93553216Y-50001544D01*
X93717188Y-49933624D01*
X93866488Y-49903927D01*
X93891258Y-49899000D01*
X94068742Y-49899000D01*
X94093512Y-49903927D01*
G37*
G36*
X124573512Y-49903927D02*
G01*
X124722812Y-49933624D01*
X124886784Y-50001544D01*
X125034354Y-50100147D01*
X125159853Y-50225646D01*
X125258456Y-50373216D01*
X125326376Y-50537188D01*
X125361000Y-50711259D01*
X125361000Y-50888741D01*
X125326376Y-51062812D01*
X125258456Y-51226784D01*
X125159853Y-51374354D01*
X125034354Y-51499853D01*
X124886784Y-51598456D01*
X124722812Y-51666376D01*
X124573512Y-51696073D01*
X124548742Y-51701000D01*
X124371258Y-51701000D01*
X124346488Y-51696073D01*
X124197188Y-51666376D01*
X124033216Y-51598456D01*
X123885646Y-51499853D01*
X123760147Y-51374354D01*
X123661544Y-51226784D01*
X123593624Y-51062812D01*
X123559000Y-50888741D01*
X123559000Y-50711259D01*
X123593624Y-50537188D01*
X123661544Y-50373216D01*
X123760147Y-50225646D01*
X123885646Y-50100147D01*
X124033216Y-50001544D01*
X124197188Y-49933624D01*
X124346488Y-49903927D01*
X124371258Y-49899000D01*
X124548742Y-49899000D01*
X124573512Y-49903927D01*
G37*
G36*
X94093512Y-47363927D02*
G01*
X94242812Y-47393624D01*
X94406784Y-47461544D01*
X94554354Y-47560147D01*
X94679853Y-47685646D01*
X94778456Y-47833216D01*
X94846376Y-47997188D01*
X94881000Y-48171259D01*
X94881000Y-48348741D01*
X94846376Y-48522812D01*
X94778456Y-48686784D01*
X94679853Y-48834354D01*
X94554354Y-48959853D01*
X94406784Y-49058456D01*
X94242812Y-49126376D01*
X94093512Y-49156073D01*
X94068742Y-49161000D01*
X93891258Y-49161000D01*
X93866488Y-49156073D01*
X93717188Y-49126376D01*
X93553216Y-49058456D01*
X93405646Y-48959853D01*
X93280147Y-48834354D01*
X93181544Y-48686784D01*
X93113624Y-48522812D01*
X93079000Y-48348741D01*
X93079000Y-48171259D01*
X93113624Y-47997188D01*
X93181544Y-47833216D01*
X93280147Y-47685646D01*
X93405646Y-47560147D01*
X93553216Y-47461544D01*
X93717188Y-47393624D01*
X93866488Y-47363927D01*
X93891258Y-47359000D01*
X94068742Y-47359000D01*
X94093512Y-47363927D01*
G37*
G36*
X124573512Y-47363927D02*
G01*
X124722812Y-47393624D01*
X124886784Y-47461544D01*
X125034354Y-47560147D01*
X125159853Y-47685646D01*
X125258456Y-47833216D01*
X125326376Y-47997188D01*
X125361000Y-48171259D01*
X125361000Y-48348741D01*
X125326376Y-48522812D01*
X125258456Y-48686784D01*
X125159853Y-48834354D01*
X125034354Y-48959853D01*
X124886784Y-49058456D01*
X124722812Y-49126376D01*
X124573512Y-49156073D01*
X124548742Y-49161000D01*
X124371258Y-49161000D01*
X124346488Y-49156073D01*
X124197188Y-49126376D01*
X124033216Y-49058456D01*
X123885646Y-48959853D01*
X123760147Y-48834354D01*
X123661544Y-48686784D01*
X123593624Y-48522812D01*
X123559000Y-48348741D01*
X123559000Y-48171259D01*
X123593624Y-47997188D01*
X123661544Y-47833216D01*
X123760147Y-47685646D01*
X123885646Y-47560147D01*
X124033216Y-47461544D01*
X124197188Y-47393624D01*
X124346488Y-47363927D01*
X124371258Y-47359000D01*
X124548742Y-47359000D01*
X124573512Y-47363927D01*
G37*
G36*
X94093512Y-44823927D02*
G01*
X94242812Y-44853624D01*
X94406784Y-44921544D01*
X94554354Y-45020147D01*
X94679853Y-45145646D01*
X94778456Y-45293216D01*
X94846376Y-45457188D01*
X94881000Y-45631259D01*
X94881000Y-45808741D01*
X94846376Y-45982812D01*
X94778456Y-46146784D01*
X94679853Y-46294354D01*
X94554354Y-46419853D01*
X94406784Y-46518456D01*
X94242812Y-46586376D01*
X94093512Y-46616073D01*
X94068742Y-46621000D01*
X93891258Y-46621000D01*
X93866488Y-46616073D01*
X93717188Y-46586376D01*
X93553216Y-46518456D01*
X93405646Y-46419853D01*
X93280147Y-46294354D01*
X93181544Y-46146784D01*
X93113624Y-45982812D01*
X93079000Y-45808741D01*
X93079000Y-45631259D01*
X93113624Y-45457188D01*
X93181544Y-45293216D01*
X93280147Y-45145646D01*
X93405646Y-45020147D01*
X93553216Y-44921544D01*
X93717188Y-44853624D01*
X93866488Y-44823927D01*
X93891258Y-44819000D01*
X94068742Y-44819000D01*
X94093512Y-44823927D01*
G37*
G36*
X124573512Y-44823927D02*
G01*
X124722812Y-44853624D01*
X124886784Y-44921544D01*
X125034354Y-45020147D01*
X125159853Y-45145646D01*
X125258456Y-45293216D01*
X125326376Y-45457188D01*
X125361000Y-45631259D01*
X125361000Y-45808741D01*
X125326376Y-45982812D01*
X125258456Y-46146784D01*
X125159853Y-46294354D01*
X125034354Y-46419853D01*
X124886784Y-46518456D01*
X124722812Y-46586376D01*
X124573512Y-46616073D01*
X124548742Y-46621000D01*
X124371258Y-46621000D01*
X124346488Y-46616073D01*
X124197188Y-46586376D01*
X124033216Y-46518456D01*
X123885646Y-46419853D01*
X123760147Y-46294354D01*
X123661544Y-46146784D01*
X123593624Y-45982812D01*
X123559000Y-45808741D01*
X123559000Y-45631259D01*
X123593624Y-45457188D01*
X123661544Y-45293216D01*
X123760147Y-45145646D01*
X123885646Y-45020147D01*
X124033216Y-44921544D01*
X124197188Y-44853624D01*
X124346488Y-44823927D01*
X124371258Y-44819000D01*
X124548742Y-44819000D01*
X124573512Y-44823927D01*
G37*
G36*
X94093512Y-42283927D02*
G01*
X94242812Y-42313624D01*
X94406784Y-42381544D01*
X94554354Y-42480147D01*
X94679853Y-42605646D01*
X94778456Y-42753216D01*
X94846376Y-42917188D01*
X94881000Y-43091259D01*
X94881000Y-43268741D01*
X94846376Y-43442812D01*
X94778456Y-43606784D01*
X94679853Y-43754354D01*
X94554354Y-43879853D01*
X94406784Y-43978456D01*
X94242812Y-44046376D01*
X94093512Y-44076073D01*
X94068742Y-44081000D01*
X93891258Y-44081000D01*
X93866488Y-44076073D01*
X93717188Y-44046376D01*
X93553216Y-43978456D01*
X93405646Y-43879853D01*
X93280147Y-43754354D01*
X93181544Y-43606784D01*
X93113624Y-43442812D01*
X93079000Y-43268741D01*
X93079000Y-43091259D01*
X93113624Y-42917188D01*
X93181544Y-42753216D01*
X93280147Y-42605646D01*
X93405646Y-42480147D01*
X93553216Y-42381544D01*
X93717188Y-42313624D01*
X93866488Y-42283927D01*
X93891258Y-42279000D01*
X94068742Y-42279000D01*
X94093512Y-42283927D01*
G37*
G36*
X124573512Y-42283927D02*
G01*
X124722812Y-42313624D01*
X124886784Y-42381544D01*
X125034354Y-42480147D01*
X125159853Y-42605646D01*
X125258456Y-42753216D01*
X125326376Y-42917188D01*
X125361000Y-43091259D01*
X125361000Y-43268741D01*
X125326376Y-43442812D01*
X125258456Y-43606784D01*
X125159853Y-43754354D01*
X125034354Y-43879853D01*
X124886784Y-43978456D01*
X124722812Y-44046376D01*
X124573512Y-44076073D01*
X124548742Y-44081000D01*
X124371258Y-44081000D01*
X124346488Y-44076073D01*
X124197188Y-44046376D01*
X124033216Y-43978456D01*
X123885646Y-43879853D01*
X123760147Y-43754354D01*
X123661544Y-43606784D01*
X123593624Y-43442812D01*
X123559000Y-43268741D01*
X123559000Y-43091259D01*
X123593624Y-42917188D01*
X123661544Y-42753216D01*
X123760147Y-42605646D01*
X123885646Y-42480147D01*
X124033216Y-42381544D01*
X124197188Y-42313624D01*
X124346488Y-42283927D01*
X124371258Y-42279000D01*
X124548742Y-42279000D01*
X124573512Y-42283927D01*
G37*
G36*
X124573512Y-39743927D02*
G01*
X124722812Y-39773624D01*
X124886784Y-39841544D01*
X125034354Y-39940147D01*
X125159853Y-40065646D01*
X125258456Y-40213216D01*
X125326376Y-40377188D01*
X125361000Y-40551259D01*
X125361000Y-40728741D01*
X125326376Y-40902812D01*
X125258456Y-41066784D01*
X125159853Y-41214354D01*
X125034354Y-41339853D01*
X124886784Y-41438456D01*
X124722812Y-41506376D01*
X124573512Y-41536073D01*
X124548742Y-41541000D01*
X124371258Y-41541000D01*
X124346488Y-41536073D01*
X124197188Y-41506376D01*
X124033216Y-41438456D01*
X123885646Y-41339853D01*
X123760147Y-41214354D01*
X123661544Y-41066784D01*
X123593624Y-40902812D01*
X123559000Y-40728741D01*
X123559000Y-40551259D01*
X123593624Y-40377188D01*
X123661544Y-40213216D01*
X123760147Y-40065646D01*
X123885646Y-39940147D01*
X124033216Y-39841544D01*
X124197188Y-39773624D01*
X124346488Y-39743927D01*
X124371258Y-39739000D01*
X124548742Y-39739000D01*
X124573512Y-39743927D01*
G37*
G36*
X94093512Y-39743927D02*
G01*
X94242812Y-39773624D01*
X94406784Y-39841544D01*
X94554354Y-39940147D01*
X94679853Y-40065646D01*
X94778456Y-40213216D01*
X94846376Y-40377188D01*
X94881000Y-40551259D01*
X94881000Y-40728741D01*
X94846376Y-40902812D01*
X94778456Y-41066784D01*
X94679853Y-41214354D01*
X94554354Y-41339853D01*
X94406784Y-41438456D01*
X94242812Y-41506376D01*
X94093512Y-41536073D01*
X94068742Y-41541000D01*
X93891258Y-41541000D01*
X93866488Y-41536073D01*
X93717188Y-41506376D01*
X93553216Y-41438456D01*
X93405646Y-41339853D01*
X93280147Y-41214354D01*
X93181544Y-41066784D01*
X93113624Y-40902812D01*
X93079000Y-40728741D01*
X93079000Y-40551259D01*
X93113624Y-40377188D01*
X93181544Y-40213216D01*
X93280147Y-40065646D01*
X93405646Y-39940147D01*
X93553216Y-39841544D01*
X93717188Y-39773624D01*
X93866488Y-39743927D01*
X93891258Y-39739000D01*
X94068742Y-39739000D01*
X94093512Y-39743927D01*
G37*
G36*
X125361000Y-39001000D02*
G01*
X123559000Y-39001000D01*
X123559000Y-37199000D01*
X125361000Y-37199000D01*
X125361000Y-39001000D01*
G37*
G36*
X94881000Y-39001000D02*
G01*
X93079000Y-39001000D01*
X93079000Y-37199000D01*
X94881000Y-37199000D01*
X94881000Y-39001000D01*
G37*
M02*
