G04 #@! TF.GenerationSoftware,KiCad,Pcbnew,(5.1.5)-3*
G04 #@! TF.CreationDate,2020-06-05T23:08:29+02:00*
G04 #@! TF.ProjectId,STM32F030K6Tx_Breakout,53544d33-3246-4303-9330-4b3654785f42,rev?*
G04 #@! TF.SameCoordinates,Original*
G04 #@! TF.FileFunction,Copper,L2,Bot*
G04 #@! TF.FilePolarity,Positive*
%FSLAX46Y46*%
G04 Gerber Fmt 4.6, Leading zero omitted, Abs format (unit mm)*
G04 Created by KiCad (PCBNEW (5.1.5)-3) date 2020-06-05 23:08:29*
%MOMM*%
%LPD*%
G04 APERTURE LIST*
%ADD10O,1.700000X1.700000*%
%ADD11R,1.700000X1.700000*%
%ADD12C,2.000000*%
%ADD13C,0.850000*%
%ADD14R,0.850000X0.850000*%
%ADD15C,0.800000*%
%ADD16C,0.250000*%
%ADD17C,0.600000*%
%ADD18C,0.254000*%
G04 APERTURE END LIST*
D10*
X124460000Y-76200000D03*
X124460000Y-73660000D03*
X124460000Y-71120000D03*
X124460000Y-68580000D03*
X124460000Y-66040000D03*
X124460000Y-63500000D03*
X124460000Y-60960000D03*
X124460000Y-58420000D03*
X124460000Y-55880000D03*
X124460000Y-53340000D03*
X124460000Y-50800000D03*
X124460000Y-48260000D03*
X124460000Y-45720000D03*
X124460000Y-43180000D03*
X124460000Y-40640000D03*
D11*
X124460000Y-38100000D03*
D10*
X93980000Y-76200000D03*
X93980000Y-73660000D03*
X93980000Y-71120000D03*
X93980000Y-68580000D03*
X93980000Y-66040000D03*
X93980000Y-63500000D03*
X93980000Y-60960000D03*
X93980000Y-58420000D03*
X93980000Y-55880000D03*
X93980000Y-53340000D03*
X93980000Y-50800000D03*
X93980000Y-48260000D03*
X93980000Y-45720000D03*
X93980000Y-43180000D03*
X93980000Y-40640000D03*
D11*
X93980000Y-38100000D03*
D12*
X116205000Y-69700000D03*
X120705000Y-69700000D03*
X116205000Y-76200000D03*
X120705000Y-76200000D03*
D10*
X100965000Y-76200000D03*
D11*
X98425000Y-76200000D03*
D13*
X111760000Y-73025000D03*
X111760000Y-74295000D03*
X110490000Y-73025000D03*
X110490000Y-74295000D03*
X109220000Y-73025000D03*
X109220000Y-74295000D03*
X107950000Y-73025000D03*
X107950000Y-74295000D03*
X106680000Y-73025000D03*
D14*
X106680000Y-74295000D03*
D15*
X102870000Y-38100000D03*
X102235000Y-41275000D03*
X102870000Y-46355000D03*
X106680000Y-46355000D03*
X107950000Y-49530000D03*
X102235000Y-52705000D03*
X102235000Y-65405000D03*
X102235000Y-69215000D03*
X107315000Y-67945000D03*
X118745000Y-70485000D03*
X109855000Y-38100000D03*
X109855000Y-50800000D03*
X109220000Y-60960000D03*
X109220000Y-62865000D03*
X103505000Y-52705000D03*
X100330000Y-53340000D03*
X109220000Y-77470000D03*
X117475000Y-74295000D03*
X102235000Y-57150000D03*
X107950000Y-77470000D03*
X108585000Y-58420000D03*
X108585000Y-69215000D03*
X114935000Y-59690000D03*
X109855000Y-40005000D03*
X101600000Y-40005000D03*
X106045000Y-68580000D03*
X106830155Y-41669835D03*
X113680000Y-67310000D03*
X114300000Y-43815000D03*
X109855000Y-43815000D03*
X118110000Y-45085000D03*
X108625011Y-44450000D03*
X109855000Y-59690000D03*
X125730000Y-59690000D03*
D16*
X109220000Y-60960000D02*
X109220000Y-62865000D01*
X103505000Y-52705000D02*
X103505000Y-53340000D01*
X103505000Y-53340000D02*
X102870000Y-53975000D01*
X102870000Y-53975000D02*
X100965000Y-53975000D01*
X100965000Y-53975000D02*
X100330000Y-53340000D01*
X124460000Y-76200000D02*
X124460000Y-76835000D01*
X109855000Y-78105000D02*
X109220000Y-77470000D01*
X117475000Y-74295000D02*
X114300000Y-74295000D01*
X114300000Y-74295000D02*
X113665000Y-74930000D01*
X113665000Y-74930000D02*
X113665000Y-77470000D01*
X113030000Y-78105000D02*
X109855000Y-78105000D01*
X113665000Y-77470000D02*
X113030000Y-78105000D01*
X106680000Y-57150000D02*
X102235000Y-57150000D01*
X107199999Y-72274999D02*
X107525001Y-72600001D01*
X107525001Y-72600001D02*
X107950000Y-73025000D01*
X106319999Y-72274999D02*
X107199999Y-72274999D01*
X105929999Y-72664999D02*
X106319999Y-72274999D01*
X105929999Y-75449999D02*
X105929999Y-72664999D01*
X107950000Y-77470000D02*
X105929999Y-75449999D01*
X106680000Y-57150000D02*
X107315000Y-57150000D01*
X107315000Y-57150000D02*
X108585000Y-58420000D01*
X108585000Y-69215000D02*
X113665000Y-69215000D01*
X113665000Y-69215000D02*
X114935000Y-67945000D01*
X114935000Y-67945000D02*
X114935000Y-59690000D01*
D17*
X97790000Y-36195000D02*
X101600000Y-40005000D01*
X93284998Y-36195000D02*
X97790000Y-36195000D01*
X98425000Y-77650000D02*
X97970000Y-78105000D01*
X98425000Y-76200000D02*
X98425000Y-77650000D01*
X97970000Y-78105000D02*
X92710000Y-78105000D01*
X92075000Y-37404998D02*
X93284998Y-36195000D01*
X92710000Y-78105000D02*
X92075000Y-77470000D01*
X92075000Y-77470000D02*
X92075000Y-37404998D01*
X105954990Y-42545000D02*
X106830155Y-41669835D01*
X101600000Y-42545000D02*
X105954990Y-42545000D01*
X100965000Y-41910000D02*
X101600000Y-42545000D01*
X101600000Y-40005000D02*
X100965000Y-40640000D01*
X100965000Y-40640000D02*
X100965000Y-41910000D01*
X108190165Y-41669835D02*
X109855000Y-40005000D01*
X106830155Y-41669835D02*
X108190165Y-41669835D01*
X107950000Y-64770000D02*
X106045000Y-66675000D01*
X113680000Y-67310000D02*
X111140000Y-64770000D01*
X106045000Y-66675000D02*
X106045000Y-68580000D01*
X111140000Y-64770000D02*
X107950000Y-64770000D01*
D16*
X114300000Y-43815000D02*
X109855000Y-43815000D01*
X109260011Y-45085000D02*
X108625011Y-44450000D01*
X118110000Y-45085000D02*
X109260011Y-45085000D01*
X115283002Y-58964998D02*
X116008004Y-59690000D01*
X116008004Y-59690000D02*
X125164315Y-59690000D01*
X109855000Y-59690000D02*
X110580002Y-58964998D01*
X125164315Y-59690000D02*
X125730000Y-59690000D01*
X110580002Y-58964998D02*
X115283002Y-58964998D01*
D18*
G36*
X126340001Y-58852806D02*
G01*
X126220256Y-58772795D01*
X126031898Y-58694774D01*
X125923717Y-58673256D01*
X125945000Y-58566260D01*
X125945000Y-58273740D01*
X125887932Y-57986842D01*
X125775990Y-57716589D01*
X125613475Y-57473368D01*
X125406632Y-57266525D01*
X125232240Y-57150000D01*
X125406632Y-57033475D01*
X125613475Y-56826632D01*
X125775990Y-56583411D01*
X125887932Y-56313158D01*
X125945000Y-56026260D01*
X125945000Y-55733740D01*
X125887932Y-55446842D01*
X125775990Y-55176589D01*
X125613475Y-54933368D01*
X125406632Y-54726525D01*
X125232240Y-54610000D01*
X125406632Y-54493475D01*
X125613475Y-54286632D01*
X125775990Y-54043411D01*
X125887932Y-53773158D01*
X125945000Y-53486260D01*
X125945000Y-53193740D01*
X125887932Y-52906842D01*
X125775990Y-52636589D01*
X125613475Y-52393368D01*
X125406632Y-52186525D01*
X125232240Y-52070000D01*
X125406632Y-51953475D01*
X125613475Y-51746632D01*
X125775990Y-51503411D01*
X125887932Y-51233158D01*
X125945000Y-50946260D01*
X125945000Y-50653740D01*
X125887932Y-50366842D01*
X125775990Y-50096589D01*
X125613475Y-49853368D01*
X125406632Y-49646525D01*
X125232240Y-49530000D01*
X125406632Y-49413475D01*
X125613475Y-49206632D01*
X125775990Y-48963411D01*
X125887932Y-48693158D01*
X125945000Y-48406260D01*
X125945000Y-48113740D01*
X125887932Y-47826842D01*
X125775990Y-47556589D01*
X125613475Y-47313368D01*
X125406632Y-47106525D01*
X125232240Y-46990000D01*
X125406632Y-46873475D01*
X125613475Y-46666632D01*
X125775990Y-46423411D01*
X125887932Y-46153158D01*
X125945000Y-45866260D01*
X125945000Y-45573740D01*
X125887932Y-45286842D01*
X125775990Y-45016589D01*
X125613475Y-44773368D01*
X125406632Y-44566525D01*
X125232240Y-44450000D01*
X125406632Y-44333475D01*
X125613475Y-44126632D01*
X125775990Y-43883411D01*
X125887932Y-43613158D01*
X125945000Y-43326260D01*
X125945000Y-43033740D01*
X125887932Y-42746842D01*
X125775990Y-42476589D01*
X125613475Y-42233368D01*
X125406632Y-42026525D01*
X125232240Y-41910000D01*
X125406632Y-41793475D01*
X125613475Y-41586632D01*
X125775990Y-41343411D01*
X125887932Y-41073158D01*
X125945000Y-40786260D01*
X125945000Y-40493740D01*
X125887932Y-40206842D01*
X125775990Y-39936589D01*
X125613475Y-39693368D01*
X125481620Y-39561513D01*
X125554180Y-39539502D01*
X125664494Y-39480537D01*
X125761185Y-39401185D01*
X125840537Y-39304494D01*
X125899502Y-39194180D01*
X125935812Y-39074482D01*
X125948072Y-38950000D01*
X125948072Y-37250000D01*
X125935812Y-37125518D01*
X125899502Y-37005820D01*
X125840537Y-36895506D01*
X125761185Y-36798815D01*
X125664494Y-36719463D01*
X125554180Y-36660498D01*
X125434482Y-36624188D01*
X125310000Y-36611928D01*
X123610000Y-36611928D01*
X123485518Y-36624188D01*
X123365820Y-36660498D01*
X123255506Y-36719463D01*
X123158815Y-36798815D01*
X123079463Y-36895506D01*
X123020498Y-37005820D01*
X122984188Y-37125518D01*
X122971928Y-37250000D01*
X122971928Y-38950000D01*
X122984188Y-39074482D01*
X123020498Y-39194180D01*
X123079463Y-39304494D01*
X123158815Y-39401185D01*
X123255506Y-39480537D01*
X123365820Y-39539502D01*
X123438380Y-39561513D01*
X123306525Y-39693368D01*
X123144010Y-39936589D01*
X123032068Y-40206842D01*
X122975000Y-40493740D01*
X122975000Y-40786260D01*
X123032068Y-41073158D01*
X123144010Y-41343411D01*
X123306525Y-41586632D01*
X123513368Y-41793475D01*
X123687760Y-41910000D01*
X123513368Y-42026525D01*
X123306525Y-42233368D01*
X123144010Y-42476589D01*
X123032068Y-42746842D01*
X122975000Y-43033740D01*
X122975000Y-43326260D01*
X123032068Y-43613158D01*
X123144010Y-43883411D01*
X123306525Y-44126632D01*
X123513368Y-44333475D01*
X123687760Y-44450000D01*
X123513368Y-44566525D01*
X123306525Y-44773368D01*
X123144010Y-45016589D01*
X123032068Y-45286842D01*
X122975000Y-45573740D01*
X122975000Y-45866260D01*
X123032068Y-46153158D01*
X123144010Y-46423411D01*
X123306525Y-46666632D01*
X123513368Y-46873475D01*
X123687760Y-46990000D01*
X123513368Y-47106525D01*
X123306525Y-47313368D01*
X123144010Y-47556589D01*
X123032068Y-47826842D01*
X122975000Y-48113740D01*
X122975000Y-48406260D01*
X123032068Y-48693158D01*
X123144010Y-48963411D01*
X123306525Y-49206632D01*
X123513368Y-49413475D01*
X123687760Y-49530000D01*
X123513368Y-49646525D01*
X123306525Y-49853368D01*
X123144010Y-50096589D01*
X123032068Y-50366842D01*
X122975000Y-50653740D01*
X122975000Y-50946260D01*
X123032068Y-51233158D01*
X123144010Y-51503411D01*
X123306525Y-51746632D01*
X123513368Y-51953475D01*
X123687760Y-52070000D01*
X123513368Y-52186525D01*
X123306525Y-52393368D01*
X123144010Y-52636589D01*
X123032068Y-52906842D01*
X122975000Y-53193740D01*
X122975000Y-53486260D01*
X123032068Y-53773158D01*
X123144010Y-54043411D01*
X123306525Y-54286632D01*
X123513368Y-54493475D01*
X123687760Y-54610000D01*
X123513368Y-54726525D01*
X123306525Y-54933368D01*
X123144010Y-55176589D01*
X123032068Y-55446842D01*
X122975000Y-55733740D01*
X122975000Y-56026260D01*
X123032068Y-56313158D01*
X123144010Y-56583411D01*
X123306525Y-56826632D01*
X123513368Y-57033475D01*
X123687760Y-57150000D01*
X123513368Y-57266525D01*
X123306525Y-57473368D01*
X123144010Y-57716589D01*
X123032068Y-57986842D01*
X122975000Y-58273740D01*
X122975000Y-58566260D01*
X123032068Y-58853158D01*
X123063897Y-58930000D01*
X116322806Y-58930000D01*
X115846805Y-58454000D01*
X115823003Y-58424997D01*
X115707278Y-58330024D01*
X115575249Y-58259452D01*
X115431988Y-58215995D01*
X115320335Y-58204998D01*
X115320324Y-58204998D01*
X115283002Y-58201322D01*
X115245680Y-58204998D01*
X110617327Y-58204998D01*
X110580002Y-58201322D01*
X110542677Y-58204998D01*
X110542669Y-58204998D01*
X110431016Y-58215995D01*
X110287755Y-58259452D01*
X110155726Y-58330024D01*
X110040001Y-58424997D01*
X110016203Y-58453996D01*
X109815198Y-58655000D01*
X109753061Y-58655000D01*
X109586961Y-58688039D01*
X109620000Y-58521939D01*
X109620000Y-58318061D01*
X109580226Y-58118102D01*
X109502205Y-57929744D01*
X109388937Y-57760226D01*
X109244774Y-57616063D01*
X109075256Y-57502795D01*
X108886898Y-57424774D01*
X108686939Y-57385000D01*
X108624802Y-57385000D01*
X107878804Y-56639003D01*
X107855001Y-56609999D01*
X107739276Y-56515026D01*
X107607247Y-56444454D01*
X107463986Y-56400997D01*
X107352333Y-56390000D01*
X107352322Y-56390000D01*
X107315000Y-56386324D01*
X107277678Y-56390000D01*
X102938711Y-56390000D01*
X102894774Y-56346063D01*
X102725256Y-56232795D01*
X102536898Y-56154774D01*
X102336939Y-56115000D01*
X102133061Y-56115000D01*
X101933102Y-56154774D01*
X101744744Y-56232795D01*
X101575226Y-56346063D01*
X101431063Y-56490226D01*
X101317795Y-56659744D01*
X101239774Y-56848102D01*
X101200000Y-57048061D01*
X101200000Y-57251939D01*
X101239774Y-57451898D01*
X101317795Y-57640256D01*
X101431063Y-57809774D01*
X101575226Y-57953937D01*
X101744744Y-58067205D01*
X101933102Y-58145226D01*
X102133061Y-58185000D01*
X102336939Y-58185000D01*
X102536898Y-58145226D01*
X102725256Y-58067205D01*
X102894774Y-57953937D01*
X102938711Y-57910000D01*
X107000199Y-57910000D01*
X107550000Y-58459802D01*
X107550000Y-58521939D01*
X107589774Y-58721898D01*
X107667795Y-58910256D01*
X107781063Y-59079774D01*
X107925226Y-59223937D01*
X108094744Y-59337205D01*
X108283102Y-59415226D01*
X108483061Y-59455000D01*
X108686939Y-59455000D01*
X108853039Y-59421961D01*
X108820000Y-59588061D01*
X108820000Y-59791939D01*
X108859229Y-59989160D01*
X108729744Y-60042795D01*
X108560226Y-60156063D01*
X108416063Y-60300226D01*
X108302795Y-60469744D01*
X108224774Y-60658102D01*
X108185000Y-60858061D01*
X108185000Y-61061939D01*
X108224774Y-61261898D01*
X108302795Y-61450256D01*
X108416063Y-61619774D01*
X108460000Y-61663711D01*
X108460001Y-62161288D01*
X108416063Y-62205226D01*
X108302795Y-62374744D01*
X108224774Y-62563102D01*
X108185000Y-62763061D01*
X108185000Y-62966939D01*
X108224774Y-63166898D01*
X108302795Y-63355256D01*
X108416063Y-63524774D01*
X108560226Y-63668937D01*
X108729744Y-63782205D01*
X108857201Y-63835000D01*
X107995932Y-63835000D01*
X107950000Y-63830476D01*
X107904068Y-63835000D01*
X107766708Y-63848529D01*
X107590460Y-63901993D01*
X107428028Y-63988814D01*
X107285656Y-64105656D01*
X107256370Y-64141341D01*
X105416341Y-65981370D01*
X105380656Y-66010656D01*
X105263814Y-66153029D01*
X105176993Y-66315461D01*
X105153534Y-66392795D01*
X105123529Y-66491709D01*
X105105476Y-66675000D01*
X105110000Y-66720932D01*
X105110001Y-68132703D01*
X105049774Y-68278102D01*
X105010000Y-68478061D01*
X105010000Y-68681939D01*
X105049774Y-68881898D01*
X105127795Y-69070256D01*
X105241063Y-69239774D01*
X105385226Y-69383937D01*
X105554744Y-69497205D01*
X105743102Y-69575226D01*
X105943061Y-69615000D01*
X106146939Y-69615000D01*
X106346898Y-69575226D01*
X106535256Y-69497205D01*
X106704774Y-69383937D01*
X106848937Y-69239774D01*
X106962205Y-69070256D01*
X107040226Y-68881898D01*
X107080000Y-68681939D01*
X107080000Y-68478061D01*
X107040226Y-68278102D01*
X106980000Y-68132705D01*
X106980000Y-67062289D01*
X108337289Y-65705000D01*
X110752711Y-65705000D01*
X112702569Y-67654859D01*
X112762795Y-67800256D01*
X112876063Y-67969774D01*
X113020226Y-68113937D01*
X113189744Y-68227205D01*
X113378102Y-68305226D01*
X113479753Y-68325446D01*
X113350199Y-68455000D01*
X109288711Y-68455000D01*
X109244774Y-68411063D01*
X109075256Y-68297795D01*
X108886898Y-68219774D01*
X108686939Y-68180000D01*
X108483061Y-68180000D01*
X108283102Y-68219774D01*
X108094744Y-68297795D01*
X107925226Y-68411063D01*
X107781063Y-68555226D01*
X107667795Y-68724744D01*
X107589774Y-68913102D01*
X107550000Y-69113061D01*
X107550000Y-69316939D01*
X107589774Y-69516898D01*
X107667795Y-69705256D01*
X107781063Y-69874774D01*
X107925226Y-70018937D01*
X108094744Y-70132205D01*
X108283102Y-70210226D01*
X108483061Y-70250000D01*
X108686939Y-70250000D01*
X108886898Y-70210226D01*
X109075256Y-70132205D01*
X109244774Y-70018937D01*
X109288711Y-69975000D01*
X113627678Y-69975000D01*
X113665000Y-69978676D01*
X113702322Y-69975000D01*
X113702333Y-69975000D01*
X113813986Y-69964003D01*
X113957247Y-69920546D01*
X114089276Y-69849974D01*
X114205001Y-69755001D01*
X114228804Y-69725997D01*
X114607108Y-69347694D01*
X114582616Y-69441108D01*
X114563282Y-69762595D01*
X114607039Y-70081675D01*
X114712205Y-70386088D01*
X114805186Y-70560044D01*
X115069587Y-70655808D01*
X116025395Y-69700000D01*
X116384605Y-69700000D01*
X117340413Y-70655808D01*
X117604814Y-70560044D01*
X117745704Y-70270429D01*
X117827384Y-69958892D01*
X117846718Y-69637405D01*
X117833219Y-69538967D01*
X119070000Y-69538967D01*
X119070000Y-69861033D01*
X119132832Y-70176912D01*
X119256082Y-70474463D01*
X119435013Y-70742252D01*
X119662748Y-70969987D01*
X119930537Y-71148918D01*
X120228088Y-71272168D01*
X120543967Y-71335000D01*
X120866033Y-71335000D01*
X121181912Y-71272168D01*
X121479463Y-71148918D01*
X121747252Y-70969987D01*
X121974987Y-70742252D01*
X122153918Y-70474463D01*
X122277168Y-70176912D01*
X122340000Y-69861033D01*
X122340000Y-69538967D01*
X122277168Y-69223088D01*
X122153918Y-68925537D01*
X121974987Y-68657748D01*
X121747252Y-68430013D01*
X121479463Y-68251082D01*
X121181912Y-68127832D01*
X120866033Y-68065000D01*
X120543967Y-68065000D01*
X120228088Y-68127832D01*
X119930537Y-68251082D01*
X119662748Y-68430013D01*
X119435013Y-68657748D01*
X119256082Y-68925537D01*
X119132832Y-69223088D01*
X119070000Y-69538967D01*
X117833219Y-69538967D01*
X117802961Y-69318325D01*
X117697795Y-69013912D01*
X117604814Y-68839956D01*
X117340413Y-68744192D01*
X116384605Y-69700000D01*
X116025395Y-69700000D01*
X116011253Y-69685858D01*
X116190858Y-69506253D01*
X116205000Y-69520395D01*
X117160808Y-68564587D01*
X117065044Y-68300186D01*
X116775429Y-68159296D01*
X116463892Y-68077616D01*
X116142405Y-68058282D01*
X115823325Y-68102039D01*
X115664965Y-68156748D01*
X115684003Y-68093986D01*
X115695000Y-67982333D01*
X115695000Y-67982324D01*
X115698676Y-67945001D01*
X115695000Y-67907678D01*
X115695000Y-60393711D01*
X115701034Y-60387677D01*
X115715757Y-60395546D01*
X115859018Y-60439003D01*
X115970671Y-60450000D01*
X115970679Y-60450000D01*
X116008004Y-60453676D01*
X116045329Y-60450000D01*
X123063897Y-60450000D01*
X123032068Y-60526842D01*
X122975000Y-60813740D01*
X122975000Y-61106260D01*
X123032068Y-61393158D01*
X123144010Y-61663411D01*
X123306525Y-61906632D01*
X123513368Y-62113475D01*
X123687760Y-62230000D01*
X123513368Y-62346525D01*
X123306525Y-62553368D01*
X123144010Y-62796589D01*
X123032068Y-63066842D01*
X122975000Y-63353740D01*
X122975000Y-63646260D01*
X123032068Y-63933158D01*
X123144010Y-64203411D01*
X123306525Y-64446632D01*
X123513368Y-64653475D01*
X123687760Y-64770000D01*
X123513368Y-64886525D01*
X123306525Y-65093368D01*
X123144010Y-65336589D01*
X123032068Y-65606842D01*
X122975000Y-65893740D01*
X122975000Y-66186260D01*
X123032068Y-66473158D01*
X123144010Y-66743411D01*
X123306525Y-66986632D01*
X123513368Y-67193475D01*
X123687760Y-67310000D01*
X123513368Y-67426525D01*
X123306525Y-67633368D01*
X123144010Y-67876589D01*
X123032068Y-68146842D01*
X122975000Y-68433740D01*
X122975000Y-68726260D01*
X123032068Y-69013158D01*
X123144010Y-69283411D01*
X123306525Y-69526632D01*
X123513368Y-69733475D01*
X123687760Y-69850000D01*
X123513368Y-69966525D01*
X123306525Y-70173368D01*
X123144010Y-70416589D01*
X123032068Y-70686842D01*
X122975000Y-70973740D01*
X122975000Y-71266260D01*
X123032068Y-71553158D01*
X123144010Y-71823411D01*
X123306525Y-72066632D01*
X123513368Y-72273475D01*
X123687760Y-72390000D01*
X123513368Y-72506525D01*
X123306525Y-72713368D01*
X123144010Y-72956589D01*
X123032068Y-73226842D01*
X122975000Y-73513740D01*
X122975000Y-73806260D01*
X123032068Y-74093158D01*
X123144010Y-74363411D01*
X123306525Y-74606632D01*
X123513368Y-74813475D01*
X123687760Y-74930000D01*
X123513368Y-75046525D01*
X123306525Y-75253368D01*
X123144010Y-75496589D01*
X123032068Y-75766842D01*
X122975000Y-76053740D01*
X122975000Y-76346260D01*
X123032068Y-76633158D01*
X123144010Y-76903411D01*
X123306525Y-77146632D01*
X123513368Y-77353475D01*
X123756589Y-77515990D01*
X124026842Y-77627932D01*
X124313740Y-77685000D01*
X124606260Y-77685000D01*
X124893158Y-77627932D01*
X125163411Y-77515990D01*
X125406632Y-77353475D01*
X125613475Y-77146632D01*
X125775990Y-76903411D01*
X125887932Y-76633158D01*
X125945000Y-76346260D01*
X125945000Y-76053740D01*
X125887932Y-75766842D01*
X125775990Y-75496589D01*
X125613475Y-75253368D01*
X125406632Y-75046525D01*
X125232240Y-74930000D01*
X125406632Y-74813475D01*
X125613475Y-74606632D01*
X125775990Y-74363411D01*
X125887932Y-74093158D01*
X125945000Y-73806260D01*
X125945000Y-73513740D01*
X125887932Y-73226842D01*
X125775990Y-72956589D01*
X125613475Y-72713368D01*
X125406632Y-72506525D01*
X125232240Y-72390000D01*
X125406632Y-72273475D01*
X125613475Y-72066632D01*
X125775990Y-71823411D01*
X125887932Y-71553158D01*
X125945000Y-71266260D01*
X125945000Y-70973740D01*
X125887932Y-70686842D01*
X125775990Y-70416589D01*
X125613475Y-70173368D01*
X125406632Y-69966525D01*
X125232240Y-69850000D01*
X125406632Y-69733475D01*
X125613475Y-69526632D01*
X125775990Y-69283411D01*
X125887932Y-69013158D01*
X125945000Y-68726260D01*
X125945000Y-68433740D01*
X125887932Y-68146842D01*
X125775990Y-67876589D01*
X125613475Y-67633368D01*
X125406632Y-67426525D01*
X125232240Y-67310000D01*
X125406632Y-67193475D01*
X125613475Y-66986632D01*
X125775990Y-66743411D01*
X125887932Y-66473158D01*
X125945000Y-66186260D01*
X125945000Y-65893740D01*
X125887932Y-65606842D01*
X125775990Y-65336589D01*
X125613475Y-65093368D01*
X125406632Y-64886525D01*
X125232240Y-64770000D01*
X125406632Y-64653475D01*
X125613475Y-64446632D01*
X125775990Y-64203411D01*
X125887932Y-63933158D01*
X125945000Y-63646260D01*
X125945000Y-63353740D01*
X125887932Y-63066842D01*
X125775990Y-62796589D01*
X125613475Y-62553368D01*
X125406632Y-62346525D01*
X125232240Y-62230000D01*
X125406632Y-62113475D01*
X125613475Y-61906632D01*
X125775990Y-61663411D01*
X125887932Y-61393158D01*
X125945000Y-61106260D01*
X125945000Y-60813740D01*
X125923717Y-60706744D01*
X126031898Y-60685226D01*
X126220256Y-60607205D01*
X126340001Y-60527194D01*
X126340001Y-78080000D01*
X114129802Y-78080000D01*
X114176003Y-78033799D01*
X114205001Y-78010001D01*
X114299974Y-77894276D01*
X114370546Y-77762247D01*
X114414003Y-77618986D01*
X114425000Y-77507333D01*
X114428677Y-77470000D01*
X114425000Y-77432667D01*
X114425000Y-77335413D01*
X115249192Y-77335413D01*
X115344956Y-77599814D01*
X115634571Y-77740704D01*
X115946108Y-77822384D01*
X116267595Y-77841718D01*
X116586675Y-77797961D01*
X116891088Y-77692795D01*
X117065044Y-77599814D01*
X117160808Y-77335413D01*
X116205000Y-76379605D01*
X115249192Y-77335413D01*
X114425000Y-77335413D01*
X114425000Y-75244801D01*
X114614802Y-75055000D01*
X115027442Y-75055000D01*
X114953917Y-75128525D01*
X115069585Y-75244193D01*
X114805186Y-75339956D01*
X114664296Y-75629571D01*
X114582616Y-75941108D01*
X114563282Y-76262595D01*
X114607039Y-76581675D01*
X114712205Y-76886088D01*
X114805186Y-77060044D01*
X115069587Y-77155808D01*
X116025395Y-76200000D01*
X116011253Y-76185858D01*
X116190858Y-76006253D01*
X116205000Y-76020395D01*
X116219143Y-76006253D01*
X116398748Y-76185858D01*
X116384605Y-76200000D01*
X117340413Y-77155808D01*
X117604814Y-77060044D01*
X117745704Y-76770429D01*
X117827384Y-76458892D01*
X117846718Y-76137405D01*
X117833219Y-76038967D01*
X119070000Y-76038967D01*
X119070000Y-76361033D01*
X119132832Y-76676912D01*
X119256082Y-76974463D01*
X119435013Y-77242252D01*
X119662748Y-77469987D01*
X119930537Y-77648918D01*
X120228088Y-77772168D01*
X120543967Y-77835000D01*
X120866033Y-77835000D01*
X121181912Y-77772168D01*
X121479463Y-77648918D01*
X121747252Y-77469987D01*
X121974987Y-77242252D01*
X122153918Y-76974463D01*
X122277168Y-76676912D01*
X122340000Y-76361033D01*
X122340000Y-76038967D01*
X122277168Y-75723088D01*
X122153918Y-75425537D01*
X121974987Y-75157748D01*
X121747252Y-74930013D01*
X121479463Y-74751082D01*
X121181912Y-74627832D01*
X120866033Y-74565000D01*
X120543967Y-74565000D01*
X120228088Y-74627832D01*
X119930537Y-74751082D01*
X119662748Y-74930013D01*
X119435013Y-75157748D01*
X119256082Y-75425537D01*
X119132832Y-75723088D01*
X119070000Y-76038967D01*
X117833219Y-76038967D01*
X117802961Y-75818325D01*
X117697795Y-75513912D01*
X117604814Y-75339956D01*
X117577189Y-75329950D01*
X117776898Y-75290226D01*
X117965256Y-75212205D01*
X118134774Y-75098937D01*
X118278937Y-74954774D01*
X118392205Y-74785256D01*
X118470226Y-74596898D01*
X118510000Y-74396939D01*
X118510000Y-74193061D01*
X118470226Y-73993102D01*
X118392205Y-73804744D01*
X118278937Y-73635226D01*
X118134774Y-73491063D01*
X117965256Y-73377795D01*
X117776898Y-73299774D01*
X117576939Y-73260000D01*
X117373061Y-73260000D01*
X117173102Y-73299774D01*
X116984744Y-73377795D01*
X116815226Y-73491063D01*
X116771289Y-73535000D01*
X114337333Y-73535000D01*
X114300000Y-73531323D01*
X114262667Y-73535000D01*
X114151014Y-73545997D01*
X114007753Y-73589454D01*
X113875724Y-73660026D01*
X113759999Y-73754999D01*
X113736200Y-73783998D01*
X113154002Y-74366197D01*
X113124999Y-74389999D01*
X113069871Y-74457174D01*
X113030026Y-74505724D01*
X113001933Y-74558282D01*
X112959454Y-74637754D01*
X112915997Y-74781015D01*
X112905000Y-74892668D01*
X112905000Y-74892678D01*
X112901324Y-74930000D01*
X112905000Y-74967323D01*
X112905001Y-77155197D01*
X112715199Y-77345000D01*
X110250413Y-77345000D01*
X110215226Y-77168102D01*
X110137205Y-76979744D01*
X110023937Y-76810226D01*
X109879774Y-76666063D01*
X109710256Y-76552795D01*
X109521898Y-76474774D01*
X109321939Y-76435000D01*
X109118061Y-76435000D01*
X108918102Y-76474774D01*
X108729744Y-76552795D01*
X108585000Y-76649510D01*
X108440256Y-76552795D01*
X108251898Y-76474774D01*
X108051939Y-76435000D01*
X107989802Y-76435000D01*
X106912873Y-75358072D01*
X107105000Y-75358072D01*
X107229482Y-75345812D01*
X107349180Y-75309502D01*
X107459494Y-75250537D01*
X107469831Y-75242053D01*
X107622588Y-75308560D01*
X107826616Y-75352959D01*
X108035384Y-75356702D01*
X108240870Y-75319644D01*
X108435179Y-75243210D01*
X108468856Y-75225210D01*
X108488534Y-75068984D01*
X108557079Y-75137529D01*
X108585000Y-75109608D01*
X108612921Y-75137529D01*
X108681466Y-75068984D01*
X108701144Y-75225210D01*
X108892588Y-75308560D01*
X109096616Y-75352959D01*
X109305384Y-75356702D01*
X109510870Y-75319644D01*
X109705179Y-75243210D01*
X109738856Y-75225210D01*
X109759248Y-75063315D01*
X109814289Y-75118356D01*
X109987902Y-75234360D01*
X110180809Y-75314265D01*
X110385599Y-75355000D01*
X110594401Y-75355000D01*
X110799191Y-75314265D01*
X110992098Y-75234360D01*
X111165711Y-75118356D01*
X111220752Y-75063315D01*
X111241144Y-75225210D01*
X111432588Y-75308560D01*
X111636616Y-75352959D01*
X111845384Y-75356702D01*
X112050870Y-75319644D01*
X112245179Y-75243210D01*
X112278856Y-75225210D01*
X112304781Y-75019386D01*
X111760000Y-74474605D01*
X111745858Y-74488748D01*
X111566253Y-74309143D01*
X111580395Y-74295000D01*
X111566253Y-74280858D01*
X111745858Y-74101253D01*
X111760000Y-74115395D01*
X111774143Y-74101253D01*
X111953748Y-74280858D01*
X111939605Y-74295000D01*
X112484386Y-74839781D01*
X112690210Y-74813856D01*
X112773560Y-74622412D01*
X112817959Y-74418384D01*
X112821702Y-74209616D01*
X112784644Y-74004130D01*
X112708210Y-73809821D01*
X112690210Y-73776144D01*
X112528315Y-73755752D01*
X112583356Y-73700711D01*
X112699360Y-73527098D01*
X112779265Y-73334191D01*
X112820000Y-73129401D01*
X112820000Y-72920599D01*
X112779265Y-72715809D01*
X112699360Y-72522902D01*
X112583356Y-72349289D01*
X112435711Y-72201644D01*
X112262098Y-72085640D01*
X112069191Y-72005735D01*
X111864401Y-71965000D01*
X111655599Y-71965000D01*
X111450809Y-72005735D01*
X111257902Y-72085640D01*
X111125000Y-72174442D01*
X110992098Y-72085640D01*
X110799191Y-72005735D01*
X110594401Y-71965000D01*
X110385599Y-71965000D01*
X110180809Y-72005735D01*
X109987902Y-72085640D01*
X109855000Y-72174442D01*
X109722098Y-72085640D01*
X109529191Y-72005735D01*
X109324401Y-71965000D01*
X109115599Y-71965000D01*
X108910809Y-72005735D01*
X108717902Y-72085640D01*
X108585000Y-72174442D01*
X108452098Y-72085640D01*
X108259191Y-72005735D01*
X108054401Y-71965000D01*
X107964801Y-71965000D01*
X107763803Y-71764002D01*
X107740000Y-71734998D01*
X107624275Y-71640025D01*
X107492246Y-71569453D01*
X107348985Y-71525996D01*
X107237332Y-71514999D01*
X107237321Y-71514999D01*
X107199999Y-71511323D01*
X107162677Y-71514999D01*
X106357321Y-71514999D01*
X106319998Y-71511323D01*
X106282675Y-71514999D01*
X106282666Y-71514999D01*
X106171013Y-71525996D01*
X106027752Y-71569453D01*
X105895723Y-71640025D01*
X105779998Y-71734998D01*
X105756195Y-71764002D01*
X105418997Y-72101200D01*
X105389999Y-72124998D01*
X105366201Y-72153996D01*
X105366200Y-72153997D01*
X105295025Y-72240723D01*
X105224453Y-72372753D01*
X105205271Y-72435990D01*
X105180997Y-72516013D01*
X105177853Y-72547932D01*
X105166323Y-72664999D01*
X105170000Y-72702331D01*
X105169999Y-75412676D01*
X105166323Y-75449999D01*
X105169999Y-75487321D01*
X105169999Y-75487331D01*
X105180996Y-75598984D01*
X105204974Y-75678029D01*
X105224453Y-75742245D01*
X105295025Y-75874275D01*
X105322500Y-75907753D01*
X105389998Y-75990000D01*
X105419002Y-76013803D01*
X106915000Y-77509802D01*
X106915000Y-77571939D01*
X106954774Y-77771898D01*
X107032795Y-77960256D01*
X107112805Y-78080000D01*
X99255346Y-78080000D01*
X99293007Y-78009540D01*
X99346471Y-77833292D01*
X99352518Y-77771898D01*
X99361614Y-77679542D01*
X99399482Y-77675812D01*
X99519180Y-77639502D01*
X99629494Y-77580537D01*
X99726185Y-77501185D01*
X99805537Y-77404494D01*
X99864502Y-77294180D01*
X99888966Y-77213534D01*
X99964731Y-77297588D01*
X100198080Y-77471641D01*
X100460901Y-77596825D01*
X100608110Y-77641476D01*
X100838000Y-77520155D01*
X100838000Y-76327000D01*
X101092000Y-76327000D01*
X101092000Y-77520155D01*
X101321890Y-77641476D01*
X101469099Y-77596825D01*
X101731920Y-77471641D01*
X101965269Y-77297588D01*
X102160178Y-77081355D01*
X102309157Y-76831252D01*
X102406481Y-76556891D01*
X102285814Y-76327000D01*
X101092000Y-76327000D01*
X100838000Y-76327000D01*
X100818000Y-76327000D01*
X100818000Y-76073000D01*
X100838000Y-76073000D01*
X100838000Y-74879845D01*
X101092000Y-74879845D01*
X101092000Y-76073000D01*
X102285814Y-76073000D01*
X102406481Y-75843109D01*
X102309157Y-75568748D01*
X102160178Y-75318645D01*
X101965269Y-75102412D01*
X101731920Y-74928359D01*
X101469099Y-74803175D01*
X101321890Y-74758524D01*
X101092000Y-74879845D01*
X100838000Y-74879845D01*
X100608110Y-74758524D01*
X100460901Y-74803175D01*
X100198080Y-74928359D01*
X99964731Y-75102412D01*
X99888966Y-75186466D01*
X99864502Y-75105820D01*
X99805537Y-74995506D01*
X99726185Y-74898815D01*
X99629494Y-74819463D01*
X99519180Y-74760498D01*
X99399482Y-74724188D01*
X99275000Y-74711928D01*
X97575000Y-74711928D01*
X97450518Y-74724188D01*
X97330820Y-74760498D01*
X97220506Y-74819463D01*
X97123815Y-74898815D01*
X97044463Y-74995506D01*
X96985498Y-75105820D01*
X96949188Y-75225518D01*
X96936928Y-75350000D01*
X96936928Y-77050000D01*
X96948747Y-77170000D01*
X95110107Y-77170000D01*
X95133475Y-77146632D01*
X95295990Y-76903411D01*
X95407932Y-76633158D01*
X95465000Y-76346260D01*
X95465000Y-76053740D01*
X95407932Y-75766842D01*
X95295990Y-75496589D01*
X95133475Y-75253368D01*
X94926632Y-75046525D01*
X94752240Y-74930000D01*
X94926632Y-74813475D01*
X95133475Y-74606632D01*
X95295990Y-74363411D01*
X95407932Y-74093158D01*
X95465000Y-73806260D01*
X95465000Y-73513740D01*
X95407932Y-73226842D01*
X95295990Y-72956589D01*
X95133475Y-72713368D01*
X94926632Y-72506525D01*
X94752240Y-72390000D01*
X94926632Y-72273475D01*
X95133475Y-72066632D01*
X95295990Y-71823411D01*
X95407932Y-71553158D01*
X95465000Y-71266260D01*
X95465000Y-70973740D01*
X95437485Y-70835413D01*
X115249192Y-70835413D01*
X115344956Y-71099814D01*
X115634571Y-71240704D01*
X115946108Y-71322384D01*
X116267595Y-71341718D01*
X116586675Y-71297961D01*
X116891088Y-71192795D01*
X117065044Y-71099814D01*
X117160808Y-70835413D01*
X116205000Y-69879605D01*
X115249192Y-70835413D01*
X95437485Y-70835413D01*
X95407932Y-70686842D01*
X95295990Y-70416589D01*
X95133475Y-70173368D01*
X94926632Y-69966525D01*
X94752240Y-69850000D01*
X94926632Y-69733475D01*
X95133475Y-69526632D01*
X95295990Y-69283411D01*
X95407932Y-69013158D01*
X95465000Y-68726260D01*
X95465000Y-68433740D01*
X95407932Y-68146842D01*
X95295990Y-67876589D01*
X95133475Y-67633368D01*
X94926632Y-67426525D01*
X94752240Y-67310000D01*
X94926632Y-67193475D01*
X95133475Y-66986632D01*
X95295990Y-66743411D01*
X95407932Y-66473158D01*
X95465000Y-66186260D01*
X95465000Y-65893740D01*
X95407932Y-65606842D01*
X95295990Y-65336589D01*
X95133475Y-65093368D01*
X94926632Y-64886525D01*
X94752240Y-64770000D01*
X94926632Y-64653475D01*
X95133475Y-64446632D01*
X95295990Y-64203411D01*
X95407932Y-63933158D01*
X95465000Y-63646260D01*
X95465000Y-63353740D01*
X95407932Y-63066842D01*
X95295990Y-62796589D01*
X95133475Y-62553368D01*
X94926632Y-62346525D01*
X94752240Y-62230000D01*
X94926632Y-62113475D01*
X95133475Y-61906632D01*
X95295990Y-61663411D01*
X95407932Y-61393158D01*
X95465000Y-61106260D01*
X95465000Y-60813740D01*
X95407932Y-60526842D01*
X95295990Y-60256589D01*
X95133475Y-60013368D01*
X94926632Y-59806525D01*
X94752240Y-59690000D01*
X94926632Y-59573475D01*
X95133475Y-59366632D01*
X95295990Y-59123411D01*
X95407932Y-58853158D01*
X95465000Y-58566260D01*
X95465000Y-58273740D01*
X95407932Y-57986842D01*
X95295990Y-57716589D01*
X95133475Y-57473368D01*
X94926632Y-57266525D01*
X94752240Y-57150000D01*
X94926632Y-57033475D01*
X95133475Y-56826632D01*
X95295990Y-56583411D01*
X95407932Y-56313158D01*
X95465000Y-56026260D01*
X95465000Y-55733740D01*
X95407932Y-55446842D01*
X95295990Y-55176589D01*
X95133475Y-54933368D01*
X94926632Y-54726525D01*
X94752240Y-54610000D01*
X94926632Y-54493475D01*
X95133475Y-54286632D01*
X95295990Y-54043411D01*
X95407932Y-53773158D01*
X95465000Y-53486260D01*
X95465000Y-53238061D01*
X99295000Y-53238061D01*
X99295000Y-53441939D01*
X99334774Y-53641898D01*
X99412795Y-53830256D01*
X99526063Y-53999774D01*
X99670226Y-54143937D01*
X99839744Y-54257205D01*
X100028102Y-54335226D01*
X100228061Y-54375000D01*
X100290198Y-54375000D01*
X100401200Y-54486002D01*
X100424999Y-54515001D01*
X100453997Y-54538799D01*
X100540724Y-54609974D01*
X100672753Y-54680546D01*
X100816014Y-54724003D01*
X100965000Y-54738677D01*
X101002333Y-54735000D01*
X102832678Y-54735000D01*
X102870000Y-54738676D01*
X102907322Y-54735000D01*
X102907333Y-54735000D01*
X103018986Y-54724003D01*
X103162247Y-54680546D01*
X103294276Y-54609974D01*
X103410001Y-54515001D01*
X103433803Y-54485998D01*
X104016002Y-53903800D01*
X104045001Y-53880001D01*
X104139974Y-53764276D01*
X104210546Y-53632247D01*
X104254003Y-53488986D01*
X104261572Y-53412139D01*
X104308937Y-53364774D01*
X104422205Y-53195256D01*
X104500226Y-53006898D01*
X104540000Y-52806939D01*
X104540000Y-52603061D01*
X104500226Y-52403102D01*
X104422205Y-52214744D01*
X104308937Y-52045226D01*
X104164774Y-51901063D01*
X103995256Y-51787795D01*
X103806898Y-51709774D01*
X103606939Y-51670000D01*
X103403061Y-51670000D01*
X103203102Y-51709774D01*
X103014744Y-51787795D01*
X102845226Y-51901063D01*
X102701063Y-52045226D01*
X102587795Y-52214744D01*
X102509774Y-52403102D01*
X102470000Y-52603061D01*
X102470000Y-52806939D01*
X102509774Y-53006898D01*
X102584031Y-53186168D01*
X102555199Y-53215000D01*
X101360413Y-53215000D01*
X101325226Y-53038102D01*
X101247205Y-52849744D01*
X101133937Y-52680226D01*
X100989774Y-52536063D01*
X100820256Y-52422795D01*
X100631898Y-52344774D01*
X100431939Y-52305000D01*
X100228061Y-52305000D01*
X100028102Y-52344774D01*
X99839744Y-52422795D01*
X99670226Y-52536063D01*
X99526063Y-52680226D01*
X99412795Y-52849744D01*
X99334774Y-53038102D01*
X99295000Y-53238061D01*
X95465000Y-53238061D01*
X95465000Y-53193740D01*
X95407932Y-52906842D01*
X95295990Y-52636589D01*
X95133475Y-52393368D01*
X94926632Y-52186525D01*
X94752240Y-52070000D01*
X94926632Y-51953475D01*
X95133475Y-51746632D01*
X95295990Y-51503411D01*
X95407932Y-51233158D01*
X95465000Y-50946260D01*
X95465000Y-50653740D01*
X95407932Y-50366842D01*
X95295990Y-50096589D01*
X95133475Y-49853368D01*
X94926632Y-49646525D01*
X94752240Y-49530000D01*
X94926632Y-49413475D01*
X95133475Y-49206632D01*
X95295990Y-48963411D01*
X95407932Y-48693158D01*
X95465000Y-48406260D01*
X95465000Y-48113740D01*
X95407932Y-47826842D01*
X95295990Y-47556589D01*
X95133475Y-47313368D01*
X94926632Y-47106525D01*
X94752240Y-46990000D01*
X94926632Y-46873475D01*
X95133475Y-46666632D01*
X95295990Y-46423411D01*
X95407932Y-46153158D01*
X95465000Y-45866260D01*
X95465000Y-45573740D01*
X95407932Y-45286842D01*
X95295990Y-45016589D01*
X95133475Y-44773368D01*
X94926632Y-44566525D01*
X94752240Y-44450000D01*
X94904802Y-44348061D01*
X107590011Y-44348061D01*
X107590011Y-44551939D01*
X107629785Y-44751898D01*
X107707806Y-44940256D01*
X107821074Y-45109774D01*
X107965237Y-45253937D01*
X108134755Y-45367205D01*
X108323113Y-45445226D01*
X108523072Y-45485000D01*
X108585209Y-45485000D01*
X108696211Y-45596002D01*
X108720010Y-45625001D01*
X108749008Y-45648799D01*
X108835735Y-45719974D01*
X108967764Y-45790546D01*
X109111025Y-45834003D01*
X109260011Y-45848677D01*
X109297344Y-45845000D01*
X117406289Y-45845000D01*
X117450226Y-45888937D01*
X117619744Y-46002205D01*
X117808102Y-46080226D01*
X118008061Y-46120000D01*
X118211939Y-46120000D01*
X118411898Y-46080226D01*
X118600256Y-46002205D01*
X118769774Y-45888937D01*
X118913937Y-45744774D01*
X119027205Y-45575256D01*
X119105226Y-45386898D01*
X119145000Y-45186939D01*
X119145000Y-44983061D01*
X119105226Y-44783102D01*
X119027205Y-44594744D01*
X118913937Y-44425226D01*
X118769774Y-44281063D01*
X118600256Y-44167795D01*
X118411898Y-44089774D01*
X118211939Y-44050000D01*
X118008061Y-44050000D01*
X117808102Y-44089774D01*
X117619744Y-44167795D01*
X117450226Y-44281063D01*
X117406289Y-44325000D01*
X115204013Y-44325000D01*
X115217205Y-44305256D01*
X115295226Y-44116898D01*
X115335000Y-43916939D01*
X115335000Y-43713061D01*
X115295226Y-43513102D01*
X115217205Y-43324744D01*
X115103937Y-43155226D01*
X114959774Y-43011063D01*
X114790256Y-42897795D01*
X114601898Y-42819774D01*
X114401939Y-42780000D01*
X114198061Y-42780000D01*
X113998102Y-42819774D01*
X113809744Y-42897795D01*
X113640226Y-43011063D01*
X113596289Y-43055000D01*
X110558711Y-43055000D01*
X110514774Y-43011063D01*
X110345256Y-42897795D01*
X110156898Y-42819774D01*
X109956939Y-42780000D01*
X109753061Y-42780000D01*
X109553102Y-42819774D01*
X109364744Y-42897795D01*
X109195226Y-43011063D01*
X109051063Y-43155226D01*
X108937795Y-43324744D01*
X108887206Y-43446877D01*
X108726950Y-43415000D01*
X108523072Y-43415000D01*
X108323113Y-43454774D01*
X108134755Y-43532795D01*
X107965237Y-43646063D01*
X107821074Y-43790226D01*
X107707806Y-43959744D01*
X107629785Y-44148102D01*
X107590011Y-44348061D01*
X94904802Y-44348061D01*
X94926632Y-44333475D01*
X95133475Y-44126632D01*
X95295990Y-43883411D01*
X95407932Y-43613158D01*
X95465000Y-43326260D01*
X95465000Y-43033740D01*
X95407932Y-42746842D01*
X95295990Y-42476589D01*
X95133475Y-42233368D01*
X94926632Y-42026525D01*
X94752240Y-41910000D01*
X94926632Y-41793475D01*
X95133475Y-41586632D01*
X95295990Y-41343411D01*
X95407932Y-41073158D01*
X95465000Y-40786260D01*
X95465000Y-40493740D01*
X95407932Y-40206842D01*
X95295990Y-39936589D01*
X95133475Y-39693368D01*
X95001620Y-39561513D01*
X95074180Y-39539502D01*
X95184494Y-39480537D01*
X95281185Y-39401185D01*
X95360537Y-39304494D01*
X95419502Y-39194180D01*
X95455812Y-39074482D01*
X95468072Y-38950000D01*
X95468072Y-37250000D01*
X95456253Y-37130000D01*
X97402711Y-37130000D01*
X100277087Y-40004376D01*
X100183814Y-40118029D01*
X100096993Y-40280461D01*
X100071488Y-40364540D01*
X100043529Y-40456709D01*
X100025476Y-40640000D01*
X100030000Y-40685933D01*
X100030001Y-41864059D01*
X100025476Y-41910000D01*
X100043529Y-42093291D01*
X100073414Y-42191807D01*
X100096994Y-42269540D01*
X100183815Y-42431972D01*
X100300657Y-42574344D01*
X100336336Y-42603625D01*
X100906370Y-43173659D01*
X100935656Y-43209344D01*
X101078028Y-43326186D01*
X101183880Y-43382765D01*
X101240459Y-43413007D01*
X101416708Y-43466472D01*
X101600000Y-43484524D01*
X101645935Y-43480000D01*
X105909058Y-43480000D01*
X105954990Y-43484524D01*
X106000922Y-43480000D01*
X106138282Y-43466471D01*
X106314530Y-43413007D01*
X106476962Y-43326186D01*
X106619334Y-43209344D01*
X106648620Y-43173659D01*
X107175014Y-42647266D01*
X107277450Y-42604835D01*
X108144233Y-42604835D01*
X108190165Y-42609359D01*
X108236097Y-42604835D01*
X108373457Y-42591306D01*
X108549705Y-42537842D01*
X108712137Y-42451021D01*
X108854509Y-42334179D01*
X108883795Y-42298494D01*
X110199859Y-40982431D01*
X110345256Y-40922205D01*
X110514774Y-40808937D01*
X110658937Y-40664774D01*
X110772205Y-40495256D01*
X110850226Y-40306898D01*
X110890000Y-40106939D01*
X110890000Y-39903061D01*
X110850226Y-39703102D01*
X110772205Y-39514744D01*
X110658937Y-39345226D01*
X110514774Y-39201063D01*
X110345256Y-39087795D01*
X110156898Y-39009774D01*
X109956939Y-38970000D01*
X109753061Y-38970000D01*
X109553102Y-39009774D01*
X109364744Y-39087795D01*
X109195226Y-39201063D01*
X109051063Y-39345226D01*
X108937795Y-39514744D01*
X108877569Y-39660141D01*
X107802876Y-40734835D01*
X107277450Y-40734835D01*
X107132053Y-40674609D01*
X106932094Y-40634835D01*
X106728216Y-40634835D01*
X106528257Y-40674609D01*
X106339899Y-40752630D01*
X106170381Y-40865898D01*
X106026218Y-41010061D01*
X105912950Y-41179579D01*
X105852724Y-41324976D01*
X105567701Y-41610000D01*
X101987289Y-41610000D01*
X101900000Y-41522711D01*
X101900000Y-41027289D01*
X101944858Y-40982431D01*
X102090256Y-40922205D01*
X102259774Y-40808937D01*
X102403937Y-40664774D01*
X102517205Y-40495256D01*
X102595226Y-40306898D01*
X102635000Y-40106939D01*
X102635000Y-39903061D01*
X102595226Y-39703102D01*
X102517205Y-39514744D01*
X102403937Y-39345226D01*
X102259774Y-39201063D01*
X102090256Y-39087795D01*
X101944858Y-39027569D01*
X99137289Y-36220000D01*
X126340000Y-36220000D01*
X126340001Y-58852806D01*
G37*
X126340001Y-58852806D02*
X126220256Y-58772795D01*
X126031898Y-58694774D01*
X125923717Y-58673256D01*
X125945000Y-58566260D01*
X125945000Y-58273740D01*
X125887932Y-57986842D01*
X125775990Y-57716589D01*
X125613475Y-57473368D01*
X125406632Y-57266525D01*
X125232240Y-57150000D01*
X125406632Y-57033475D01*
X125613475Y-56826632D01*
X125775990Y-56583411D01*
X125887932Y-56313158D01*
X125945000Y-56026260D01*
X125945000Y-55733740D01*
X125887932Y-55446842D01*
X125775990Y-55176589D01*
X125613475Y-54933368D01*
X125406632Y-54726525D01*
X125232240Y-54610000D01*
X125406632Y-54493475D01*
X125613475Y-54286632D01*
X125775990Y-54043411D01*
X125887932Y-53773158D01*
X125945000Y-53486260D01*
X125945000Y-53193740D01*
X125887932Y-52906842D01*
X125775990Y-52636589D01*
X125613475Y-52393368D01*
X125406632Y-52186525D01*
X125232240Y-52070000D01*
X125406632Y-51953475D01*
X125613475Y-51746632D01*
X125775990Y-51503411D01*
X125887932Y-51233158D01*
X125945000Y-50946260D01*
X125945000Y-50653740D01*
X125887932Y-50366842D01*
X125775990Y-50096589D01*
X125613475Y-49853368D01*
X125406632Y-49646525D01*
X125232240Y-49530000D01*
X125406632Y-49413475D01*
X125613475Y-49206632D01*
X125775990Y-48963411D01*
X125887932Y-48693158D01*
X125945000Y-48406260D01*
X125945000Y-48113740D01*
X125887932Y-47826842D01*
X125775990Y-47556589D01*
X125613475Y-47313368D01*
X125406632Y-47106525D01*
X125232240Y-46990000D01*
X125406632Y-46873475D01*
X125613475Y-46666632D01*
X125775990Y-46423411D01*
X125887932Y-46153158D01*
X125945000Y-45866260D01*
X125945000Y-45573740D01*
X125887932Y-45286842D01*
X125775990Y-45016589D01*
X125613475Y-44773368D01*
X125406632Y-44566525D01*
X125232240Y-44450000D01*
X125406632Y-44333475D01*
X125613475Y-44126632D01*
X125775990Y-43883411D01*
X125887932Y-43613158D01*
X125945000Y-43326260D01*
X125945000Y-43033740D01*
X125887932Y-42746842D01*
X125775990Y-42476589D01*
X125613475Y-42233368D01*
X125406632Y-42026525D01*
X125232240Y-41910000D01*
X125406632Y-41793475D01*
X125613475Y-41586632D01*
X125775990Y-41343411D01*
X125887932Y-41073158D01*
X125945000Y-40786260D01*
X125945000Y-40493740D01*
X125887932Y-40206842D01*
X125775990Y-39936589D01*
X125613475Y-39693368D01*
X125481620Y-39561513D01*
X125554180Y-39539502D01*
X125664494Y-39480537D01*
X125761185Y-39401185D01*
X125840537Y-39304494D01*
X125899502Y-39194180D01*
X125935812Y-39074482D01*
X125948072Y-38950000D01*
X125948072Y-37250000D01*
X125935812Y-37125518D01*
X125899502Y-37005820D01*
X125840537Y-36895506D01*
X125761185Y-36798815D01*
X125664494Y-36719463D01*
X125554180Y-36660498D01*
X125434482Y-36624188D01*
X125310000Y-36611928D01*
X123610000Y-36611928D01*
X123485518Y-36624188D01*
X123365820Y-36660498D01*
X123255506Y-36719463D01*
X123158815Y-36798815D01*
X123079463Y-36895506D01*
X123020498Y-37005820D01*
X122984188Y-37125518D01*
X122971928Y-37250000D01*
X122971928Y-38950000D01*
X122984188Y-39074482D01*
X123020498Y-39194180D01*
X123079463Y-39304494D01*
X123158815Y-39401185D01*
X123255506Y-39480537D01*
X123365820Y-39539502D01*
X123438380Y-39561513D01*
X123306525Y-39693368D01*
X123144010Y-39936589D01*
X123032068Y-40206842D01*
X122975000Y-40493740D01*
X122975000Y-40786260D01*
X123032068Y-41073158D01*
X123144010Y-41343411D01*
X123306525Y-41586632D01*
X123513368Y-41793475D01*
X123687760Y-41910000D01*
X123513368Y-42026525D01*
X123306525Y-42233368D01*
X123144010Y-42476589D01*
X123032068Y-42746842D01*
X122975000Y-43033740D01*
X122975000Y-43326260D01*
X123032068Y-43613158D01*
X123144010Y-43883411D01*
X123306525Y-44126632D01*
X123513368Y-44333475D01*
X123687760Y-44450000D01*
X123513368Y-44566525D01*
X123306525Y-44773368D01*
X123144010Y-45016589D01*
X123032068Y-45286842D01*
X122975000Y-45573740D01*
X122975000Y-45866260D01*
X123032068Y-46153158D01*
X123144010Y-46423411D01*
X123306525Y-46666632D01*
X123513368Y-46873475D01*
X123687760Y-46990000D01*
X123513368Y-47106525D01*
X123306525Y-47313368D01*
X123144010Y-47556589D01*
X123032068Y-47826842D01*
X122975000Y-48113740D01*
X122975000Y-48406260D01*
X123032068Y-48693158D01*
X123144010Y-48963411D01*
X123306525Y-49206632D01*
X123513368Y-49413475D01*
X123687760Y-49530000D01*
X123513368Y-49646525D01*
X123306525Y-49853368D01*
X123144010Y-50096589D01*
X123032068Y-50366842D01*
X122975000Y-50653740D01*
X122975000Y-50946260D01*
X123032068Y-51233158D01*
X123144010Y-51503411D01*
X123306525Y-51746632D01*
X123513368Y-51953475D01*
X123687760Y-52070000D01*
X123513368Y-52186525D01*
X123306525Y-52393368D01*
X123144010Y-52636589D01*
X123032068Y-52906842D01*
X122975000Y-53193740D01*
X122975000Y-53486260D01*
X123032068Y-53773158D01*
X123144010Y-54043411D01*
X123306525Y-54286632D01*
X123513368Y-54493475D01*
X123687760Y-54610000D01*
X123513368Y-54726525D01*
X123306525Y-54933368D01*
X123144010Y-55176589D01*
X123032068Y-55446842D01*
X122975000Y-55733740D01*
X122975000Y-56026260D01*
X123032068Y-56313158D01*
X123144010Y-56583411D01*
X123306525Y-56826632D01*
X123513368Y-57033475D01*
X123687760Y-57150000D01*
X123513368Y-57266525D01*
X123306525Y-57473368D01*
X123144010Y-57716589D01*
X123032068Y-57986842D01*
X122975000Y-58273740D01*
X122975000Y-58566260D01*
X123032068Y-58853158D01*
X123063897Y-58930000D01*
X116322806Y-58930000D01*
X115846805Y-58454000D01*
X115823003Y-58424997D01*
X115707278Y-58330024D01*
X115575249Y-58259452D01*
X115431988Y-58215995D01*
X115320335Y-58204998D01*
X115320324Y-58204998D01*
X115283002Y-58201322D01*
X115245680Y-58204998D01*
X110617327Y-58204998D01*
X110580002Y-58201322D01*
X110542677Y-58204998D01*
X110542669Y-58204998D01*
X110431016Y-58215995D01*
X110287755Y-58259452D01*
X110155726Y-58330024D01*
X110040001Y-58424997D01*
X110016203Y-58453996D01*
X109815198Y-58655000D01*
X109753061Y-58655000D01*
X109586961Y-58688039D01*
X109620000Y-58521939D01*
X109620000Y-58318061D01*
X109580226Y-58118102D01*
X109502205Y-57929744D01*
X109388937Y-57760226D01*
X109244774Y-57616063D01*
X109075256Y-57502795D01*
X108886898Y-57424774D01*
X108686939Y-57385000D01*
X108624802Y-57385000D01*
X107878804Y-56639003D01*
X107855001Y-56609999D01*
X107739276Y-56515026D01*
X107607247Y-56444454D01*
X107463986Y-56400997D01*
X107352333Y-56390000D01*
X107352322Y-56390000D01*
X107315000Y-56386324D01*
X107277678Y-56390000D01*
X102938711Y-56390000D01*
X102894774Y-56346063D01*
X102725256Y-56232795D01*
X102536898Y-56154774D01*
X102336939Y-56115000D01*
X102133061Y-56115000D01*
X101933102Y-56154774D01*
X101744744Y-56232795D01*
X101575226Y-56346063D01*
X101431063Y-56490226D01*
X101317795Y-56659744D01*
X101239774Y-56848102D01*
X101200000Y-57048061D01*
X101200000Y-57251939D01*
X101239774Y-57451898D01*
X101317795Y-57640256D01*
X101431063Y-57809774D01*
X101575226Y-57953937D01*
X101744744Y-58067205D01*
X101933102Y-58145226D01*
X102133061Y-58185000D01*
X102336939Y-58185000D01*
X102536898Y-58145226D01*
X102725256Y-58067205D01*
X102894774Y-57953937D01*
X102938711Y-57910000D01*
X107000199Y-57910000D01*
X107550000Y-58459802D01*
X107550000Y-58521939D01*
X107589774Y-58721898D01*
X107667795Y-58910256D01*
X107781063Y-59079774D01*
X107925226Y-59223937D01*
X108094744Y-59337205D01*
X108283102Y-59415226D01*
X108483061Y-59455000D01*
X108686939Y-59455000D01*
X108853039Y-59421961D01*
X108820000Y-59588061D01*
X108820000Y-59791939D01*
X108859229Y-59989160D01*
X108729744Y-60042795D01*
X108560226Y-60156063D01*
X108416063Y-60300226D01*
X108302795Y-60469744D01*
X108224774Y-60658102D01*
X108185000Y-60858061D01*
X108185000Y-61061939D01*
X108224774Y-61261898D01*
X108302795Y-61450256D01*
X108416063Y-61619774D01*
X108460000Y-61663711D01*
X108460001Y-62161288D01*
X108416063Y-62205226D01*
X108302795Y-62374744D01*
X108224774Y-62563102D01*
X108185000Y-62763061D01*
X108185000Y-62966939D01*
X108224774Y-63166898D01*
X108302795Y-63355256D01*
X108416063Y-63524774D01*
X108560226Y-63668937D01*
X108729744Y-63782205D01*
X108857201Y-63835000D01*
X107995932Y-63835000D01*
X107950000Y-63830476D01*
X107904068Y-63835000D01*
X107766708Y-63848529D01*
X107590460Y-63901993D01*
X107428028Y-63988814D01*
X107285656Y-64105656D01*
X107256370Y-64141341D01*
X105416341Y-65981370D01*
X105380656Y-66010656D01*
X105263814Y-66153029D01*
X105176993Y-66315461D01*
X105153534Y-66392795D01*
X105123529Y-66491709D01*
X105105476Y-66675000D01*
X105110000Y-66720932D01*
X105110001Y-68132703D01*
X105049774Y-68278102D01*
X105010000Y-68478061D01*
X105010000Y-68681939D01*
X105049774Y-68881898D01*
X105127795Y-69070256D01*
X105241063Y-69239774D01*
X105385226Y-69383937D01*
X105554744Y-69497205D01*
X105743102Y-69575226D01*
X105943061Y-69615000D01*
X106146939Y-69615000D01*
X106346898Y-69575226D01*
X106535256Y-69497205D01*
X106704774Y-69383937D01*
X106848937Y-69239774D01*
X106962205Y-69070256D01*
X107040226Y-68881898D01*
X107080000Y-68681939D01*
X107080000Y-68478061D01*
X107040226Y-68278102D01*
X106980000Y-68132705D01*
X106980000Y-67062289D01*
X108337289Y-65705000D01*
X110752711Y-65705000D01*
X112702569Y-67654859D01*
X112762795Y-67800256D01*
X112876063Y-67969774D01*
X113020226Y-68113937D01*
X113189744Y-68227205D01*
X113378102Y-68305226D01*
X113479753Y-68325446D01*
X113350199Y-68455000D01*
X109288711Y-68455000D01*
X109244774Y-68411063D01*
X109075256Y-68297795D01*
X108886898Y-68219774D01*
X108686939Y-68180000D01*
X108483061Y-68180000D01*
X108283102Y-68219774D01*
X108094744Y-68297795D01*
X107925226Y-68411063D01*
X107781063Y-68555226D01*
X107667795Y-68724744D01*
X107589774Y-68913102D01*
X107550000Y-69113061D01*
X107550000Y-69316939D01*
X107589774Y-69516898D01*
X107667795Y-69705256D01*
X107781063Y-69874774D01*
X107925226Y-70018937D01*
X108094744Y-70132205D01*
X108283102Y-70210226D01*
X108483061Y-70250000D01*
X108686939Y-70250000D01*
X108886898Y-70210226D01*
X109075256Y-70132205D01*
X109244774Y-70018937D01*
X109288711Y-69975000D01*
X113627678Y-69975000D01*
X113665000Y-69978676D01*
X113702322Y-69975000D01*
X113702333Y-69975000D01*
X113813986Y-69964003D01*
X113957247Y-69920546D01*
X114089276Y-69849974D01*
X114205001Y-69755001D01*
X114228804Y-69725997D01*
X114607108Y-69347694D01*
X114582616Y-69441108D01*
X114563282Y-69762595D01*
X114607039Y-70081675D01*
X114712205Y-70386088D01*
X114805186Y-70560044D01*
X115069587Y-70655808D01*
X116025395Y-69700000D01*
X116384605Y-69700000D01*
X117340413Y-70655808D01*
X117604814Y-70560044D01*
X117745704Y-70270429D01*
X117827384Y-69958892D01*
X117846718Y-69637405D01*
X117833219Y-69538967D01*
X119070000Y-69538967D01*
X119070000Y-69861033D01*
X119132832Y-70176912D01*
X119256082Y-70474463D01*
X119435013Y-70742252D01*
X119662748Y-70969987D01*
X119930537Y-71148918D01*
X120228088Y-71272168D01*
X120543967Y-71335000D01*
X120866033Y-71335000D01*
X121181912Y-71272168D01*
X121479463Y-71148918D01*
X121747252Y-70969987D01*
X121974987Y-70742252D01*
X122153918Y-70474463D01*
X122277168Y-70176912D01*
X122340000Y-69861033D01*
X122340000Y-69538967D01*
X122277168Y-69223088D01*
X122153918Y-68925537D01*
X121974987Y-68657748D01*
X121747252Y-68430013D01*
X121479463Y-68251082D01*
X121181912Y-68127832D01*
X120866033Y-68065000D01*
X120543967Y-68065000D01*
X120228088Y-68127832D01*
X119930537Y-68251082D01*
X119662748Y-68430013D01*
X119435013Y-68657748D01*
X119256082Y-68925537D01*
X119132832Y-69223088D01*
X119070000Y-69538967D01*
X117833219Y-69538967D01*
X117802961Y-69318325D01*
X117697795Y-69013912D01*
X117604814Y-68839956D01*
X117340413Y-68744192D01*
X116384605Y-69700000D01*
X116025395Y-69700000D01*
X116011253Y-69685858D01*
X116190858Y-69506253D01*
X116205000Y-69520395D01*
X117160808Y-68564587D01*
X117065044Y-68300186D01*
X116775429Y-68159296D01*
X116463892Y-68077616D01*
X116142405Y-68058282D01*
X115823325Y-68102039D01*
X115664965Y-68156748D01*
X115684003Y-68093986D01*
X115695000Y-67982333D01*
X115695000Y-67982324D01*
X115698676Y-67945001D01*
X115695000Y-67907678D01*
X115695000Y-60393711D01*
X115701034Y-60387677D01*
X115715757Y-60395546D01*
X115859018Y-60439003D01*
X115970671Y-60450000D01*
X115970679Y-60450000D01*
X116008004Y-60453676D01*
X116045329Y-60450000D01*
X123063897Y-60450000D01*
X123032068Y-60526842D01*
X122975000Y-60813740D01*
X122975000Y-61106260D01*
X123032068Y-61393158D01*
X123144010Y-61663411D01*
X123306525Y-61906632D01*
X123513368Y-62113475D01*
X123687760Y-62230000D01*
X123513368Y-62346525D01*
X123306525Y-62553368D01*
X123144010Y-62796589D01*
X123032068Y-63066842D01*
X122975000Y-63353740D01*
X122975000Y-63646260D01*
X123032068Y-63933158D01*
X123144010Y-64203411D01*
X123306525Y-64446632D01*
X123513368Y-64653475D01*
X123687760Y-64770000D01*
X123513368Y-64886525D01*
X123306525Y-65093368D01*
X123144010Y-65336589D01*
X123032068Y-65606842D01*
X122975000Y-65893740D01*
X122975000Y-66186260D01*
X123032068Y-66473158D01*
X123144010Y-66743411D01*
X123306525Y-66986632D01*
X123513368Y-67193475D01*
X123687760Y-67310000D01*
X123513368Y-67426525D01*
X123306525Y-67633368D01*
X123144010Y-67876589D01*
X123032068Y-68146842D01*
X122975000Y-68433740D01*
X122975000Y-68726260D01*
X123032068Y-69013158D01*
X123144010Y-69283411D01*
X123306525Y-69526632D01*
X123513368Y-69733475D01*
X123687760Y-69850000D01*
X123513368Y-69966525D01*
X123306525Y-70173368D01*
X123144010Y-70416589D01*
X123032068Y-70686842D01*
X122975000Y-70973740D01*
X122975000Y-71266260D01*
X123032068Y-71553158D01*
X123144010Y-71823411D01*
X123306525Y-72066632D01*
X123513368Y-72273475D01*
X123687760Y-72390000D01*
X123513368Y-72506525D01*
X123306525Y-72713368D01*
X123144010Y-72956589D01*
X123032068Y-73226842D01*
X122975000Y-73513740D01*
X122975000Y-73806260D01*
X123032068Y-74093158D01*
X123144010Y-74363411D01*
X123306525Y-74606632D01*
X123513368Y-74813475D01*
X123687760Y-74930000D01*
X123513368Y-75046525D01*
X123306525Y-75253368D01*
X123144010Y-75496589D01*
X123032068Y-75766842D01*
X122975000Y-76053740D01*
X122975000Y-76346260D01*
X123032068Y-76633158D01*
X123144010Y-76903411D01*
X123306525Y-77146632D01*
X123513368Y-77353475D01*
X123756589Y-77515990D01*
X124026842Y-77627932D01*
X124313740Y-77685000D01*
X124606260Y-77685000D01*
X124893158Y-77627932D01*
X125163411Y-77515990D01*
X125406632Y-77353475D01*
X125613475Y-77146632D01*
X125775990Y-76903411D01*
X125887932Y-76633158D01*
X125945000Y-76346260D01*
X125945000Y-76053740D01*
X125887932Y-75766842D01*
X125775990Y-75496589D01*
X125613475Y-75253368D01*
X125406632Y-75046525D01*
X125232240Y-74930000D01*
X125406632Y-74813475D01*
X125613475Y-74606632D01*
X125775990Y-74363411D01*
X125887932Y-74093158D01*
X125945000Y-73806260D01*
X125945000Y-73513740D01*
X125887932Y-73226842D01*
X125775990Y-72956589D01*
X125613475Y-72713368D01*
X125406632Y-72506525D01*
X125232240Y-72390000D01*
X125406632Y-72273475D01*
X125613475Y-72066632D01*
X125775990Y-71823411D01*
X125887932Y-71553158D01*
X125945000Y-71266260D01*
X125945000Y-70973740D01*
X125887932Y-70686842D01*
X125775990Y-70416589D01*
X125613475Y-70173368D01*
X125406632Y-69966525D01*
X125232240Y-69850000D01*
X125406632Y-69733475D01*
X125613475Y-69526632D01*
X125775990Y-69283411D01*
X125887932Y-69013158D01*
X125945000Y-68726260D01*
X125945000Y-68433740D01*
X125887932Y-68146842D01*
X125775990Y-67876589D01*
X125613475Y-67633368D01*
X125406632Y-67426525D01*
X125232240Y-67310000D01*
X125406632Y-67193475D01*
X125613475Y-66986632D01*
X125775990Y-66743411D01*
X125887932Y-66473158D01*
X125945000Y-66186260D01*
X125945000Y-65893740D01*
X125887932Y-65606842D01*
X125775990Y-65336589D01*
X125613475Y-65093368D01*
X125406632Y-64886525D01*
X125232240Y-64770000D01*
X125406632Y-64653475D01*
X125613475Y-64446632D01*
X125775990Y-64203411D01*
X125887932Y-63933158D01*
X125945000Y-63646260D01*
X125945000Y-63353740D01*
X125887932Y-63066842D01*
X125775990Y-62796589D01*
X125613475Y-62553368D01*
X125406632Y-62346525D01*
X125232240Y-62230000D01*
X125406632Y-62113475D01*
X125613475Y-61906632D01*
X125775990Y-61663411D01*
X125887932Y-61393158D01*
X125945000Y-61106260D01*
X125945000Y-60813740D01*
X125923717Y-60706744D01*
X126031898Y-60685226D01*
X126220256Y-60607205D01*
X126340001Y-60527194D01*
X126340001Y-78080000D01*
X114129802Y-78080000D01*
X114176003Y-78033799D01*
X114205001Y-78010001D01*
X114299974Y-77894276D01*
X114370546Y-77762247D01*
X114414003Y-77618986D01*
X114425000Y-77507333D01*
X114428677Y-77470000D01*
X114425000Y-77432667D01*
X114425000Y-77335413D01*
X115249192Y-77335413D01*
X115344956Y-77599814D01*
X115634571Y-77740704D01*
X115946108Y-77822384D01*
X116267595Y-77841718D01*
X116586675Y-77797961D01*
X116891088Y-77692795D01*
X117065044Y-77599814D01*
X117160808Y-77335413D01*
X116205000Y-76379605D01*
X115249192Y-77335413D01*
X114425000Y-77335413D01*
X114425000Y-75244801D01*
X114614802Y-75055000D01*
X115027442Y-75055000D01*
X114953917Y-75128525D01*
X115069585Y-75244193D01*
X114805186Y-75339956D01*
X114664296Y-75629571D01*
X114582616Y-75941108D01*
X114563282Y-76262595D01*
X114607039Y-76581675D01*
X114712205Y-76886088D01*
X114805186Y-77060044D01*
X115069587Y-77155808D01*
X116025395Y-76200000D01*
X116011253Y-76185858D01*
X116190858Y-76006253D01*
X116205000Y-76020395D01*
X116219143Y-76006253D01*
X116398748Y-76185858D01*
X116384605Y-76200000D01*
X117340413Y-77155808D01*
X117604814Y-77060044D01*
X117745704Y-76770429D01*
X117827384Y-76458892D01*
X117846718Y-76137405D01*
X117833219Y-76038967D01*
X119070000Y-76038967D01*
X119070000Y-76361033D01*
X119132832Y-76676912D01*
X119256082Y-76974463D01*
X119435013Y-77242252D01*
X119662748Y-77469987D01*
X119930537Y-77648918D01*
X120228088Y-77772168D01*
X120543967Y-77835000D01*
X120866033Y-77835000D01*
X121181912Y-77772168D01*
X121479463Y-77648918D01*
X121747252Y-77469987D01*
X121974987Y-77242252D01*
X122153918Y-76974463D01*
X122277168Y-76676912D01*
X122340000Y-76361033D01*
X122340000Y-76038967D01*
X122277168Y-75723088D01*
X122153918Y-75425537D01*
X121974987Y-75157748D01*
X121747252Y-74930013D01*
X121479463Y-74751082D01*
X121181912Y-74627832D01*
X120866033Y-74565000D01*
X120543967Y-74565000D01*
X120228088Y-74627832D01*
X119930537Y-74751082D01*
X119662748Y-74930013D01*
X119435013Y-75157748D01*
X119256082Y-75425537D01*
X119132832Y-75723088D01*
X119070000Y-76038967D01*
X117833219Y-76038967D01*
X117802961Y-75818325D01*
X117697795Y-75513912D01*
X117604814Y-75339956D01*
X117577189Y-75329950D01*
X117776898Y-75290226D01*
X117965256Y-75212205D01*
X118134774Y-75098937D01*
X118278937Y-74954774D01*
X118392205Y-74785256D01*
X118470226Y-74596898D01*
X118510000Y-74396939D01*
X118510000Y-74193061D01*
X118470226Y-73993102D01*
X118392205Y-73804744D01*
X118278937Y-73635226D01*
X118134774Y-73491063D01*
X117965256Y-73377795D01*
X117776898Y-73299774D01*
X117576939Y-73260000D01*
X117373061Y-73260000D01*
X117173102Y-73299774D01*
X116984744Y-73377795D01*
X116815226Y-73491063D01*
X116771289Y-73535000D01*
X114337333Y-73535000D01*
X114300000Y-73531323D01*
X114262667Y-73535000D01*
X114151014Y-73545997D01*
X114007753Y-73589454D01*
X113875724Y-73660026D01*
X113759999Y-73754999D01*
X113736200Y-73783998D01*
X113154002Y-74366197D01*
X113124999Y-74389999D01*
X113069871Y-74457174D01*
X113030026Y-74505724D01*
X113001933Y-74558282D01*
X112959454Y-74637754D01*
X112915997Y-74781015D01*
X112905000Y-74892668D01*
X112905000Y-74892678D01*
X112901324Y-74930000D01*
X112905000Y-74967323D01*
X112905001Y-77155197D01*
X112715199Y-77345000D01*
X110250413Y-77345000D01*
X110215226Y-77168102D01*
X110137205Y-76979744D01*
X110023937Y-76810226D01*
X109879774Y-76666063D01*
X109710256Y-76552795D01*
X109521898Y-76474774D01*
X109321939Y-76435000D01*
X109118061Y-76435000D01*
X108918102Y-76474774D01*
X108729744Y-76552795D01*
X108585000Y-76649510D01*
X108440256Y-76552795D01*
X108251898Y-76474774D01*
X108051939Y-76435000D01*
X107989802Y-76435000D01*
X106912873Y-75358072D01*
X107105000Y-75358072D01*
X107229482Y-75345812D01*
X107349180Y-75309502D01*
X107459494Y-75250537D01*
X107469831Y-75242053D01*
X107622588Y-75308560D01*
X107826616Y-75352959D01*
X108035384Y-75356702D01*
X108240870Y-75319644D01*
X108435179Y-75243210D01*
X108468856Y-75225210D01*
X108488534Y-75068984D01*
X108557079Y-75137529D01*
X108585000Y-75109608D01*
X108612921Y-75137529D01*
X108681466Y-75068984D01*
X108701144Y-75225210D01*
X108892588Y-75308560D01*
X109096616Y-75352959D01*
X109305384Y-75356702D01*
X109510870Y-75319644D01*
X109705179Y-75243210D01*
X109738856Y-75225210D01*
X109759248Y-75063315D01*
X109814289Y-75118356D01*
X109987902Y-75234360D01*
X110180809Y-75314265D01*
X110385599Y-75355000D01*
X110594401Y-75355000D01*
X110799191Y-75314265D01*
X110992098Y-75234360D01*
X111165711Y-75118356D01*
X111220752Y-75063315D01*
X111241144Y-75225210D01*
X111432588Y-75308560D01*
X111636616Y-75352959D01*
X111845384Y-75356702D01*
X112050870Y-75319644D01*
X112245179Y-75243210D01*
X112278856Y-75225210D01*
X112304781Y-75019386D01*
X111760000Y-74474605D01*
X111745858Y-74488748D01*
X111566253Y-74309143D01*
X111580395Y-74295000D01*
X111566253Y-74280858D01*
X111745858Y-74101253D01*
X111760000Y-74115395D01*
X111774143Y-74101253D01*
X111953748Y-74280858D01*
X111939605Y-74295000D01*
X112484386Y-74839781D01*
X112690210Y-74813856D01*
X112773560Y-74622412D01*
X112817959Y-74418384D01*
X112821702Y-74209616D01*
X112784644Y-74004130D01*
X112708210Y-73809821D01*
X112690210Y-73776144D01*
X112528315Y-73755752D01*
X112583356Y-73700711D01*
X112699360Y-73527098D01*
X112779265Y-73334191D01*
X112820000Y-73129401D01*
X112820000Y-72920599D01*
X112779265Y-72715809D01*
X112699360Y-72522902D01*
X112583356Y-72349289D01*
X112435711Y-72201644D01*
X112262098Y-72085640D01*
X112069191Y-72005735D01*
X111864401Y-71965000D01*
X111655599Y-71965000D01*
X111450809Y-72005735D01*
X111257902Y-72085640D01*
X111125000Y-72174442D01*
X110992098Y-72085640D01*
X110799191Y-72005735D01*
X110594401Y-71965000D01*
X110385599Y-71965000D01*
X110180809Y-72005735D01*
X109987902Y-72085640D01*
X109855000Y-72174442D01*
X109722098Y-72085640D01*
X109529191Y-72005735D01*
X109324401Y-71965000D01*
X109115599Y-71965000D01*
X108910809Y-72005735D01*
X108717902Y-72085640D01*
X108585000Y-72174442D01*
X108452098Y-72085640D01*
X108259191Y-72005735D01*
X108054401Y-71965000D01*
X107964801Y-71965000D01*
X107763803Y-71764002D01*
X107740000Y-71734998D01*
X107624275Y-71640025D01*
X107492246Y-71569453D01*
X107348985Y-71525996D01*
X107237332Y-71514999D01*
X107237321Y-71514999D01*
X107199999Y-71511323D01*
X107162677Y-71514999D01*
X106357321Y-71514999D01*
X106319998Y-71511323D01*
X106282675Y-71514999D01*
X106282666Y-71514999D01*
X106171013Y-71525996D01*
X106027752Y-71569453D01*
X105895723Y-71640025D01*
X105779998Y-71734998D01*
X105756195Y-71764002D01*
X105418997Y-72101200D01*
X105389999Y-72124998D01*
X105366201Y-72153996D01*
X105366200Y-72153997D01*
X105295025Y-72240723D01*
X105224453Y-72372753D01*
X105205271Y-72435990D01*
X105180997Y-72516013D01*
X105177853Y-72547932D01*
X105166323Y-72664999D01*
X105170000Y-72702331D01*
X105169999Y-75412676D01*
X105166323Y-75449999D01*
X105169999Y-75487321D01*
X105169999Y-75487331D01*
X105180996Y-75598984D01*
X105204974Y-75678029D01*
X105224453Y-75742245D01*
X105295025Y-75874275D01*
X105322500Y-75907753D01*
X105389998Y-75990000D01*
X105419002Y-76013803D01*
X106915000Y-77509802D01*
X106915000Y-77571939D01*
X106954774Y-77771898D01*
X107032795Y-77960256D01*
X107112805Y-78080000D01*
X99255346Y-78080000D01*
X99293007Y-78009540D01*
X99346471Y-77833292D01*
X99352518Y-77771898D01*
X99361614Y-77679542D01*
X99399482Y-77675812D01*
X99519180Y-77639502D01*
X99629494Y-77580537D01*
X99726185Y-77501185D01*
X99805537Y-77404494D01*
X99864502Y-77294180D01*
X99888966Y-77213534D01*
X99964731Y-77297588D01*
X100198080Y-77471641D01*
X100460901Y-77596825D01*
X100608110Y-77641476D01*
X100838000Y-77520155D01*
X100838000Y-76327000D01*
X101092000Y-76327000D01*
X101092000Y-77520155D01*
X101321890Y-77641476D01*
X101469099Y-77596825D01*
X101731920Y-77471641D01*
X101965269Y-77297588D01*
X102160178Y-77081355D01*
X102309157Y-76831252D01*
X102406481Y-76556891D01*
X102285814Y-76327000D01*
X101092000Y-76327000D01*
X100838000Y-76327000D01*
X100818000Y-76327000D01*
X100818000Y-76073000D01*
X100838000Y-76073000D01*
X100838000Y-74879845D01*
X101092000Y-74879845D01*
X101092000Y-76073000D01*
X102285814Y-76073000D01*
X102406481Y-75843109D01*
X102309157Y-75568748D01*
X102160178Y-75318645D01*
X101965269Y-75102412D01*
X101731920Y-74928359D01*
X101469099Y-74803175D01*
X101321890Y-74758524D01*
X101092000Y-74879845D01*
X100838000Y-74879845D01*
X100608110Y-74758524D01*
X100460901Y-74803175D01*
X100198080Y-74928359D01*
X99964731Y-75102412D01*
X99888966Y-75186466D01*
X99864502Y-75105820D01*
X99805537Y-74995506D01*
X99726185Y-74898815D01*
X99629494Y-74819463D01*
X99519180Y-74760498D01*
X99399482Y-74724188D01*
X99275000Y-74711928D01*
X97575000Y-74711928D01*
X97450518Y-74724188D01*
X97330820Y-74760498D01*
X97220506Y-74819463D01*
X97123815Y-74898815D01*
X97044463Y-74995506D01*
X96985498Y-75105820D01*
X96949188Y-75225518D01*
X96936928Y-75350000D01*
X96936928Y-77050000D01*
X96948747Y-77170000D01*
X95110107Y-77170000D01*
X95133475Y-77146632D01*
X95295990Y-76903411D01*
X95407932Y-76633158D01*
X95465000Y-76346260D01*
X95465000Y-76053740D01*
X95407932Y-75766842D01*
X95295990Y-75496589D01*
X95133475Y-75253368D01*
X94926632Y-75046525D01*
X94752240Y-74930000D01*
X94926632Y-74813475D01*
X95133475Y-74606632D01*
X95295990Y-74363411D01*
X95407932Y-74093158D01*
X95465000Y-73806260D01*
X95465000Y-73513740D01*
X95407932Y-73226842D01*
X95295990Y-72956589D01*
X95133475Y-72713368D01*
X94926632Y-72506525D01*
X94752240Y-72390000D01*
X94926632Y-72273475D01*
X95133475Y-72066632D01*
X95295990Y-71823411D01*
X95407932Y-71553158D01*
X95465000Y-71266260D01*
X95465000Y-70973740D01*
X95437485Y-70835413D01*
X115249192Y-70835413D01*
X115344956Y-71099814D01*
X115634571Y-71240704D01*
X115946108Y-71322384D01*
X116267595Y-71341718D01*
X116586675Y-71297961D01*
X116891088Y-71192795D01*
X117065044Y-71099814D01*
X117160808Y-70835413D01*
X116205000Y-69879605D01*
X115249192Y-70835413D01*
X95437485Y-70835413D01*
X95407932Y-70686842D01*
X95295990Y-70416589D01*
X95133475Y-70173368D01*
X94926632Y-69966525D01*
X94752240Y-69850000D01*
X94926632Y-69733475D01*
X95133475Y-69526632D01*
X95295990Y-69283411D01*
X95407932Y-69013158D01*
X95465000Y-68726260D01*
X95465000Y-68433740D01*
X95407932Y-68146842D01*
X95295990Y-67876589D01*
X95133475Y-67633368D01*
X94926632Y-67426525D01*
X94752240Y-67310000D01*
X94926632Y-67193475D01*
X95133475Y-66986632D01*
X95295990Y-66743411D01*
X95407932Y-66473158D01*
X95465000Y-66186260D01*
X95465000Y-65893740D01*
X95407932Y-65606842D01*
X95295990Y-65336589D01*
X95133475Y-65093368D01*
X94926632Y-64886525D01*
X94752240Y-64770000D01*
X94926632Y-64653475D01*
X95133475Y-64446632D01*
X95295990Y-64203411D01*
X95407932Y-63933158D01*
X95465000Y-63646260D01*
X95465000Y-63353740D01*
X95407932Y-63066842D01*
X95295990Y-62796589D01*
X95133475Y-62553368D01*
X94926632Y-62346525D01*
X94752240Y-62230000D01*
X94926632Y-62113475D01*
X95133475Y-61906632D01*
X95295990Y-61663411D01*
X95407932Y-61393158D01*
X95465000Y-61106260D01*
X95465000Y-60813740D01*
X95407932Y-60526842D01*
X95295990Y-60256589D01*
X95133475Y-60013368D01*
X94926632Y-59806525D01*
X94752240Y-59690000D01*
X94926632Y-59573475D01*
X95133475Y-59366632D01*
X95295990Y-59123411D01*
X95407932Y-58853158D01*
X95465000Y-58566260D01*
X95465000Y-58273740D01*
X95407932Y-57986842D01*
X95295990Y-57716589D01*
X95133475Y-57473368D01*
X94926632Y-57266525D01*
X94752240Y-57150000D01*
X94926632Y-57033475D01*
X95133475Y-56826632D01*
X95295990Y-56583411D01*
X95407932Y-56313158D01*
X95465000Y-56026260D01*
X95465000Y-55733740D01*
X95407932Y-55446842D01*
X95295990Y-55176589D01*
X95133475Y-54933368D01*
X94926632Y-54726525D01*
X94752240Y-54610000D01*
X94926632Y-54493475D01*
X95133475Y-54286632D01*
X95295990Y-54043411D01*
X95407932Y-53773158D01*
X95465000Y-53486260D01*
X95465000Y-53238061D01*
X99295000Y-53238061D01*
X99295000Y-53441939D01*
X99334774Y-53641898D01*
X99412795Y-53830256D01*
X99526063Y-53999774D01*
X99670226Y-54143937D01*
X99839744Y-54257205D01*
X100028102Y-54335226D01*
X100228061Y-54375000D01*
X100290198Y-54375000D01*
X100401200Y-54486002D01*
X100424999Y-54515001D01*
X100453997Y-54538799D01*
X100540724Y-54609974D01*
X100672753Y-54680546D01*
X100816014Y-54724003D01*
X100965000Y-54738677D01*
X101002333Y-54735000D01*
X102832678Y-54735000D01*
X102870000Y-54738676D01*
X102907322Y-54735000D01*
X102907333Y-54735000D01*
X103018986Y-54724003D01*
X103162247Y-54680546D01*
X103294276Y-54609974D01*
X103410001Y-54515001D01*
X103433803Y-54485998D01*
X104016002Y-53903800D01*
X104045001Y-53880001D01*
X104139974Y-53764276D01*
X104210546Y-53632247D01*
X104254003Y-53488986D01*
X104261572Y-53412139D01*
X104308937Y-53364774D01*
X104422205Y-53195256D01*
X104500226Y-53006898D01*
X104540000Y-52806939D01*
X104540000Y-52603061D01*
X104500226Y-52403102D01*
X104422205Y-52214744D01*
X104308937Y-52045226D01*
X104164774Y-51901063D01*
X103995256Y-51787795D01*
X103806898Y-51709774D01*
X103606939Y-51670000D01*
X103403061Y-51670000D01*
X103203102Y-51709774D01*
X103014744Y-51787795D01*
X102845226Y-51901063D01*
X102701063Y-52045226D01*
X102587795Y-52214744D01*
X102509774Y-52403102D01*
X102470000Y-52603061D01*
X102470000Y-52806939D01*
X102509774Y-53006898D01*
X102584031Y-53186168D01*
X102555199Y-53215000D01*
X101360413Y-53215000D01*
X101325226Y-53038102D01*
X101247205Y-52849744D01*
X101133937Y-52680226D01*
X100989774Y-52536063D01*
X100820256Y-52422795D01*
X100631898Y-52344774D01*
X100431939Y-52305000D01*
X100228061Y-52305000D01*
X100028102Y-52344774D01*
X99839744Y-52422795D01*
X99670226Y-52536063D01*
X99526063Y-52680226D01*
X99412795Y-52849744D01*
X99334774Y-53038102D01*
X99295000Y-53238061D01*
X95465000Y-53238061D01*
X95465000Y-53193740D01*
X95407932Y-52906842D01*
X95295990Y-52636589D01*
X95133475Y-52393368D01*
X94926632Y-52186525D01*
X94752240Y-52070000D01*
X94926632Y-51953475D01*
X95133475Y-51746632D01*
X95295990Y-51503411D01*
X95407932Y-51233158D01*
X95465000Y-50946260D01*
X95465000Y-50653740D01*
X95407932Y-50366842D01*
X95295990Y-50096589D01*
X95133475Y-49853368D01*
X94926632Y-49646525D01*
X94752240Y-49530000D01*
X94926632Y-49413475D01*
X95133475Y-49206632D01*
X95295990Y-48963411D01*
X95407932Y-48693158D01*
X95465000Y-48406260D01*
X95465000Y-48113740D01*
X95407932Y-47826842D01*
X95295990Y-47556589D01*
X95133475Y-47313368D01*
X94926632Y-47106525D01*
X94752240Y-46990000D01*
X94926632Y-46873475D01*
X95133475Y-46666632D01*
X95295990Y-46423411D01*
X95407932Y-46153158D01*
X95465000Y-45866260D01*
X95465000Y-45573740D01*
X95407932Y-45286842D01*
X95295990Y-45016589D01*
X95133475Y-44773368D01*
X94926632Y-44566525D01*
X94752240Y-44450000D01*
X94904802Y-44348061D01*
X107590011Y-44348061D01*
X107590011Y-44551939D01*
X107629785Y-44751898D01*
X107707806Y-44940256D01*
X107821074Y-45109774D01*
X107965237Y-45253937D01*
X108134755Y-45367205D01*
X108323113Y-45445226D01*
X108523072Y-45485000D01*
X108585209Y-45485000D01*
X108696211Y-45596002D01*
X108720010Y-45625001D01*
X108749008Y-45648799D01*
X108835735Y-45719974D01*
X108967764Y-45790546D01*
X109111025Y-45834003D01*
X109260011Y-45848677D01*
X109297344Y-45845000D01*
X117406289Y-45845000D01*
X117450226Y-45888937D01*
X117619744Y-46002205D01*
X117808102Y-46080226D01*
X118008061Y-46120000D01*
X118211939Y-46120000D01*
X118411898Y-46080226D01*
X118600256Y-46002205D01*
X118769774Y-45888937D01*
X118913937Y-45744774D01*
X119027205Y-45575256D01*
X119105226Y-45386898D01*
X119145000Y-45186939D01*
X119145000Y-44983061D01*
X119105226Y-44783102D01*
X119027205Y-44594744D01*
X118913937Y-44425226D01*
X118769774Y-44281063D01*
X118600256Y-44167795D01*
X118411898Y-44089774D01*
X118211939Y-44050000D01*
X118008061Y-44050000D01*
X117808102Y-44089774D01*
X117619744Y-44167795D01*
X117450226Y-44281063D01*
X117406289Y-44325000D01*
X115204013Y-44325000D01*
X115217205Y-44305256D01*
X115295226Y-44116898D01*
X115335000Y-43916939D01*
X115335000Y-43713061D01*
X115295226Y-43513102D01*
X115217205Y-43324744D01*
X115103937Y-43155226D01*
X114959774Y-43011063D01*
X114790256Y-42897795D01*
X114601898Y-42819774D01*
X114401939Y-42780000D01*
X114198061Y-42780000D01*
X113998102Y-42819774D01*
X113809744Y-42897795D01*
X113640226Y-43011063D01*
X113596289Y-43055000D01*
X110558711Y-43055000D01*
X110514774Y-43011063D01*
X110345256Y-42897795D01*
X110156898Y-42819774D01*
X109956939Y-42780000D01*
X109753061Y-42780000D01*
X109553102Y-42819774D01*
X109364744Y-42897795D01*
X109195226Y-43011063D01*
X109051063Y-43155226D01*
X108937795Y-43324744D01*
X108887206Y-43446877D01*
X108726950Y-43415000D01*
X108523072Y-43415000D01*
X108323113Y-43454774D01*
X108134755Y-43532795D01*
X107965237Y-43646063D01*
X107821074Y-43790226D01*
X107707806Y-43959744D01*
X107629785Y-44148102D01*
X107590011Y-44348061D01*
X94904802Y-44348061D01*
X94926632Y-44333475D01*
X95133475Y-44126632D01*
X95295990Y-43883411D01*
X95407932Y-43613158D01*
X95465000Y-43326260D01*
X95465000Y-43033740D01*
X95407932Y-42746842D01*
X95295990Y-42476589D01*
X95133475Y-42233368D01*
X94926632Y-42026525D01*
X94752240Y-41910000D01*
X94926632Y-41793475D01*
X95133475Y-41586632D01*
X95295990Y-41343411D01*
X95407932Y-41073158D01*
X95465000Y-40786260D01*
X95465000Y-40493740D01*
X95407932Y-40206842D01*
X95295990Y-39936589D01*
X95133475Y-39693368D01*
X95001620Y-39561513D01*
X95074180Y-39539502D01*
X95184494Y-39480537D01*
X95281185Y-39401185D01*
X95360537Y-39304494D01*
X95419502Y-39194180D01*
X95455812Y-39074482D01*
X95468072Y-38950000D01*
X95468072Y-37250000D01*
X95456253Y-37130000D01*
X97402711Y-37130000D01*
X100277087Y-40004376D01*
X100183814Y-40118029D01*
X100096993Y-40280461D01*
X100071488Y-40364540D01*
X100043529Y-40456709D01*
X100025476Y-40640000D01*
X100030000Y-40685933D01*
X100030001Y-41864059D01*
X100025476Y-41910000D01*
X100043529Y-42093291D01*
X100073414Y-42191807D01*
X100096994Y-42269540D01*
X100183815Y-42431972D01*
X100300657Y-42574344D01*
X100336336Y-42603625D01*
X100906370Y-43173659D01*
X100935656Y-43209344D01*
X101078028Y-43326186D01*
X101183880Y-43382765D01*
X101240459Y-43413007D01*
X101416708Y-43466472D01*
X101600000Y-43484524D01*
X101645935Y-43480000D01*
X105909058Y-43480000D01*
X105954990Y-43484524D01*
X106000922Y-43480000D01*
X106138282Y-43466471D01*
X106314530Y-43413007D01*
X106476962Y-43326186D01*
X106619334Y-43209344D01*
X106648620Y-43173659D01*
X107175014Y-42647266D01*
X107277450Y-42604835D01*
X108144233Y-42604835D01*
X108190165Y-42609359D01*
X108236097Y-42604835D01*
X108373457Y-42591306D01*
X108549705Y-42537842D01*
X108712137Y-42451021D01*
X108854509Y-42334179D01*
X108883795Y-42298494D01*
X110199859Y-40982431D01*
X110345256Y-40922205D01*
X110514774Y-40808937D01*
X110658937Y-40664774D01*
X110772205Y-40495256D01*
X110850226Y-40306898D01*
X110890000Y-40106939D01*
X110890000Y-39903061D01*
X110850226Y-39703102D01*
X110772205Y-39514744D01*
X110658937Y-39345226D01*
X110514774Y-39201063D01*
X110345256Y-39087795D01*
X110156898Y-39009774D01*
X109956939Y-38970000D01*
X109753061Y-38970000D01*
X109553102Y-39009774D01*
X109364744Y-39087795D01*
X109195226Y-39201063D01*
X109051063Y-39345226D01*
X108937795Y-39514744D01*
X108877569Y-39660141D01*
X107802876Y-40734835D01*
X107277450Y-40734835D01*
X107132053Y-40674609D01*
X106932094Y-40634835D01*
X106728216Y-40634835D01*
X106528257Y-40674609D01*
X106339899Y-40752630D01*
X106170381Y-40865898D01*
X106026218Y-41010061D01*
X105912950Y-41179579D01*
X105852724Y-41324976D01*
X105567701Y-41610000D01*
X101987289Y-41610000D01*
X101900000Y-41522711D01*
X101900000Y-41027289D01*
X101944858Y-40982431D01*
X102090256Y-40922205D01*
X102259774Y-40808937D01*
X102403937Y-40664774D01*
X102517205Y-40495256D01*
X102595226Y-40306898D01*
X102635000Y-40106939D01*
X102635000Y-39903061D01*
X102595226Y-39703102D01*
X102517205Y-39514744D01*
X102403937Y-39345226D01*
X102259774Y-39201063D01*
X102090256Y-39087795D01*
X101944858Y-39027569D01*
X99137289Y-36220000D01*
X126340000Y-36220000D01*
X126340001Y-58852806D01*
G36*
X108143748Y-74280858D02*
G01*
X108129605Y-74295000D01*
X108143748Y-74309143D01*
X107964143Y-74488748D01*
X107950000Y-74474605D01*
X107935858Y-74488748D01*
X107756253Y-74309143D01*
X107770395Y-74295000D01*
X107756253Y-74280858D01*
X107935858Y-74101253D01*
X107950000Y-74115395D01*
X107964143Y-74101253D01*
X108143748Y-74280858D01*
G37*
X108143748Y-74280858D02*
X108129605Y-74295000D01*
X108143748Y-74309143D01*
X107964143Y-74488748D01*
X107950000Y-74474605D01*
X107935858Y-74488748D01*
X107756253Y-74309143D01*
X107770395Y-74295000D01*
X107756253Y-74280858D01*
X107935858Y-74101253D01*
X107950000Y-74115395D01*
X107964143Y-74101253D01*
X108143748Y-74280858D01*
G36*
X109413748Y-74280858D02*
G01*
X109399605Y-74295000D01*
X109413748Y-74309143D01*
X109234143Y-74488748D01*
X109220000Y-74474605D01*
X109205858Y-74488748D01*
X109026253Y-74309143D01*
X109040395Y-74295000D01*
X109026253Y-74280858D01*
X109205858Y-74101253D01*
X109220000Y-74115395D01*
X109234143Y-74101253D01*
X109413748Y-74280858D01*
G37*
X109413748Y-74280858D02*
X109399605Y-74295000D01*
X109413748Y-74309143D01*
X109234143Y-74488748D01*
X109220000Y-74474605D01*
X109205858Y-74488748D01*
X109026253Y-74309143D01*
X109040395Y-74295000D01*
X109026253Y-74280858D01*
X109205858Y-74101253D01*
X109220000Y-74115395D01*
X109234143Y-74101253D01*
X109413748Y-74280858D01*
M02*
